<?xml version="1.0" encoding="utf-8"?>
<!-- Generator: Adobe Illustrator 19.1.0, SVG Export Plug-In . SVG Version: 6.00 Build 0)  -->
<svg version="1.1" id="Layer_1" xmlns="http://www.w3.org/2000/svg" xmlns:xlink="http://www.w3.org/1999/xlink" x="0px" y="0px"
	 viewBox="0 0 150 38.9" style="enable-background:new 0 0 150 38.9;" xml:space="preserve">
<style type="text/css">
	.st0{fill:#F5F5F5;}
	.st1{fill-rule:evenodd;clip-rule:evenodd;fill:#F5F5F5;}
</style>
<g>
	<path class="st0" d="M30.8,29.1h-5.2V17.3c0-0.3,0-0.6-0.1-1.1c-0.1-0.4-0.2-0.9-0.5-1.3c-0.3-0.4-0.6-0.8-1.1-1.1
		c-0.5-0.3-1.2-0.4-2-0.4c-1.1,0-2.1,0.4-2.8,1.1c-0.7,0.7-1.1,1.6-1.1,2.8v11.8h-5.2V17.3c0-0.3,0-0.6-0.1-1.1
		c-0.1-0.4-0.2-0.9-0.5-1.3c-0.2-0.4-0.6-0.8-1.1-1.1c-0.5-0.3-1.2-0.4-2-0.4c-1.2,0-2.1,0.4-2.8,1.1c-0.7,0.7-1.1,1.6-1.1,2.8v11.8
		H0V17.4c0-1.3,0.2-2.5,0.6-3.6c0.4-1.1,1-2,1.8-2.9c0.8-0.8,1.7-1.4,2.9-1.9c1.1-0.5,2.4-0.7,3.8-0.7c1.4,0,2.6,0.3,3.7,0.8
		c1.1,0.5,2,1.2,2.7,2.1c0.8-0.9,1.7-1.6,2.8-2.1c1.1-0.5,2.3-0.8,3.6-0.8c1.4,0,2.7,0.2,3.8,0.7c1.1,0.4,2,1.1,2.8,1.9
		c0.8,0.8,1.4,1.7,1.8,2.8c0.4,1.1,0.6,2.3,0.6,3.6V29.1L30.8,29.1z"/>
	<path class="st1" d="M43.1,24.8c0.7,0,1.3-0.1,1.9-0.4c0.6-0.3,1.1-0.7,1.6-1.2c0.5-0.5,0.8-1.1,1.1-1.8c0.3-0.7,0.4-1.5,0.4-2.3
		c0-0.9-0.1-1.7-0.4-2.4c-0.3-0.7-0.6-1.4-1.1-1.9c-0.5-0.5-1-0.9-1.6-1.2c-0.6-0.3-1.2-0.4-1.9-0.4c-0.7,0-1.3,0.1-1.9,0.4
		c-0.6,0.3-1.1,0.7-1.6,1.2c-0.4,0.5-0.8,1.1-1.1,1.9c-0.3,0.7-0.4,1.5-0.4,2.4c0,0.9,0.1,1.6,0.4,2.3c0.3,0.7,0.6,1.3,1.1,1.8
		c0.4,0.5,1,0.9,1.6,1.2C41.8,24.7,42.4,24.8,43.1,24.8L43.1,24.8z M43.1,8.4c1.4,0,2.7,0.3,3.9,0.8c1.2,0.5,2.3,1.3,3.2,2.2
		c0.9,1,1.7,2.1,2.2,3.4c0.5,1.3,0.8,2.7,0.8,4.2c0,1.5-0.3,2.9-0.8,4.2c-0.5,1.3-1.3,2.4-2.2,3.3c-0.9,0.9-2,1.7-3.2,2.2
		c-1.2,0.5-2.5,0.8-3.9,0.8c-1.4,0-2.7-0.3-3.9-0.8c-1.2-0.5-2.3-1.3-3.2-2.2c-0.9-0.9-1.6-2-2.2-3.3C33.2,21.9,33,20.5,33,19
		c0-1.5,0.3-2.9,0.8-4.2c0.5-1.3,1.3-2.4,2.2-3.4c0.9-1,2-1.7,3.2-2.2C40.4,8.7,41.7,8.4,43.1,8.4L43.1,8.4z"/>
	<path class="st1" d="M71.3,19.1c0-0.8-0.1-1.6-0.4-2.3c-0.3-0.7-0.6-1.3-1.1-1.8c-0.5-0.5-1-0.9-1.6-1.2c-0.6-0.3-1.3-0.4-2-0.4
		c-0.7,0-1.4,0.1-2,0.4C63.5,14,63,14.4,62.5,15c-0.5,0.5-0.8,1.1-1.1,1.8c-0.3,0.7-0.4,1.5-0.4,2.3c0,0.8,0.1,1.5,0.4,2.2
		c0.3,0.7,0.6,1.3,1.1,1.8c0.5,0.5,1,0.9,1.6,1.2c0.6,0.3,1.3,0.4,2,0.4c0.7,0,1.4-0.1,2-0.4c0.6-0.3,1.2-0.7,1.6-1.2
		c0.5-0.5,0.8-1.1,1.1-1.8C71.2,20.6,71.3,19.9,71.3,19.1L71.3,19.1z M76.5,19c0,1.5-0.3,2.8-0.8,4.1c-0.5,1.3-1.2,2.4-2.1,3.3
		c-0.9,1-2,1.7-3.3,2.3c-1.3,0.5-2.7,0.8-4.2,0.8c-1.5,0-2.9-0.3-4.2-0.8c-1.3-0.5-2.4-1.3-3.3-2.2c-0.9-1-1.6-2.1-2.1-3.3
		c-0.5-1.3-0.8-2.6-0.8-4.1V0H61l0,10.8c0.8-0.8,1.6-1.4,2.6-1.8c1-0.4,2.1-0.6,3.2-0.6c1.3,0,2.6,0.3,3.8,0.8
		c1.2,0.5,2.2,1.3,3,2.3c0.9,1,1.5,2.1,2.1,3.4C76.2,16.2,76.5,17.6,76.5,19L76.5,19z"/>
	<polygon class="st0" points="84.7,29.1 79.5,29.1 79.5,9 84.7,9 84.7,29.1 	"/>
	<polygon class="st0" points="101,29.1 95.4,29.1 87.8,9 93.2,9 98.2,24 103.3,9 108.6,9 101,29.1 	"/>
	<polygon class="st0" points="116.8,29.1 111.7,29.1 111.7,9 116.8,9 116.8,29.1 	"/>
	<path class="st0" d="M129.4,29c-1.5,0.2-2.8,0.1-3.9-0.3c-1.1-0.3-2.1-0.9-2.8-1.6c-0.8-0.8-1.3-1.7-1.7-2.8
		c-0.4-1.1-0.6-2.4-0.6-3.7V3.8h5.2V9h3.6v4.6h-3.6v7.1c0,1.4,0.3,2.4,1,3c0.6,0.6,1.6,0.8,2.9,0.7V29L129.4,29z"/>
	<path class="st0" d="M150,29.9c0,1.4-0.2,2.6-0.6,3.7c-0.4,1.1-1,2.1-1.8,2.9c-0.8,0.8-1.7,1.4-2.8,1.8c-1.1,0.4-2.3,0.6-3.7,0.6
		c-1.1,0-2.1-0.2-3.1-0.5c-1-0.3-1.9-0.8-2.6-1.4c-0.8-0.6-1.4-1.4-1.9-2.2c-0.5-0.9-0.9-1.8-1.1-2.9h5.4c0.2,0.8,0.5,1.3,1.2,1.7
		c0.6,0.4,1.4,0.5,2.2,0.5c0.7,0,1.3-0.1,1.8-0.3c0.5-0.2,0.9-0.5,1.2-0.9c0.3-0.4,0.5-0.8,0.6-1.3c0.1-0.5,0.2-0.9,0.2-1.4v-2.3
		c-0.6,0.5-1.3,0.9-2.1,1.2c-0.8,0.3-1.6,0.4-2.5,0.4c-1.2,0-2.3-0.2-3.4-0.6c-1-0.4-1.9-1-2.6-1.8c-0.7-0.8-1.3-1.7-1.7-2.8
		c-0.4-1.1-0.6-2.3-0.6-3.6V9h5.2v11.8c0,0.3,0,0.7,0.1,1.1c0.1,0.4,0.2,0.9,0.5,1.3c0.3,0.4,0.6,0.8,1.1,1.1c0.5,0.3,1.2,0.4,2,0.4
		c1.2,0,2.1-0.4,2.8-1.1c0.7-0.7,1.1-1.7,1.1-2.8V9h5.2V29.9L150,29.9z"/>
	<path class="st0" d="M86.6,3.1c0-1.4,1.1-2.5,2.5-2.5c1.4,0,2.5,1.1,2.5,2.5c0,1.4-1.1,2.5-2.5,2.5C87.7,5.6,86.6,4.5,86.6,3.1
		L86.6,3.1z"/>
	<path class="st0" d="M79.5,3.1c0-1.4,1.1-2.5,2.5-2.5c1.4,0,2.5,1.1,2.5,2.5c0,1.4-1.1,2.5-2.5,2.5C80.7,5.6,79.5,4.5,79.5,3.1
		L79.5,3.1z"/>
	<path class="st0" d="M104.3,3.1c0-1.4,1.1-2.5,2.5-2.5c1.4,0,2.5,1.1,2.5,2.5c0,1.4-1.1,2.5-2.5,2.5C105.5,5.6,104.3,4.5,104.3,3.1
		L104.3,3.1z"/>
	<path class="st0" d="M111.8,3.1c0-1.4,1.1-2.5,2.5-2.5c1.4,0,2.5,1.1,2.5,2.5c0,1.4-1.1,2.5-2.5,2.5C112.9,5.6,111.8,4.5,111.8,3.1
		L111.8,3.1z"/>
</g>
</svg>
