<?xml version="1.0" encoding="utf-8"?>
<!-- Generator: Adobe Illustrator 19.2.0, SVG Export Plug-In . SVG Version: 6.00 Build 0)  -->
<svg version="1.1" id="Layer_1" xmlns="http://www.w3.org/2000/svg" xmlns:xlink="http://www.w3.org/1999/xlink" x="0px" y="0px"
	 viewBox="0 0 1920 643.2" style="enable-background:new 0 0 1920 643.2;" xml:space="preserve">
<style type="text/css">
	.st0{fill:#46868A;}
	.st1{fill:#929497;}
	.st2{fill:#67493F;}
	.st3{fill:#BD765B;}
	.st4{fill:#A66850;}
	.st5{fill:#C69E7D;}
	.st6{fill:#AC8A6B;}
	.st7{fill:#905B44;}
	.st8{fill:#BA9674;}
	.st9{fill:#A86A51;}
	.st10{fill:#C8A07C;}
	.st11{fill:#AD907E;}
	.st12{fill:#58595B;}
	.st13{fill:#231F20;}
	.st14{opacity:0.5;fill:#231F20;}
	.st15{fill:#DB4140;}
	.st16{fill:#B53433;}
	.st17{fill:#FFD773;}
	.st18{fill:#D1B260;}
	.st19{opacity:0.35;}
	.st20{fill:none;stroke:#231F20;stroke-width:8;stroke-miterlimit:10;}
	.st21{opacity:0.5;}
	.st22{fill:#4F2F22;}
	.st23{fill:#FFFFFF;}
	.st24{font-family:'Times-Roman';}
	.st25{font-size:22.3928px;}
	.st26{letter-spacing:2;}
	.st27{font-size:16.7946px;}
	.st28{letter-spacing:1;}
	.st29{fill:#3B4248;}
	.st30{fill:#E6E7E8;}
	.st31{fill:#FCC79B;}
	.st32{fill:#BA94C4;}
	.st33{fill:#2D2D32;}
	.st34{fill:#88639C;}
	.st35{fill:#2E2E2B;}
	.st36{fill:#467F83;}
	.st37{fill:#569EA4;}
	.st38{fill:#FFC719;}
	.st39{fill:#FFC0AD;}
	.st40{fill:none;}
	.st41{fill:#A3CF65;}
	.st42{fill:#709E40;}
	.st43{fill:#522915;}
	.st44{fill:none;stroke:#709E40;stroke-width:2;stroke-miterlimit:10;}
	.st45{fill:#FFAA2F;}
	.st46{fill:none;stroke:#2E2E2B;stroke-width:3;stroke-miterlimit:10;}
	.st47{fill:#78B0B6;}
	.st48{fill:#452D00;}
	.st49{fill:#532F2B;}
	.st50{fill:#BE654B;}
	.st51{fill:#E6795B;}
	.st52{fill:none;stroke:#D1D3D4;stroke-width:2;stroke-miterlimit:10;}
	.st53{fill:#035D80;}
	.st54{fill:#0790C4;}
	.st55{fill:#D1D3D4;}
	.st56{fill:#FBC331;}
	.st57{fill:#36686B;}
	.st58{fill:#F97D31;}
	.st59{fill:none;stroke:#E67092;stroke-width:2;stroke-miterlimit:10;}
	.st60{fill:#DA3565;}
	.st61{fill:#E67092;}
</style>
<path class="st0" d="M1920,643.2c0,0,1.2-455.1,0-455.5c0,0-82,19.5-82.2,19.5c-0.5,0-84.7-16.5-86.1-16.9
	c0,0-248.3,95.9-248.3,95.9c-0.5-0.2-126.6-28.5-126.6-28.5c-0.1,0-3.7,2.6-9.1,6.4c-15.2,10.7-44.1,31-44.1,31
	c-0.1,0-117.3-70.8-117.3-70.8c0,0-297,128-443.4,191c-61.5-26.6-223-96.4-223.6-96.7c0,0-64.1,13.4-64.2,13.4
	c-0.3,0-58-11.3-58.9-11.6c0,0-170,65.6-170,65.6c-0.3-0.1-86.6-19.5-86.7-19.5c0,0-2.6,1.8-6.2,4.4c-10.4,7.3-30.2,21.2-30.1,21.2
	c-0.1,0-80.3-48.5-80.3-48.5c0,0-43,18.5-43,18.5v280.9C3.2,638.6,1920,643.2,1920,643.2z"/>
<g>
	<rect y="586.4" class="st1" width="1920" height="56.8"/>
	<g>
		<polygon class="st2" points="730.1,98.1 747.5,80.4 747.5,48 344.9,48 344.9,80.4 362.4,97.9 		"/>
		<rect x="298.2" y="108.5" class="st3" width="64" height="479.8"/>
		<rect x="730.1" y="108.5" class="st3" width="64" height="479.8"/>
		<rect x="362.2" y="546.8" class="st4" width="367.8" height="41.4"/>
		<polygon class="st5" points="730.1,64.5 546.2,22.5 362.2,64.5 362.2,251.4 730.1,251.4 		"/>
		<rect x="974.4" y="192.3" class="st6" width="53.7" height="114.9"/>
		<rect x="974.4" y="307.2" class="st7" width="53.7" height="281.1"/>
		<rect x="794.1" y="148.2" class="st8" width="180.3" height="114.9"/>
		<rect x="794.1" y="263" class="st9" width="180.3" height="325.2"/>
		<rect x="117.9" y="148.2" class="st8" width="180.3" height="114.9"/>
		<rect x="117.9" y="263" class="st9" width="180.3" height="325.2"/>
		
			<rect x="794.1" y="523.7" transform="matrix(-1 -1.224647e-16 1.224647e-16 -1 1623.6077 1057.6609)" class="st10" width="35.4" height="10.4"/>
		
			<rect x="939.9" y="523.7" transform="matrix(-1 -1.224647e-16 1.224647e-16 -1 1914.3315 1057.6609)" class="st11" width="34.5" height="10.4"/>
		
			<rect x="262.8" y="523.7" transform="matrix(-1 -1.224647e-16 1.224647e-16 -1 561.0524 1057.6609)" class="st10" width="35.4" height="10.4"/>
		
			<rect x="117.9" y="523.7" transform="matrix(-1 -1.224647e-16 1.224647e-16 -1 270.3284 1057.6609)" class="st10" width="34.5" height="10.4"/>
		
			<rect x="829.5" y="546.8" transform="matrix(-1 -1.224647e-16 1.224647e-16 -1 1769.408 1103.9963)" class="st10" width="110.4" height="10.4"/>
		<g>
			<g>
				<rect x="833.5" y="352.4" class="st12" width="102.4" height="190.5"/>
				<path class="st13" d="M931.9,356.4v182.5h-94.4V356.4H931.9 M939.9,348.4H829.5v198.5h110.4V348.4L939.9,348.4z"/>
			</g>
		</g>
		<g>
			<g>
				<rect x="156.4" y="361.5" class="st12" width="102.4" height="222.8"/>
				<path class="st13" d="M254.8,365.5v214.8h-94.4V365.5H254.8 M262.8,357.5H152.4v230.8h110.4V357.5L262.8,357.5z"/>
			</g>
		</g>
		<g>
			<polygon class="st14" points="829.1,544.2 939.5,544.2 939.5,321.2 826.9,321.2 811.8,389.4 811.8,457.4 829.1,457.4 			"/>
			<polygon class="st14" points="150.2,321.2 135.2,389.4 135.2,457.4 152.4,457.4 152.4,588.2 262.8,588.2 262.8,321.2 			"/>
		</g>
		<g>
			<rect x="829.9" y="321.2" class="st15" width="24.5" height="86.1"/>
			<rect x="829.9" y="389.4" class="st16" width="24.5" height="17.8"/>
			<rect x="858" y="321.2" class="st15" width="24.5" height="86.1"/>
			<rect x="858" y="389.4" class="st16" width="24.5" height="17.8"/>
			<rect x="886" y="321.2" class="st15" width="24.5" height="86.1"/>
			<rect x="886" y="389.4" class="st16" width="24.5" height="17.8"/>
			<rect x="914.1" y="321.2" class="st15" width="24.5" height="86.1"/>
			<rect x="914.1" y="389.4" class="st16" width="24.5" height="17.8"/>
			<rect x="826.4" y="321.2" class="st17" width="3.5" height="68.3"/>
			<rect x="826.4" y="389.4" class="st18" width="3.5" height="17.8"/>
			<rect x="854.5" y="321.2" class="st17" width="3.5" height="68.3"/>
			<path class="st18" d="M854.5,389.4v17.8h0.1c0-0.7,0.6-1.4,1.7-1.4c1.1,0,1.7,0.7,1.7,1.4h0.1v-17.8H854.5z"/>
			<rect x="882.5" y="321.2" class="st17" width="3.5" height="68.3"/>
			<path class="st18" d="M882.5,389.4v17.8h0.1c0-0.7,0.6-1.4,1.7-1.4c1.1,0,1.7,0.7,1.7,1.4h0.1v-17.8H882.5z"/>
			<rect x="910.6" y="321.2" class="st17" width="3.5" height="68.3"/>
			<path class="st18" d="M910.6,389.4v17.8h0.1c0-0.7,0.6-1.4,1.7-1.4c1.1,0,1.7,0.7,1.7,1.4h0.1v-17.8H910.6z"/>
			<rect x="938.6" y="321.2" class="st17" width="3.5" height="68.3"/>
			<rect x="938.6" y="389.4" class="st18" width="3.5" height="17.8"/>
		</g>
		<g>
			<rect x="153.7" y="321.2" class="st15" width="24.5" height="86.1"/>
			<rect x="153.7" y="389.4" class="st16" width="24.5" height="17.8"/>
			<rect x="181.8" y="321.2" class="st15" width="24.5" height="86.1"/>
			<rect x="181.8" y="389.4" class="st16" width="24.5" height="17.8"/>
			<rect x="209.8" y="321.2" class="st15" width="24.5" height="86.1"/>
			<rect x="209.8" y="389.4" class="st16" width="24.5" height="17.8"/>
			<rect x="237.9" y="321.2" class="st15" width="24.5" height="86.1"/>
			<rect x="237.9" y="389.4" class="st16" width="24.5" height="17.8"/>
			<rect x="150.2" y="321.2" class="st17" width="3.5" height="68.3"/>
			<rect x="150.2" y="389.4" class="st18" width="3.5" height="17.8"/>
			<rect x="178.3" y="321.2" class="st17" width="3.5" height="68.3"/>
			<path class="st18" d="M178.3,389.4v17.8h0.1c0-0.7,0.6-1.4,1.7-1.4c1.1,0,1.7,0.7,1.7,1.4h0.1v-17.8H178.3z"/>
			<rect x="206.3" y="321.2" class="st17" width="3.5" height="68.3"/>
			<path class="st18" d="M206.3,389.4v17.8h0.1c0-0.7,0.6-1.4,1.7-1.4c1.1,0,1.7,0.7,1.7,1.4h0.1v-17.8H206.3z"/>
			<rect x="234.4" y="321.2" class="st17" width="3.5" height="68.3"/>
			<path class="st18" d="M234.4,389.4v17.8h0.1c0-0.7,0.6-1.4,1.7-1.4c1.1,0,1.7,0.7,1.7,1.4h0.1v-17.8H234.4z"/>
			<rect x="262.4" y="321.2" class="st17" width="3.5" height="68.3"/>
			<rect x="262.4" y="389.4" class="st18" width="3.5" height="17.8"/>
		</g>
		<g>
			<rect x="366.2" y="255.4" class="st12" width="359.9" height="287.4"/>
			<g>
				<path class="st13" d="M722.1,259.4v279.4H370.2V259.4H722.1 M730.1,251.4H362.2v295.4h367.9V251.4L730.1,251.4z"/>
			</g>
		</g>
		<g class="st19">
			<polygon class="st13" points="724,256.6 368.6,256.6 368.6,542 			"/>
		</g>
		<g>
			<g>
				<line class="st20" x1="364.1" y1="340.8" x2="728.2" y2="340.8"/>
				<line class="st20" x1="364.1" y1="457.4" x2="728.2" y2="457.4"/>
			</g>
			<g>
				<line class="st20" x1="635.6" y1="254.1" x2="635.6" y2="544.1"/>
				<line class="st20" x1="456.7" y1="256.6" x2="456.7" y2="541.9"/>
			</g>
		</g>
		<circle class="st13" cx="236.6" cy="491.2" r="6.2"/>
		<rect x="362.2" y="546.8" class="st10" width="367.9" height="10.4"/>
		
			<rect x="298.2" y="518.5" transform="matrix(-1 -1.224647e-16 1.224647e-16 -1 660.4709 1047.3032)" class="st10" width="64" height="10.4"/>
		
			<rect x="730.1" y="518.5" transform="matrix(-1 -1.224647e-16 1.224647e-16 -1 1524.1891 1047.3032)" class="st10" width="64" height="10.4"/>
		<g id="Chick-Fil-A_Logo_2_">
			<g class="st21">
				<path d="M670.8,130.9c-1.9,0-3.5,1.5-3.5,3.5c0,1.9,1.6,3.5,3.5,3.5c1.9,0,3.5-1.6,3.5-3.5C674.3,132.5,672.7,130.9,670.8,130.9
					z M670.8,137.2c-1.5,0-2.8-1.2-2.8-2.8c0-1.5,1.3-2.8,2.8-2.8c1.5,0,2.8,1.2,2.8,2.8C673.6,135.9,672.3,137.2,670.8,137.2z"/>
				<path d="M671.1,134.2c-0.1,0.1-0.3,0.1-0.6,0.1h-0.4v-1h0.2c0.3,0,0.4,0,0.6,0.1c0.2,0.1,0.3,0.2,0.3,0.4
					C671.3,133.9,671.3,134.1,671.1,134.2z M670.2,135h0.2l0.2,0c0.2,0,0.3,0,0.3,0.1c0.1,0,0.2,0.1,0.3,0.3c0,0.1,0.1,0.2,0.1,0.4
					c0,0.2,0,0.4,0.1,0.5h1l0-0.1c0,0,0-0.1,0-0.1c0,0,0-0.1,0-0.1v-0.3c0-0.4-0.1-0.6-0.3-0.8c-0.1-0.1-0.3-0.2-0.5-0.2
					c0.3,0,0.5-0.1,0.7-0.2c0.2-0.1,0.3-0.4,0.3-0.7c0-0.4-0.2-0.7-0.5-0.9c-0.2-0.1-0.5-0.2-0.8-0.2c-0.1,0-0.3,0-0.8,0
					c-0.5,0-0.8,0-1.1,0v3.6h1V135z"/>
				<path d="M444.7,113.4c-0.1,3.5-4.4,7.8-6.4,4.5c-1.1-2.5,1.7-7.2,4.3-7.2C444.6,110.7,444.7,112.6,444.7,113.4z M478.8,79.7
					c-3.2-4.3-10.2-4.6-17.3,0.6c-7.1,5.3-11.1,13.7-7.9,18.1c3.2,4.3,12.5,2.9,19.6-2.3C480.2,90.9,482,84.1,478.8,79.7z
					 M448.2,68.7c-4.2-0.9-8.6,2.5-10,9.3c-1.5,6.8,0.6,13.9,4.8,14.8c4.2,0.9,9.1-4.7,10.5-11.5C454.9,74.6,452.4,69.6,448.2,68.7z
					 M423.9,75.1c-3.2,1.5-4.3,5.8-2,10.9c2.3,5.1,7.1,8.7,10.3,7.3c3.2-1.5,3.6-7.5,1.2-12.6C431.1,75.6,427.1,73.6,423.9,75.1z
					 M412.2,88.8c-1.6,1.9-1.1,5,1.8,7.6c3,2.5,7.1,3.4,8.7,1.4c1.6-1.9,0.2-5.9-2.8-8.4C417,86.9,413.8,86.9,412.2,88.8z
					 M487.4,138.8c-2,0-3.6,1.6-3.6,3.6s1.6,3.6,3.6,3.6c2,0,3.6-1.6,3.6-3.6S489.4,138.8,487.4,138.8z M552.3,156.9
					c4.4,0,6.1-1.7,6.1-3.5c0-2.3-2.7-3.3-6.1-3.3c-3.4,0-5.9,1.3-5.9,3.3C546.4,155.1,547.9,156.9,552.3,156.9z M635.3,156.9
					c4.4,0,6.1-1.7,6.1-3.5c0-2.2-2.7-3.3-6.1-3.3c-3.4,0-5.9,1.3-5.9,3.3C629.5,155.1,631,156.9,635.3,156.9z M596.8,135.4
					c-1.9,0-3.4,1.5-3.4,3.4c0,1.9,1.5,3.4,3.4,3.4c1.9,0,3.4-1.5,3.4-3.4C600.2,136.9,598.7,135.4,596.8,135.4z M628.4,164.3
					c-0.6,2.3-3.6,8.9-11.3,9H617c-3.6,0.1-7-1.7-9.6-4.8c-3.6,2.3-7.1,3.4-9.6,3c-5.4-0.8-7-5.1-7.5-7.9c-3.1,3.7-7.2,5.4-11.2,5.8
					c1.4,2.8,2.1,6.1,2.1,9.1c0,4.8-2.8,9.6-7.8,9.6c-7,0-11.2-9.8-11.7-19.4c-1.2,0.4-3.2,0.8-4.1-1.1c-1.1-2.3,1.6-4.4,4-5.7
					c0.4-19,8.7-32.5,17.8-32.5c3,0,6.7,1.8,6.7,7.4c0,5.8-3.4,13.2-9,19.9c-0.8,0.9-2.5,2.7-4.5,4.5c7.9,5.6,12.7-0.4,14.6-4.1
					c0.5-1,0.9-2,1.2-2.8c1.1-3.2,0.8-2.4,1.9-5.6c1.5-4.5,3.9-4.3,5-4.1c3.9,0.7,1.6,5,0.6,8.8l0,0.1c-1.5,6.5-0.8,11.7,3.3,12.5
					c1.3,0.2,3.5-0.6,5.8-2.2c-5.4-13.9,2.8-30.3,11.3-31.9c2.8-0.5,6.5,0.5,7.5,5.5c1,5.3-1,12.6-5,19.5c-0.9,1.6-3.6,5.1-6.7,7.8
					c0,0,0,0.1,0,0.1c2.4,3.1,5.4,3,5.4,3c4.5,0,5.8-3.4,6.3-4.8c0.6-1.6,1.9-2.2,3.3-1.7C628.6,161.7,628.7,163.2,628.4,164.3z
					 M677,177.2c-4.8-0.2-9.7-3.7-14.1-8.7c-7.8,1.8-15.7,2.1-21.3,2.1c-4.6,4.7-9,8.7-12.1,10.9c0,0-4.2,3.2-6.3,0.5
					c-1.2-1.8-0.6-3.8,2.7-5.9c2.1-1.3,4.7-3.4,7.5-6c-4.8-1.3-3.6-6.2,1.1-5.6c0.3,0,1.9,0.3,4.2,0.4c4.6-4.8,9.3-10.3,12.9-15.3
					c-1.7-4.4-2.7-8.6-2.7-11.9c0-4.3,2.5-9.2,7.5-9.2c4.9,0,7.4,4.1,7.4,8.2c0,3.6-2.2,8.4-5.5,13.6c1.9,4.1,4.4,8.3,7.1,11.9
					c3-1,5.9-2.2,8.7-3.9c3.7-2.2,6.9,2.1,3,4.8c-2.4,1.5-5,2.7-7.7,3.6c2.9,2.8,5.9,4.6,8.8,4.9C683.3,171.9,683.5,177.7,677,177.2
					z M469.1,120.4c0-2.5-6.8-7.1-11.6-7.6c0.1,1.3,0,2.7,0,4.1c-0.2,3.4-0.7,6.8-1.5,10.1C464.8,121,469.1,122.7,469.1,120.4z
					 M546.9,164.9c-2.9,0.2-3.5,6.5-9.3,6.8c-3.9,0.2-5.7-4.4-5.7-4.4s11.1-4.9,11-15.3c-0.2-3-1.8-7.8-7.6-7.8
					c-2.5,0-5.4,1.6-7,3.3c0.6-2.8,1.1-6.5,1.4-11.4c0.2-3.2-2.2-3.5-3.1-3.5c-0.7,0-2.7,0.5-3,3.4c-0.9,9.7-1,11.2-1.9,17.3
					c-1.5,11.4-9.9,15.3-15.3,15c-2.3-0.1-5.9-1.3-5.9-7.3c0-6.4,4.3-11.2,6.5-10.9c1.6,0.2,2.4,1.8,1,4.1c-1.1,1.9-2.3,4.5,0.6,5.6
					c3.5,1.1,6.1-3.7,6.2-8.2c0-3.5-2.3-7.6-8-7.9c-6-0.3-13.1,7.5-13.1,17.9c0,0.9,0.1,1.7,0.2,2.5c-0.4,2.4-2.5,4.8-4.6,4.8
					c-2.3,0-4.2-3.2-4-7.4c0.3-4.2,1.6-7.1,2.2-8.8c1.2-3.5-0.2-4.2-1.9-4.5c-1.3-0.2-3.4,0.1-4.5,3.6c-1,3.2-2.3,7.5-3.4,10.7
					c-0.7,2-1.6,4.2-2.8,5.8c-1,1.1-2.1,1.8-3.2,1.8c-3.7,0-0.6-7.1-0.6-12c0-1.4-1.1-3.9-4.8-3.2c4.1-5.8,6.1-10.7,6-15.8
					c-0.2-5.6-4.4-7.2-7.5-7.1c-8.4,0.2-12.7,9.3-14.3,30.7c-7.5,7.1-16.7,11.4-25.4,10.7c-12.4-1-18.7-13.1-17.9-27.6
					c1.2-20.3,17.3-44.8,32.6-43.3c5.4,0.5,9.1,5.3,8.5,15.5c-0.7,11.9-9.3,29.2-18.3,28.7c-4.2-0.2-5.5-4.5-5.2-8.3
					c0.7-8.2,4.9-10.4,5.1-13.8c0.2-2-1.8-2.8-3.3-2.3c-2.5,0.8-7.6,7-8.2,15.9c-0.7,10.8,6.4,14.2,10.7,14.5
					c12.6,0.7,24.8-16.8,25.9-35.2c0.7-11.9-4.5-19.6-14.4-20.7c-19.2-2.1-39.3,23-40.3,49.2c-0.6,15.7,7,32.1,24.7,33.4
					c8.5,0.5,17.3-2.8,25.1-8.7c0,1.3,0,2.5,0,3.4c0.1,2.2,0.9,4.1,3.3,4c2.3-0.1,2.9-1.7,2.9-3.7c0-1.2,0-2.3,0-3.4
					c0.5-9.6,5.3-10.9,7.2-10.6c2.7,0.6,0.5,3,0.8,9.8c0.2,4.9,4.2,6.2,6.1,6.2c4.4,0,8.2-3.2,10.4-7.8l0.1-0.1
					c1.9,4.8,5.2,6.5,7.8,6.5c3.1,0,6-2.2,7.8-4.7c2.5,3.1,6.1,4.5,8.9,4.6c5.5,0.3,10.2-2.3,13.8-5.6c-0.4,2.7-0.9,6.2-0.9,6.8
					c0,1.6,0.7,2.7,2.3,2.9c2.6,0.3,4.5-1.4,5.3-9.9c0,0,3.6,8.3,11.7,8.3c8.1,0,11.6-7.7,11.6-10.1
					C549.2,166.4,548.9,164.7,546.9,164.9z M567.9,158.2c7.2-6.7,12.8-16.4,12.7-21.5c0-1-0.2-1.9-1.2-1.9
					C577.2,134.9,569.8,142,567.9,158.2z M573.4,168.9c-2.5-0.8-4.6-2.1-5.8-3.5c-0.1,0.1-0.2,0.1-0.3,0.2c0,0.1,0,0.2-0.1,0.3
					c-0.1,8.7,3.1,16.8,6.6,16.4C577.6,181.7,575.9,174.2,573.4,168.9z M609.9,159.8c6.3-7,9.6-17.4,8.8-21.7
					c-0.2-0.9-0.5-1.6-1.5-1.5C614.3,137,607.4,149.7,609.9,159.8z M655.6,143.3c1.5-2.6,2.4-4.9,2.5-6.6c0.1-1-0.1-2.7-1.5-2.7
					C653.9,134,653.9,138,655.6,143.3z M659.2,163.7c-1.8-2.5-3.4-5.2-4.8-7.9c-2.3,3.1-4.9,6.3-7.6,9.3
					C650.6,164.9,654.8,164.6,659.2,163.7z M462.5,151c-1.5,2.1-3.3,4.4-5.5,7c0.1-1,0.2-2,0.4-3c1.8-13.7,4.5-18.3,8-17.7
					c1.1,0.2,1.6,1.4,1.6,2.3C467.2,142.5,465.8,146.2,462.5,151z M534.2,149.8c2.3,0,2.8,2.2,2.7,3.4c-0.5,5-7.7,9.1-9.5,9.3
					C528.5,152.2,531.7,150,534.2,149.8z"/>
			</g>
			<g>
				<g>
					<g>
						<path class="st15" d="M675.8,125.9c-1.9,0-3.5,1.5-3.5,3.5c0,1.9,1.6,3.5,3.5,3.5c1.9,0,3.5-1.6,3.5-3.5
							C679.3,127.5,677.7,125.9,675.8,125.9z M675.8,132.2c-1.5,0-2.8-1.2-2.8-2.8c0-1.5,1.3-2.8,2.8-2.8c1.5,0,2.8,1.2,2.8,2.8
							C678.6,130.9,677.3,132.2,675.8,132.2z"/>
						<path class="st15" d="M676.1,129.2c-0.1,0.1-0.3,0.1-0.6,0.1h-0.4v-1h0.2c0.3,0,0.4,0,0.6,0.1c0.2,0.1,0.3,0.2,0.3,0.4
							C676.3,128.9,676.3,129.1,676.1,129.2z M675.2,130h0.2l0.2,0c0.2,0,0.3,0,0.3,0.1c0.1,0,0.2,0.1,0.3,0.3
							c0,0.1,0.1,0.2,0.1,0.4c0,0.2,0,0.4,0.1,0.5h1l0-0.1c0,0,0-0.1,0-0.1c0,0,0-0.1,0-0.1v-0.3c0-0.4-0.1-0.6-0.3-0.8
							c-0.1-0.1-0.3-0.2-0.5-0.2c0.3,0,0.5-0.1,0.7-0.2c0.2-0.1,0.3-0.4,0.3-0.7c0-0.4-0.2-0.7-0.5-0.9c-0.2-0.1-0.5-0.2-0.8-0.2
							c-0.1,0-0.3,0-0.8,0c-0.5,0-0.8,0-1.1,0v3.6h1V130z"/>
					</g>
					<path class="st15" d="M449.7,108.4c-0.1,3.5-4.4,7.8-6.4,4.5c-1.1-2.5,1.7-7.2,4.3-7.2C449.6,105.7,449.7,107.6,449.7,108.4z
						 M483.8,74.7c-3.2-4.3-10.2-4.6-17.3,0.6c-7.1,5.3-11.1,13.7-7.9,18.1c3.2,4.3,12.5,2.9,19.6-2.3
						C485.2,85.9,487,79.1,483.8,74.7z M453.2,63.7c-4.2-0.9-8.6,2.5-10,9.3c-1.5,6.8,0.6,13.9,4.8,14.8c4.2,0.9,9.1-4.7,10.5-11.5
						C459.9,69.6,457.4,64.6,453.2,63.7z M428.9,70.1c-3.2,1.5-4.3,5.8-2,10.9c2.3,5.1,7.1,8.7,10.3,7.3c3.2-1.5,3.6-7.5,1.2-12.6
						C436.1,70.6,432.1,68.6,428.9,70.1z M417.2,83.8c-1.6,1.9-1.1,5,1.8,7.6c3,2.5,7.1,3.4,8.7,1.4c1.6-1.9,0.2-5.9-2.8-8.4
						C422,81.9,418.8,81.9,417.2,83.8z M492.4,133.8c-2,0-3.6,1.6-3.6,3.6s1.6,3.6,3.6,3.6c2,0,3.6-1.6,3.6-3.6
						S494.4,133.8,492.4,133.8z M557.3,151.9c4.4,0,6.1-1.7,6.1-3.5c0-2.3-2.7-3.3-6.1-3.3c-3.4,0-5.9,1.3-5.9,3.3
						C551.4,150.1,552.9,151.9,557.3,151.9z M640.3,151.9c4.4,0,6.1-1.7,6.1-3.5c0-2.2-2.7-3.3-6.1-3.3c-3.4,0-5.9,1.3-5.9,3.3
						C634.5,150.1,636,151.9,640.3,151.9z M601.8,130.4c-1.9,0-3.4,1.5-3.4,3.4c0,1.9,1.5,3.4,3.4,3.4c1.9,0,3.4-1.5,3.4-3.4
						C605.2,131.9,603.7,130.4,601.8,130.4z M633.4,159.3c-0.6,2.3-3.6,8.9-11.3,9H622c-3.6,0.1-7-1.7-9.6-4.8
						c-3.6,2.3-7.1,3.4-9.6,3c-5.4-0.8-7-5.1-7.5-7.9c-3.1,3.7-7.2,5.4-11.2,5.8c1.4,2.8,2.1,6.1,2.1,9.1c0,4.8-2.8,9.6-7.8,9.6
						c-7,0-11.2-9.8-11.7-19.4c-1.2,0.4-3.2,0.8-4.1-1.1c-1.1-2.3,1.6-4.4,4-5.7c0.4-19,8.7-32.5,17.8-32.5c3,0,6.7,1.8,6.7,7.4
						c0,5.8-3.4,13.2-9,19.9c-0.8,0.9-2.5,2.7-4.5,4.5c7.9,5.6,12.7-0.4,14.6-4.1c0.5-1,0.9-2,1.2-2.8c1.1-3.2,0.8-2.4,1.9-5.6
						c1.5-4.5,3.9-4.3,5-4.1c3.9,0.7,1.6,5,0.6,8.8l0,0.1c-1.5,6.5-0.8,11.7,3.3,12.5c1.3,0.2,3.5-0.6,5.8-2.2
						c-5.4-13.9,2.8-30.3,11.3-31.9c2.8-0.5,6.5,0.5,7.5,5.5c1,5.3-1,12.6-5,19.5c-0.9,1.6-3.6,5.1-6.7,7.8c0,0,0,0.1,0,0.1
						c2.4,3.1,5.4,3,5.4,3c4.5,0,5.8-3.4,6.3-4.8c0.6-1.6,1.9-2.2,3.3-1.7C633.6,156.7,633.7,158.2,633.4,159.3z M682,172.2
						c-4.8-0.2-9.7-3.7-14.1-8.7c-7.8,1.8-15.7,2.1-21.3,2.1c-4.6,4.7-9,8.7-12.1,10.9c0,0-4.2,3.2-6.3,0.5
						c-1.2-1.8-0.6-3.8,2.7-5.9c2.1-1.3,4.7-3.4,7.5-6c-4.8-1.3-3.6-6.2,1.1-5.6c0.3,0,1.9,0.3,4.2,0.4c4.6-4.8,9.3-10.3,12.9-15.3
						c-1.7-4.4-2.7-8.6-2.7-11.9c0-4.3,2.5-9.2,7.5-9.2c4.9,0,7.4,4.1,7.4,8.2c0,3.6-2.2,8.4-5.5,13.6c1.9,4.1,4.4,8.3,7.1,11.9
						c3-1,5.9-2.2,8.7-3.9c3.7-2.2,6.9,2.1,3,4.8c-2.4,1.5-5,2.7-7.7,3.6c2.9,2.8,5.9,4.6,8.8,4.9
						C688.3,166.9,688.5,172.7,682,172.2z M474.1,115.4c0-2.5-6.8-7.1-11.6-7.6c0.1,1.3,0,2.7,0,4.1c-0.2,3.4-0.7,6.8-1.5,10.1
						C469.8,116,474.1,117.7,474.1,115.4z M551.9,159.9c-2.9,0.2-3.5,6.5-9.3,6.8c-3.9,0.2-5.7-4.4-5.7-4.4s11.1-4.9,11-15.3
						c-0.2-3-1.8-7.8-7.6-7.8c-2.5,0-5.4,1.6-7,3.3c0.6-2.8,1.1-6.5,1.4-11.4c0.2-3.2-2.2-3.5-3.1-3.5c-0.7,0-2.7,0.5-3,3.4
						c-0.9,9.7-1,11.2-1.9,17.3c-1.5,11.4-9.9,15.3-15.3,15c-2.3-0.1-5.9-1.3-5.9-7.3c0-6.4,4.3-11.2,6.5-10.9
						c1.6,0.2,2.4,1.8,1,4.1c-1.1,1.9-2.3,4.5,0.6,5.6c3.5,1.1,6.1-3.7,6.2-8.2c0-3.5-2.3-7.6-8-7.9c-6-0.3-13.1,7.5-13.1,17.9
						c0,0.9,0.1,1.7,0.2,2.5c-0.4,2.4-2.5,4.8-4.6,4.8c-2.3,0-4.2-3.2-4-7.4c0.3-4.2,1.6-7.1,2.2-8.8c1.2-3.5-0.2-4.2-1.9-4.5
						c-1.3-0.2-3.4,0.1-4.5,3.6c-1,3.2-2.3,7.5-3.4,10.7c-0.7,2-1.6,4.2-2.8,5.8c-1,1.1-2.1,1.8-3.2,1.8c-3.7,0-0.6-7.1-0.6-12
						c0-1.4-1.1-3.9-4.8-3.2c4.1-5.8,6.1-10.7,6-15.8c-0.2-5.6-4.4-7.2-7.5-7.1c-8.4,0.2-12.7,9.3-14.3,30.7
						c-7.5,7.1-16.7,11.4-25.4,10.7c-12.4-1-18.7-13.1-17.9-27.6c1.2-20.3,17.3-44.8,32.6-43.3c5.4,0.5,9.1,5.3,8.5,15.5
						c-0.7,11.9-9.3,29.2-18.3,28.7c-4.2-0.2-5.5-4.5-5.2-8.3c0.7-8.2,4.9-10.4,5.1-13.8c0.2-2-1.8-2.8-3.3-2.3
						c-2.5,0.8-7.6,7-8.2,15.9c-0.7,10.8,6.4,14.2,10.7,14.5c12.6,0.7,24.8-16.8,25.9-35.2c0.7-11.9-4.5-19.6-14.4-20.7
						c-19.2-2.1-39.3,23-40.3,49.2c-0.6,15.7,7,32.1,24.7,33.4c8.5,0.5,17.3-2.8,25.1-8.7c0,1.3,0,2.5,0,3.4c0.1,2.2,0.9,4.1,3.3,4
						c2.3-0.1,2.9-1.7,2.9-3.7c0-1.2,0-2.3,0-3.4c0.5-9.6,5.3-10.9,7.2-10.6c2.7,0.6,0.5,3,0.8,9.8c0.2,4.9,4.2,6.2,6.1,6.2
						c4.4,0,8.2-3.2,10.4-7.8l0.1-0.1c1.9,4.8,5.2,6.5,7.8,6.5c3.1,0,6-2.2,7.8-4.7c2.5,3.1,6.1,4.5,8.9,4.6
						c5.5,0.3,10.2-2.3,13.8-5.6c-0.4,2.7-0.9,6.2-0.9,6.8c0,1.6,0.7,2.7,2.3,2.9c2.6,0.3,4.5-1.4,5.3-9.9c0,0,3.6,8.3,11.7,8.3
						c8.1,0,11.6-7.7,11.6-10.1C554.2,161.4,553.9,159.7,551.9,159.9z M572.9,153.2c7.2-6.7,12.8-16.4,12.7-21.5
						c0-1-0.2-1.9-1.2-1.9C582.2,129.9,574.8,137,572.9,153.2z M578.4,163.9c-2.5-0.8-4.6-2.1-5.8-3.5c-0.1,0.1-0.2,0.1-0.3,0.2
						c0,0.1,0,0.2-0.1,0.3c-0.1,8.7,3.1,16.8,6.6,16.4C582.6,176.7,580.9,169.2,578.4,163.9z M614.9,154.8c6.3-7,9.6-17.4,8.8-21.7
						c-0.2-0.9-0.5-1.6-1.5-1.5C619.3,132,612.4,144.7,614.9,154.8z M660.6,138.3c1.5-2.6,2.4-4.9,2.5-6.6c0.1-1-0.1-2.7-1.5-2.7
						C658.9,129,658.9,133,660.6,138.3z M664.2,158.7c-1.8-2.5-3.4-5.2-4.8-7.9c-2.3,3.1-4.9,6.3-7.6,9.3
						C655.6,159.9,659.8,159.6,664.2,158.7z M467.5,146c-1.5,2.1-3.3,4.4-5.5,7c0.1-1,0.2-2,0.4-3c1.8-13.7,4.5-18.3,8-17.7
						c1.1,0.2,1.6,1.4,1.6,2.3C472.2,137.5,470.8,141.2,467.5,146z M539.2,144.8c2.3,0,2.8,2.2,2.7,3.4c-0.5,5-7.7,9.1-9.5,9.3
						C533.5,147.2,536.7,145,539.2,144.8z"/>
				</g>
			</g>
		</g>
		<polygon class="st14" points="362.2,76.4 546.2,34.4 730.1,76.4 730.1,98.1 546.2,61 362.2,98.1 		"/>
		<polygon class="st22" points="117.9,148.2 110,140.2 110,134.8 298.2,134.8 298.2,148.2 		"/>
		<polygon class="st22" points="974.4,148.2 982.3,140.2 982.3,134.8 794.1,134.8 794.1,148.2 		"/>
		<path class="st22" d="M794.1,108.5l5.6-5.6c0,0,2.3-4.8,0-4.8s-69.7,0-69.7,0v10.4H794.1z"/>
		<path class="st22" d="M298.2,108.5l-5.6-5.6c0,0-2.3-4.8,0-4.8c2.3,0,69.7,0,69.7,0v10.4H298.2z"/>
		<polygon class="st6" points="546.2,2 344.9,48 344.9,80.4 546.2,34.4 747.5,80.4 747.5,48 		"/>
		<rect x="416.4" y="226.5" class="st13" width="259.6" height="25"/>
		<polygon class="st14" points="676,251.4 672.3,265.2 411.1,265.2 411.1,236.3 398,236.3 398,207.8 404.8,189.2 676,226.5 		"/>
		<rect x="404.8" y="189.2" class="st15" width="282.7" height="37.3"/>
		<text transform="matrix(1 0 0 1 454.0596 216.0928)" class="st23 st24 st25 st26">THE ORIGINAL</text>
		<text transform="matrix(1 0 0 1 448.0591 244.7842)" class="st23 st24 st27 st28">CHICKEN SANDWICH</text>
		<polygon class="st14" points="227.1,222.7 228.6,216.1 228.6,188.1 186.6,188.1 182.5,199.1 182.5,222.7 		"/>
		<rect x="186.6" y="188.1" class="st29" width="42" height="28"/>
		<polygon class="st14" points="903.7,226.2 905.3,219.6 905.3,191.6 863.3,191.6 859.2,202.6 859.2,226.2 		"/>
		<rect x="863.3" y="191.6" class="st29" width="42" height="28"/>
		<polygon class="st14" points="776.1,209 774.3,216.1 743.9,216.1 743.9,183.2 748.1,167 776.1,167 		"/>
		
			<rect x="741.1" y="174" transform="matrix(4.486082e-11 1 -1 4.486082e-11 950.1273 -574.0618)" class="st29" width="42" height="28"/>
		<polygon class="st14" points="344.2,209.1 342.4,216.1 312,216.1 312,183.2 316.2,167.1 344.2,167.1 		"/>
		
			<rect x="309.2" y="174" transform="matrix(4.486082e-11 1 -1 4.486082e-11 518.2682 -142.2027)" class="st29" width="42" height="28"/>
		<rect x="117.9" y="148.2" class="st9" width="180.3" height="11.9"/>
		<rect x="794.1" y="148.2" class="st9" width="180.3" height="11.9"/>
		<polygon class="st14" points="747.5,98.1 730.1,191.6 730.1,98.1 		"/>
		<polygon class="st14" points="339.3,108.5 319.4,340.3 319.4,588.2 362.2,588.2 362.2,108.5 		"/>
	</g>
	<g>
		<g>
			<g>
				<path class="st30" d="M705.9,431.1c0.1-0.4,0.3-0.7,0.5-1.1c0.8-1.8,2.8-3.7,5.5-4.8c2.6-1.2,5.7-1.4,8.7,0.2
					c2,0,4.1,0.7,5.9,2.2c1.6,1.4,4,4,4,9.5c0,5.5-5.1,10.2-6.3,11.3l0,0c-0.1-0.9-0.3-3-0.8-3.8c-0.3-0.5-0.7-1-1.1-1.4
					c0.6-0.1,1.5-0.6,1.3-2.9c-0.2-3.3-2.9-1.1-2.9-1.1c-0.1,0-0.6,1.8-0.7,1.8c-0.5,0-1.1-2.2-1.1-2.2l-4.7-6.1
					c-0.7,0-3.9,0.1-5.4,1c-1.7,1-1.7,3.3-1.7,3.3c0.1,0.7,0.2,1.4,0.2,2.1c0,3.5-1.3,5-1.1,5.4c0.3,0.4,2,0.7,2,0.7
					s-0.1,1.3-0.4,1.9c-0.3,0.6,0.8,0.9,0.8,0.9s-0.6,1.3,0.2,1.5c0,0,0,0.7,0.1,1.5c-1,0.5-1.9,0.8-1.9,0.8s-1.2-2.9-2-10.4
					C704.8,438.8,704.4,435,705.9,431.1z"/>
				<path class="st31" d="M708.6,448.1c0,0-1.1-0.3-0.8-0.9c0.3-0.6,0.4-1.9,0.4-1.9s-1.7-0.3-2-0.7c-0.3-0.4,1-2,1.1-5.4
					c0-0.6-0.1-1.3-0.2-2.1c0,0,0-2.2,1.7-3.3c1.5-0.9,4.7-1,5.4-1l4.7,6.1c0,0,0.5,2.3,1.1,2.2c0.1,0,0.7-1.9,0.7-1.8
					c0,0,2.7-2.2,2.9,1.1c0.2,2.3-0.8,2.8-1.3,2.9c0.4,0.4,0.8,0.9,1.1,1.4c0.5,0.8,0.7,2.9,0.8,3.8c-0.1,0.1-0.2,0.2-0.3,0.4
					c-3.2,4,0.8,9.2,0.8,9.2l-9.7,3.5c0,0,3.1-11.3-0.3-10.2c-4,1.3-5.6,1-5.7,0.1c0-0.1,0-0.2,0-0.3c-0.1-0.8-0.1-1.5-0.1-1.5
					C708,449.3,708.6,448.1,708.6,448.1z"/>
				<path class="st31" d="M700.7,525.3c1.5-2.4,3-6.9,4.3-9.8c0.2-0.4,0.3-0.7,0.5-1l-0.1,0.9l4.4-1.2c0.3,6.2-2.8,9.4-3.1,8.9
					c-0.3-0.6,1.1-4,1.1-4c-0.4,1.4-3.5,5-4.7,6.2C701.4,526.6,699.7,526.8,700.7,525.3z"/>
				<polygon class="st32" points="705.4,514.4 712.4,471.7 713.1,469.5 721.7,470.5 710.3,513.9 709.6,514.1 705.2,515.3 				"/>
				<path class="st33" d="M693.3,597.4c3.1,1,4.5-3,5.1-5.8l6.6,0.9l-0.2,10.7l-2,0.1l-0.3-6.6c0,0-2,6.1-3.6,6.4
					c-1.6,0.3-7.1-1.5-8.9-2.5C688.3,599.4,690.6,596.5,693.3,597.4z"/>
				<path class="st33" d="M739.8,599.1l-1.7,0.9l-3.2-5.8c0,0,0.9,6.4-0.4,7.3c-1.3,0.9-7.1,1.8-9.1,1.7c-2-0.1-1.2-3.8,1.6-4.2
					c3.8-0.6,2.4-6.4,1.6-8.9l6.3-1.7L739.8,599.1z"/>
				<path class="st12" d="M722.9,524.4c1.4-0.9,2.6-1.8,3.7-2.7C724,527,726,549,726,549l9.2,39.4l-0.4,0.1l-6.3,1.7l-0.2,0.1
					c0,0-9.3-30.5-10.8-38.8c-0.5-2.6-1.4-7.2-2.4-12.3C717.5,532.9,720.6,525.9,722.9,524.4z"/>
				<path class="st1" d="M698.1,591.5c0,0,2.9-34.4,4.6-42.6c1.5-7.2,6.1-30.7,6.9-33.5c0.4-1.4,0.7-2.7,0.9-4
					c10.3,3.5,19.8-1.7,19.8-1.7c0-0.1,0-0.1,0-0.2c1.1,5.5-0.4,9.1-3.8,12.2c-1.1,0.9-2.3,1.8-3.7,2.7c-2.3,1.5-5.4,8.5-7.7,14.8
					c-2.1,5.6-3.7,10.6-3.7,10.6l-6.4,42.6l-0.1,0l-6.6-0.9L698.1,591.5z"/>
				<path class="st34" d="M710.6,511.3c-0.2-0.1-0.4-0.1-0.6-0.2c-0.4-2.2,0-13.5,0.4-24.2c0.3-6.3-1.3-5.5-2.4-8.6
					c-2.1-6.5,7-16.8,7-16.8s7.3-4.9,8.9-4.7c2.8,0.3,6.5,1.7,5.2,18.3c-0.8,9.3,1.1,26.8,1.4,34.4c0,0.1,0,0.1,0,0.2
					C730.4,509.7,720.9,514.9,710.6,511.3z"/>
				<polygon class="st33" points="719,534.2 733,523.2 733,537.2 705,537.2 705,523.2 				"/>
				<polygon class="st30" points="705.5,523.2 705.5,523.2 705.5,523.2 733,523.2 733,523.2 733,523.2 719.3,534.2 				"/>
				<path class="st31" d="M710.9,530.2c0.5-1.4,1.7-3.2,2.4-4.1l4.7,1.4c-0.1,1.2-0.4,3.8-1.7,7.1c-1.3,3.3-3.3,5.3-4.8,4.5
					c-1.2-0.7-0.1-6.7-0.1-6.7S710.2,532.1,710.9,530.2z"/>
				<path class="st32" d="M712.9,526l6-28.6c0,0-3.8-27.8,0.6-36.7c1.3-2.6,5.4-4,7.6,0.2c1.5,2.9,1,17-2.1,38.5
					c-1.4,9.5-4.2,17.3-6.9,28.2l-0.2-0.1l-4.7-1.4L712.9,526z"/>
			</g>
			<path class="st31" d="M593.4,517.8c0.3,0.1,0.6,0.2,1,0.3c0.1,1.2,0.2,2.4,0.4,3.7c0.1,0.6,0.4,2.1,0.8,4.2
				c-0.5,2.8-1.1,6.2-1.7,9.6c-1.6-0.7-2.1-6.2-1.5-11.8c0.2-1.9,0.5-6.2,1-11.4C593.3,515.4,593.3,517.4,593.4,517.8z"/>
			<path class="st35" d="M619.9,594.6c0.5,0.6,1.1,1.6,1.5,3.2c0.9,3.5,1.1,3.5-0.5,4.3c-1.6,0.8-4.7,1.7-9.1,2.2
				c-4,0.5-8.6,0.9-10.9-0.1c-0.8-0.3-0.8-1.4-0.5-2.6c0.3-1.2,5.6-1.1,7.6-2.3c1.1-0.6,2.3-1.7,3.2-2.6c0,0.1,0,0.2,0.1,0.3
				L619.9,594.6z"/>
			<path class="st35" d="M576.4,597.5c0.5-1.2,5.7-0.4,7.8-1.3c1.4-0.6,3.4-2.5,4.6-3.6l8.2,0.6c0.3,0.7,0.5,1.6,0.7,3
				c0.5,3.5,0.7,3.5-1,4.1c-1.7,0.6-4.9,1.1-9.3,1.2c-4.1,0-8.7,0-10.8-1.3C575.8,599.7,575.9,598.7,576.4,597.5z"/>
			<path class="st36" d="M588.2,592.5c0,0,0.9-31.2,2.5-39.6c0.6-3.4,1.9-10.5,3.1-17.3c0.6-3.4,1.2-6.8,1.7-9.6
				c1.5,7.4,4.7,21.9,5.9,28.3l-4.2,38.9l-0.3,0l-8.2-0.6L588.2,592.5z"/>
			<path class="st37" d="M595.5,526c-0.4-2.1-0.7-3.6-0.8-4.2c-0.2-1.2-0.3-2.5-0.4-3.7c9.2,2.9,19-0.3,21.8-1.3
				c-0.3,2.3-1,5.1-2.7,8.1c-1,1.8-0.2,27.9-0.2,27.9l6.7,41.7l0,0l-8.7,2.5c0-0.1,0-0.2-0.1-0.3c-6.8-25.3-7.6-31.6-9.6-41.7
				c-0.1-0.3-0.1-0.6-0.2-0.9C600.2,547.9,597,533.4,595.5,526z"/>
			<path class="st31" d="M600.3,463.4c0.1-1.3,0.1-3.1,0.2-4.5c0.1-1.1,0.4-1.5,0.4-2.4c0-1.6-0.3-2.7-1.1-2.5
				c-4.3,1.2-6.5,0.5-6.6-0.4c-0.1-0.9,0.1-2.1,0.1-2.1c-0.9-0.6,0.1-1.3,0.1-1.3s-1.1-0.6-0.7-1.2c0.4-0.6,0.3-1.6,0.3-1.6
				s-2,0.8-2.4-0.2c-0.2-0.5,0.9-3,1.5-6c0.4-1.9-0.4-4.4,0.5-6.6c0.9-0.1,2.1-0.3,3.1-0.4c2.6-0.1,6,0.8,6.3,3.2
				c0.6,4.3,3,4.8,4.1,5.6c0,0,1-1.9,2.6-1.2c1.8,0.8-0.3,5.5-0.3,5.5l2.4,4.3c0,0,0,0,0,0c-0.5,2.8,0.1,6.9,0.4,9.1
				C610.7,460.9,600.3,463.4,600.3,463.4C600.3,463.4,600.3,463.4,600.3,463.4z"/>
			<path class="st38" d="M611.5,460.7c-0.1,0-0.2-0.1-0.3-0.1C611.3,460.7,611.4,460.7,611.5,460.7z"/>
			<path class="st38" d="M599.6,464.7c-0.1,0.3-0.3,0.5-0.4,0.8C599.4,465.2,599.5,465,599.6,464.7z"/>
			<path class="st1" d="M594.3,518.1c-0.3-0.1-0.6-0.2-1-0.3c-0.1-0.4-0.1-2.4-0.1-5.4c0.1-5.7,0.4-14.8,1.2-22.7
				c0.9-8.1,1.4-16.5,4.6-23.9c-0.1,0.2-0.2,0.5-0.3,0.7c1.8-0.8,3.6-1.4,5.2-2c2.5-1,5-2.1,7.6-3c0,0,0-0.1,0-0.1
				c0.1-0.2,0.1-0.5,0.2-0.7c-0.1,0-0.2-0.1-0.3-0.1c0.8,0.2,1.7,0.7,2.4,1.9c-0.5-0.3-0.9-0.4-1.5-0.4c-12.5,0.3-2.7,24.4-2.7,24.4
				l0.4-0.2l5.3,15.5c0,0,0.6,4.5,1.5,10.3c0,1.6,0,3.1,0.1,4.2c0,0-0.3,0.1-0.8,0.3C613.3,517.8,603.5,521,594.3,518.1z"/>
			<path class="st12" d="M611.6,461.5C611.6,461.5,611.6,461.6,611.6,461.5c-2.6,1-5.2,2.1-7.7,3.1c-1.6,0.6-3.4,1.2-5.2,2
				c0.1-0.2,0.2-0.5,0.3-0.7c0-0.1,0.1-0.2,0.1-0.3c0.1-0.3,0.2-0.6,0.4-0.8c0.2-0.4,0.4-0.9,0.6-1.3c0,0,0,0,0,0
				c0,0,10.5-2.6,10.9-2.7c0,0,0,0,0,0c0.1,0,0.2,0.1,0.3,0.1c0,0,0,0,0,0c0.1,0,0.2,0.1,0.3,0.1
				C611.8,461.1,611.7,461.3,611.6,461.5z"/>
			<path class="st35" d="M608.3,447.3c0,0,2-4.7,0.3-5.5c-1.5-0.7-2.6,1.2-2.6,1.2c-1.1-0.9-3.5-1.3-4.1-5.6
				c-0.3-2.4-3.7-3.3-6.3-3.2c-1,0-2.2,0.3-3.1,0.4c-1.5,0.1-2.1-0.3,1.2-3.3c5.2-4.8,14.3-3,18.1-0.2c3.7,2.8,3.4,9.3,2.6,12.9
				c-0.8,3.5-3.6,7.5-3.6,7.6c0,0,0,0,0,0L608.3,447.3z"/>
			<path class="st39" d="M629.3,544.9c0,0,0.1,0,0.1,0C629.4,544.9,629.3,544.9,629.3,544.9z"/>
			<path class="st39" d="M626.7,544.6c0.1,0,0.1,0,0.2,0.1C626.8,544.6,626.8,544.6,626.7,544.6z"/>
			<path class="st39" d="M630.4,544.1C630.4,544.1,630.4,544,630.4,544.1C630.4,544,630.4,544.1,630.4,544.1z"/>
			<path class="st39" d="M626.3,544.4c0.1,0,0.1,0.1,0.2,0.1C626.4,544.4,626.4,544.4,626.3,544.4z"/>
			<path class="st39" d="M629.8,544.8C629.8,544.7,629.8,544.7,629.8,544.8C629.8,544.7,629.8,544.7,629.8,544.8z"/>
			<path class="st39" d="M628.8,545c0,0,0.1,0,0.1,0C628.9,545,628.8,545,628.8,545z"/>
			<path class="st39" d="M629.1,545c0,0,0.1,0,0.1,0C629.1,545,629.1,545,629.1,545z"/>
			<path class="st39" d="M627,544.7c0.1,0,0.1,0,0.2,0.1C627.2,544.8,627.1,544.7,627,544.7z"/>
			<path class="st39" d="M627.4,544.8c0,0,0.1,0,0.1,0C627.5,544.9,627.4,544.9,627.4,544.8z"/>
			<path class="st39" d="M627.7,544.9c0,0,0.1,0,0.1,0C627.8,545,627.8,545,627.7,544.9z"/>
			<path class="st39" d="M630.2,544.4C630.2,544.4,630.2,544.4,630.2,544.4C630.2,544.4,630.2,544.4,630.2,544.4z"/>
			<path class="st39" d="M630.3,544.3C630.3,544.2,630.3,544.2,630.3,544.3C630.3,544.2,630.3,544.2,630.3,544.3z"/>
			<path class="st39" d="M629.6,544.9C629.6,544.9,629.6,544.8,629.6,544.9C629.6,544.8,629.6,544.9,629.6,544.9z"/>
			<path class="st39" d="M628.1,545C628.2,545,628.2,545,628.1,545C628.2,545,628.2,545,628.1,545z"/>
			<path class="st39" d="M630,544.6C630,544.6,630,544.6,630,544.6C630,544.6,630,544.6,630,544.6z"/>
			<path class="st39" d="M628.5,544.2c0,0,0.1,0,0.1,0C628.6,544.2,628.5,544.2,628.5,544.2z"/>
			<path class="st39" d="M625.1,543.5c0,0,0.1,0.1,0.1,0.1C625.2,543.6,625.2,543.5,625.1,543.5z"/>
			<path class="st39" d="M630.5,543.4C630.5,543.4,630.5,543.4,630.5,543.4C630.5,543.4,630.5,543.4,630.5,543.4z"/>
			<path class="st39" d="M630.5,543.7C630.5,543.6,630.5,543.6,630.5,543.7C630.5,543.6,630.5,543.6,630.5,543.7z"/>
			<path class="st39" d="M630.5,543.9C630.5,543.8,630.5,543.8,630.5,543.9C630.5,543.8,630.5,543.8,630.5,543.9z"/>
			<path class="st39" d="M624,542.3c0.1,0.1,0.1,0.1,0.2,0.2C624.1,542.4,624.1,542.4,624,542.3z"/>
			<path class="st39" d="M624.7,543.1c0.1,0.1,0.1,0.1,0.2,0.2C624.9,543.2,624.8,543.2,624.7,543.1z"/>
			<path class="st39" d="M624.4,542.7c0.1,0.1,0.1,0.1,0.2,0.2C624.5,542.8,624.4,542.8,624.4,542.7z"/>
			<path class="st39" d="M623.4,541.3c0,0.1,0.1,0.1,0.1,0.2C623.4,541.4,623.4,541.4,623.4,541.3z"/>
			<path class="st39" d="M626,544.2c0,0,0.1,0.1,0.1,0.1C626.1,544.2,626,544.2,626,544.2z"/>
			<path class="st39" d="M625.5,543.8c0,0,0.1,0.1,0.1,0.1C625.6,543.9,625.6,543.9,625.5,543.8z"/>
			<path class="st39" d="M623.7,541.8c0.1,0.1,0.1,0.1,0.2,0.2C623.8,542,623.7,541.9,623.7,541.8z"/>
			<path class="st31" d="M610.2,486.4l10.7-4.1c0.6,2.8,2.5,12.4,3,14.1c0.5,2.1,2.6,37.8,2.6,37.8s0-0.1,0-0.2
				c-0.6-0.2-1.2-0.4-1.8-0.7c-0.4,0.2-0.9,0.3-1.4,0.4c-0.1,0.3-0.2,0.7-0.3,1c0,0.2-0.2,1.4-0.2,1.8c0,0.8,0,1.5,0,2.3
				c0,0.7,0.1,1.3,0.1,2c0,0,0,0,0,0c-0.5-0.8-0.9-1.8-1.3-2.9c-1.7-5.3-3.6-17-4.9-25.6c-0.9-5.9-1.5-10.3-1.5-10.3L610.2,486.4z"
				/>
			<path class="st31" d="M622.9,538.8c0-0.8-0.1-1.5,0-2.3c0-0.4,0.2-1.6,0.2-1.8c0.1-0.3,0.2-0.7,0.3-1c0.5-0.1,0.9-0.2,1.4-0.4
				c0.6,0.3,1.2,0.6,1.8,0.7c0,0.1,0,0.2,0,0.2s3.1,6,3.9,8.9c0,0.1,0,0.2,0,0.2c0,0,0,0.1,0,0.1c0,0.1,0,0.1,0,0.2c0,0,0,0.1,0,0.1
				c0,0,0,0.1,0,0.1c0,0,0,0.1,0,0.1c0,0,0,0.1,0,0.1c0,0,0,0.1,0,0.1c0,0,0,0.1-0.1,0.1c0,0,0,0,0,0.1c0,0-0.1,0.1-0.1,0.1
				c0,0,0,0,0,0.1c0,0.1-0.1,0.1-0.2,0.2c0,0,0,0,0,0c-0.1,0-0.1,0.1-0.2,0.1c0,0,0,0-0.1,0c0,0-0.1,0-0.1,0.1c0,0-0.1,0-0.1,0
				c0,0-0.1,0-0.1,0.1c0,0-0.1,0-0.1,0c0,0-0.1,0-0.1,0c0,0-0.1,0-0.1,0c-0.1,0-0.1,0-0.2,0c0,0-0.1-0.4-0.1-0.4
				c-0.1,0-0.1-0.4-0.2-0.4c0,0-0.1,0-0.1,0c-0.1,0-0.2,0.4-0.3,0.4c0,0-0.1,0.2-0.1,0.2c-0.1,0-0.2,0.1-0.3,0.1c0,0-0.1,0-0.1,0
				c-0.1,0-0.1,0-0.2,0c0,0-0.1,0-0.1,0c-0.1,0-0.1,0-0.2-0.1c-0.1,0-0.1,0-0.2-0.1c-0.1,0-0.1-0.1-0.2-0.1c-0.1,0-0.1,0-0.2-0.1
				c-0.1,0-0.1-0.1-0.2-0.1c-0.1,0-0.1-0.1-0.2-0.1c-0.1,0-0.1-0.1-0.2-0.1c0,0-0.1-0.1-0.1-0.1c-0.1-0.1-0.2-0.1-0.3-0.2
				c0,0-0.1-0.1-0.1-0.1c-0.1-0.1-0.2-0.1-0.3-0.2c0,0-0.1-0.1-0.1-0.1c-0.1-0.1-0.1-0.1-0.2-0.2c-0.1-0.1-0.1-0.1-0.2-0.2
				c-0.1-0.1-0.1-0.1-0.2-0.2c-0.1-0.1-0.1-0.1-0.2-0.2c-0.1-0.1-0.1-0.2-0.2-0.2c-0.1-0.1-0.1-0.1-0.2-0.2
				c-0.1-0.1-0.1-0.2-0.2-0.3c-0.1-0.1-0.1-0.1-0.2-0.2c-0.1-0.1-0.1-0.2-0.2-0.3c0-0.1-0.1-0.1-0.1-0.2c-0.1-0.2-0.2-0.3-0.3-0.5
				c0,0,0,0,0,0C623,540.1,623,539.4,622.9,538.8z"/>
			<path class="st12" d="M610.2,486.4l-0.4,0.2c0,0-9.7-24.1,2.7-24.4c0.5,0,1,0.1,1.5,0.4c3.5,2,5.5,11.1,7.4,19.5l-0.4,0.1
				L610.2,486.4z"/>
			<g>
				<path class="st40" d="M655.2,597c-0.6,0.6-1.4,1.3-2.2,1.7c-1,0.6-3.4,0.7-4.5,1.1l0.1-26.2c0,0,0.1-0.2,0.2-0.7
					c0.1,0.4,0.2,0.8,0.3,1.3C650.5,580.9,654,589.2,655.2,597z"/>
				<path class="st31" d="M644.7,552c-0.2,0.6-0.5,3.1-1,6.1c-1.3,0-1.4-3.9-0.7-8c0.6,0.2,1.3,0.3,2,0.4
					C644.9,551,644.8,551.5,644.7,552z"/>
				<path class="st31" d="M649.1,508.1c0-1.3-0.2-2.2-0.8-2.1c-3.6,0.8-5.3-0.2-5.4-0.9c-0.1-0.8,0.2-1.4,0.2-1.4
					c-0.7-0.6,0.1-1,0.1-1s-0.8-0.6-0.5-1s0.3-1.3,0.3-1.3s-1.5-0.2-1.8-1c-0.2-0.4,1-1.1,1.7-3.5c0.5-1.8-0.5-4.8,1-6.7
					c0.6,0.3,1.3,0.6,2,0.6c2.1,0.1,4.8,0.9,5,2.9c0.3,3.5,2.2,4,3.1,4.8c0,0,0.9-1.5,2.1-0.9c1.4,0.7-0.5,4.5-0.5,4.5l1,3
					c-0.4,1.2-0.4,2.9-0.1,4.5l-7.6,2.3C649,509.6,649.1,508.5,649.1,508.1z"/>
				<path class="st12" d="M656.1,496.5c-1.2-0.6-2.1,0.9-2.1,0.9c-0.9-0.7-2.8-1.2-3.1-4.8c-0.2-2-2.8-2.8-5-2.9
					c-0.7,0-1.4-0.3-2-0.6c-2.2-1.3-3.3-4.1,1.1-3.3c5.7,1,11-0.5,13.9,1.9c2.9,2.5,2.6,7.9,1.8,10.7c-0.9,2.9-4.1,5.6-4.1,5.6
					l0-0.1l-1-3C655.6,501,657.5,497.2,656.1,496.5z"/>
				<path class="st35" d="M648.2,600l-0.2,0v-0.1c1-0.4,3.8-0.5,4.8-1.1c0.7-0.4,1.7-1.2,2.3-1.7c0,0.1,0.1,0.1,0.1,0.2l5.9-1.5
					l0-0.2c0.4,0.4,0.8,1.1,1.1,2.2c0.6,2.3,0.8,2.3-0.3,2.9c-1.1,0.5-3.2,1.1-6.2,1.5c-2.4,0.3-5,0.5-6.7,0.2
					c0-0.2-0.2-0.4-0.2-0.6C648.6,601,648.3,600.4,648.2,600z"/>
				<path class="st35" d="M648.5,600c0.1,0.4,0.3,1,0.4,1.7c0,0.2,0.1,0.4,0.1,0.6c0.3,1.8,0.3,1.8-0.7,2.2
					c-1.1,0.4-3.3,0.8-6.3,0.8c-2.7,0-5.9,0-7.3-0.9c-0.5-0.3-0.4-1-0.1-1.8c0.3-0.8,3.9-0.2,5.3-0.9c0.8-0.4,2-1.4,2.8-2.1
					L648.5,600z"/>
				<path class="st36" d="M655.2,597.2c0-0.1,0-0.1,0-0.2c-1.2-7.9-4.7-16.2-6.1-22.8c-0.1-0.4-0.2-0.8-0.3-1.3
					c0.7-2.2,2.9-9.6,5.3-13.3c0-0.1-0.2-0.1-0.1-0.2c0.8-0.9,1.5-1.7,2.1-2.5c-0.5,3.4-0.8,13.8-0.8,13.8l5.8,24.6l0,0.2
					L655.2,597.2z"/>
				<path class="st37" d="M645,550.6c5.6,1,12.1,0.4,14.8,0c-0.2,1.7-1.4,3.6-3.7,6.5c-0.6,0.7-1.3,1.6-2.1,2.5
					c0,0.1,0.1,0.1,0.1,0.2c-2.3,3.7-4.6,11-5.3,13.3c-0.1,0.4-0.5,0.7-0.5,0.7l-0.4,26.2v0.1l0.2,0l-5.8-0.4l0,0
					c0,0-2.1-21.6-1.1-26.6c0.6-2.8,1.6-9.7,2.3-14.9c0.4-3,0.8-5.5,1-6.1C644.8,551.5,644.9,551,645,550.6z"/>
				<path class="st41" d="M652.2,542.6c1.2-2.1,3-10.7,3.8-14.8l1,0.2c1.4-6.1,2.1-13.8-0.5-15c-7.3-3.3-8.3,13.4-8.3,13.4l1.7,0.3
					l-2.9,11c-0.1,0-0.3,0-0.4,0c-0.7,0-1.8,0-3.2-0.1c0.3-2.2,0.6-4.5,0.8-6.6c0.6-5.2,0.7-12.1,2.9-17.2c1.2-0.5,2.7-1,3.7-1.4
					c1.6-0.6,6.2-1.7,6.7-1.8c1.7,1.2,3.5,4.1,3.7,11.2c0.2,6.5-0.2,23.5,0,28.6c0,0-0.5,0.1-1.3,0.2c-2.7,0.3-9.2,1-14.8,0
					c-0.7-0.1-1.4-0.3-2-0.4c-0.5-0.1-0.9-0.3-1.4-0.4c-0.1-0.4,0.3-2.8,0.8-6C647.2,544,651.5,543.9,652.2,542.6z"/>
				<path class="st42" d="M650.7,512.4c-1,0.4-2.5,0.9-3.7,1.4c0,0-0.1,0-0.1,0.1c0.3-0.7,1-2.3,1.3-3l0.6-0.2l7.6-2.3l0.6-0.2
					l0.4,2.2c0,0,0,0,0,0C656.9,510.7,652.3,511.8,650.7,512.4z"/>
				<path class="st31" d="M624,535.7c2.4-1.2,4.1,0.6,4.7,1.6c0,0,9.1,0.2,14.5,0.3c1.3,0,2.5,0,3.2,0.1c0.2,0,0.3,0,0.4,0l2.9-11
					l6.2,1.1c-0.8,4.1-2.6,12.7-3.8,14.8c-0.7,1.3-5,1.4-9.8,1.1c-5.6-0.4-11.8-1.5-13.5-1.9c0,0-4.5,1.6-6.2-0.8
					C621,538.6,621.7,536.9,624,535.7z"/>
				<path class="st42" d="M656.4,513c2.6,1.2,1.9,8.8,0.5,15l-1-0.2l-6.2-1.1l-1.7-0.3C648.1,526.4,649.1,509.7,656.4,513z"/>
			</g>
		</g>
		<g>
			<path class="st31" d="M314,466.7c3.5-3.3,4.4-11.5,4.4-11.5s1.9,0.4,1.7-2.7c-0.2-3.1-2.7-1-2.7-1c-0.1,0-0.1-0.1-0.2-0.1
				c-3.4,0.2-7.2-5.6-8.4-7.7c-1.4-0.1-3.3,0.2-4.1,2.2c0,0-0.5,1.5-0.3,2.9c0.1,0.9,0.3,1.8,0.3,2.5c0,3.3-1.3,4.8-1,5.2
				c0.2,0.4,1.9,0.7,1.9,0.7s-0.1,1.3-0.4,1.8c-0.3,0.5,0.8,0.9,0.8,0.9s-0.5,1.2,0.2,1.4c0,0,0,0.8,0.1,1.7
				c0.1,0.9,1.6,0.5,5.5-0.7c3.3-1.1,0.3,9,0.3,9h8.1c0,0-1.2-3-1.1-6.6c-1.5,0.3-3,0.9-4.6,1.6C314.1,466.3,314.1,466.7,314,466.7z
				"/>
			<path class="st35" d="M322.7,440.3c-1.6-1.6-3.9-2.3-6.1-2.3c-5.9-2.6-12.3,1.9-13.1,5.2c-1,3.8,0.9,6.1,0.9,6.1
				c0-0.2-0.1-0.4-0.1-0.6c-0.1-1.5,0.3-2.9,0.3-2.9c0.8-1.9,2.6-2.3,4.1-2.2c1.2,2.1,5.1,7.9,8.4,7.7c0.1,0,0.1,0.1,0.2,0.1
				c0,0,2.5-2.1,2.7,1c0.2,3.1-1.7,2.7-1.7,2.7s-0.8,8.2-4.4,11.5c0.1,0,0.2-0.1,0.3-0.1c1.6-0.7,3.1-1.1,4.6-1.3
				c2.2-0.4,4.5-0.7,6.9-1.6c0-1.2,0.6-4.2,0.8-5.1C327.2,454.9,329.1,446.5,322.7,440.3z"/>
			<path class="st31" d="M302.3,524c-1.2,2.8-2.6,7.1-4,9.3c-0.9,1.5,0.7,1.3,2.1-0.1c1.2-1.1,4.1-4.6,4.5-5.9c0,0-1.3,3.3-1,3.8
				c0.2,0.5,3.3-2.6,2.9-8.7l-3.6-0.4C302.9,522.5,302.6,523.2,302.3,524z"/>
			<polygon class="st43" points="318.3,481.2 310,480.2 309.4,480.4 302.6,522 303.1,522 306.7,522.4 307.4,522.5 			"/>
			<path class="st44" d="M304.5,529.2c0,0,0.3-45.4,7.5-56.3"/>
			<polygon class="st12" points="300.4,541.1 325.2,542.3 325.2,519.4 300.4,518.2 			"/>
			<path class="st45" d="M307.2,520.5c0.1,0.3,0.1,0.6,0.2,0.9c0.1-0.3,0.1-0.5,0.2-0.8C307.4,520.5,307.3,520.5,307.2,520.5z"/>
			<path class="st34" d="M322.3,555.9c0,0-1.9-20.9,0.5-26c-1,0.9-2.2,1.8-3.5,2.6c-2.2,1.4-5.1,8.1-7.3,14.1
				c0.9,4.8,1.8,9.2,2.2,11.7c1.5,7.9,10.3,36.9,10.3,36.9l6.5-1.7L322.3,555.9z"/>
			<path class="st32" d="M319.4,532.5c1.3-0.8,2.5-1.7,3.5-2.6c3.3-2.9,4.7-6.4,3.6-11.6c0,0.1,0,0.1,0,0.2c0,0-9.7,4-19,2.1
				c-0.1,0.3-0.1,0.5-0.2,0.8c-0.2,0.8-0.4,1.7-0.6,2.6c-0.7,2.7-5.1,25-6.5,31.9c-1.6,7.8-4.4,40.5-4.4,40.5l6.7,0.9l6-40.5
				c0,0,1.5-4.8,3.5-10.1C314.3,540.6,317.2,533.9,319.4,532.5z"/>
			<path class="st41" d="M326.5,518.5c0-0.1,0-0.1,0-0.2c-0.2-7.2-2-23.9-1.3-32.8c1.3-15.9-2.2-16.5-4.9-16.8
				c-2.7-0.3-12.7,4.2-14.6,12.6c-0.7,3.1,1.3,8.7,1,14.6c-0.4,10.2-2.7,21.5-2.3,23.6c0.9,0.3,1.8,0.6,2.7,0.8c0.1,0,0.2,0,0.3,0.1
				C316.8,522.5,326.5,518.5,326.5,518.5z"/>
			<path class="st35" d="M296.7,596c0,0-1.5,3.3-4.6,4.5c-3.1,1.2-6,1-6.4,3.1c0,0,4.3,2.7,17.3,1v-7.6L296.7,596z"/>
			<path class="st35" d="M325.1,594.8c0,0-0.7,2.9-3.3,4.8c-2.6,1.9-5.8,2.5-5.7,4.5c0,0,7,2.4,16.1-3l-1.5-7.7L325.1,594.8z"/>
			<polygon class="st42" points="320.2,466.7 320.8,468.8 308.6,476 310,471.6 			"/>
			<path class="st46" d="M314.4,551.6v-8.4c0-1.7-1.4-3.1-3.1-3.1h-3.9c-1.7,0-3.1,1.4-3.1,3.1v8.3"/>
			<polygon class="st47" points="322.3,576.2 296.1,576.2 298,546.2 320.6,546.3 			"/>
			<rect x="300.9" y="554.8" class="st23" width="16.9" height="15.3"/>
			<path class="st31" d="M308,538c-0.7,1.8,0.4,2,0.4,2s-1,5.8,0.1,6.4c1.5,0.8,3.3-1.1,4.6-4.2c1.2-3.1,1.5-5.5,1.6-6.7l-4.5-1.3
				C309.6,534.9,308.5,536.7,308,538z"/>
			<path class="st42" d="M323.1,470.8c-1.3-2.8-4.9-0.2-6.1,2.3c-4.2,8.4-1.3,33.7-1.3,33.7l-5.7,27.2l0.3,0.1l4.5,1.3l0.2,0
				c2.6-10.4,5.2-17.8,6.5-26.8C324.4,488.2,324.4,473.6,323.1,470.8z"/>
		</g>
		<g>
			<path class="st48" d="M450.9,433c0.1-0.4,0.3-0.7,0.5-1.1c0.8-1.8,2.8-3.7,5.5-4.8c2.6-1.2,5.7-1.4,8.7,0.2c2,0,4.1,0.7,5.9,2.2
				c1.6,1.4,4,4,4,9.5c0,5.5-5.1,10.2-6.3,11.3l0,0c-0.1-0.9-0.3-3-0.8-3.8c-0.3-0.5-0.7-1-1.1-1.4c0.6-0.1,1.5-0.6,1.3-2.9
				c-0.2-3.3-2.9-1.1-2.9-1.1c-0.1,0-0.6,1.8-0.7,1.8c-0.5,0-1.1-2.2-1.1-2.2l-4.7-6.1c-0.7,0-3.9,0.1-5.4,1c-1.7,1-1.7,3.3-1.7,3.3
				c0.1,0.7,0.2,1.4,0.2,2.1c0,3.5-1.3,5-1.1,5.4c0.3,0.4,2,0.7,2,0.7s-0.1,1.3-0.4,1.9c-0.3,0.6,0.8,0.9,0.8,0.9s-0.6,1.3,0.2,1.5
				c0,0,0,0.7,0.1,1.5c-1,0.5-1.9,0.8-1.9,0.8s-1.2-2.9-2-10.4C449.8,440.8,449.4,437,450.9,433z"/>
			<path class="st31" d="M453.6,450c0,0-1.1-0.3-0.8-0.9c0.3-0.6,0.4-1.9,0.4-1.9s-1.7-0.3-2-0.7c-0.3-0.4,1-2,1.1-5.4
				c0-0.6-0.1-1.3-0.2-2.1c0,0,0-2.2,1.7-3.3c1.5-0.9,4.7-1,5.4-1l4.7,6.1c0,0,0.5,2.3,1.1,2.2c0.1,0,0.7-1.9,0.7-1.8
				c0,0,2.7-2.2,2.9,1.1c0.2,2.3-0.8,2.8-1.3,2.9c0.4,0.4,0.8,0.9,1.1,1.4c0.5,0.8,0.7,2.9,0.8,3.8c-0.1,0.1-0.2,0.2-0.3,0.4
				c-3.2,4,0.8,9.2,0.8,9.2l-9.7,3.5c0,0,3.1-11.3-0.3-10.2c-4,1.3-5.6,1-5.7,0.1c0-0.1,0-0.2,0-0.3c-0.1-0.8-0.1-1.5-0.1-1.5
				C453,451.3,453.6,450,453.6,450z"/>
			<path class="st31" d="M445.7,527.2c1.5-2.4,3-6.9,4.3-9.8c0.2-0.4,0.3-0.7,0.5-1l-0.1,0.9l4.4-1.2c0.3,6.2-2.8,9.4-3.1,8.9
				c-0.3-0.6,1.1-4,1.1-4c-0.4,1.4-3.5,5-4.7,6.2C446.4,528.6,444.7,528.8,445.7,527.2z"/>
			<polygon class="st12" points="450.4,516.4 457.4,473.6 458.1,471.5 466.7,472.5 455.3,515.9 454.6,516.1 450.2,517.3 			"/>
			<path class="st33" d="M438.3,599.3c3.1,1,4.5-3,5.1-5.8l6.6,0.9l-0.2,10.7l-2,0.1l-0.3-6.6c0,0-2,6.1-3.6,6.4
				c-1.6,0.3-7.1-1.5-8.9-2.5C433.3,601.4,435.6,598.5,438.3,599.3z"/>
			<path class="st33" d="M484.8,601.1l-1.7,0.9l-3.2-5.8c0,0,0.9,6.4-0.4,7.3c-1.3,0.9-7.1,1.8-9.1,1.7c-2-0.1-1.2-3.8,1.6-4.2
				c3.8-0.6,2.4-6.4,1.6-8.9l6.3-1.7L484.8,601.1z"/>
			<path class="st33" d="M467.9,526.4c1.4-0.9,2.6-1.8,3.7-2.7C469,529,471,551,471,551l9.2,39.4l-0.4,0.1l-6.3,1.7l-0.2,0.1
				c0,0-9.3-30.5-10.8-38.8c-0.5-2.6-1.4-7.2-2.4-12.3C462.5,534.9,465.6,527.8,467.9,526.4z"/>
			<path class="st12" d="M443.1,593.5c0,0,2.9-34.4,4.6-42.6c1.5-7.2,6.1-30.7,6.9-33.5c0.4-1.4,0.7-2.7,0.9-4
				c10.3,3.5,19.8-1.7,19.8-1.7c0-0.1,0-0.1,0-0.2c1.1,5.5-0.4,9.1-3.8,12.2c-1.1,0.9-2.3,1.8-3.7,2.7c-2.3,1.5-5.4,8.5-7.7,14.8
				c-2.1,5.6-3.7,10.6-3.7,10.6l-6.4,42.6l-0.1,0l-6.6-0.9L443.1,593.5z"/>
			<path class="st1" d="M455.6,513.3c-0.2-0.1-0.4-0.1-0.6-0.2c-0.4-2.2,0-13.5,0.4-24.2c0.3-6.3-1.3-5.5-2.4-8.6
				c-2.1-6.5,7-16.8,7-16.8s7.3-4.9,8.9-4.7c2.8,0.3,6.5,1.7,5.2,18.3c-0.8,9.3,1.1,26.8,1.4,34.4c0,0.1,0,0.1,0,0.2
				C475.4,511.6,465.9,516.8,455.6,513.3z"/>
			<polygon class="st47" points="464,536.2 478,525.1 478,539.2 450,539.2 450,525.1 			"/>
			<polygon class="st30" points="450.5,525.2 450.5,525.2 450.5,525.2 478,525.2 478,525.2 478,525.2 464.3,536.2 			"/>
			<path class="st31" d="M455.9,532.1c0.5-1.4,1.7-3.2,2.4-4.1l4.7,1.4c-0.1,1.2-0.4,3.8-1.7,7.1c-1.3,3.3-3.3,5.3-4.8,4.5
				c-1.2-0.7-0.1-6.7-0.1-6.7S455.2,534,455.9,532.1z"/>
			<path class="st12" d="M457.9,528l6-28.6c0,0-3.8-27.8,0.6-36.7c1.3-2.6,5.4-4,7.6,0.2c1.5,2.9,1,17-2.1,38.5
				c-1.4,9.5-4.2,17.3-6.9,28.2l-0.2-0.1l-4.7-1.4L457.9,528z"/>
		</g>
		<g>
			<path class="st31" d="M828.4,517.8c0.3,0.1,0.6,0.2,1,0.3c0.1,1.2,0.2,2.4,0.4,3.7c0.1,0.6,0.4,2.1,0.8,4.2
				c-0.5,2.8-1.1,6.2-1.7,9.6c-1.6-0.7-2.1-6.2-1.5-11.8c0.2-1.9,0.5-6.2,1-11.4C828.3,515.4,828.3,517.4,828.4,517.8z"/>
			<path class="st35" d="M854.9,594.6c0.5,0.6,1.1,1.6,1.5,3.2c0.9,3.5,1.1,3.5-0.5,4.3c-1.6,0.8-4.7,1.7-9.1,2.2
				c-4,0.5-8.6,0.9-10.9-0.1c-0.8-0.3-0.8-1.4-0.5-2.6c0.3-1.2,5.6-1.1,7.6-2.3c1.1-0.6,2.3-1.7,3.2-2.6c0,0.1,0,0.2,0.1,0.3
				L854.9,594.6z"/>
			<path class="st35" d="M811.4,597.5c0.5-1.2,5.7-0.4,7.8-1.3c1.4-0.6,3.4-2.5,4.6-3.6l8.2,0.6c0.3,0.7,0.5,1.6,0.7,3
				c0.5,3.5,0.7,3.5-1,4.1c-1.7,0.6-4.9,1.1-9.3,1.2c-4.1,0-8.7,0-10.8-1.3C810.8,599.7,810.9,598.7,811.4,597.5z"/>
			<path class="st12" d="M823.2,592.5c0,0,0.9-31.2,2.5-39.6c0.6-3.4,1.9-10.5,3.1-17.3c0.6-3.4,1.2-6.8,1.7-9.6
				c1.5,7.4,4.7,21.9,5.9,28.3l-4.2,38.9l-0.3,0l-8.2-0.6L823.2,592.5z"/>
			<path class="st1" d="M830.5,526c-0.4-2.1-0.7-3.6-0.8-4.2c-0.2-1.2-0.3-2.5-0.4-3.7c9.2,2.9,19-0.3,21.8-1.3
				c-0.3,2.3-1,5.1-2.7,8.1c-1,1.8-0.2,27.9-0.2,27.9l6.7,41.7l0,0l-8.7,2.5c0-0.1,0-0.2-0.1-0.3c-6.8-25.3-7.6-31.6-9.6-41.7
				c-0.1-0.3-0.1-0.6-0.2-0.9C835.2,547.9,832,533.4,830.5,526z"/>
			<path class="st31" d="M835.3,463.4c0.1-1.3,0.1-3.1,0.2-4.5c0.1-1.1,0.4-1.5,0.4-2.4c0-1.6-0.3-2.7-1.1-2.5
				c-4.3,1.2-6.5,0.5-6.6-0.4c-0.1-0.9,0.1-2.1,0.1-2.1c-0.9-0.6,0.1-1.3,0.1-1.3s-1.1-0.6-0.7-1.2c0.4-0.6,0.3-1.6,0.3-1.6
				s-2,0.8-2.4-0.2c-0.2-0.5,0.9-3,1.5-6c0.4-1.9-0.4-4.4,0.5-6.6c0.9-0.1,2.1-0.3,3.1-0.4c2.6-0.1,6,0.8,6.3,3.2
				c0.6,4.3,3,4.8,4.1,5.6c0,0,1-1.9,2.6-1.2c1.8,0.8-0.3,5.5-0.3,5.5l2.4,4.3c0,0,0,0,0,0c-0.5,2.8,0.1,6.9,0.4,9.1
				C845.7,460.9,835.3,463.4,835.3,463.4C835.3,463.4,835.3,463.4,835.3,463.4z"/>
			<path class="st38" d="M846.5,460.7c-0.1,0-0.2-0.1-0.3-0.1C846.3,460.7,846.4,460.7,846.5,460.7z"/>
			<path class="st38" d="M834.6,464.7c-0.1,0.3-0.3,0.5-0.4,0.8C834.4,465.2,834.5,465,834.6,464.7z"/>
			<path class="st15" d="M829.3,518.1c-0.3-0.1-0.6-0.2-1-0.3c-0.1-0.4-0.1-2.4-0.1-5.4c0.1-5.7,0.4-14.8,1.2-22.7
				c0.9-8.1,1.4-16.5,4.6-23.9c-0.1,0.2-0.2,0.5-0.3,0.7c1.8-0.8,3.6-1.4,5.2-2c2.5-1,5-2.1,7.6-3c0,0,0-0.1,0-0.1
				c0.1-0.2,0.1-0.5,0.2-0.7c-0.1,0-0.2-0.1-0.3-0.1c0.8,0.2,1.7,0.7,2.4,1.9c-0.5-0.3-0.9-0.4-1.5-0.4c-12.5,0.3-2.7,24.4-2.7,24.4
				l0.4-0.2l5.3,15.5c0,0,0.6,4.5,1.5,10.3c0,1.6,0,3.1,0.1,4.2c0,0-0.3,0.1-0.8,0.3C848.3,517.8,838.5,521,829.3,518.1z"/>
			<path class="st16" d="M846.6,461.5C846.6,461.5,846.6,461.6,846.6,461.5c-2.6,1-5.2,2.1-7.7,3.1c-1.6,0.6-3.4,1.2-5.2,2
				c0.1-0.2,0.2-0.5,0.3-0.7c0-0.1,0.1-0.2,0.1-0.3c0.1-0.3,0.2-0.6,0.4-0.8c0.2-0.4,0.4-0.9,0.6-1.3c0,0,0,0,0,0
				c0,0,10.5-2.6,10.9-2.7c0,0,0,0,0,0c0.1,0,0.2,0.1,0.3,0.1c0,0,0,0,0,0c0.1,0,0.2,0.1,0.3,0.1
				C846.8,461.1,846.7,461.3,846.6,461.5z"/>
			<path class="st49" d="M843.3,447.3c0,0,2-4.7,0.3-5.5c-1.5-0.7-2.6,1.2-2.6,1.2c-1.1-0.9-3.5-1.3-4.1-5.6
				c-0.3-2.4-3.7-3.3-6.3-3.2c-1,0-2.2,0.3-3.1,0.4c-1.5,0.1-2.1-0.3,1.2-3.3c5.2-4.8,14.3-3,18.1-0.2c3.7,2.8,3.4,9.3,2.6,12.9
				c-0.8,3.5-3.6,7.5-3.6,7.6c0,0,0,0,0,0L843.3,447.3z"/>
			<path class="st39" d="M864.3,544.9c0,0,0.1,0,0.1,0C864.4,544.9,864.3,544.9,864.3,544.9z"/>
			<path class="st39" d="M861.7,544.6c0.1,0,0.1,0,0.2,0.1C861.8,544.6,861.8,544.6,861.7,544.6z"/>
			<path class="st39" d="M865.4,544.1C865.4,544.1,865.4,544,865.4,544.1C865.4,544,865.4,544.1,865.4,544.1z"/>
			<path class="st39" d="M861.3,544.4c0.1,0,0.1,0.1,0.2,0.1C861.4,544.4,861.4,544.4,861.3,544.4z"/>
			<path class="st39" d="M864.8,544.8C864.8,544.7,864.8,544.7,864.8,544.8C864.8,544.7,864.8,544.7,864.8,544.8z"/>
			<path class="st39" d="M863.8,545c0,0,0.1,0,0.1,0C863.9,545,863.8,545,863.8,545z"/>
			<path class="st39" d="M864.1,545c0,0,0.1,0,0.1,0C864.1,545,864.1,545,864.1,545z"/>
			<path class="st39" d="M862,544.7c0.1,0,0.1,0,0.2,0.1C862.2,544.8,862.1,544.7,862,544.7z"/>
			<path class="st39" d="M862.4,544.8c0,0,0.1,0,0.1,0C862.5,544.9,862.4,544.9,862.4,544.8z"/>
			<path class="st39" d="M862.7,544.9c0,0,0.1,0,0.1,0C862.8,545,862.8,545,862.7,544.9z"/>
			<path class="st39" d="M865.2,544.4C865.2,544.4,865.2,544.4,865.2,544.4C865.2,544.4,865.2,544.4,865.2,544.4z"/>
			<path class="st39" d="M865.3,544.3C865.3,544.2,865.3,544.2,865.3,544.3C865.3,544.2,865.3,544.2,865.3,544.3z"/>
			<path class="st39" d="M864.6,544.9C864.6,544.9,864.6,544.8,864.6,544.9C864.6,544.8,864.6,544.9,864.6,544.9z"/>
			<path class="st39" d="M863.1,545C863.2,545,863.2,545,863.1,545C863.2,545,863.2,545,863.1,545z"/>
			<path class="st39" d="M865,544.6C865,544.6,865,544.6,865,544.6C865,544.6,865,544.6,865,544.6z"/>
			<path class="st39" d="M863.5,544.2c0,0,0.1,0,0.1,0C863.6,544.2,863.5,544.2,863.5,544.2z"/>
			<path class="st39" d="M860.1,543.5c0,0,0.1,0.1,0.1,0.1C860.2,543.6,860.2,543.5,860.1,543.5z"/>
			<path class="st39" d="M865.5,543.4C865.5,543.4,865.5,543.4,865.5,543.4C865.5,543.4,865.5,543.4,865.5,543.4z"/>
			<path class="st39" d="M865.5,543.7C865.5,543.6,865.5,543.6,865.5,543.7C865.5,543.6,865.5,543.6,865.5,543.7z"/>
			<path class="st39" d="M865.5,543.9C865.5,543.8,865.5,543.8,865.5,543.9C865.5,543.8,865.5,543.8,865.5,543.9z"/>
			<path class="st39" d="M859,542.3c0.1,0.1,0.1,0.1,0.2,0.2C859.1,542.4,859.1,542.4,859,542.3z"/>
			<path class="st39" d="M859.7,543.1c0.1,0.1,0.1,0.1,0.2,0.2C859.9,543.2,859.8,543.2,859.7,543.1z"/>
			<path class="st39" d="M859.4,542.7c0.1,0.1,0.1,0.1,0.2,0.2C859.5,542.8,859.4,542.8,859.4,542.7z"/>
			<path class="st39" d="M858.4,541.3c0,0.1,0.1,0.1,0.1,0.2C858.4,541.4,858.4,541.4,858.4,541.3z"/>
			<path class="st39" d="M861,544.2c0,0,0.1,0.1,0.1,0.1C861.1,544.2,861,544.2,861,544.2z"/>
			<path class="st39" d="M860.5,543.8c0,0,0.1,0.1,0.1,0.1C860.6,543.9,860.6,543.9,860.5,543.8z"/>
			<path class="st39" d="M858.7,541.8c0.1,0.1,0.1,0.1,0.2,0.2C858.8,542,858.7,541.9,858.7,541.8z"/>
			<path class="st31" d="M845.2,486.4l10.7-4.1c0.6,2.8,2.5,12.4,3,14.1c0.5,2.1,2.6,37.8,2.6,37.8s0-0.1,0-0.2
				c-0.6-0.2-1.2-0.4-1.8-0.7c-0.4,0.2-0.9,0.3-1.4,0.4c-0.1,0.3-0.2,0.7-0.3,1c0,0.2-0.2,1.4-0.2,1.8c0,0.8,0,1.5,0,2.3
				c0,0.7,0.1,1.3,0.1,2c0,0,0,0,0,0c-0.5-0.8-0.9-1.8-1.3-2.9c-1.7-5.3-3.6-17-4.9-25.6c-0.9-5.9-1.5-10.3-1.5-10.3L845.2,486.4z"
				/>
			<path class="st31" d="M857.9,538.8c0-0.8-0.1-1.5,0-2.3c0-0.4,0.2-1.6,0.2-1.8c0.1-0.3,0.2-0.7,0.3-1c0.5-0.1,0.9-0.2,1.4-0.4
				c0.6,0.3,1.2,0.6,1.8,0.7c0,0.1,0,0.2,0,0.2s3.1,6,3.9,8.9c0,0.1,0,0.2,0,0.2c0,0,0,0.1,0,0.1c0,0.1,0,0.1,0,0.2c0,0,0,0.1,0,0.1
				c0,0,0,0.1,0,0.1c0,0,0,0.1,0,0.1c0,0,0,0.1,0,0.1c0,0,0,0.1,0,0.1c0,0,0,0.1-0.1,0.1c0,0,0,0,0,0.1c0,0-0.1,0.1-0.1,0.1
				c0,0,0,0,0,0.1c0,0.1-0.1,0.1-0.2,0.2c0,0,0,0,0,0c-0.1,0-0.1,0.1-0.2,0.1c0,0,0,0-0.1,0c0,0-0.1,0-0.1,0.1c0,0-0.1,0-0.1,0
				c0,0-0.1,0-0.1,0.1c0,0-0.1,0-0.1,0c0,0-0.1,0-0.1,0c0,0-0.1,0-0.1,0c-0.1,0-0.1,0-0.2,0c0,0-0.1-0.4-0.1-0.4
				c-0.1,0-0.1-0.4-0.2-0.4c0,0-0.1,0-0.1,0c-0.1,0-0.2,0.4-0.3,0.4c0,0-0.1,0.2-0.1,0.2c-0.1,0-0.2,0.1-0.3,0.1c0,0-0.1,0-0.1,0
				c-0.1,0-0.1,0-0.2,0c0,0-0.1,0-0.1,0c-0.1,0-0.1,0-0.2-0.1c-0.1,0-0.1,0-0.2-0.1c-0.1,0-0.1-0.1-0.2-0.1c-0.1,0-0.1,0-0.2-0.1
				c-0.1,0-0.1-0.1-0.2-0.1c-0.1,0-0.1-0.1-0.2-0.1c-0.1,0-0.1-0.1-0.2-0.1c0,0-0.1-0.1-0.1-0.1c-0.1-0.1-0.2-0.1-0.3-0.2
				c0,0-0.1-0.1-0.1-0.1c-0.1-0.1-0.2-0.1-0.3-0.2c0,0-0.1-0.1-0.1-0.1c-0.1-0.1-0.1-0.1-0.2-0.2c-0.1-0.1-0.1-0.1-0.2-0.2
				c-0.1-0.1-0.1-0.1-0.2-0.2c-0.1-0.1-0.1-0.1-0.2-0.2c-0.1-0.1-0.1-0.2-0.2-0.2c-0.1-0.1-0.1-0.1-0.2-0.2
				c-0.1-0.1-0.1-0.2-0.2-0.3c-0.1-0.1-0.1-0.1-0.2-0.2c-0.1-0.1-0.1-0.2-0.2-0.3c0-0.1-0.1-0.1-0.1-0.2c-0.1-0.2-0.2-0.3-0.3-0.5
				c0,0,0,0,0,0C858,540.1,858,539.4,857.9,538.8z"/>
			<path class="st16" d="M845.2,486.4l-0.4,0.2c0,0-9.7-24.1,2.7-24.4c0.5,0,1,0.1,1.5,0.4c3.5,2,5.5,11.1,7.4,19.5l-0.4,0.1
				L845.2,486.4z"/>
			<g>
				<path class="st40" d="M890.2,597c-0.6,0.6-1.4,1.3-2.2,1.7c-1,0.6-3.4,0.7-4.5,1.1l0.1-26.2c0,0,0.1-0.2,0.2-0.7
					c0.1,0.4,0.2,0.8,0.3,1.3C885.5,580.9,889,589.2,890.2,597z"/>
				<path class="st31" d="M879.7,552c-0.2,0.6-0.5,3.1-1,6.1c-1.3,0-1.4-3.9-0.7-8c0.6,0.2,1.3,0.3,2,0.4
					C879.9,551,879.8,551.5,879.7,552z"/>
				<path class="st31" d="M884.1,508.1c0-1.3-0.2-2.2-0.8-2.1c-3.6,0.8-5.3-0.2-5.4-0.9c-0.1-0.8,0.2-1.4,0.2-1.4
					c-0.7-0.6,0.1-1,0.1-1s-0.8-0.6-0.5-1s0.3-1.3,0.3-1.3s-1.5-0.2-1.8-1c-0.2-0.4,1-1.1,1.7-3.5c0.5-1.8-0.5-4.8,1-6.7
					c0.6,0.3,1.3,0.6,2,0.6c2.1,0.1,4.8,0.9,5,2.9c0.3,3.5,2.2,4,3.1,4.8c0,0,0.9-1.5,2.1-0.9c1.4,0.7-0.5,4.5-0.5,4.5l1,3
					c-0.4,1.2-0.4,2.9-0.1,4.5l-7.6,2.3C884,509.6,884.1,508.5,884.1,508.1z"/>
				<path class="st12" d="M891.1,496.5c-1.2-0.6-2.1,0.9-2.1,0.9c-0.9-0.7-2.8-1.2-3.1-4.8c-0.2-2-2.8-2.8-5-2.9
					c-0.7,0-1.4-0.3-2-0.6c-2.2-1.3-3.3-4.1,1.1-3.3c5.7,1,11-0.5,13.9,1.9c2.9,2.5,2.6,7.9,1.8,10.7c-0.9,2.9-4.1,5.6-4.1,5.6
					l0-0.1l-1-3C890.6,501,892.5,497.2,891.1,496.5z"/>
				<path class="st35" d="M883.2,600l-0.2,0v-0.1c1-0.4,3.8-0.5,4.8-1.1c0.7-0.4,1.7-1.2,2.3-1.7c0,0.1,0.1,0.1,0.1,0.2l5.9-1.5
					l0-0.2c0.4,0.4,0.8,1.1,1.1,2.2c0.6,2.3,0.8,2.3-0.3,2.9c-1.1,0.5-3.2,1.1-6.2,1.5c-2.4,0.3-5,0.5-6.7,0.2
					c0-0.2-0.2-0.4-0.2-0.6C883.6,601,883.3,600.4,883.2,600z"/>
				<path class="st35" d="M883.5,600c0.1,0.4,0.3,1,0.4,1.7c0,0.2,0.1,0.4,0.1,0.6c0.3,1.8,0.3,1.8-0.7,2.2
					c-1.1,0.4-3.3,0.8-6.3,0.8c-2.7,0-5.9,0-7.3-0.9c-0.5-0.3-0.4-1-0.1-1.8c0.3-0.8,3.9-0.2,5.3-0.9c0.8-0.4,2-1.4,2.8-2.1
					L883.5,600z"/>
				<path class="st36" d="M890.2,597.2c0-0.1,0-0.1,0-0.2c-1.2-7.9-4.7-16.2-6.1-22.8c-0.1-0.4-0.2-0.8-0.3-1.3
					c0.7-2.2,2.9-9.6,5.3-13.3c0-0.1-0.2-0.1-0.1-0.2c0.8-0.9,1.5-1.7,2.1-2.5c-0.5,3.4-0.8,13.8-0.8,13.8l5.8,24.6l0,0.2
					L890.2,597.2z"/>
				<path class="st37" d="M880,550.6c5.6,1,12.1,0.4,14.8,0c-0.2,1.7-1.4,3.6-3.7,6.5c-0.6,0.7-1.3,1.6-2.1,2.5
					c0,0.1,0.1,0.1,0.1,0.2c-2.3,3.7-4.6,11-5.3,13.3c-0.1,0.4-0.5,0.7-0.5,0.7l-0.4,26.2v0.1l0.2,0l-5.8-0.4l0,0
					c0,0-2.1-21.6-1.1-26.6c0.6-2.8,1.6-9.7,2.3-14.9c0.4-3,0.8-5.5,1-6.1C879.8,551.5,879.9,551,880,550.6z"/>
				<path class="st50" d="M887.2,542.6c1.2-2.1,3-10.7,3.8-14.8l1,0.2c1.4-6.1,2.1-13.8-0.5-15c-7.3-3.3-8.3,13.4-8.3,13.4l1.7,0.3
					l-2.9,11c-0.1,0-0.3,0-0.4,0c-0.7,0-1.8,0-3.2-0.1c0.3-2.2,0.6-4.5,0.8-6.6c0.6-5.2,0.7-12.1,2.9-17.2c1.2-0.5,2.7-1,3.7-1.4
					c1.6-0.6,6.2-1.7,6.7-1.8c1.7,1.2,3.5,4.1,3.7,11.2c0.2,6.5-0.2,23.5,0,28.6c0,0-0.5,0.1-1.3,0.2c-2.7,0.3-9.2,1-14.8,0
					c-0.7-0.1-1.4-0.3-2-0.4c-0.5-0.1-0.9-0.3-1.4-0.4c-0.1-0.4,0.3-2.8,0.8-6C882.2,544,886.5,543.9,887.2,542.6z"/>
				<path class="st51" d="M885.7,512.4c-1,0.4-2.5,0.9-3.7,1.4c0,0-0.1,0-0.1,0.1c0.3-0.7,1-2.3,1.3-3l0.6-0.2l7.6-2.3l0.6-0.2
					l0.4,2.2c0,0,0,0,0,0C891.9,510.7,887.3,511.8,885.7,512.4z"/>
				<path class="st31" d="M859,535.7c2.4-1.2,4.1,0.6,4.7,1.6c0,0,9.1,0.2,14.5,0.3c1.3,0,2.5,0,3.2,0.1c0.2,0,0.3,0,0.4,0l2.9-11
					l6.2,1.1c-0.8,4.1-2.6,12.7-3.8,14.8c-0.7,1.3-5,1.4-9.8,1.1c-5.6-0.4-11.8-1.5-13.5-1.9c0,0-4.5,1.6-6.2-0.8
					C856,538.6,856.7,536.9,859,535.7z"/>
				<path class="st51" d="M891.4,513c2.6,1.2,1.9,8.8,0.5,15l-1-0.2l-6.2-1.1l-1.7-0.3C883.1,526.4,884.1,509.7,891.4,513z"/>
			</g>
		</g>
	</g>
	<g>
		<path class="st31" d="M1011,466.7c3.5-3.3,4.4-11.5,4.4-11.5s1.9,0.4,1.7-2.7c-0.2-3.1-2.7-1-2.7-1c-0.1,0-0.1-0.1-0.2-0.1
			c-3.4,0.2-7.2-5.6-8.4-7.7c-1.4-0.1-3.3,0.2-4.1,2.2c0,0-0.5,1.5-0.3,2.9c0.1,0.9,0.3,1.8,0.3,2.5c0,3.3-1.3,4.8-1,5.2
			c0.2,0.4,1.9,0.7,1.9,0.7s-0.1,1.3-0.4,1.8c-0.3,0.5,0.8,0.9,0.8,0.9s-0.5,1.2,0.2,1.4c0,0,0,0.8,0.1,1.7c0.1,0.9,1.6,0.5,5.5-0.7
			c3.3-1.1,0.3,9,0.3,9h8.1c0,0-1.2-3-1.1-6.6c-1.5,0.3-3,0.9-4.6,1.6C1011.1,466.3,1011.1,466.7,1011,466.7z"/>
		<path class="st35" d="M1019.7,440.3c-1.6-1.6-3.9-2.3-6.1-2.3c-5.9-2.6-12.3,1.9-13.1,5.2c-1,3.8,0.9,6.1,0.9,6.1
			c0-0.2-0.1-0.4-0.1-0.6c-0.1-1.5,0.3-2.9,0.3-2.9c0.8-1.9,2.6-2.3,4.1-2.2c1.2,2.1,5.1,7.9,8.4,7.7c0.1,0,0.1,0.1,0.2,0.1
			c0,0,2.5-2.1,2.7,1c0.2,3.1-1.7,2.7-1.7,2.7s-0.8,8.2-4.4,11.5c0.1,0,0.2-0.1,0.3-0.1c1.6-0.7,3.1-1.1,4.6-1.3
			c2.2-0.4,4.5-0.7,6.9-1.6c0-1.2,0.6-4.2,0.8-5.1C1024.2,454.9,1026.1,446.5,1019.7,440.3z"/>
		<path class="st31" d="M999.3,524c-1.2,2.8-2.6,7.1-4,9.3c-0.9,1.5,0.7,1.3,2.1-0.1c1.2-1.1,4.1-4.6,4.5-5.9c0,0-1.3,3.3-1,3.8
			c0.2,0.5,3.3-2.6,2.9-8.7l-3.6-0.4C999.9,522.5,999.6,523.2,999.3,524z"/>
		<polygon class="st43" points="1015.3,481.2 1007,480.2 1006.4,480.4 999.6,522 1000.1,522 1003.7,522.4 1004.4,522.5 		"/>
		<path class="st52" d="M1001.5,529.2c0,0,0.3-45.4,7.5-56.3"/>
		<polygon class="st12" points="997.4,541.1 1022.2,542.3 1022.2,519.4 997.4,518.2 		"/>
		<path class="st45" d="M1004.2,520.5c0.1,0.3,0.1,0.6,0.2,0.9c0.1-0.3,0.1-0.5,0.2-0.8C1004.4,520.5,1004.3,520.5,1004.2,520.5z"/>
		<path class="st53" d="M1019.3,555.9c0,0-1.9-20.9,0.5-26c-1,0.9-2.2,1.8-3.5,2.6c-2.2,1.4-5.1,8.1-7.3,14.1
			c0.9,4.8,1.8,9.2,2.2,11.7c1.5,7.9,10.3,36.9,10.3,36.9l6.5-1.7L1019.3,555.9z"/>
		<path class="st54" d="M1016.4,532.5c1.3-0.8,2.5-1.7,3.5-2.6c3.3-2.9,4.7-6.4,3.6-11.6c0,0.1,0,0.1,0,0.2c0,0-9.7,4-19,2.1
			c-0.1,0.3-0.1,0.5-0.2,0.8c-0.2,0.8-0.4,1.7-0.6,2.6c-0.7,2.7-5.1,25-6.5,31.9c-1.6,7.8-4.4,40.5-4.4,40.5l6.7,0.9l6-40.5
			c0,0,1.5-4.8,3.5-10.1C1011.3,540.6,1014.2,533.9,1016.4,532.5z"/>
		<path class="st23" d="M1023.5,518.5c0-0.1,0-0.1,0-0.2c-0.2-7.2-2-23.9-1.3-32.8c1.3-15.9-2.2-16.5-4.9-16.8
			c-2.7-0.3-12.7,4.2-14.6,12.6c-0.7,3.1,1.3,8.7,1,14.6c-0.4,10.2-2.7,21.5-2.3,23.6c0.9,0.3,1.8,0.6,2.7,0.8c0.1,0,0.2,0,0.3,0.1
			C1013.8,522.5,1023.5,518.5,1023.5,518.5z"/>
		<path class="st35" d="M993.7,596c0,0-1.5,3.3-4.6,4.5c-3.1,1.2-6,1-6.4,3.1c0,0,4.3,2.7,17.3,1v-7.6L993.7,596z"/>
		<path class="st35" d="M1022.1,594.8c0,0-0.7,2.9-3.3,4.8c-2.6,1.9-5.8,2.5-5.7,4.5c0,0,7,2.4,16.1-3l-1.5-7.7L1022.1,594.8z"/>
		<polygon class="st55" points="1017.2,466.7 1017.8,468.8 1005.6,476 1007,471.6 		"/>
		<path class="st46" d="M1011.4,551.6v-8.4c0-1.7-1.4-3.1-3.1-3.1h-3.9c-1.7,0-3.1,1.4-3.1,3.1v8.3"/>
		<polygon class="st47" points="1019.3,576.2 993.1,576.2 995,546.2 1017.6,546.3 		"/>
		<rect x="997.9" y="554.8" class="st23" width="16.9" height="15.3"/>
		<path class="st31" d="M1005,538c-0.7,1.8,0.4,2,0.4,2s-1,5.8,0.1,6.4c1.5,0.8,3.3-1.1,4.6-4.2c1.2-3.1,1.5-5.5,1.6-6.7l-4.5-1.3
			C1006.6,534.9,1005.5,536.7,1005,538z"/>
		<path class="st55" d="M1020.1,470.8c-1.3-2.8-4.9-0.2-6.1,2.3c-4.2,8.4-1.3,33.7-1.3,33.7l-5.7,27.2l0.3,0.1l4.5,1.3l0.2,0
			c2.6-10.4,5.2-17.8,6.5-26.8C1021.4,488.2,1021.4,473.6,1020.1,470.8z"/>
	</g>
	<path class="st56" d="M1147.9,433c0.1-0.4,0.3-0.7,0.5-1.1c0.8-1.8,2.8-3.7,5.5-4.8c2.6-1.2,5.7-1.4,8.7,0.2c2,0,4.1,0.7,5.9,2.2
		c1.6,1.4,4,4,4,9.5c0,5.5-5.1,10.2-6.3,11.3l0,0c-0.1-0.9-0.3-3-0.8-3.8c-0.3-0.5-0.7-1-1.1-1.4c0.6-0.1,1.5-0.6,1.3-2.9
		c-0.2-3.3-2.9-1.1-2.9-1.1c-0.1,0-0.6,1.8-0.7,1.8c-0.5,0-1.1-2.2-1.1-2.2l-4.7-6.1c-0.7,0-3.9,0.1-5.4,1c-1.7,1-1.7,3.3-1.7,3.3
		c0.1,0.7,0.2,1.4,0.2,2.1c0,3.5-1.3,5-1.1,5.4c0.3,0.4,2,0.7,2,0.7s-0.1,1.3-0.4,1.9c-0.3,0.6,0.8,0.9,0.8,0.9s-0.6,1.3,0.2,1.5
		c0,0,0,0.7,0.1,1.5c-1,0.5-1.9,0.8-1.9,0.8s-1.2-2.9-2-10.4C1146.8,440.8,1146.4,437,1147.9,433z"/>
	<path class="st31" d="M1150.6,450c0,0-1.1-0.3-0.8-0.9c0.3-0.6,0.4-1.9,0.4-1.9s-1.7-0.3-2-0.7c-0.3-0.4,1-2,1.1-5.4
		c0-0.6-0.1-1.3-0.2-2.1c0,0,0-2.2,1.7-3.3c1.5-0.9,4.7-1,5.4-1l4.7,6.1c0,0,0.5,2.3,1.1,2.2c0.1,0,0.7-1.9,0.7-1.8
		c0,0,2.7-2.2,2.9,1.1c0.2,2.3-0.8,2.8-1.3,2.9c0.4,0.4,0.8,0.9,1.1,1.4c0.5,0.8,0.7,2.9,0.8,3.8c-0.1,0.1-0.2,0.2-0.3,0.4
		c-3.2,4,0.8,9.2,0.8,9.2l-9.7,3.5c0,0,3.1-11.3-0.3-10.2c-4,1.3-5.6,1-5.7,0.1c0-0.1,0-0.2,0-0.3c-0.1-0.8-0.1-1.5-0.1-1.5
		C1150,451.3,1150.6,450,1150.6,450z"/>
	<path class="st31" d="M1142.7,527.2c1.5-2.4,3-6.9,4.3-9.8c0.2-0.4,0.3-0.7,0.5-1l-0.1,0.9l4.4-1.2c0.3,6.2-2.8,9.4-3.1,8.9
		c-0.3-0.6,1.1-4,1.1-4c-0.4,1.4-3.5,5-4.7,6.2C1143.4,528.6,1141.7,528.8,1142.7,527.2z"/>
	<polygon class="st12" points="1147.4,516.4 1154.4,473.6 1155.1,471.5 1163.7,472.5 1152.3,515.9 1151.6,516.1 1147.2,517.3 	"/>
	<path class="st33" d="M1135.3,599.3c3.1,1,4.5-3,5.1-5.8l6.6,0.9l-0.2,10.7l-2,0.1l-0.3-6.6c0,0-2,6.1-3.6,6.4
		c-1.6,0.3-7.1-1.5-8.9-2.5C1130.3,601.4,1132.6,598.5,1135.3,599.3z"/>
	<path class="st33" d="M1181.8,601.1l-1.7,0.9l-3.2-5.8c0,0,0.9,6.4-0.4,7.3c-1.3,0.9-7.1,1.8-9.1,1.7c-2-0.1-1.2-3.8,1.6-4.2
		c3.8-0.6,2.4-6.4,1.6-8.9l6.3-1.7L1181.8,601.1z"/>
	<path class="st55" d="M1164.9,526.4c1.4-0.9,2.6-1.8,3.7-2.7c-2.5,5.3-0.6,27.3-0.6,27.3l9.2,39.4l-0.4,0.1l-6.3,1.7l-0.2,0.1
		c0,0-9.3-30.5-10.8-38.8c-0.5-2.6-1.4-7.2-2.4-12.3C1159.5,534.9,1162.6,527.8,1164.9,526.4z"/>
	<path class="st23" d="M1140.1,593.5c0,0,2.9-34.4,4.6-42.6c1.5-7.2,6.1-30.7,6.9-33.5c0.4-1.4,0.7-2.7,0.9-4
		c10.3,3.5,19.8-1.7,19.8-1.7c0-0.1,0-0.1,0-0.2c1.1,5.5-0.4,9.1-3.8,12.2c-1.1,0.9-2.3,1.8-3.7,2.7c-2.3,1.5-5.4,8.5-7.7,14.8
		c-2.1,5.6-3.7,10.6-3.7,10.6l-6.4,42.6l-0.1,0l-6.6-0.9L1140.1,593.5z"/>
	<path class="st35" d="M1152.6,513.3c-0.2-0.1-0.4-0.1-0.6-0.2c-0.4-2.2,0-13.5,0.4-24.2c0.3-6.3-1.3-5.5-2.4-8.6
		c-2.1-6.5,7-16.8,7-16.8s7.3-4.9,8.9-4.7c2.8,0.3,6.5,1.7,5.2,18.3c-0.8,9.3,1.1,26.8,1.4,34.4c0,0.1,0,0.1,0,0.2
		C1172.4,511.6,1162.9,516.8,1152.6,513.3z"/>
	<polygon class="st47" points="1161,536.2 1175,525.1 1175,539.2 1147,539.2 1147,525.1 	"/>
	<polygon class="st30" points="1147.5,525.2 1147.5,525.2 1147.5,525.2 1175,525.2 1175,525.2 1175,525.2 1161.3,536.2 	"/>
	<path class="st31" d="M1152.9,532.1c0.5-1.4,1.7-3.2,2.4-4.1l4.7,1.4c-0.1,1.2-0.4,3.8-1.7,7.1c-1.3,3.3-3.3,5.3-4.8,4.5
		c-1.2-0.7-0.1-6.7-0.1-6.7S1152.2,534,1152.9,532.1z"/>
	<path class="st12" d="M1154.9,528l6-28.6c0,0-3.8-27.8,0.6-36.7c1.3-2.6,5.4-4,7.6,0.2c1.5,2.9,1,17-2.1,38.5
		c-1.4,9.5-4.2,17.3-6.9,28.2l-0.2-0.1l-4.7-1.4L1154.9,528z"/>
	<g>
		<path class="st31" d="M1294.4,517.8c0.3,0.1,0.6,0.2,1,0.3c0.1,1.2,0.2,2.4,0.4,3.7c0.1,0.6,0.4,2.1,0.8,4.2
			c-0.5,2.8-1.1,6.2-1.7,9.6c-1.6-0.7-2.1-6.2-1.5-11.8c0.2-1.9,0.5-6.2,1-11.4C1294.3,515.4,1294.3,517.4,1294.4,517.8z"/>
		<path class="st35" d="M1320.9,594.6c0.5,0.6,1.1,1.6,1.5,3.2c0.9,3.5,1.1,3.5-0.5,4.3c-1.6,0.8-4.7,1.7-9.1,2.2
			c-4,0.5-8.6,0.9-10.9-0.1c-0.8-0.3-0.8-1.4-0.5-2.6c0.3-1.2,5.6-1.1,7.6-2.3c1.1-0.6,2.3-1.7,3.2-2.6c0,0.1,0,0.2,0.1,0.3
			L1320.9,594.6z"/>
		<path class="st35" d="M1277.4,597.5c0.5-1.2,5.7-0.4,7.8-1.3c1.4-0.6,3.4-2.5,4.6-3.6l8.2,0.6c0.3,0.7,0.5,1.6,0.7,3
			c0.5,3.5,0.7,3.5-1,4.1c-1.7,0.6-4.9,1.1-9.3,1.2c-4.1,0-8.7,0-10.8-1.3C1276.8,599.7,1276.9,598.7,1277.4,597.5z"/>
		<path class="st12" d="M1289.2,592.5c0,0,0.9-31.2,2.5-39.6c0.6-3.4,1.9-10.5,3.1-17.3c0.6-3.4,1.2-6.8,1.7-9.6
			c1.5,7.4,4.7,21.9,5.9,28.3l-4.2,38.9l-0.3,0l-8.2-0.6L1289.2,592.5z"/>
		<path class="st1" d="M1296.5,526c-0.4-2.1-0.7-3.6-0.8-4.2c-0.2-1.2-0.3-2.5-0.4-3.7c9.2,2.9,19-0.3,21.8-1.3
			c-0.3,2.3-1,5.1-2.7,8.1c-1,1.8-0.2,27.9-0.2,27.9l6.7,41.7l0,0l-8.7,2.5c0-0.1,0-0.2-0.1-0.3c-6.8-25.3-7.6-31.6-9.6-41.7
			c-0.1-0.3-0.1-0.6-0.2-0.9C1301.2,547.9,1298,533.4,1296.5,526z"/>
		<path class="st31" d="M1301.3,463.4c0.1-1.3,0.1-3.1,0.2-4.5c0.1-1.1,0.4-1.5,0.4-2.4c0-1.6-0.3-2.7-1.1-2.5
			c-4.3,1.2-6.5,0.5-6.6-0.4c-0.1-0.9,0.1-2.1,0.1-2.1c-0.9-0.6,0.1-1.3,0.1-1.3s-1.1-0.6-0.7-1.2c0.4-0.6,0.3-1.6,0.3-1.6
			s-2,0.8-2.4-0.2c-0.2-0.5,0.9-3,1.5-6c0.4-1.9-0.4-4.4,0.5-6.6c0.9-0.1,2.1-0.3,3.1-0.4c2.6-0.1,6,0.8,6.3,3.2
			c0.6,4.3,3,4.8,4.1,5.6c0,0,1-1.9,2.6-1.2c1.8,0.8-0.3,5.5-0.3,5.5l2.4,4.3c0,0,0,0,0,0c-0.5,2.8,0.1,6.9,0.4,9.1
			C1311.7,460.9,1301.3,463.4,1301.3,463.4C1301.3,463.4,1301.3,463.4,1301.3,463.4z"/>
		<path class="st38" d="M1312.5,460.7c-0.1,0-0.2-0.1-0.3-0.1C1312.3,460.7,1312.4,460.7,1312.5,460.7z"/>
		<path class="st38" d="M1300.6,464.7c-0.1,0.3-0.3,0.5-0.4,0.8C1300.4,465.2,1300.5,465,1300.6,464.7z"/>
		<path class="st41" d="M1295.3,518.1c-0.3-0.1-0.6-0.2-1-0.3c-0.1-0.4-0.1-2.4-0.1-5.4c0.1-5.7,0.4-14.8,1.2-22.7
			c0.9-8.1,1.4-16.5,4.6-23.9c-0.1,0.2-0.2,0.5-0.3,0.7c1.8-0.8,3.6-1.4,5.2-2c2.5-1,5-2.1,7.6-3c0,0,0-0.1,0-0.1
			c0.1-0.2,0.1-0.5,0.2-0.7c-0.1,0-0.2-0.1-0.3-0.1c0.8,0.2,1.7,0.7,2.4,1.9c-0.5-0.3-0.9-0.4-1.5-0.4c-12.5,0.3-2.7,24.4-2.7,24.4
			l0.4-0.2l5.3,15.5c0,0,0.6,4.5,1.5,10.3c0,1.6,0,3.1,0.1,4.2c0,0-0.3,0.1-0.8,0.3C1314.3,517.8,1304.5,521,1295.3,518.1z"/>
		<path class="st42" d="M1312.6,461.5C1312.6,461.5,1312.6,461.6,1312.6,461.5c-2.6,1-5.2,2.1-7.7,3.1c-1.6,0.6-3.4,1.2-5.2,2
			c0.1-0.2,0.2-0.5,0.3-0.7c0-0.1,0.1-0.2,0.1-0.3c0.1-0.3,0.2-0.6,0.4-0.8c0.2-0.4,0.4-0.9,0.6-1.3c0,0,0,0,0,0
			c0,0,10.5-2.6,10.9-2.7c0,0,0,0,0,0c0.1,0,0.2,0.1,0.3,0.1c0,0,0,0,0,0c0.1,0,0.2,0.1,0.3,0.1
			C1312.8,461.1,1312.7,461.3,1312.6,461.5z"/>
		<path class="st35" d="M1309.3,447.3c0,0,2-4.7,0.3-5.5c-1.5-0.7-2.6,1.2-2.6,1.2c-1.1-0.9-3.5-1.3-4.1-5.6
			c-0.3-2.4-3.7-3.3-6.3-3.2c-1,0-2.2,0.3-3.1,0.4c-1.5,0.1-2.1-0.3,1.2-3.3c5.2-4.8,14.3-3,18.1-0.2c3.7,2.8,3.4,9.3,2.6,12.9
			c-0.8,3.5-3.6,7.5-3.6,7.6c0,0,0,0,0,0L1309.3,447.3z"/>
		<path class="st39" d="M1330.3,544.9c0,0,0.1,0,0.1,0C1330.4,544.9,1330.3,544.9,1330.3,544.9z"/>
		<path class="st39" d="M1327.7,544.6c0.1,0,0.1,0,0.2,0.1C1327.8,544.6,1327.8,544.6,1327.7,544.6z"/>
		<path class="st39" d="M1331.4,544.1C1331.4,544.1,1331.4,544,1331.4,544.1C1331.4,544,1331.4,544.1,1331.4,544.1z"/>
		<path class="st39" d="M1327.3,544.4c0.1,0,0.1,0.1,0.2,0.1C1327.4,544.4,1327.4,544.4,1327.3,544.4z"/>
		<path class="st39" d="M1330.8,544.8C1330.8,544.7,1330.8,544.7,1330.8,544.8C1330.8,544.7,1330.8,544.7,1330.8,544.8z"/>
		<path class="st39" d="M1329.8,545c0,0,0.1,0,0.1,0C1329.9,545,1329.8,545,1329.8,545z"/>
		<path class="st39" d="M1330.1,545c0,0,0.1,0,0.1,0C1330.1,545,1330.1,545,1330.1,545z"/>
		<path class="st39" d="M1328,544.7c0.1,0,0.1,0,0.2,0.1C1328.2,544.8,1328.1,544.7,1328,544.7z"/>
		<path class="st39" d="M1328.4,544.8c0,0,0.1,0,0.1,0C1328.5,544.9,1328.4,544.9,1328.4,544.8z"/>
		<path class="st39" d="M1328.7,544.9c0,0,0.1,0,0.1,0C1328.8,545,1328.8,545,1328.7,544.9z"/>
		<path class="st39" d="M1331.2,544.4C1331.2,544.4,1331.2,544.4,1331.2,544.4C1331.2,544.4,1331.2,544.4,1331.2,544.4z"/>
		<path class="st39" d="M1331.3,544.3C1331.3,544.2,1331.3,544.2,1331.3,544.3C1331.3,544.2,1331.3,544.2,1331.3,544.3z"/>
		<path class="st39" d="M1330.6,544.9C1330.6,544.9,1330.6,544.8,1330.6,544.9C1330.6,544.8,1330.6,544.9,1330.6,544.9z"/>
		<path class="st39" d="M1329.1,545C1329.2,545,1329.2,545,1329.1,545C1329.2,545,1329.2,545,1329.1,545z"/>
		<path class="st39" d="M1331,544.6C1331,544.6,1331,544.6,1331,544.6C1331,544.6,1331,544.6,1331,544.6z"/>
		<path class="st39" d="M1329.5,544.2c0,0,0.1,0,0.1,0C1329.6,544.2,1329.5,544.2,1329.5,544.2z"/>
		<path class="st39" d="M1326.1,543.5c0,0,0.1,0.1,0.1,0.1C1326.2,543.6,1326.2,543.5,1326.1,543.5z"/>
		<path class="st39" d="M1331.5,543.4C1331.5,543.4,1331.5,543.4,1331.5,543.4C1331.5,543.4,1331.5,543.4,1331.5,543.4z"/>
		<path class="st39" d="M1331.5,543.7C1331.5,543.6,1331.5,543.6,1331.5,543.7C1331.5,543.6,1331.5,543.6,1331.5,543.7z"/>
		<path class="st39" d="M1331.5,543.9C1331.5,543.8,1331.5,543.8,1331.5,543.9C1331.5,543.8,1331.5,543.8,1331.5,543.9z"/>
		<path class="st39" d="M1325,542.3c0.1,0.1,0.1,0.1,0.2,0.2C1325.1,542.4,1325.1,542.4,1325,542.3z"/>
		<path class="st39" d="M1325.7,543.1c0.1,0.1,0.1,0.1,0.2,0.2C1325.9,543.2,1325.8,543.2,1325.7,543.1z"/>
		<path class="st39" d="M1325.4,542.7c0.1,0.1,0.1,0.1,0.2,0.2C1325.5,542.8,1325.4,542.8,1325.4,542.7z"/>
		<path class="st39" d="M1324.4,541.3c0,0.1,0.1,0.1,0.1,0.2C1324.4,541.4,1324.4,541.4,1324.4,541.3z"/>
		<path class="st39" d="M1327,544.2c0,0,0.1,0.1,0.1,0.1C1327.1,544.2,1327,544.2,1327,544.2z"/>
		<path class="st39" d="M1326.5,543.8c0,0,0.1,0.1,0.1,0.1C1326.6,543.9,1326.6,543.9,1326.5,543.8z"/>
		<path class="st39" d="M1324.7,541.8c0.1,0.1,0.1,0.1,0.2,0.2C1324.8,542,1324.7,541.9,1324.7,541.8z"/>
		<path class="st31" d="M1311.2,486.4l10.7-4.1c0.6,2.8,2.5,12.4,3,14.1c0.5,2.1,2.6,37.8,2.6,37.8s0-0.1,0-0.2
			c-0.6-0.2-1.2-0.4-1.8-0.7c-0.4,0.2-0.9,0.3-1.4,0.4c-0.1,0.3-0.2,0.7-0.3,1c0,0.2-0.2,1.4-0.2,1.8c0,0.8,0,1.5,0,2.3
			c0,0.7,0.1,1.3,0.1,2c0,0,0,0,0,0c-0.5-0.8-0.9-1.8-1.3-2.9c-1.7-5.3-3.6-17-4.9-25.6c-0.9-5.9-1.5-10.3-1.5-10.3L1311.2,486.4z"
			/>
		<path class="st31" d="M1323.9,538.8c0-0.8-0.1-1.5,0-2.3c0-0.4,0.2-1.6,0.2-1.8c0.1-0.3,0.2-0.7,0.3-1c0.5-0.1,0.9-0.2,1.4-0.4
			c0.6,0.3,1.2,0.6,1.8,0.7c0,0.1,0,0.2,0,0.2s3.1,6,3.9,8.9c0,0.1,0,0.2,0,0.2c0,0,0,0.1,0,0.1c0,0.1,0,0.1,0,0.2c0,0,0,0.1,0,0.1
			c0,0,0,0.1,0,0.1c0,0,0,0.1,0,0.1c0,0,0,0.1,0,0.1c0,0,0,0.1,0,0.1c0,0,0,0.1-0.1,0.1c0,0,0,0,0,0.1c0,0-0.1,0.1-0.1,0.1
			c0,0,0,0,0,0.1c0,0.1-0.1,0.1-0.2,0.2c0,0,0,0,0,0c-0.1,0-0.1,0.1-0.2,0.1c0,0,0,0-0.1,0c0,0-0.1,0-0.1,0.1c0,0-0.1,0-0.1,0
			c0,0-0.1,0-0.1,0.1c0,0-0.1,0-0.1,0c0,0-0.1,0-0.1,0c0,0-0.1,0-0.1,0c-0.1,0-0.1,0-0.2,0c0,0-0.1-0.4-0.1-0.4
			c-0.1,0-0.1-0.4-0.2-0.4c0,0-0.1,0-0.1,0c-0.1,0-0.2,0.4-0.3,0.4c0,0-0.1,0.2-0.1,0.2c-0.1,0-0.2,0.1-0.3,0.1c0,0-0.1,0-0.1,0
			c-0.1,0-0.1,0-0.2,0c0,0-0.1,0-0.1,0c-0.1,0-0.1,0-0.2-0.1c-0.1,0-0.1,0-0.2-0.1c-0.1,0-0.1-0.1-0.2-0.1c-0.1,0-0.1,0-0.2-0.1
			c-0.1,0-0.1-0.1-0.2-0.1c-0.1,0-0.1-0.1-0.2-0.1c-0.1,0-0.1-0.1-0.2-0.1c0,0-0.1-0.1-0.1-0.1c-0.1-0.1-0.2-0.1-0.3-0.2
			c0,0-0.1-0.1-0.1-0.1c-0.1-0.1-0.2-0.1-0.3-0.2c0,0-0.1-0.1-0.1-0.1c-0.1-0.1-0.1-0.1-0.2-0.2c-0.1-0.1-0.1-0.1-0.2-0.2
			c-0.1-0.1-0.1-0.1-0.2-0.2c-0.1-0.1-0.1-0.1-0.2-0.2c-0.1-0.1-0.1-0.2-0.2-0.2c-0.1-0.1-0.1-0.1-0.2-0.2c-0.1-0.1-0.1-0.2-0.2-0.3
			c-0.1-0.1-0.1-0.1-0.2-0.2c-0.1-0.1-0.1-0.2-0.2-0.3c0-0.1-0.1-0.1-0.1-0.2c-0.1-0.2-0.2-0.3-0.3-0.5c0,0,0,0,0,0
			C1324,540.1,1324,539.4,1323.9,538.8z"/>
		<path class="st42" d="M1311.2,486.4l-0.4,0.2c0,0-9.7-24.1,2.7-24.4c0.5,0,1,0.1,1.5,0.4c3.5,2,5.5,11.1,7.4,19.5l-0.4,0.1
			L1311.2,486.4z"/>
		<g>
			<path class="st40" d="M1356.2,597c-0.6,0.6-1.4,1.3-2.2,1.7c-1,0.6-3.4,0.7-4.5,1.1l0.1-26.2c0,0,0.1-0.2,0.2-0.7
				c0.1,0.4,0.2,0.8,0.3,1.3C1351.5,580.9,1355,589.2,1356.2,597z"/>
			<path class="st31" d="M1345.7,552c-0.2,0.6-0.5,3.1-1,6.1c-1.3,0-1.4-3.9-0.7-8c0.6,0.2,1.3,0.3,2,0.4
				C1345.9,551,1345.8,551.5,1345.7,552z"/>
			<path class="st31" d="M1350.1,508.1c0-1.3-0.2-2.2-0.8-2.1c-3.6,0.8-5.3-0.2-5.4-0.9c-0.1-0.8,0.2-1.4,0.2-1.4
				c-0.7-0.6,0.1-1,0.1-1s-0.8-0.6-0.5-1c0.3-0.5,0.3-1.3,0.3-1.3s-1.5-0.2-1.8-1c-0.2-0.4,1-1.1,1.7-3.5c0.5-1.8-0.5-4.8,1-6.7
				c0.6,0.3,1.3,0.6,2,0.6c2.1,0.1,4.8,0.9,5,2.9c0.3,3.5,2.2,4,3.1,4.8c0,0,0.9-1.5,2.1-0.9c1.4,0.7-0.5,4.5-0.5,4.5l1,3
				c-0.4,1.2-0.4,2.9-0.1,4.5l-7.6,2.3C1350,509.6,1350.1,508.5,1350.1,508.1z"/>
			<path class="st12" d="M1357.1,496.5c-1.2-0.6-2.1,0.9-2.1,0.9c-0.9-0.7-2.8-1.2-3.1-4.8c-0.2-2-2.8-2.8-5-2.9
				c-0.7,0-1.4-0.3-2-0.6c-2.2-1.3-3.3-4.1,1.1-3.3c5.7,1,11-0.5,13.9,1.9c2.9,2.5,2.6,7.9,1.8,10.7c-0.9,2.9-4.1,5.6-4.1,5.6l0-0.1
				l-1-3C1356.6,501,1358.5,497.2,1357.1,496.5z"/>
			<path class="st35" d="M1349.2,600l-0.2,0v-0.1c1-0.4,3.8-0.5,4.8-1.1c0.7-0.4,1.7-1.2,2.3-1.7c0,0.1,0.1,0.1,0.1,0.2l5.9-1.5
				l0-0.2c0.4,0.4,0.8,1.1,1.1,2.2c0.6,2.3,0.8,2.3-0.3,2.9c-1.1,0.5-3.2,1.1-6.2,1.5c-2.4,0.3-5,0.5-6.7,0.2c0-0.2-0.2-0.4-0.2-0.6
				C1349.6,601,1349.3,600.4,1349.2,600z"/>
			<path class="st35" d="M1349.5,600c0.1,0.4,0.3,1,0.4,1.7c0,0.2,0.1,0.4,0.1,0.6c0.3,1.8,0.3,1.8-0.7,2.2
				c-1.1,0.4-3.3,0.8-6.3,0.8c-2.7,0-5.9,0-7.3-0.9c-0.5-0.3-0.4-1-0.1-1.8c0.3-0.8,3.9-0.2,5.3-0.9c0.8-0.4,2-1.4,2.8-2.1
				L1349.5,600z"/>
			<path class="st57" d="M1356.2,597.2c0-0.1,0-0.1,0-0.2c-1.2-7.9-4.7-16.2-6.1-22.8c-0.1-0.4-0.2-0.8-0.3-1.3
				c0.7-2.2,2.9-9.6,5.3-13.3c0-0.1-0.2-0.1-0.1-0.2c0.8-0.9,1.5-1.7,2.1-2.5c-0.5,3.4-0.8,13.8-0.8,13.8l5.8,24.6l0,0.2
				L1356.2,597.2z"/>
			<path class="st36" d="M1346,550.6c5.6,1,12.1,0.4,14.8,0c-0.2,1.7-1.4,3.6-3.7,6.5c-0.6,0.7-1.3,1.6-2.1,2.5
				c0,0.1,0.1,0.1,0.1,0.2c-2.3,3.7-4.6,11-5.3,13.3c-0.1,0.4-0.5,0.7-0.5,0.7l-0.4,26.2v0.1l0.2,0l-5.8-0.4l0,0
				c0,0-2.1-21.6-1.1-26.6c0.6-2.8,1.6-9.7,2.3-14.9c0.4-3,0.8-5.5,1-6.1C1345.8,551.5,1345.9,551,1346,550.6z"/>
			<path class="st1" d="M1353.2,542.6c1.2-2.1,3-10.7,3.8-14.8l1,0.2c1.4-6.1,2.1-13.8-0.5-15c-7.3-3.3-8.3,13.4-8.3,13.4l1.7,0.3
				l-2.9,11c-0.1,0-0.3,0-0.4,0c-0.7,0-1.8,0-3.2-0.1c0.3-2.2,0.6-4.5,0.8-6.6c0.6-5.2,0.7-12.1,2.9-17.2c1.2-0.5,2.7-1,3.7-1.4
				c1.6-0.6,6.2-1.7,6.7-1.8c1.7,1.2,3.5,4.1,3.7,11.2c0.2,6.5-0.2,23.5,0,28.6c0,0-0.5,0.1-1.3,0.2c-2.7,0.3-9.2,1-14.8,0
				c-0.7-0.1-1.4-0.3-2-0.4c-0.5-0.1-0.9-0.3-1.4-0.4c-0.1-0.4,0.3-2.8,0.8-6C1348.2,544,1352.5,543.9,1353.2,542.6z"/>
			<path class="st12" d="M1351.7,512.4c-1,0.4-2.5,0.9-3.7,1.4c0,0-0.1,0-0.1,0.1c0.3-0.7,1-2.3,1.3-3l0.6-0.2l7.6-2.3l0.6-0.2
				l0.4,2.2c0,0,0,0,0,0C1357.9,510.7,1353.3,511.8,1351.7,512.4z"/>
			<path class="st31" d="M1325,535.7c2.4-1.2,4.1,0.6,4.7,1.6c0,0,9.1,0.2,14.5,0.3c1.3,0,2.5,0,3.2,0.1c0.2,0,0.3,0,0.4,0l2.9-11
				l6.2,1.1c-0.8,4.1-2.6,12.7-3.8,14.8c-0.7,1.3-5,1.4-9.8,1.1c-5.6-0.4-11.8-1.5-13.5-1.9c0,0-4.5,1.6-6.2-0.8
				C1322,538.6,1322.7,536.9,1325,535.7z"/>
			<path class="st12" d="M1357.4,513c2.6,1.2,1.9,8.8,0.5,15l-1-0.2l-6.2-1.1l-1.7-0.3C1349.1,526.4,1350.1,509.7,1357.4,513z"/>
		</g>
	</g>
	<path class="st31" d="M1484,466.7c3.5-3.3,4.4-11.5,4.4-11.5s1.9,0.4,1.7-2.7c-0.2-3.1-2.7-1-2.7-1c-0.1,0-0.1-0.1-0.2-0.1
		c-3.4,0.2-7.2-5.6-8.4-7.7c-1.4-0.1-3.3,0.2-4.1,2.2c0,0-0.5,1.5-0.3,2.9c0.1,0.9,0.3,1.8,0.3,2.5c0,3.3-1.3,4.8-1,5.2
		c0.2,0.4,1.9,0.7,1.9,0.7s-0.1,1.3-0.4,1.8c-0.3,0.5,0.8,0.9,0.8,0.9s-0.5,1.2,0.2,1.4c0,0,0,0.8,0.1,1.7c0.1,0.9,1.6,0.5,5.5-0.7
		c3.3-1.1,0.3,9,0.3,9h8.1c0,0-1.2-3-1.1-6.6c-1.5,0.3-3,0.9-4.6,1.6C1484.1,466.3,1484.1,466.7,1484,466.7z"/>
	<path class="st58" d="M1492.7,440.3c-1.6-1.6-3.9-2.3-6.1-2.3c-5.9-2.6-12.3,1.9-13.1,5.2c-1,3.8,0.9,6.1,0.9,6.1
		c0-0.2-0.1-0.4-0.1-0.6c-0.1-1.5,0.3-2.9,0.3-2.9c0.8-1.9,2.6-2.3,4.1-2.2c1.2,2.1,5.1,7.9,8.4,7.7c0.1,0,0.1,0.1,0.2,0.1
		c0,0,2.5-2.1,2.7,1c0.2,3.1-1.7,2.7-1.7,2.7s-0.8,8.2-4.4,11.5c0.1,0,0.2-0.1,0.3-0.1c1.6-0.7,3.1-1.1,4.6-1.3
		c2.2-0.4,4.5-0.7,6.9-1.6c0-1.2,0.6-4.2,0.8-5.1C1497.2,454.9,1499.1,446.5,1492.7,440.3z"/>
	<path class="st31" d="M1472.3,524c-1.2,2.8-2.6,7.1-4,9.3c-0.9,1.5,0.7,1.3,2.1-0.1c1.2-1.1,4.1-4.6,4.5-5.9c0,0-1.3,3.3-1,3.8
		c0.2,0.5,3.3-2.6,2.9-8.7l-3.6-0.4C1472.9,522.5,1472.6,523.2,1472.3,524z"/>
	<polygon class="st43" points="1488.3,481.2 1480,480.2 1479.4,480.4 1472.6,522 1473.1,522 1476.7,522.4 1477.4,522.5 	"/>
	<path class="st59" d="M1474.5,529.2c0,0,0.3-45.4,7.5-56.3"/>
	<polygon class="st12" points="1470.4,541.1 1495.2,542.3 1495.2,519.4 1470.4,518.2 	"/>
	<path class="st45" d="M1477.2,520.5c0.1,0.3,0.1,0.6,0.2,0.9c0.1-0.3,0.1-0.5,0.2-0.8C1477.4,520.5,1477.3,520.5,1477.2,520.5z"/>
	<path class="st12" d="M1492.3,555.9c0,0-1.9-20.9,0.5-26c-1,0.9-2.2,1.8-3.5,2.6c-2.2,1.4-5.1,8.1-7.3,14.1
		c0.9,4.8,1.8,9.2,2.2,11.7c1.5,7.9,10.3,36.9,10.3,36.9l6.5-1.7L1492.3,555.9z"/>
	<path class="st1" d="M1489.4,532.5c1.3-0.8,2.5-1.7,3.5-2.6c3.3-2.9,4.7-6.4,3.6-11.6c0,0.1,0,0.1,0,0.2c0,0-9.7,4-19,2.1
		c-0.1,0.3-0.1,0.5-0.2,0.8c-0.2,0.8-0.4,1.7-0.6,2.6c-0.7,2.7-5.1,25-6.5,31.9c-1.6,7.8-4.4,40.5-4.4,40.5l6.7,0.9l6-40.5
		c0,0,1.5-4.8,3.5-10.1C1484.3,540.6,1487.2,533.9,1489.4,532.5z"/>
	<path class="st60" d="M1496.5,518.5c0-0.1,0-0.1,0-0.2c-0.2-7.2-2-23.9-1.3-32.8c1.3-15.9-2.2-16.5-4.9-16.8
		c-2.7-0.3-12.8,4.2-14.6,12.6c-0.7,3.1,1.3,8.7,1,14.6c-0.4,10.2-2.7,21.5-2.3,23.6c0.9,0.3,1.8,0.6,2.7,0.8c0.1,0,0.2,0,0.3,0.1
		C1486.8,522.5,1496.5,518.5,1496.5,518.5z"/>
	<path class="st35" d="M1466.7,596c0,0-1.5,3.3-4.6,4.5c-3.1,1.2-6,1-6.4,3.1c0,0,4.3,2.7,17.3,1v-7.6L1466.7,596z"/>
	<path class="st35" d="M1495.1,594.8c0,0-0.7,2.9-3.3,4.8c-2.6,1.9-5.8,2.5-5.7,4.5c0,0,7,2.4,16.1-3l-1.5-7.7L1495.1,594.8z"/>
	<polygon class="st61" points="1490.2,466.7 1490.8,468.8 1478.6,476 1480,471.6 	"/>
	<path class="st46" d="M1484.4,551.6v-8.4c0-1.7-1.4-3.1-3.1-3.1h-3.9c-1.7,0-3.1,1.4-3.1,3.1v8.3"/>
	<polygon class="st47" points="1492.3,576.2 1466.1,576.2 1468,546.2 1490.6,546.3 	"/>
	<rect x="1470.9" y="554.8" class="st23" width="16.9" height="15.3"/>
	<path class="st31" d="M1478,538c-0.7,1.8,0.4,2,0.4,2s-1,5.8,0.1,6.4c1.5,0.8,3.3-1.1,4.6-4.2c1.2-3.1,1.5-5.5,1.6-6.7l-4.5-1.3
		C1479.6,534.9,1478.5,536.7,1478,538z"/>
	<path class="st61" d="M1493.1,470.8c-1.3-2.8-4.9-0.2-6.1,2.3c-4.2,8.4-1.3,33.7-1.3,33.7l-5.7,27.2l0.3,0.1l4.5,1.3l0.2,0
		c2.6-10.4,5.2-17.8,6.5-26.8C1494.4,488.2,1494.4,473.6,1493.1,470.8z"/>
	<path class="st30" d="M1620.9,433c0.1-0.4,0.3-0.7,0.5-1.1c0.8-1.8,2.8-3.7,5.5-4.8c2.6-1.2,5.7-1.4,8.7,0.2c2,0,4.1,0.7,5.9,2.2
		c1.6,1.4,4,4,4,9.5c0,5.5-5.1,10.2-6.3,11.3l0,0c-0.1-0.9-0.3-3-0.8-3.8c-0.3-0.5-0.7-1-1.1-1.4c0.6-0.1,1.5-0.6,1.3-2.9
		c-0.2-3.3-2.9-1.1-2.9-1.1c-0.1,0-0.6,1.8-0.7,1.8c-0.5,0-1.1-2.2-1.1-2.2l-4.7-6.1c-0.7,0-3.9,0.1-5.4,1c-1.7,1-1.7,3.3-1.7,3.3
		c0.1,0.7,0.2,1.4,0.2,2.1c0,3.5-1.3,5-1.1,5.4c0.3,0.4,2,0.7,2,0.7s-0.1,1.3-0.4,1.9c-0.3,0.6,0.8,0.9,0.8,0.9s-0.6,1.3,0.2,1.5
		c0,0,0,0.7,0.1,1.5c-1,0.5-1.9,0.8-1.9,0.8s-1.2-2.9-2-10.4C1619.8,440.8,1619.4,437,1620.9,433z"/>
	<path class="st31" d="M1623.6,450c0,0-1.1-0.3-0.8-0.9c0.3-0.6,0.4-1.9,0.4-1.9s-1.7-0.3-2-0.7c-0.3-0.4,1-2,1.1-5.4
		c0-0.6-0.1-1.3-0.2-2.1c0,0,0-2.2,1.7-3.3c1.5-0.9,4.7-1,5.4-1l4.7,6.1c0,0,0.5,2.3,1.1,2.2c0.1,0,0.7-1.9,0.7-1.8
		c0,0,2.7-2.2,2.9,1.1c0.2,2.3-0.8,2.8-1.3,2.9c0.4,0.4,0.8,0.9,1.1,1.4c0.5,0.8,0.7,2.9,0.8,3.8c-0.1,0.1-0.2,0.2-0.3,0.4
		c-3.2,4,0.8,9.2,0.8,9.2l-9.7,3.5c0,0,3.1-11.3-0.3-10.2c-4,1.3-5.6,1-5.7,0.1c0-0.1,0-0.2,0-0.3c-0.1-0.8-0.1-1.5-0.1-1.5
		C1623,451.3,1623.6,450,1623.6,450z"/>
	<path class="st31" d="M1615.7,527.2c1.5-2.4,3-6.9,4.3-9.8c0.2-0.4,0.3-0.7,0.5-1l-0.1,0.9l4.4-1.2c0.3,6.2-2.8,9.4-3.1,8.9
		c-0.3-0.6,1.1-4,1.1-4c-0.4,1.4-3.5,5-4.7,6.2C1616.4,528.6,1614.7,528.8,1615.7,527.2z"/>
	<polygon class="st12" points="1620.4,516.4 1627.4,473.6 1628.1,471.5 1636.7,472.5 1625.3,515.9 1624.6,516.1 1620.2,517.3 	"/>
	<path class="st33" d="M1608.3,599.3c3.1,1,4.5-3,5.1-5.8l6.6,0.9l-0.2,10.7l-2,0.1l-0.3-6.6c0,0-2,6.1-3.6,6.4
		c-1.6,0.3-7.1-1.5-8.9-2.5C1603.3,601.4,1605.6,598.5,1608.3,599.3z"/>
	<path class="st33" d="M1654.8,601.1l-1.7,0.9l-3.2-5.8c0,0,0.9,6.4-0.4,7.3c-1.3,0.9-7.1,1.8-9.1,1.7c-2-0.1-1.2-3.8,1.6-4.2
		c3.8-0.6,2.4-6.4,1.6-8.9l6.3-1.7L1654.8,601.1z"/>
	<path class="st33" d="M1637.9,526.4c1.4-0.9,2.6-1.8,3.7-2.7c-2.5,5.3-0.6,27.3-0.6,27.3l9.2,39.4l-0.4,0.1l-6.3,1.7l-0.2,0.1
		c0,0-9.3-30.5-10.8-38.8c-0.5-2.6-1.4-7.2-2.4-12.3C1632.5,534.9,1635.6,527.8,1637.9,526.4z"/>
	<path class="st12" d="M1613.1,593.5c0,0,2.9-34.4,4.6-42.6c1.5-7.2,6.1-30.7,6.9-33.5c0.4-1.4,0.7-2.7,0.9-4
		c10.3,3.5,19.8-1.7,19.8-1.7c0-0.1,0-0.1,0-0.2c1.1,5.5-0.4,9.1-3.8,12.2c-1.1,0.9-2.3,1.8-3.7,2.7c-2.3,1.5-5.4,8.5-7.7,14.8
		c-2.1,5.6-3.7,10.6-3.7,10.6l-6.4,42.6l-0.1,0l-6.6-0.9L1613.1,593.5z"/>
	<path class="st1" d="M1625.6,513.3c-0.2-0.1-0.4-0.1-0.6-0.2c-0.4-2.2,0-13.5,0.4-24.2c0.3-6.3-1.3-5.5-2.4-8.6
		c-2.1-6.5,7-16.8,7-16.8s7.3-4.9,8.9-4.7c2.8,0.3,6.5,1.7,5.2,18.3c-0.8,9.3,1.1,26.8,1.4,34.4c0,0.1,0,0.1,0,0.2
		C1645.4,511.6,1635.9,516.8,1625.6,513.3z"/>
	<polygon class="st47" points="1634,536.2 1648,525.1 1648,539.2 1620,539.2 1620,525.1 	"/>
	<polygon class="st30" points="1620.5,525.2 1620.5,525.2 1620.5,525.2 1648,525.2 1648,525.2 1648,525.2 1634.3,536.2 	"/>
	<path class="st31" d="M1625.9,532.1c0.5-1.4,1.7-3.2,2.4-4.1l4.7,1.4c-0.1,1.2-0.4,3.8-1.7,7.1c-1.3,3.3-3.3,5.3-4.8,4.5
		c-1.2-0.7-0.1-6.7-0.1-6.7S1625.2,534,1625.9,532.1z"/>
	<path class="st12" d="M1627.9,528l6-28.6c0,0-3.8-27.8,0.6-36.7c1.3-2.6,5.4-4,7.6,0.2c1.5,2.9,1,17-2.1,38.5
		c-1.4,9.5-4.2,17.3-6.9,28.2l-0.2-0.1l-4.7-1.4L1627.9,528z"/>
</g>
</svg>
