<svg id="Layer_1" data-name="Layer 1" xmlns="http://www.w3.org/2000/svg" viewBox="0 0 117.68 162.81"><defs><style>.cls-1{fill:#fff;}</style></defs><title>cfa</title><path class="cls-1" d="M85.29,65.2q0.12,2.93,0,6.07A84.75,84.75,0,0,1,83,86.14C96,77.19,102.3,79.65,102.3,76.35,102.3,72.72,92.33,65.85,85.29,65.2Z" transform="translate(-1.09 -0.01)"/><path class="cls-1" d="M48,36.37c4.69-2.15,5.25-11,1.81-18.5S40.43,7.43,35.74,9.58s-6.35,8.55-2.9,16.08S43.33,38.52,48,36.37Z" transform="translate(-1.09 -0.01)"/><path class="cls-1" d="M116.47,16.42c-4.76-6.4-15-6.79-25.46.94S74.67,37.54,79.43,43.95s18.41,4.33,28.81-3.41S121.23,22.82,116.47,16.42Z" transform="translate(-1.09 -0.01)"/><path class="cls-1" d="M63.77,35.66C70,37,77.1,28.75,79.26,18.8S77.7,1.58,71.46.23,58.85,3.94,56.68,13.89,57.54,34.3,63.77,35.66Z" transform="translate(-1.09 -0.01)"/><path class="cls-1" d="M21.18,40.93C25.55,44.66,31.6,45.87,34,43s0.27-8.63-4.1-12.35-9-3.74-11.44-.91S16.82,37.2,21.18,40.93Z" transform="translate(-1.09 -0.01)"/><path class="cls-1" d="M66.29,66c0-1.23-.05-4-3.14-4-3.84.12-8,6.92-6.34,10.66C59.84,77.52,66.18,71.17,66.29,66Z" transform="translate(-1.09 -0.01)"/><path class="cls-1" d="M78.72,136.62c-1.91.42-3.45,1.71-5.37,3.27h0c-10.73,9.45-23.48,15-35.66,14.07-18.21-1.47-27.59-19.26-26.38-40.58,1.71-29.92,25.4-66,48-63.81,7.92,0.78,13.38,7.74,12.53,22.85-1,17.5-13.64,43-27,42.28-6.17-.34-8.1-6.65-7.63-12.21,1-12.06,7.16-15.37,7.57-20.26,0.24-2.87-2.72-4.13-4.88-3.45-3.72,1.18-11.13,10.38-12,23.45-1.1,16,9.46,20.95,15.71,21.3,18.51,1,36.58-24.77,38.09-51.88,1-17.55-6.68-28.89-21.19-30.44-28.2-3-57.83,33.86-59.35,72.49-0.91,23.1,10.21,48.42,36.36,49.12,12,0.32,24.28-5.66,35.86-12.1,4.8-3.3,9-7.5,9.43-9.71S81.54,136,78.72,136.62Z" transform="translate(-1.09 -0.01)"/></svg>