<svg id="Layer_1" data-name="Layer 1" xmlns="http://www.w3.org/2000/svg" viewBox="0 0 200 200"><defs><style>.cls-1{fill:#68bc49;opacity:0;}.cls-2{fill:#0039a6;}.cls-3{fill:#fff;}.cls-4{fill:#e45bbf;}</style></defs><title>clientLogo</title><path class="cls-1" d="M0 0h200v200H0z"/><path class="cls-2" d="M100 57.73A42.27 42.27 0 1 0 142.27 100 42.31 42.31 0 0 0 100 57.73z"/><circle class="cls-3" cx="100" cy="100" r="38.15"/><path class="cls-4" d="M100 140.1a40.1 40.1 0 1 1 40.09-40.1A40.14 40.14 0 0 1 100 140.1zm0-76.3a36.21 36.21 0 1 0 36.21 36.2A36.25 36.25 0 0 0 100 63.79z"/><path class="cls-4" d="M110.97 73.36l-7.15-.49-.59 31.56 4.35.4 3.39-31.47z"/><path class="cls-2" d="M84.55 74.42l-8.06 1.39 5.93 28.45 3.3-.16-1.17-29.68z"/><path class="cls-4" d="M85.57 73.17s10.9-1.29 13.9 5.83-4.55 10-4.55 10 8.15 1.56 5.79 8.9-13.82 6.59-13.82 6.59L87 102s6.19.61 7.16-4.43c1-5.21-6.4-5.24-6.4-5.24l-.24-3.76s5.57-.23 5.77-4.7S86 80 86 80z"/><path class="cls-2" d="M111.76 74.46s10.94 0 11.7 8.38-8.14 11.08-8.14 11.08l3.81 9.73-3.43.66-5.96-9.31.45-3.54s5.13-1.13 5.9-4.21c1.23-5-4.91-5.91-4.91-5.91zM82.31 109.69A3.72 3.72 0 0 1 84 109a3.64 3.64 0 0 1 4.17 3 3.6 3.6 0 0 1-3.24 4 3.78 3.78 0 0 1-1.82-.2l.11.68-2 .25-1.22-9.61 2-.25zm1.94 1.17a1.74 1.74 0 0 0-1.54 1.86 1.75 1.75 0 0 0 2 1.42 1.74 1.74 0 0 0 1.54-1.86 1.77 1.77 0 0 0-2-1.42M94.47 109.65l2 .1-.56 7.49-2-.09.09-.68a3.77 3.77 0 0 1-1.79.34 3.55 3.55 0 0 1-3.51-3.67 3.8 3.8 0 0 1 5.69-2.79zm-3.82 3.58a1.72 1.72 0 0 0 1.66 1.77 1.77 1.77 0 0 0 1.87-1.57 1.72 1.72 0 0 0-1.66-1.73 1.79 1.79 0 0 0-1.87 1.57M101 109.4l-.29.07c-.95.23-1.52.95-1.25 1.54l1.24 2.73c.59 1.3-.59 2.76-2.64 3.26l-.29.07-.57-1.24.29-.07c.95-.23 1.52-.94 1.25-1.54l-1.24-2.73c-.59-1.3.59-2.75 2.64-3.25l.29-.07zM105.37 112.8l-3.84 3.48.65-10.45 1.96.12-.43 5.81 3.46-3.51 1.42 1.25-1.86 1.91 2.17 2.93-1.58 1.07-1.95-2.61zM112 108a1.18 1.18 0 0 1-2.36.08 1.12 1.12 0 0 1 1.14-1.14A1.14 1.14 0 0 1 112 108m-.14 1.66L112 116l-2 .06-.23-6.42zM120.35 109.73l-.44 7.78-4.55-4.88-.09 3.46-1.97-.03.37-7.69 4.63 4.79.08-3.46 1.97.03zM80.51 118.39l2.19-.16.1.82a4.13 4.13 0 0 1 1.92-.62h.22l.17 2h-.22a1.92 1.92 0 0 0-1.81 2l.3 3.94-2.19.16zM88 119.94a3.13 3.13 0 1 1-3.31 3.16 3.25 3.25 0 0 1 3.31-3.16m0 4.61a1.49 1.49 0 1 0-1.6-1.46 1.56 1.56 0 0 0 1.6 1.46M93.91 120.86a3.35 3.35 0 0 1 1.6-.35 3.22 3.22 0 0 1 3.27 3.2 3.27 3.27 0 0 1-3.45 3 3.33 3.33 0 0 1-1.58-.42v.58h-1.77l.25-8.65H94zm1.55 1.29a1.58 1.58 0 0 0-1.63 1.45 1.56 1.56 0 0 0 1.55 1.52 1.49 1.49 0 1 0 .08-3M101 119.41a3.3 3.3 0 0 1 1.57-.44 3.13 3.13 0 1 1 .23 6.25 3.33 3.33 0 0 1-1.6-.33v.58l-1.77.06-.32-8.64 1.77-.06zm1.63 1.2a1.49 1.49 0 1 0 1.64 1.43 1.59 1.59 0 0 0-1.64-1.43M109 117.71a1 1 0 0 1-1.12.94 1 1 0 0 1-1-1 1.06 1.06 0 0 1 2.12.1m-.27 1.47l-.33 5.76-1.77-.09.32-5.75zM116.2 119.06l-.19 7.19-4.24-4.6-.02 3.1-1.77-.02.05-7.63 4.38 5.04.03-3.11 1.76.03zM120.59 119.46l-.29.06c-.93.17-1.49.88-1.23 1.5l1.21 2.88c.58 1.38-.59 2.8-2.6 3.18l-.29.05-.55-1.31.29-.05c.93-.18 1.5-.87 1.23-1.51l-1.21-2.88c-.58-1.38.59-2.79 2.6-3.17l.29-.05zM121.14 121a1.45 1.45 0 0 1 2.9 0 1.45 1.45 0 0 1-2.9 0zm2.64 0a1.14 1.14 0 0 0-1.2-1.19 1.19 1.19 0 0 0 0 2.38 1.14 1.14 0 0 0 1.2-1.19zm-.55.78h-.32l-.26-.39h-.29v.38h-.29v-1.57h.48a.6.6 0 0 1 .68.6.55.55 0 0 1-.31.51zm-.68-.62a.33.33 0 0 0 .38-.35.33.33 0 0 0-.38-.36h-.19v.71h.19z"/></svg>