<svg id="Layer_1" data-name="Layer 1" xmlns="http://www.w3.org/2000/svg" viewBox="0 0 200 200"><defs><style>.cls-1{fill:#68bc49;opacity:0;}.cls-2,.cls-5{fill:#005caa;}.cls-2{fill-rule:evenodd;}.cls-3{fill:#ffe01b;}.cls-4{fill:#98bee5;}.cls-6{fill:#ec1c2e;}.cls-7{fill:#fff;}</style></defs><title>clientLogo</title><path class="cls-1" d="M0 0h200v200H0z"/><path class="cls-2" d="M173.57 142.27a1.88 1.88 0 1 0-1.91-1.88 1.87 1.87 0 0 0 1.91 1.88zm-1.57-1.88a1.52 1.52 0 1 1 1.53 1.57 1.52 1.52 0 0 1-1.53-1.57zm1.13.15h.38l.57.94h.37l-.62-1a.56.56 0 0 0 .56-.6.61.61 0 0 0-.76-.62h-.82v2.16h.33v-.94zm0-.28v-.67h.45c.23 0 .47 0 .47.32s-.25.35-.53.35h-.39z"/><path id="_Path_" data-name="&amp;lt;Path&amp;gt;" class="cls-3" d="M161.06 100.47c-2.63-4.91 0-8.94 3.29-12.57l18.12-20.1c3.17-3.52 3.63-4.71 3.33-5.72a2 2 0 0 0-1.57-1.19c-1.16-.32-4.12-.21-7.36.25-2.88.41-10.31 1.74-12.21 2.11L30.39 89.59c-4.2.82-6.34 3.23-6.36 7.16 0 5.44 4.5 7.52 8.3 8.3 8.05 1.66 131 27.24 132.26 27.49 7.58 1.72 9.29.67 10.51-.67a4.47 4.47 0 0 0 .13-4.94z"/><path id="_Path_2" data-name="&amp;lt;Path&amp;gt;" class="cls-4" d="M100 72.62L36 60.05c-2-.39-9.34-1.67-12.4-2-1.7-.21-5.77-.55-8 .15s-2.93 1.95-3 4.12c.07-1.63 1.24-2.54 2.84-3 1.79-.48 5.55-.14 8 .21 3 .42 10.43 1.76 12.29 2.13l60.12 11.8z"/><path id="_Path_3" data-name="&amp;lt;Path&amp;gt;" class="cls-4" d="M57.55 113.61l-25.28 8.82c-7.35 2.57-10.67.5-10.36-3.3-.26 1.94-.27 3.68.89 4.77 1.43 1.36 3.88 2.2 10 .06l27.84-9.72z"/><path id="_Path_4" data-name="&amp;lt;Path&amp;gt;" class="cls-4" d="M31.73 120.9c-3.55 1.24-6.37 1.39-7.56.39a2.46 2.46 0 0 1-.59-2.42c.27-1.66 1.28-3 3.07-5l5.17-5.63L54.46 113z"/><path id="_Path_5" data-name="&amp;lt;Path&amp;gt;" class="cls-4" d="M17.53 67.8c-3.17-3.52-3.63-4.71-3.33-5.72a2 2 0 0 1 1.57-1.19c1.16-.32 4.12-.21 7.36.25 2.88.41 10.31 1.74 12.21 2.11l56.21 11-57.94 11.39z"/><path class="cls-3" d="M184.46 58.15c-2.26-.7-6.32-.36-8-.15-3.06.38-10.43 1.66-12.4 2L95.77 73.44 35.65 61.65c-1.87-.37-9.32-1.7-12.29-2.13-2.46-.35-6.23-.69-8-.21-1.59.43-2.76 1.34-2.84 3s.65 3.1 3.81 6.61L31.75 86l-2 .39c-5.69 1.12-9 4.88-9 10.34a10.55 10.55 0 0 0 2.72 7.33 13.83 13.83 0 0 0 6.53 3.77l-4.56 5c-1.66 1.81-3 3.41-3.41 5.44v.06c0 .28-.09.56-.13.84-.31 3.8 3 5.86 10.36 3.3l25.28-8.82 106.37 22.12c6.65 1.51 10.6 1 12.63-1.13a5.72 5.72 0 0 0 1.08-6.25c-.08-.24-.26-.67-.52-1.26a5.87 5.87 0 0 1-.77 5.89c-1.83 2-4.34 2.93-12.07 1.17 0 0-124.11-25.81-132.25-27.49-6.68-1.38-9.62-5.14-9.6-9.9S25 89 30.08 88l134.27-26.35c1.87-.37 9.32-1.7 12.29-2.13 2.46-.35 6.23-.69 8-.21 1.59.43 2.76 1.34 2.84 3-.08-2.21-.84-3.48-3.02-4.16zM31.73 120.9c-3.55 1.24-6.37 1.39-7.56.39a2.46 2.46 0 0 1-.59-2.42c.27-1.66 1.28-3 3.07-5l5.17-5.63L54.46 113zm-14.2-53.1c-3.17-3.52-3.63-4.71-3.33-5.72a2 2 0 0 1 1.57-1.19c1.16-.32 4.12-.21 7.36.25 2.88.41 10.31 1.74 12.21 2.11l56.21 11-57.94 11.39z"/><path class="cls-5" d="M161.06 100.47c-2.63-4.91 0-8.94 3.29-12.57l18.12-20.1c3.17-3.52 3.63-4.71 3.33-5.72a2 2 0 0 0-1.57-1.19c-1.16-.32-4.12-.21-7.36.25-2.88.41-10.31 1.74-12.21 2.11L30.39 89.59c-4.2.82-6.34 3.23-6.36 7.16 0 5.44 4.5 7.52 8.3 8.3 8.05 1.66 131 27.24 132.26 27.49 7.58 1.72 9.29.67 10.51-.67a4.47 4.47 0 0 0 .13-4.94zm15.64 25.69l.06.12.35.8a5.87 5.87 0 0 1-.77 5.89c-1.83 2-4.34 2.93-12.07 1.17 0 0-124.11-25.81-132.25-27.49-6.68-1.38-9.62-5.14-9.6-9.9S25 89 30.08 88l134.27-26.35c1.87-.37 9.32-1.7 12.29-2.13 2.46-.35 6.23-.69 8-.21 1.59.43 2.76 1.34 2.84 3s-.65 3.1-3.81 6.61L165.56 89c-3.49 3.88-5.07 7-3.07 10.71z"/><path class="cls-5" d="M136.46 112.78h-8.17l4.83-30.5h8.17zM96.77 82.22h7.93l11 18.65h.17l2.86-18.65h7.93l-4.83 30.5h-7.93L103.14 94H103l-3.12 18.69h-7.95zM48.16 89.1A8.24 8.24 0 0 0 43 87.42c-1.73 0-3.16.89-3.42 2.33-.39 2.2 1.72 3 3.31 3.67a26.05 26.05 0 0 1 3.47 1.72c3.48 2.09 5.58 5.9 4.13 11-1.08 3.77-4.51 7.65-13 7.65a18.06 18.06 0 0 1-11.44-3.82l4.32-6.3a11.34 11.34 0 0 0 7.51 3.43c2.07 0 4.18-.57 4.63-2.54.55-2.39-2.32-3.3-4.48-4.23-5-2.13-7.69-5.66-6.64-10.86 1-4.72 5.43-8.2 11.89-8.2a18.71 18.71 0 0 1 8.47 2s-3.35 6.02-3.59 5.83zM89.29 97.5c-1.56 10.1-9.75 16.26-19.6 16.27-10.42 0-15.5-7.79-14.44-16.27 1.12-9 9.18-16.26 19.59-16.26 10.96-.01 15.64 8.56 14.45 16.26zm-25.63 0c-1 5.24 2.25 8.93 7.19 8.91 4.67 0 9-3.31 10-8.91.85-4.53-1.61-8.84-7.3-8.87-5.33-.03-9.05 4.25-9.89 8.87zM168.8 91.76a8.45 8.45 0 0 0-6.62-2.76c-4.54 0-8.84 3.88-9.6 8.57s1.65 8.41 7 8.41a11.47 11.47 0 0 0 7.35-2.65l-1.48 9.22a26.84 26.84 0 0 1-7.27 1.18c-11.56 0-15.4-8.64-14.31-16.2a18.68 18.68 0 0 1 18.75-16.32 22.62 22.62 0 0 1 7.58 1.41z"/><path class="cls-6" d="M138.24 111.21h-8.17l4.83-30.5h8.17z"/><path class="cls-7" d="M138.39 111.4h-8.54v-.21l4.86-30.66h8.54v.21zm-8.11-.37h7.8l4.78-30.14h-7.8z"/><path class="cls-6" d="M98.54 80.65h7.93l11 18.65h.17l2.86-18.65h7.93l-4.83 30.5h-7.93l-10.75-18.68h-.16l-3.12 18.69h-7.93z"/><path class="cls-7" d="M123.74 111.34h-8.19l-10.66-18.55-3.1 18.56h-8.3l4.89-30.87h8.19l.05.09L117.49 99l2.85-18.53h8.3v.21zm-8-.37h7.67l4.78-30.14h-7.56l-2.86 18.65h-.43l-.05-.09-10.92-18.55H98.7L93.92 111h7.56l3.12-18.69h.4z"/><path class="cls-6" d="M50.49 88a8.05 8.05 0 0 0-5.72-2.16c-1.73 0-3.16.89-3.42 2.33-.39 2.2 1.72 3 3.31 3.67a26 26 0 0 1 3.47 1.72c3.48 2.09 5.58 5.9 4.13 11-1.08 3.77-4.51 7.65-13 7.65a18.22 18.22 0 0 1-10.79-3.25l4.32-6.3a10.49 10.49 0 0 0 6.87 2.86c2.07 0 4.18-.57 4.63-2.54.55-2.39-2.32-3.3-4.48-4.23-5-2.13-7.69-5.66-6.64-10.86 1-4.72 5.43-8.2 11.89-8.2a18 18 0 0 1 9.36 2.49z"/><path class="cls-7" d="M39.28 112.37a18.53 18.53 0 0 1-10.91-3.29l-.13-.08 4.55-6.63.16.17a10.31 10.31 0 0 0 6.73 2.81c3.23 0 4.2-1.31 4.45-2.4.46-2-1.68-2.9-3.74-3.75l-.63-.27C34.34 96.59 32 92.76 33 87.83a9.62 9.62 0 0 1 4-6 13.86 13.86 0 0 1 8.12-2.37A18 18 0 0 1 54.53 82l.16.1-4.17 6.2-.16-.15A7.88 7.88 0 0 0 44.77 86c-1.71 0-3 .88-3.24 2.18-.35 2 1.43 2.72 3 3.39l.2.09a26.25 26.25 0 0 1 3.49 1.74c4 2.37 5.54 6.55 4.21 11.16a9.73 9.73 0 0 1-3.79 5.34c-2.3 1.65-5.45 2.47-9.36 2.47zm-10.55-3.48A18.34 18.34 0 0 0 39.28 112c4 0 10.93-1 12.81-7.52 1.29-4.51-.18-8.43-4-10.74a25.94 25.94 0 0 0-3.5-1.74l-.2-.09c-1.61-.68-3.62-1.54-3.22-3.79.26-1.48 1.71-2.48 3.6-2.48a8.3 8.3 0 0 1 5.68 2.06l3.72-5.53a17.85 17.85 0 0 0-9.1-2.36c-6.12 0-10.72 3.16-11.71 8.06s1.23 8.39 6.53 10.66l.63.26c2.1.87 4.48 1.85 4 4.17-.39 1.73-2.1 2.69-4.81 2.69a10.82 10.82 0 0 1-6.84-2.76z"/><path class="cls-6" d="M91.07 95.93c-1.56 10.1-9.75 16.26-19.6 16.27C61 112.2 56 104.41 57 95.93c1.12-9 9.18-16.26 19.59-16.26 10.98 0 15.66 8.56 14.48 16.26zm-25.85 0c-1 5.24 2.25 8.93 7.19 8.91 4.67 0 9-3.31 10-8.91.85-4.53-1.61-8.84-7.3-8.87-5.33-.06-9.05 4.26-9.89 8.87z"/><path class="cls-7" d="M71.46 112.38c-4.74 0-8.65-1.6-11.32-4.62a15 15 0 0 1-3.3-11.86 18.26 18.26 0 0 1 6.38-11.6 20.63 20.63 0 0 1 13.4-4.82c4.83 0 8.8 1.65 11.48 4.78A14.48 14.48 0 0 1 91.25 96c-1.51 9.82-9.46 16.42-19.78 16.42zm5.16-32.53a20.26 20.26 0 0 0-13.16 4.73A17.9 17.9 0 0 0 57.21 96a14.65 14.65 0 0 0 3.21 11.57c2.59 2.94 6.41 4.49 11 4.49 10.13 0 17.93-6.48 19.42-16.11h.18-.18a14.12 14.12 0 0 0-3.05-11.39c-2.57-3.09-6.45-4.7-11.16-4.7zM72.37 105a7.47 7.47 0 0 1-5.88-2.52A7.89 7.89 0 0 1 65 95.9c.82-4.49 4.53-9 10-9h.05a7.56 7.56 0 0 1 6 2.55A7.92 7.92 0 0 1 82.61 96c-1 5.4-5.11 9-10.2 9.06zm-6.97-9a7.53 7.53 0 0 0 1.37 6.31 7.11 7.11 0 0 0 5.6 2.38c4.91 0 8.86-3.54 9.84-8.76a7.56 7.56 0 0 0-1.37-6.24 7.21 7.21 0 0 0-5.75-2.42c-5.31 0-8.89 4.38-9.68 8.72z"/><path class="cls-6" d="M170.57 90.2a8.45 8.45 0 0 0-6.57-2.74c-4.54 0-8.84 3.88-9.6 8.57s1.65 8.41 7 8.41a11.47 11.47 0 0 0 7.35-2.65l-1.49 9.21a26.83 26.83 0 0 1-7.27 1.18c-11.56 0-15.4-8.64-14.31-16.2a18.68 18.68 0 0 1 18.75-16.32 22.63 22.63 0 0 1 7.57 1.41z"/><path class="cls-7" d="M160 112.37c-4.88 0-8.82-1.57-11.4-4.54A14.79 14.79 0 0 1 145.5 96a19.42 19.42 0 0 1 6.2-11.73 18.79 18.79 0 0 1 12.73-4.75 22.68 22.68 0 0 1 7.64 1.42l.14.05-1.52 9.66-.26-.29a8.31 8.31 0 0 0-6.43-2.72c-4.44 0-8.67 3.78-9.42 8.42a7.31 7.31 0 0 0 1.33 6 7 7 0 0 0 5.51 2.18 11.27 11.27 0 0 0 7.23-2.61l.38-.32-1.58 9.83h-.12l-.72.19a24.39 24.39 0 0 1-6.59 1zm4.46-32.52a18.43 18.43 0 0 0-12.49 4.65 19.06 19.06 0 0 0-6.11 11.5 14.43 14.43 0 0 0 3 11.58c2.51 2.89 6.35 4.42 11.12 4.42a24.07 24.07 0 0 0 6.5-1l.6-.16 1.38-8.64a11.64 11.64 0 0 1-7.09 2.39 7.31 7.31 0 0 1-5.79-2.31 7.66 7.66 0 0 1-1.4-6.28c.78-4.8 5.17-8.72 9.78-8.72a8.73 8.73 0 0 1 6.48 2.53l1.36-8.61a22.17 22.17 0 0 0-7.37-1.35z"/></svg>