<svg id="Layer_1" xmlns="http://www.w3.org/2000/svg" viewBox="0 0 142.2 150"><style>.st0{fill:#FFFFFF;} .st1{enable-background:new ;}</style><title>established</title><path class="st0" d="M102.9 72.6H39.3c-2.5 0-4.5-2-4.5-4.5V4.5c0-2.5 2-4.5 4.5-4.5h63.5c2.5 0 4.5 2 4.5 4.5V68c.1 2.6-1.9 4.6-4.4 4.6zm0-65.8c0-1.3-1-2.3-2.3-2.3h-59c-1.3 0-2.3 1-2.3 2.3v6.8h63.5c.1 0 .1-6.8.1-6.8zM39.3 18.1v47.7c0 1.3 1 2.3 2.3 2.3h59c1.3 0 2.3-1 2.3-2.3V18.1H39.3zm45.2 12.3v.1l-16 27.3c-.6 1.1-2 1.4-3.1.8-1.1-.6-1.4-1.9-.9-3l13.9-23.9H62c-1.3 0-2.3-1-2.3-2.3 0-1.3 1-2.3 2.3-2.3h20.5c.2 0 .4.1.6.1.1 0 .2.1.3.1.1 0 .1 0 .2.1s.3.2.4.3h.1c.6.6.8 1.5.5 2.3-.1.3-.1.4-.1.4z"/><g class="st1"><path class="st0" d="M13.4 101.6H5.7v5.2h9v3.2h-13V90.6h13v3.2h-9v4.6h7.7v3.2zM24.6 106c0-.2 0-.4-.1-.6-.1-.2-.2-.3-.5-.5s-.5-.3-.9-.4c-.4-.1-.9-.3-1.5-.4-.7-.2-1.4-.4-2-.6-.6-.2-1.2-.5-1.6-.9-.5-.4-.8-.8-1.1-1.2-.3-.5-.4-1-.4-1.6 0-.6.1-1.2.4-1.7.3-.5.6-1 1.1-1.4.5-.4 1.1-.7 1.8-1 .7-.2 1.5-.4 2.4-.4.9 0 1.8.1 2.5.3.7.2 1.4.6 1.9 1s.9.9 1.2 1.5c.3.6.4 1.2.4 1.9h-3.8c0-.5-.2-1-.5-1.4-.3-.4-.9-.6-1.7-.6-.6 0-1.1.1-1.5.4-.4.3-.5.7-.5 1.1 0 .2 0 .4.1.6.1.2.2.3.5.5.2.1.5.3.8.4.3.1.8.2 1.3.3.8.2 1.5.3 2.2.6.7.2 1.2.5 1.7.9s.9.8 1.1 1.3c.3.5.4 1.1.4 1.8 0 .6-.1 1.2-.4 1.8-.3.5-.7 1-1.2 1.4-.5.4-1.2.7-1.9.9-.7.2-1.6.3-2.5.3-1 0-1.9-.1-2.7-.4-.8-.3-1.4-.7-1.9-1.1s-.9-1-1.2-1.6c-.3-.6-.4-1.2-.4-1.7h3.6c0 .4.1.7.2 1 .1.3.3.5.6.7.2.2.5.3.8.4.3.1.6.1 1 .1.7 0 1.3-.1 1.7-.4.4-.5.6-.9.6-1.3zM35.4 92v3.5h2.5v2.8h-2.5v7.2c0 .3 0 .5.1.7.1.2.2.3.3.5.1.1.3.2.5.2s.4.1.6.1h.6c.2 0 .4 0 .5-.1v2.9c-.3.1-.7.2-1 .2-.4.1-.8.1-1.3.1-.6 0-1.2-.1-1.7-.2-.5-.2-.9-.4-1.3-.7-.4-.3-.6-.8-.8-1.3-.2-.5-.3-1.2-.3-2v-7.6h-2.1v-2.8h2.1V92h3.8zM48.3 109.9c-.2-.3-.3-.8-.4-1.3-.4.4-.9.8-1.5 1.1-.6.3-1.3.5-2.2.5-.7 0-1.3-.1-1.9-.3-.6-.2-1.1-.5-1.6-.9-.4-.4-.8-.8-1-1.4s-.4-1.1-.4-1.7c0-.8.1-1.4.4-2 .3-.6.7-1.1 1.3-1.5.6-.4 1.3-.7 2.1-.9.8-.2 1.8-.3 2.9-.3h1.7v-.8c0-.7-.2-1.2-.5-1.6-.3-.4-.9-.6-1.6-.6-.6 0-1.2.2-1.5.5-.4.3-.6.7-.6 1.3h-3.8c0-.6.1-1.2.4-1.8.3-.6.7-1 1.2-1.5s1.2-.7 1.9-1c.8-.2 1.6-.4 2.5-.4.8 0 1.6.1 2.3.3.7.2 1.3.5 1.8 1 .5.4.9.9 1.2 1.6s.4 1.4.4 2.2V107.6c0 .3.1.6.1.9 0 .3.1.5.2.7l.3.6v.2h-3.7zm-3.1-2.6c.3 0 .6 0 .9-.1s.5-.2.8-.3c.2-.1.4-.3.6-.4.2-.2.3-.3.4-.5v-2.5h-1.6c-.5 0-.9.1-1.3.2s-.7.3-.9.5-.4.4-.5.7-.2.6-.2.9c0 .5.2.9.5 1.2s.7.3 1.3.3zM67.6 102.9c0 1.1-.1 2.1-.3 3-.2.9-.6 1.7-1 2.3-.5.6-1 1.1-1.7 1.5-.7.4-1.5.5-2.5.5-.8 0-1.6-.2-2.2-.5-.6-.3-1.1-.8-1.6-1.3l-.2 1.5h-3.5V89.5h3.8v7.3c.4-.5.9-.9 1.5-1.1s1.2-.4 2-.4c.9 0 1.8.2 2.5.5.7.4 1.3.9 1.8 1.5s.8 1.4 1.1 2.3c.2.9.3 1.9.3 2.9v.4zm-3.9-.3c0-.6 0-1.1-.1-1.6s-.2-1-.4-1.3c-.2-.4-.5-.7-.8-.9s-.8-.3-1.4-.3c-.6 0-1.2.1-1.6.4-.4.3-.7.6-.9 1.1v5.7c.2.5.5.9.9 1.1.4.3.9.4 1.6.4.5 0 1-.1 1.3-.3.4-.2.6-.5.8-.9.2-.4.4-.8.4-1.3.1-.5.1-1.1.1-1.7v-.4zM74 109.9h-3.9V89.5H74v20.4zM77.1 91.8c0-.6.2-1 .6-1.4.4-.4.9-.6 1.6-.6.3 0 .6 0 .9.1.3.1.5.2.7.4.2.2.3.4.4.6.1.2.2.5.2.8 0 .3-.1.6-.2.8-.1.2-.2.5-.4.6-.2.2-.4.3-.7.4-.3.1-.6.1-.9.1-.3 0-.6 0-.9-.1-.3-.1-.5-.2-.7-.4-.2-.2-.3-.4-.4-.6-.1-.1-.2-.4-.2-.7zm4.1 18.1h-3.9V95.6h3.9v14.3zM92.2 106c0-.2 0-.4-.1-.6-.1-.2-.2-.3-.5-.5s-.5-.3-.9-.4-.9-.3-1.5-.4c-.7-.2-1.4-.4-2-.6-.6-.2-1.2-.5-1.6-.9-.5-.4-.8-.8-1.1-1.2-.3-.5-.4-1-.4-1.6 0-.6.1-1.2.4-1.7.3-.5.6-1 1.1-1.4s1.1-.7 1.8-1c.7-.2 1.5-.4 2.4-.4.9 0 1.8.1 2.5.3s1.4.6 1.9 1 .9.9 1.2 1.5.4 1.2.4 1.9H92c0-.5-.2-1-.5-1.4-.4-.4-.9-.5-1.7-.5-.6 0-1.1.1-1.5.4-.4.3-.5.7-.5 1.1 0 .2 0 .4.1.6.1.2.2.3.5.5.2.1.5.3.8.4.3.1.8.2 1.3.3.8.2 1.5.3 2.2.6.7.2 1.2.5 1.7.9s.9.8 1.1 1.3c.3.5.4 1.1.4 1.8 0 .6-.1 1.2-.4 1.8-.3.5-.7 1-1.2 1.4-.5.4-1.2.7-1.9.9s-1.6.3-2.5.3c-1 0-1.9-.1-2.7-.4-.8-.3-1.4-.7-1.9-1.1s-.9-1-1.2-1.6c-.3-.6-.4-1.2-.4-1.7h3.6c0 .4.1.7.2 1 .1.3.3.5.6.7.2.2.5.3.8.4.3.1.6.1 1 .1.7 0 1.3-.1 1.7-.4.4-.6.6-1 .6-1.4zM102.1 97.1c.5-.6 1-1 1.7-1.3.6-.3 1.4-.5 2.2-.5.7 0 1.4.1 1.9.3.6.2 1.1.5 1.5 1 .4.4.7 1 1 1.7.2.7.3 1.6.3 2.6v9.1h-3.8v-9.1c0-.5-.1-.8-.2-1.2-.1-.3-.3-.6-.4-.8-.2-.2-.4-.3-.7-.4-.3-.1-.6-.1-1-.1-.6 0-1.1.1-1.5.4-.4.2-.7.6-.9 1V110h-3.8V89.5h3.8v7.6zM120.2 110.2c-1.1 0-2.1-.2-3-.5s-1.6-.9-2.2-1.5c-.6-.6-1.1-1.4-1.4-2.2-.3-.8-.5-1.8-.5-2.7v-.5c0-1.1.2-2.1.5-3 .3-.9.8-1.7 1.3-2.3.6-.7 1.3-1.2 2.1-1.5.8-.4 1.8-.6 2.8-.6 1 0 2 .2 2.7.5.8.3 1.5.8 2 1.4s.9 1.4 1.2 2.2c.3.9.4 1.8.4 2.9v1.6H117c.1.5.2.9.4 1.3s.4.7.7 1 .6.5 1 .6c.4.2.8.2 1.3.2.7 0 1.3-.1 1.9-.4.6-.3 1.1-.7 1.5-1.2l1.9 2.1c-.2.3-.5.6-.9 1-.3.3-.8.6-1.2.8-.5.2-1 .4-1.6.6-.4.1-1.1.2-1.8.2zm-.4-11.8c-.4 0-.8.1-1.1.2s-.6.3-.8.6l-.6.9-.3 1.2h5.3v-.3c0-.4-.1-.7-.2-1.1-.1-.3-.3-.6-.5-.9-.2-.2-.5-.4-.8-.6-.2.1-.6 0-1 0zM127.7 102.6c0-1.1.1-2.1.4-3 .3-.9.6-1.7 1.1-2.3.5-.6 1.1-1.1 1.8-1.5s1.5-.5 2.4-.5c.7 0 1.4.1 2 .4.6.3 1.1.7 1.5 1.2v-7.3h3.9V110h-3.5l-.2-1.5c-.5.6-1 1-1.6 1.3s-1.3.5-2.1.5c-.9 0-1.7-.2-2.4-.6-.7-.4-1.3-.9-1.8-1.5s-.8-1.4-1.1-2.3c-.3-.9-.4-1.9-.4-2.9v-.4zm3.9.3c0 .6 0 1.1.1 1.6s.3.9.5 1.3.5.7.9.9c.3.2.8.3 1.3.3.6 0 1.1-.1 1.5-.4s.7-.6 1-1.1v-5.7c-.2-.5-.6-.8-1-1.1-.4-.3-.9-.4-1.5-.4-.5 0-.9.1-1.3.3-.4.2-.6.5-.9.9-.2.4-.4.8-.5 1.3-.1.5-.2 1.1-.2 1.7v.4z"/></g><g class="st1"><path class="st0" d="M54.4 142.6H41.2V140l6.3-6.7c.5-.5.9-1 1.2-1.4.3-.4.6-.8.8-1.2.2-.4.3-.7.4-1 .1-.3.1-.6.1-.9 0-.9-.2-1.5-.7-2-.4-.5-1.1-.7-1.9-.7-.5 0-.9.1-1.2.2-.4.2-.6.4-.9.7s-.4.6-.5 1-.2.8-.2 1.3h-3.9c0-.9.2-1.7.5-2.5s.8-1.4 1.3-2c.6-.6 1.3-1 2.1-1.4.8-.3 1.8-.5 2.8-.5 1 0 1.9.1 2.7.4.8.3 1.4.6 2 1.1.5.5.9 1 1.2 1.7s.4 1.4.4 2.3c0 .6-.1 1.3-.3 1.9s-.5 1.2-.9 1.8c-.4.6-.8 1.2-1.3 1.8s-1.1 1.3-1.8 1.9l-3.4 3.6h8.3v3.2zM69.8 134.6c0 1.5-.2 2.7-.5 3.7s-.8 1.9-1.3 2.6c-.6.7-1.3 1.2-2.1 1.5s-1.7.5-2.7.5-1.9-.2-2.7-.5c-.8-.3-1.5-.8-2.1-1.5s-1-1.5-1.3-2.6c-.3-1-.5-2.3-.5-3.7v-3.4c0-1.5.2-2.7.5-3.7s.8-1.9 1.3-2.6 1.3-1.2 2.1-1.5 1.7-.5 2.7-.5 1.9.2 2.7.5 1.5.8 2.1 1.5c.6.7 1 1.5 1.3 2.6.3 1 .5 2.3.5 3.7v3.4zm-3.8-3.9c0-.9-.1-1.6-.2-2.2s-.3-1.1-.5-1.4c-.2-.4-.5-.6-.9-.8-.3-.2-.7-.2-1.1-.2-.4 0-.8.1-1.1.2-.3.2-.6.4-.8.8-.2.4-.4.8-.5 1.4s-.2 1.3-.2 2.2v4.4c0 .9.1 1.6.2 2.2.1.6.3 1.1.5 1.4.2.4.5.6.9.8s.7.2 1.1.2c.4 0 .8-.1 1.1-.2s.6-.4.8-.8.4-.8.5-1.4.2-1.3.2-2.2v-4.4zM85.4 134.6c0 1.5-.2 2.7-.5 3.7s-.8 1.9-1.3 2.6-1.3 1.2-2.1 1.5c-.8.3-1.7.5-2.7.5-1 0-1.9-.2-2.7-.5-.8-.3-1.5-.8-2.1-1.5s-1-1.5-1.3-2.6c-.3-1-.5-2.3-.5-3.7v-3.4c0-1.5.2-2.7.5-3.7s.8-1.9 1.3-2.6 1.3-1.2 2.1-1.5 1.7-.5 2.7-.5c1 0 1.9.2 2.7.5.8.3 1.5.8 2.1 1.5.6.7 1 1.5 1.3 2.6.3 1 .5 2.3.5 3.7v3.4zm-3.8-3.9c0-.9-.1-1.6-.2-2.2-.1-.6-.3-1.1-.5-1.4-.2-.4-.5-.6-.9-.8-.3-.2-.7-.2-1.1-.2-.4 0-.8.1-1.1.2-.3.2-.6.4-.8.8-.2.4-.4.8-.5 1.4-.1.6-.2 1.3-.2 2.2v4.4c0 .9.1 1.6.2 2.2s.3 1.1.5 1.4c.2.4.5.6.9.8s.7.2 1.1.2.8-.1 1.1-.2.6-.4.8-.8c.2-.4.4-.8.5-1.4.1-.6.2-1.3.2-2.2v-4.4zM101.2 125.4l-7.5 17.2h-4.1l7.5-16.2h-9.6v-3.1h13.7v2.1z"/></g></svg>