<svg id="Layer_1" data-name="Layer 1" xmlns="http://www.w3.org/2000/svg" viewBox="0 0 142.2 150"><defs><style>.cls-1,.cls-2{fill:#fff;}.cls-2{font-size:27.23px;font-family:Roboto;font-weight:700;}</style></defs><title>established</title><path class="cls-1" d="M102.87 72.62H39.33a4.54 4.54 0 0 1-4.54-4.54V4.54A4.54 4.54 0 0 1 39.33 0h63.54a4.54 4.54 0 0 1 4.54 4.54v63.54a4.54 4.54 0 0 1-4.54 4.54zm0-65.81a2.27 2.27 0 0 0-2.27-2.27h-59a2.27 2.27 0 0 0-2.27 2.27v6.8h63.54v-6.8zM39.33 18.15v47.66a2.27 2.27 0 0 0 2.27 2.27h59a2.27 2.27 0 0 0 2.27-2.27V18.15H39.33zM84.5 30.44v.14L68.51 57.9a2.3 2.3 0 0 1-3.11.82 2.21 2.21 0 0 1-.83-3.05l13.95-23.9h-16.5a2.27 2.27 0 1 1 0-4.54h20.57a2.35 2.35 0 0 1 .55.11 2.54 2.54 0 0 1 .26.09 2 2 0 0 1 .22.07 2.19 2.19 0 0 1 .39.33h.06a2.15 2.15 0 0 1 .5 2.33c-.03.15-.04.22-.07.28z"/><text class="cls-2" transform="translate(0 109.94)">Established<tspan x="39.85" y="32.68">2007</tspan></text></svg>