<svg id="Layer_1" data-name="Layer 1" xmlns="http://www.w3.org/2000/svg" viewBox="0 0 149.18 150"><defs><style>.cls-1,.cls-2{fill:#fff;}.cls-2{font-size:27.34px;font-family:Roboto;font-weight:700;}</style></defs><title>locations</title><path class="cls-1" d="M65.48 22.77a9.11 9.11 0 1 1 9.11 9.11 9.11 9.11 0 0 1-9.11-9.11z"/><path class="cls-1" d="M74.6 0a27.34 27.34 0 0 0-27.34 27.34c0 12.79 19.62 36.6 25.62 43.59a2.27 2.27 0 0 0 3.45 0c6-7 25.62-30.8 25.62-43.59A27.34 27.34 0 0 0 74.6 0zm0 66c-10-11.81-22.78-29.93-22.78-38.62a22.785 22.785 0 0 1 45.57 0c-.01 8.64-12.84 26.77-22.79 38.57z"/><text class="cls-2" transform="translate(0 109.78)">O<tspan x="18.88" y="0">v</tspan><tspan x="32.52" y="0">er 40,000</tspan><tspan x="14.34" y="32.81">Locations</tspan></text></svg>