<svg id="Layer_1" xmlns="http://www.w3.org/2000/svg" viewBox="0 0 149.2 150"><style>.st0{fill:#FFFFFF;} .st1{enable-background:new ;}</style><title>locations</title><path class="st0" d="M65.5 22.8c0-5 4.1-9.1 9.1-9.1s9.1 4.1 9.1 9.1-4.1 9.1-9.1 9.1-9.1-4.1-9.1-9.1z"/><path class="st0" d="M74.6 0C59.5 0 47.3 12.2 47.3 27.3c0 12.8 19.6 36.6 25.6 43.6.8 1 2.2 1.1 3.2.2l.2-.2c6-7 25.6-30.8 25.6-43.6C102 12.2 89.7 0 74.6 0zm0 66c-10-11.8-22.8-29.9-22.8-38.6C51.8 14.8 62 4.6 74.6 4.6s22.8 10.2 22.8 22.8c0 8.6-12.8 26.7-22.8 38.6z"/><path class="st1 st0" d="M17.7 100.5c0 1.5-.2 2.8-.6 4-.4 1.2-1 2.2-1.7 3-.7.8-1.6 1.4-2.6 1.9s-2.1.7-3.4.7c-1.2 0-2.3-.2-3.4-.7-1-.4-1.9-1.1-2.6-1.9-.7-.8-1.3-1.8-1.7-3-.4-1.2-.6-2.5-.6-4v-.9c0-1.5.2-2.8.6-4s1-2.2 1.7-3c.7-.8 1.6-1.5 2.6-1.9s2.1-.7 3.4-.7 2.3.2 3.4.7c1 .4 1.9 1.1 2.6 1.9.7.8 1.3 1.8 1.7 3 .4 1.2.6 2.5.6 4v.9zm-4.1-.9c0-2-.4-3.6-1.1-4.6-.7-1.1-1.8-1.6-3.1-1.6-1.4 0-2.4.5-3.1 1.6-.7 1.1-1.1 2.6-1.1 4.6v.9c0 1 .1 1.9.3 2.7s.5 1.4.8 2c.4.5.8.9 1.3 1.2.5.3 1.1.4 1.8.4 1.4 0 2.4-.5 3.1-1.6.7-1.1 1.1-2.6 1.1-4.7v-.9zM25.8 105.1l2.7-9.7h4l-4.9 14.4h-3.7L19 95.4h4l2.8 9.7z"/><g class="st1"><path class="st0" d="M40.6 110c-1.1 0-2.1-.2-3-.5-.9-.4-1.6-.9-2.3-1.5s-1.1-1.4-1.4-2.2c-.3-.8-.5-1.8-.5-2.7v-.5c0-1.1.2-2.1.5-3s.8-1.7 1.3-2.4 1.3-1.2 2.1-1.5c.8-.4 1.8-.6 2.8-.6 1 0 2 .2 2.8.5s1.5.8 2 1.4c.5.6.9 1.4 1.2 2.2s.4 1.8.4 2.9v1.6h-9.2c.1.5.2.9.4 1.3s.4.7.7 1c.3.3.6.5 1 .6s.9.2 1.3.2c.7 0 1.4-.1 1.9-.4s1.1-.7 1.5-1.2l1.9 2.1c-.2.3-.5.6-.9 1-.3.3-.8.6-1.2.8-.5.2-1 .4-1.6.6-.3.3-.9.3-1.7.3zm-.4-11.8c-.4 0-.8.1-1.1.2s-.6.4-.8.6l-.6.9-.3 1.2h5.4v-.3c0-.4-.1-.7-.2-1.1-.1-.3-.3-.6-.5-.9s-.5-.4-.8-.6c-.3.1-.6 0-1.1 0zM56.9 99c-.2 0-.4-.1-.7-.1h-.7c-.8 0-1.4.1-1.8.4s-.8.6-1 1.1v9.5h-3.9V95.3h3.6l.1 1.7c.4-.6.8-1.1 1.3-1.5.5-.4 1.2-.5 1.9-.5.2 0 .4 0 .6.1.2 0 .4.1.6.1V99zM76.8 102.5H79v3.1h-2.2v4.2H73v-4.2h-8l-.2-2.4 8.1-12.8h3.9v12.1zm-8.1 0H73v-6.9l-.3.4-4 6.5zM94.2 101.7c0 1.5-.2 2.7-.5 3.8-.3 1-.8 1.9-1.3 2.6s-1.3 1.2-2.1 1.5-1.7.5-2.7.5c-1 0-1.9-.2-2.7-.5s-1.5-.8-2.1-1.5c-.6-.7-1-1.5-1.3-2.6s-.5-2.3-.5-3.8v-3.4c0-1.5.2-2.7.5-3.8.3-1 .8-1.9 1.3-2.6s1.3-1.2 2.1-1.5c.8-.3 1.7-.5 2.7-.5 1 0 1.9.2 2.7.5.8.3 1.5.8 2.1 1.5.6.7 1 1.5 1.3 2.6s.5 2.3.5 3.8v3.4zm-3.9-3.9c0-.9-.1-1.6-.2-2.2-.1-.6-.3-1.1-.5-1.4-.2-.4-.5-.6-.9-.8-.3-.2-.7-.2-1.1-.2-.4 0-.8.1-1.1.2s-.6.4-.8.8-.4.8-.5 1.4c-.1.6-.2 1.3-.2 2.2v4.4c0 .9.1 1.6.2 2.2.1.6.3 1.1.5 1.4s.5.6.9.8c.3.2.7.2 1.1.2.4 0 .8-.1 1.1-.2.3-.2.6-.4.8-.8.2-.4.4-.9.5-1.4.1-.6.2-1.3.2-2.2v-4.4zM100.6 109.1c0 .5-.1 1-.2 1.5s-.3 1-.5 1.5-.5.9-.8 1.4c-.3.4-.7.8-1.1 1.1l-2-1.1c.2-.3.3-.6.5-.9.2-.3.3-.6.4-1 .1-.3.2-.7.3-1.1.1-.4.1-.8.1-1.3v-2.8h3.3v2.7zM116.5 101.7c0 1.5-.2 2.7-.5 3.8-.3 1-.8 1.9-1.3 2.6-.6.7-1.3 1.2-2.1 1.5-.8.3-1.7.5-2.7.5-1 0-1.9-.2-2.7-.5s-1.5-.8-2.1-1.5-1-1.5-1.3-2.6c-.3-1-.5-2.3-.5-3.8v-3.4c0-1.5.2-2.7.5-3.8.3-1 .8-1.9 1.3-2.6.6-.7 1.3-1.2 2.1-1.5.8-.3 1.7-.5 2.7-.5 1 0 1.9.2 2.7.5.8.3 1.5.8 2.1 1.5.6.7 1 1.5 1.3 2.6.3 1 .5 2.3.5 3.8v3.4zm-3.8-3.9c0-.9-.1-1.6-.2-2.2-.1-.6-.3-1.1-.5-1.4-.2-.4-.5-.6-.9-.8s-.7-.2-1.1-.2c-.4 0-.8.1-1.1.2-.3.2-.6.4-.8.8-.2.4-.4.8-.5 1.4-.1.6-.2 1.3-.2 2.2v4.4c0 .9.1 1.6.2 2.2.1.6.3 1.1.5 1.4s.5.6.9.8.7.2 1.1.2c.4 0 .8-.1 1.1-.2.3-.2.6-.4.8-.8.2-.4.4-.9.5-1.4.1-.6.2-1.3.2-2.2v-4.4zM132.2 101.7c0 1.5-.2 2.7-.5 3.8-.3 1-.8 1.9-1.3 2.6-.6.7-1.3 1.2-2.1 1.5-.8.3-1.7.5-2.7.5-1 0-1.9-.2-2.7-.5s-1.5-.8-2.1-1.5-1-1.5-1.3-2.6c-.3-1-.5-2.3-.5-3.8v-3.4c0-1.5.2-2.7.5-3.8.3-1 .8-1.9 1.3-2.6.6-.7 1.3-1.2 2.1-1.5.8-.3 1.7-.5 2.7-.5 1 0 1.9.2 2.7.5.8.3 1.5.8 2.1 1.5.6.7 1 1.5 1.3 2.6.3 1 .5 2.3.5 3.8v3.4zm-3.8-3.9c0-.9-.1-1.6-.2-2.2-.1-.6-.3-1.1-.5-1.4-.2-.4-.5-.6-.9-.8s-.7-.2-1.1-.2c-.4 0-.8.1-1.1.2-.3.2-.6.4-.8.8-.2.4-.4.8-.5 1.4-.1.6-.2 1.3-.2 2.2v4.4c0 .9.1 1.6.2 2.2.1.6.3 1.1.5 1.4s.5.6.9.8.7.2 1.1.2c.4 0 .8-.1 1.1-.2.3-.2.6-.4.8-.8.2-.4.4-.9.5-1.4.1-.6.2-1.3.2-2.2v-4.4zM147.9 101.7c0 1.5-.2 2.7-.5 3.8-.3 1-.8 1.9-1.3 2.6-.6.7-1.3 1.2-2.1 1.5-.8.3-1.7.5-2.7.5-1 0-1.9-.2-2.7-.5s-1.5-.8-2.1-1.5c-.6-.7-1-1.5-1.3-2.6s-.5-2.3-.5-3.8v-3.4c0-1.5.2-2.7.5-3.8.3-1 .8-1.9 1.3-2.6.6-.7 1.3-1.2 2.1-1.5.8-.3 1.7-.5 2.7-.5 1 0 1.9.2 2.7.5.8.3 1.5.8 2.1 1.5s1 1.5 1.3 2.6.5 2.3.5 3.8v3.4zm-3.9-3.9c0-.9-.1-1.6-.2-2.2-.1-.6-.3-1.1-.5-1.4-.2-.4-.5-.6-.9-.8s-.7-.2-1.1-.2c-.4 0-.8.1-1.1.2s-.6.4-.8.8-.4.8-.5 1.4c-.1.6-.2 1.3-.2 2.2v4.4c0 .9.1 1.6.2 2.2.1.6.3 1.1.5 1.4s.5.6.9.8c.3.2.7.2 1.1.2s.8-.1 1.1-.2c.3-.2.6-.4.8-.8.2-.4.4-.9.5-1.4.1-.6.2-1.3.2-2.2v-4.4z"/></g><g class="st1"><path class="st0" d="M20.1 139.4h8.5v3.2H16.1v-19.4h4v16.2zM30 135.2c0-1 .2-2 .5-2.9.3-.9.7-1.7 1.3-2.3.6-.7 1.3-1.2 2.1-1.5.8-.4 1.8-.6 2.9-.6 1.1 0 2.1.2 2.9.6.9.4 1.6.9 2.2 1.5s1 1.4 1.3 2.3c.3.9.5 1.9.5 2.9v.3c0 1.1-.2 2-.5 2.9-.3.9-.7 1.7-1.3 2.3s-1.3 1.2-2.1 1.5c-.8.4-1.8.6-2.9.6s-2.1-.2-2.9-.6c-.9-.4-1.6-.9-2.1-1.5s-1-1.4-1.3-2.3c-.3-.9-.5-1.9-.5-2.9v-.3zm3.9.3c0 .6.1 1.1.2 1.7.1.5.3 1 .5 1.3s.5.7.9.9c.4.2.8.3 1.4.3.5 0 1-.1 1.4-.3.4-.2.7-.5.9-.9s.4-.8.5-1.3c.1-.5.2-1.1.2-1.7v-.3c0-.6-.1-1.1-.2-1.6s-.3-1-.5-1.3c-.2-.4-.6-.7-.9-.9-.4-.2-.8-.3-1.4-.3-.5 0-1 .1-1.4.3-.4.2-.7.5-.9.9-.2.4-.4.8-.5 1.3-.1.5-.2 1.1-.2 1.6v.3zM52.1 139.7c.4 0 .7-.1 1-.2.3-.1.5-.2.8-.4.2-.2.4-.4.5-.7.1-.3.2-.6.2-.9h3.6c0 .8-.2 1.5-.5 2.1-.3.6-.7 1.2-1.3 1.7-.5.5-1.2.8-1.9 1.1-.7.3-1.5.4-2.3.4-1.1 0-2.1-.2-2.9-.6-.8-.4-1.5-.9-2.1-1.5-.6-.7-1-1.4-1.2-2.3s-.4-1.8-.4-2.9v-.4c0-1 .1-2 .4-2.9s.7-1.7 1.2-2.3c.6-.7 1.2-1.2 2.1-1.6.8-.4 1.8-.6 2.9-.6.9 0 1.7.1 2.4.4.7.3 1.4.6 1.9 1.1.5.5.9 1.1 1.2 1.8.3.7.4 1.5.5 2.3h-3.6c0-.3-.1-.7-.2-1-.1-.3-.3-.6-.5-.8-.2-.2-.5-.4-.8-.5-.3-.1-.6-.2-1-.2-.6 0-1 .1-1.4.3s-.6.5-.8.9c-.2.4-.3.8-.4 1.3-.1.5-.1 1-.1 1.6v.4c0 .6 0 1.1.1 1.6s.2 1 .4 1.3c.2.4.5.7.8.9.3.5.8.6 1.4.6zM68.7 142.6c-.2-.3-.3-.8-.4-1.3-.4.4-.9.8-1.5 1.1-.6.3-1.3.5-2.2.5-.7 0-1.3-.1-1.9-.3-.6-.2-1.1-.5-1.6-.9-.4-.4-.8-.8-1-1.4-.2-.5-.4-1.1-.4-1.7 0-.8.1-1.4.4-2 .3-.6.7-1.1 1.3-1.5s1.3-.7 2.1-.9c.8-.2 1.8-.3 2.9-.3h1.7v-.8c0-.7-.2-1.2-.5-1.6-.3-.4-.9-.6-1.6-.6-.6 0-1.2.2-1.5.5-.4.3-.6.7-.6 1.3H60c0-.6.1-1.2.4-1.8.3-.6.7-1.1 1.2-1.5.5-.4 1.2-.8 1.9-1 .8-.2 1.6-.4 2.5-.4.8 0 1.6.1 2.3.3.7.2 1.3.5 1.8 1 .5.4.9 1 1.2 1.6s.4 1.4.4 2.2V140.3c0 .3.1.6.1.9s.1.5.2.7l.3.6v.2h-3.6zm-3.2-2.7c.3 0 .6 0 .9-.1.3-.1.5-.2.8-.3s.4-.3.6-.4c.2-.2.3-.3.4-.5V136h-1.6c-.5 0-.9.1-1.3.2s-.7.3-.9.5c-.2.2-.4.4-.5.7-.1.3-.2.6-.2.9 0 .5.2.9.5 1.2s.7.4 1.3.4zM79.6 124.6v3.6h2.5v2.8h-2.5v7.2c0 .3 0 .6.1.7.1.2.2.3.3.5s.3.2.5.2.4.1.6.1h.6c.2 0 .4 0 .5-.1v2.9c-.3.1-.7.2-1 .2-.4.1-.8.1-1.3.1-.6 0-1.2-.1-1.7-.2-.5-.2-.9-.4-1.3-.7-.4-.3-.6-.8-.8-1.3-.2-.5-.3-1.2-.3-2V131h-2.1v-2.8h2.1v-3.6h3.8zM84.2 124.4c0-.6.2-1.1.6-1.4.4-.4.9-.6 1.6-.6.3 0 .6 0 .9.1.3.1.5.2.7.4.2.2.3.4.4.6.1.2.2.5.2.8 0 .3-.1.6-.2.8-.1.2-.2.5-.4.6-.2.2-.4.3-.7.4-.3.1-.6.1-.9.1s-.6 0-.9-.1c-.3-.1-.5-.2-.7-.4-.2-.2-.3-.4-.4-.6-.1-.1-.2-.4-.2-.7zm4.1 18.2h-3.9v-14.4h3.9v14.4zM90.9 135.2c0-1 .2-2 .5-2.9.3-.9.7-1.7 1.3-2.3s1.3-1.2 2.1-1.5 1.8-.6 2.9-.6c1.1 0 2.1.2 2.9.6s1.6.9 2.2 1.5 1 1.4 1.3 2.3c.3.9.5 1.9.5 2.9v.3c0 1.1-.2 2-.5 2.9-.3.9-.7 1.7-1.3 2.3s-1.3 1.2-2.1 1.5c-.8.4-1.8.6-2.9.6s-2.1-.2-2.9-.6c-.9-.4-1.6-.9-2.1-1.5s-1-1.4-1.3-2.3c-.3-.9-.5-1.9-.5-2.9v-.3zm3.8.3c0 .6.1 1.1.2 1.7.1.5.3 1 .5 1.3.2.4.5.7.9.9.4.2.8.3 1.4.3.5 0 1-.1 1.4-.3.4-.2.7-.5.9-.9s.4-.8.5-1.3c.1-.5.2-1.1.2-1.7v-.3c0-.6-.1-1.1-.2-1.6s-.3-1-.5-1.3c-.2-.4-.6-.7-.9-.9s-.8-.3-1.4-.3c-.5 0-1 .1-1.4.3s-.7.5-.9.9c-.2.4-.4.8-.5 1.3-.1.5-.2 1.1-.2 1.6v.3zM110.5 128.1l.1 1.7c.5-.6 1.1-1.1 1.8-1.4.7-.3 1.5-.5 2.3-.5.7 0 1.3.1 1.9.3s1 .5 1.4.9c.4.4.7 1 .9 1.7.2.7.3 1.6.3 2.6v9.2h-3.9v-9.2c0-.5-.1-.8-.2-1.1-.1-.3-.2-.5-.4-.7-.2-.2-.4-.3-.7-.4-.3-.1-.6-.1-1-.1-.6 0-1.1.1-1.5.4-.4.2-.7.6-1 1v10.2h-3.9v-14.4h3.9zM130.1 138.6c0-.2 0-.4-.1-.6s-.2-.3-.5-.5c-.2-.1-.5-.3-.9-.4-.4-.1-.9-.3-1.5-.4-.7-.2-1.4-.4-2-.6-.6-.2-1.2-.5-1.6-.9-.5-.4-.8-.8-1.1-1.2-.3-.5-.4-1-.4-1.6 0-.6.1-1.2.4-1.7.3-.5.6-1 1.1-1.4.5-.4 1.1-.7 1.8-1 .7-.2 1.5-.4 2.4-.4.9 0 1.8.1 2.5.3.7.2 1.4.6 1.9 1s.9.9 1.2 1.5.4 1.2.4 1.9h-3.9c0-.6-.2-1-.5-1.4-.4-.4-.9-.5-1.7-.5-.6 0-1.2.1-1.5.4-.4.3-.5.7-.5 1.1 0 .2 0 .4.1.6.1.2.2.3.5.5s.5.3.8.4c.3.1.8.2 1.3.3.8.2 1.5.3 2.2.6.7.2 1.2.5 1.7.9s.9.8 1.1 1.3c.3.5.4 1.1.4 1.8 0 .6-.1 1.2-.4 1.8-.3.5-.7 1-1.2 1.4-.5.4-1.2.7-1.9.9-.7.2-1.6.3-2.5.3-1 0-1.9-.1-2.7-.4s-1.4-.7-2-1.1-.9-1-1.2-1.6c-.3-.6-.4-1.2-.4-1.7h3.7c0 .4.1.7.2 1s.3.5.6.7.5.3.8.4c.3.1.6.1 1 .1.7 0 1.3-.1 1.7-.4.5-.6.7-.9.7-1.4z"/></g></svg>