<svg id="Layer_1" xmlns="http://www.w3.org/2000/svg" viewBox="0 0 155.8 150"><style>.st0{fill:#FFFFFF;} .st1{enable-background:new ;}</style><title>offices</title><path class="st0" d="M77.9 72.6c-20.1 0-36.3-16.3-36.3-36.3S57.8 0 77.9 0s36.3 16.3 36.3 36.3c0 20.1-16.3 36.3-36.3 36.3zm31.8-36.3H91.5c0 4.5-.3 9.1-1 13.6h16c2.1-4.2 3.2-8.9 3.2-13.6zm-5.9 18.2H89.7c-.9 4.5-2.4 8.8-4.7 12.8 7.6-1.9 14.3-6.4 18.8-12.8zM68.9 31.8h17.9c-.1-3.2-.4-6.2-.8-9.1H69.8c-.4 2.8-.7 5.8-.9 9.1zm-.1 4.5c0 4.6.3 9.1.9 13.6H86c.6-4.5.9-9.1.9-13.6H68.8zm9.1 31.8c3.1 0 5.8-5.4 7.4-13.6H70.5c1.6 8.2 4.3 13.6 7.4 13.6zm-7.1-.9c-2.2-4-3.8-8.3-4.7-12.8H52c4.5 6.5 11.1 11 18.8 12.8zM46.1 36.3zm3.2 13.6h16c-.7-4.5-1-9.1-1-13.6H46.1c.1 4.7 1.1 9.4 3.2 13.6zm15.1-18.1c.1-3 .4-6.1.9-9.1h-16c-1.4 2.9-2.3 5.9-2.8 9.1h17.9zM51.9 18.2h14.2c.9-4.5 2.4-8.8 4.6-12.8-7.6 1.8-14.3 6.3-18.8 12.8zm26-13.7c-3.1 0-5.8 5.4-7.4 13.6h14.8C83.6 10 81 4.5 77.9 4.5zm7.1.9c2.2 4 3.8 8.3 4.6 12.8h14.2C99.4 11.7 92.7 7.2 85 5.4zm21.5 17.3h-16c.5 3 .8 6 .9 9.1h17.9c-.4-3.2-1.4-6.2-2.8-9.1z"/><g class="st1"><path class="st0" d="M6 109.9H2V90.6h4v19.3zM13 95.6l.1 1.7c.5-.6 1.1-1.1 1.8-1.4.7-.3 1.5-.5 2.3-.5.7 0 1.3.1 1.9.3.6.2 1 .5 1.4.9s.7 1 .9 1.7c.2.7.3 1.6.3 2.6v9.1h-3.8v-9.2c0-.5-.1-.8-.2-1.1-.1-.3-.3-.5-.4-.7-.2-.2-.4-.3-.7-.4-.3-.1-.6-.1-1-.1-.6 0-1.1.1-1.5.4s-.7.6-1 1V110H9.3V95.6H13zM29.3 92v3.5h2.5v2.8h-2.5v7.2c0 .3 0 .5.1.7.1.2.2.3.3.5.1.1.3.2.5.2s.4.1.6.1h.6c.2 0 .4 0 .5-.1v2.9c-.3.1-.7.2-1 .2-.4.1-.8.1-1.3.1-.6 0-1.2-.1-1.7-.2-.5-.2-.9-.4-1.3-.7-.4-.3-.6-.8-.8-1.3-.2-.5-.3-1.2-.3-2v-7.6h-2.1v-2.8h2.1V92h3.8zM40.5 110.2c-1.1 0-2.1-.2-3-.5-.9-.4-1.6-.9-2.2-1.5-.6-.6-1.1-1.4-1.4-2.2-.3-.8-.5-1.8-.5-2.7v-.5c0-1.1.2-2.1.5-3s.8-1.7 1.3-2.3 1.3-1.2 2.1-1.5c.8-.4 1.8-.6 2.8-.6 1 0 1.9.2 2.7.5.8.3 1.5.8 2 1.4.5.6.9 1.4 1.2 2.2.3.9.4 1.8.4 2.9v1.6h-9.2c.1.5.2.9.4 1.3s.4.7.7 1c.3.3.6.5 1 .6.4.2.8.2 1.3.2.7 0 1.3-.1 1.9-.4.6-.3 1.1-.7 1.5-1.2l1.9 2.1c-.2.3-.5.6-.9 1-.3.3-.8.6-1.2.8-.5.2-1 .4-1.6.6-.4.1-1 .2-1.7.2zM40 98.4c-.4 0-.8.1-1.1.2-.3.1-.6.3-.8.6l-.6.9-.3 1.2h5.3v-.3c0-.4-.1-.7-.2-1.1-.1-.3-.3-.6-.5-.9-.2-.2-.5-.4-.8-.6-.1.1-.5 0-1 0zM56.7 99.2c-.2 0-.4-.1-.7-.1h-.7c-.8 0-1.4.1-1.8.4-.5.3-.8.6-1 1.1v9.4h-3.8V95.6h3.6l.1 1.7c.4-.6.8-1.1 1.3-1.5.5-.3 1.2-.5 1.9-.5.2 0 .4 0 .6.1s.4.1.6.1l-.1 3.7zM62.1 95.6l.1 1.7c.5-.6 1.1-1.1 1.8-1.4.7-.3 1.5-.5 2.3-.5.7 0 1.3.1 1.9.3.6.2 1 .5 1.4.9s.7 1 .9 1.7c.2.7.3 1.6.3 2.6v9.1H67v-9.2c0-.5-.1-.8-.2-1.1-.1-.3-.3-.5-.4-.7-.2-.2-.4-.3-.7-.4-.3-.1-.6-.1-1-.1-.6 0-1.1.1-1.5.4s-.7.6-1 1V110h-3.8V95.6h3.7zM82.1 109.9c-.2-.3-.3-.8-.4-1.3-.4.4-.9.8-1.5 1.1-.6.3-1.3.5-2.2.5-.7 0-1.3-.1-1.9-.3-.6-.2-1.1-.5-1.6-.9-.4-.4-.8-.8-1-1.4s-.4-1.1-.4-1.7c0-.8.1-1.4.4-2 .3-.6.7-1.1 1.3-1.5.6-.4 1.3-.7 2.1-.9.8-.2 1.8-.3 2.9-.3h1.7v-.8c0-.7-.2-1.2-.5-1.6-.3-.4-.9-.6-1.6-.6-.6 0-1.2.2-1.5.5-.4.3-.6.7-.6 1.3h-3.8c0-.6.1-1.2.4-1.8.3-.6.7-1 1.2-1.5s1.2-.7 1.9-1c.8-.2 1.6-.4 2.5-.4.8 0 1.6.1 2.3.3.7.2 1.3.5 1.8 1s.9.9 1.2 1.6.4 1.4.4 2.2V107.6c0 .3.1.6.1.9s.1.5.2.7l.3.6v.2h-3.7zm-3.2-2.6c.3 0 .6 0 .9-.1s.5-.2.8-.3c.2-.1.4-.3.6-.4.2-.2.3-.3.4-.5v-2.5H80c-.5 0-.9.1-1.3.2s-.7.3-.9.5-.4.4-.5.7-.2.6-.2.9c0 .5.2.9.5 1.2s.7.3 1.3.3zM93 92v3.5h2.5v2.8H93v7.2c0 .3 0 .5.1.7.1.2.2.3.3.5.1.1.3.2.5.2s.4.1.6.1h.6c.2 0 .4 0 .5-.1v2.9c-.3.1-.7.2-1 .2s-.8.1-1.3.1c-.6 0-1.2-.1-1.7-.2s-.9-.4-1.3-.7c-.4-.3-.6-.8-.8-1.3-.2-.5-.3-1.2-.3-2v-7.6H87v-2.8h2.1V92H93zM97.5 91.8c0-.6.2-1 .6-1.4.4-.4.9-.6 1.6-.6.3 0 .6 0 .9.1.3.1.5.2.7.4.2.2.3.4.4.6.1.2.2.5.2.8 0 .3-.1.6-.2.8-.1.2-.2.5-.4.6-.2.2-.4.3-.7.4s-.6.1-.9.1c-.3 0-.6 0-.9-.1s-.5-.2-.7-.4c-.2-.2-.3-.4-.4-.6-.1-.1-.2-.4-.2-.7zm4.1 18.1h-3.9V95.6h3.9v14.3zM104.2 102.6c0-1 .2-2 .5-2.9.3-.9.7-1.7 1.3-2.3.6-.7 1.3-1.2 2.1-1.5.8-.4 1.8-.6 2.9-.6 1.1 0 2.1.2 2.9.6.9.4 1.6.9 2.1 1.5.6.7 1 1.4 1.3 2.3.3.9.5 1.9.5 2.9v.3c0 1.1-.2 2-.5 2.9-.3.9-.7 1.7-1.3 2.3-.6.7-1.3 1.2-2.1 1.5-.8.4-1.8.6-2.9.6-1.1 0-2.1-.2-2.9-.6-.8-.4-1.6-.9-2.1-1.5-.6-.7-1-1.4-1.3-2.3-.3-.9-.5-1.9-.5-2.9v-.3zm3.8.3c0 .6.1 1.1.2 1.6s.3 1 .5 1.3c.2.4.5.7.9.9s.8.3 1.4.3c.5 0 1-.1 1.4-.3.4-.2.7-.5.9-.9s.4-.8.5-1.3c.1-.5.2-1.1.2-1.6v-.3c0-.6-.1-1.1-.2-1.6s-.3-1-.5-1.3-.5-.7-.9-.9c-.4-.2-.8-.3-1.4-.3-.5 0-1 .1-1.4.3-.4.2-.7.5-.9.9-.2.4-.4.8-.5 1.3s-.2 1-.2 1.6v.3zM123.7 95.6l.1 1.7c.5-.6 1.1-1.1 1.8-1.4.7-.3 1.5-.5 2.3-.5.7 0 1.3.1 1.9.3s1 .5 1.4.9c.4.4.7 1 .9 1.7.2.7.3 1.6.3 2.6v9.1h-3.8v-9.2c0-.5-.1-.8-.2-1.1-.1-.3-.3-.5-.4-.7-.2-.2-.4-.3-.7-.4-.3-.1-.6-.1-1-.1-.6 0-1.1.1-1.5.4s-.7.6-1 1V110H120V95.6h3.7zM143.8 109.9c-.2-.3-.3-.8-.4-1.3-.4.4-.9.8-1.5 1.1-.6.3-1.3.5-2.2.5-.7 0-1.3-.1-1.9-.3-.6-.2-1.1-.5-1.6-.9-.4-.4-.8-.8-1-1.4s-.4-1.1-.4-1.7c0-.8.1-1.4.4-2s.7-1.1 1.3-1.5c.6-.4 1.3-.7 2.1-.9s1.8-.3 2.9-.3h1.7v-.8c0-.7-.2-1.2-.5-1.6-.3-.4-.9-.6-1.6-.6-.6 0-1.2.2-1.5.5-.4.3-.6.7-.6 1.3h-3.8c0-.6.1-1.2.4-1.8.3-.6.7-1 1.2-1.5.5-.4 1.2-.7 1.9-1 .8-.2 1.6-.4 2.5-.4.8 0 1.6.1 2.3.3.7.2 1.3.5 1.8 1 .5.4.9.9 1.2 1.6.3.6.4 1.4.4 2.2V107.6c0 .3.1.6.1.9 0 .3.1.5.2.7l.3.6v.2h-3.7zm-3.2-2.6c.3 0 .6 0 .9-.1.3-.1.5-.2.8-.3s.4-.3.6-.4c.2-.2.3-.3.4-.5v-2.5h-1.6c-.5 0-.9.1-1.3.2s-.7.3-.9.5-.4.4-.5.7c-.1.3-.2.6-.2.9 0 .5.2.9.5 1.2s.7.3 1.3.3zM154.1 109.9h-3.9V89.5h3.9v20.4z"/></g><g class="st1"><path class="st0" d="M51.5 133.4c0 1.5-.2 2.8-.6 4-.4 1.2-1 2.2-1.7 3-.7.8-1.6 1.4-2.6 1.9-1 .4-2.1.7-3.3.7s-2.3-.2-3.3-.7c-1-.4-1.9-1.1-2.6-1.9-.7-.8-1.3-1.8-1.7-3-.4-1.2-.6-2.5-.6-4v-.9c0-1.5.2-2.8.6-4 .4-1.2 1-2.2 1.7-3 .7-.8 1.6-1.5 2.6-1.9 1-.4 2.1-.7 3.3-.7s2.3.2 3.3.7c1 .4 1.9 1.1 2.6 1.9.7.8 1.3 1.8 1.7 3 .4 1.2.6 2.5.6 4v.9zm-4-.9c0-2-.4-3.6-1.1-4.6-.7-1.1-1.8-1.6-3.1-1.6s-2.4.5-3.1 1.6c-.7 1.1-1.1 2.6-1.1 4.6v.9c0 1 .1 1.9.3 2.7s.5 1.4.8 2c.4.5.8.9 1.3 1.2.5.3 1.1.4 1.8.4 1.3 0 2.4-.5 3.1-1.6.7-1.1 1.1-2.6 1.1-4.6v-1zM55.2 142.6V131h-2.1v-2.8h2.1V127c0-.8.1-1.5.4-2.2.2-.6.6-1.2 1.1-1.6.5-.4 1-.8 1.7-1 .7-.2 1.4-.3 2.2-.3.3 0 .7 0 1 .1.3.1.6.1 1 .2v3c-.3-.1-.7-.1-1.2-.1-.7 0-1.2.2-1.6.5-.4.3-.6.8-.6 1.4v1.2h2.9v2.8h-2.9v11.6h-4zM64.8 142.6V131h-2.1v-2.8h2.1v-.6c0-.9.1-1.7.4-2.5s.7-1.3 1.2-1.8 1.2-.8 2-1.1c.8-.2 1.7-.4 2.7-.4.8 0 1.5.1 2.2.2s1.4.3 2.2.6l-.6 3.2c-.2-.1-.5-.1-.7-.2-.3-.1-.5-.1-.8-.2-.3-.1-.6-.1-.9-.1-.3 0-.7-.1-1.1-.1-.9 0-1.6.2-2 .6-.4.4-.7 1-.7 1.8v.6h2.8v2.8h-2.8v11.6h-3.9zm12.5 0h-3.9v-14.4h3.9v14.4zM86.5 139.8c.4 0 .7-.1 1-.2.3-.1.5-.2.8-.4s.4-.4.5-.7c.1-.3.2-.6.2-.9h3.6c0 .8-.2 1.5-.5 2.1-.3.6-.7 1.2-1.3 1.7-.5.5-1.2.8-1.9 1.1-.7.3-1.5.4-2.3.4-1.1 0-2.1-.2-2.9-.6-.8-.4-1.5-.9-2.1-1.5s-1-1.4-1.2-2.3c-.3-.9-.4-1.8-.4-2.9v-.4c0-1 .1-2 .4-2.9.3-.9.7-1.7 1.2-2.3s1.2-1.2 2.1-1.5 1.8-.6 2.9-.6c.9 0 1.7.1 2.4.4s1.4.6 1.9 1.1c.5.5.9 1.1 1.2 1.8.3.7.4 1.5.5 2.3H89c0-.3-.1-.7-.2-1-.1-.3-.3-.6-.5-.8-.2-.2-.5-.4-.8-.5-.3-.1-.6-.2-1-.2-.6 0-1 .1-1.4.3s-.6.5-.8.9c-.2.4-.3.8-.4 1.3-.1.5-.1 1-.1 1.6v.4c0 .5 0 1.1.1 1.6s.2.9.4 1.3.5.7.8.9c.3.4.8.5 1.4.5zM101.3 142.9c-1.1 0-2.1-.2-3-.5s-1.6-.9-2.2-1.5c-.6-.6-1.1-1.4-1.4-2.2-.3-.8-.5-1.8-.5-2.7v-.5c0-1.1.2-2.1.5-3s.8-1.7 1.3-2.3c.6-.7 1.3-1.2 2.1-1.5.8-.4 1.8-.6 2.8-.6 1 0 1.9.2 2.7.5.8.3 1.5.8 2 1.4.5.6.9 1.4 1.2 2.2.3.9.4 1.8.4 2.9v1.6H98c.1.5.2.9.4 1.3s.4.7.7 1 .6.5 1 .6c.4.2.8.2 1.3.2.7 0 1.3-.1 1.9-.4.6-.3 1.1-.7 1.5-1.2l1.9 2.1c-.2.3-.5.6-.9 1-.3.3-.8.6-1.2.8-.5.2-1 .4-1.6.6-.4.1-1 .2-1.7.2zm-.4-11.8c-.4 0-.8.1-1.1.2-.3.1-.6.3-.8.6l-.6.9-.3 1.2h5.3v-.3c0-.4-.1-.7-.2-1.1s-.3-.6-.5-.9c-.2-.2-.5-.4-.8-.6h-1zM117.2 138.6c0-.2 0-.4-.1-.6-.1-.2-.2-.3-.5-.5s-.5-.3-.9-.4-.9-.3-1.5-.4c-.7-.2-1.4-.4-2-.6-.6-.2-1.2-.5-1.6-.9-.5-.4-.8-.8-1.1-1.2s-.4-1-.4-1.6c0-.6.1-1.2.4-1.7.3-.5.6-1 1.1-1.4s1.1-.7 1.8-1c.7-.2 1.5-.4 2.4-.4.9 0 1.8.1 2.5.3s1.4.6 1.9 1 .9.9 1.2 1.5c.3.6.4 1.2.4 1.9H117c0-.5-.2-1-.5-1.4-.4-.4-.9-.5-1.7-.5-.6 0-1.1.1-1.5.4-.4.3-.5.7-.5 1.1 0 .2 0 .4.1.6s.2.3.5.5c.2.1.5.3.8.4.3.1.8.2 1.3.3.8.2 1.5.3 2.2.6s1.2.5 1.7.9.9.8 1.1 1.3c.3.5.4 1.1.4 1.8 0 .6-.1 1.2-.4 1.8-.3.5-.7 1-1.2 1.4-.5.4-1.2.7-1.9.9s-1.6.3-2.5.3c-1 0-1.9-.1-2.7-.4-.8-.3-1.4-.7-1.9-1.1s-.9-1-1.2-1.6c-.3-.6-.4-1.2-.4-1.7h3.6c0 .4.1.7.2 1 .1.3.3.5.6.7.2.2.5.3.8.4.3.1.6.1 1 .1.7 0 1.3-.1 1.7-.4.4-.5.6-.9.6-1.4z"/></g></svg>