<svg id="Layer_1" data-name="Layer 1" xmlns="http://www.w3.org/2000/svg" viewBox="0 0 155.79 150"><defs><style>.cls-1,.cls-2{fill:#fff;}.cls-2{font-size:27.23px;font-family:Roboto;font-weight:700;}</style></defs><title>offices</title><path class="cls-1" d="M77.89 72.62a36.31 36.31 0 1 1 36.31-36.31 36.31 36.31 0 0 1-36.31 36.31zm31.77-36.3H91.55a90.58 90.58 0 0 1-1 13.58h16a31.32 31.32 0 0 0 3.11-13.59zm-5.85 18.15H89.67a42.52 42.52 0 0 1-4.66 12.75 31.77 31.77 0 0 0 18.8-12.76zM68.94 31.78h17.89c-.13-3.23-.43-6.25-.81-9.09H69.76c-.39 2.84-.68 5.86-.82 9.09zm-.13 4.54a101 101 0 0 0 .91 13.61h16.34a101.17 101.17 0 0 0 .91-13.61H68.81zm9.08 31.77c3.08 0 5.79-5.4 7.44-13.62H70.46c1.64 8.21 4.35 13.61 7.43 13.61zm-7.12-.87a42.51 42.51 0 0 1-4.66-12.75H51.97a31.76 31.76 0 0 0 18.8 12.74zM46.12 36.3zm3.19 13.6h16a90.73 90.73 0 0 1-1-13.61H46.15a31.32 31.32 0 0 0 3.16 13.61zm15.08-18.15a87.14 87.14 0 0 1 .91-9.09h-16a31.63 31.63 0 0 0-2.76 9.09h17.87zM51.93 18.16h14.2a42.66 42.66 0 0 1 4.64-12.75 31.68 31.68 0 0 0-18.84 12.75zm26-13.62c-3.07 0-5.75 5.43-7.38 13.62H85.3c-1.66-8.2-4.33-13.63-7.41-13.63zm7.12.87a42.63 42.63 0 0 1 4.64 12.75h14.2A31.68 31.68 0 0 0 85.01 5.4zm21.5 17.28h-16a87.47 87.47 0 0 1 .91 9.09h17.87a31.59 31.59 0 0 0-2.78-9.09z"/><text class="cls-2" transform="translate(0 109.94)">International<tspan x="33.87" y="32.68">Offices</tspan></text></svg>