<svg id="Layer_1" data-name="Layer 1" xmlns="http://www.w3.org/2000/svg" viewBox="0 0 259.12 150"><defs><style>.cls-1,.cls-2{fill:#fff;}.cls-2{font-size:27.23px;font-family:Roboto;font-weight:700;}</style></defs><title>transactions</title><path class="cls-1" d="M168.15 56.82v8.89a2.27 2.27 0 0 1-3.69 1.77l-13.33-10.66h-17V11.44h34a13.62 13.62 0 0 1 13.62 13.62v18.15a13.62 13.62 0 0 1-13.6 13.61zm9.08-31.77a9.08 9.08 0 0 0-9.08-9.08h-34v36.32h17.4l12.11 9.08v-9.08h4.54a9.08 9.08 0 0 0 9.08-9.08V25.05zM134.1 2.27v68.08a2.27 2.27 0 0 1-2.27 2.27h-1a3.4 3.4 0 0 1-2.5-1.09l-7.37-8-7.78 7.52a2.27 2.27 0 0 1-3.19 0l-7.45-7.49-7.73 7.49a2.27 2.27 0 0 1-3.22-.06l-7.15-7.44-7.89 8.06a3.4 3.4 0 0 1-2.43 1h-1.29a2.27 2.27 0 0 1-2.27-2.27V2.27A2.27 2.27 0 0 1 72.83 0h59a2.27 2.27 0 0 1 2.27 2.27zm-59 64.33l6.1-6.23 1.64-1.67a2.27 2.27 0 0 1 3.26 0l1.58 1.69 5.57 5.79 6.09-5.91 1.61-1.56a2.27 2.27 0 0 1 3.19 0l1.58 1.59 5.87 5.9 6.17-6 1.67-1.62a2.27 2.27 0 0 1 3.24.09l1.57 1.7 5.28 5.72V4.54H75.1v62.05zm26.35-24.91v-8.9c-3.95-1-8-2.27-8-6.77 0-3.77 3.37-6.44 8-6.77V15.9h2.36v3.37a12 12 0 0 1 7.66 3.37l-1.93 2.26a9.61 9.61 0 0 0-5.73-2.82v8c4 1.06 8.24 2.45 8.24 7.25 0 3.29-2.24 6.73-8.24 7.14v3.26h-2.36v-3.3a12.73 12.73 0 0 1-8.82-3.84l1.93-2.34a10.78 10.78 0 0 0 6.89 3.44zm0-19.69c-2.75.19-4.68 1.72-4.68 3.84s2.05 2.89 4.68 3.62v-7.47zm2.36 19.73c3.68-.37 4.91-2.45 4.91-4.21 0-2.38-2.21-3.37-4.91-4.13v8.34z"/><text class="cls-2" transform="translate(8.12 109.94)">60 Million+ Monthly<tspan x="-8.12" y="32.68">Sma</tspan><tspan x="46.8" y="32.68">r</tspan><tspan x="57.4" y="32.68">t</tspan><tspan x="66.6" y="32.68">T</tspan><tspan x="82.58" y="32.68">r</tspan><tspan x="92.12" y="32.68">ans</tspan><tspan x="135.97" y="32.68">A</tspan><tspan x="154.01" y="32.68">C</tspan><tspan x="171.45" y="32.68">TIONS</tspan></text></svg>