<svg id="Layer_1" xmlns="http://www.w3.org/2000/svg" viewBox="0 0 259.1 150"><style>.st0{fill:#FFFFFF;} .st1{enable-background:new ;}</style><title>transactions</title><path class="st0" d="M168.1 56.8v8.9c0 1.3-1 2.3-2.3 2.3-.5 0-1-.2-1.4-.5l-13.3-10.7h-17V11.4h34c7.5 0 13.6 6.1 13.6 13.6v18.1c0 7.6-6 13.7-13.6 13.7zm9.1-31.8c0-5-4.1-9.1-9.1-9.1h-34v36.3h17.4l12.1 9.1v-9.1h4.5c5 0 9.1-4.1 9.1-9.1V25z"/><path class="st0" d="M134.1 2.3v68.1c0 1.3-1 2.3-2.3 2.3h-1c-.9 0-1.9-.4-2.5-1.1l-7.4-8-7.8 7.5c-.9.9-2.3.9-3.2 0l-7.5-7.5-7.7 7.5c-.9.9-2.3.9-3.2 0l-7.2-7.4-7.9 8.1c-.6.6-1.5 1-2.4 1h-1.3c-1.3 0-2.3-1-2.3-2.3V2.3c0-1.3 1-2.3 2.3-2.3h59c1.4 0 2.4 1 2.4 2.3zm-59 64.3l6.1-6.2 1.6-1.7c.9-.9 2.3-.9 3.2-.1l.1.1 1.6 1.7 5.6 5.8 6.1-5.9 1.6-1.6c.9-.9 2.3-.9 3.2 0l1.6 1.6 5.9 5.9 6.2-6 1.7-1.6c.9-.9 2.3-.8 3.2.1l1.6 1.7 5.3 5.7V4.5H75.1v62.1zm26.3-24.9v-8.9c-4-1-8-2.3-8-6.8 0-3.8 3.4-6.4 8-6.8v-3.3h2.4v3.4c2.9.2 5.6 1.4 7.7 3.4l-1.9 2.3c-1.5-1.6-3.6-2.6-5.7-2.8v8c4 1.1 8.2 2.4 8.2 7.3 0 3.3-2.2 6.7-8.2 7.1v3.3h-2.4v-3.3c-3.3-.1-6.5-1.5-8.8-3.8l1.9-2.3c1.8 1.7 4.2 2.9 6.8 3.2zm0-19.7c-2.8.2-4.7 1.7-4.7 3.8s2 2.9 4.7 3.6V22zm2.4 19.7c3.7-.4 4.9-2.5 4.9-4.2 0-2.4-2.2-3.4-4.9-4.1v8.3z"/><g class="st1"><path class="st0" d="M19.9 90.4v3.2h-.2c-.9 0-1.7.1-2.5.4-.7.2-1.4.6-1.9 1s-1 1-1.3 1.6c-.3.6-.5 1.3-.6 2.1.5-.5 1-.9 1.7-1.2.7-.3 1.4-.4 2.2-.4.9 0 1.7.2 2.4.5s1.3.8 1.7 1.4c.5.6.8 1.3 1 2.1.2.8.3 1.6.3 2.5 0 .9-.2 1.8-.5 2.6s-.7 1.5-1.3 2.1-1.3 1.1-2.1 1.4-1.7.5-2.7.5c-1 0-2-.2-2.8-.6-.8-.4-1.6-.9-2.1-1.6-.6-.7-1-1.5-1.4-2.4-.3-.9-.5-2-.5-3.1V101c0-1.6.2-3 .7-4.3.4-1.3 1.1-2.4 1.9-3.4.8-.9 1.9-1.7 3.1-2.2 1.2-.5 2.6-.8 4.2-.8h.7zm-3.8 9.7c-.3 0-.7 0-1 .1-.3.1-.6.2-.8.4-.2.2-.5.4-.6.6s-.3.4-.4.7v1.2c0 .7.1 1.3.2 1.8s.3.9.6 1.3c.3.3.6.6.9.8.4.2.8.3 1.2.3.4 0 .8-.1 1.1-.3.3-.2.6-.4.9-.7s.4-.7.6-1.1.2-.9.2-1.4c0-.5-.1-1-.2-1.4-.1-.4-.3-.8-.6-1.1s-.5-.6-.9-.7-.7-.5-1.2-.5zM38.1 101.9c0 1.5-.2 2.7-.5 3.7s-.8 1.9-1.3 2.6c-.6.7-1.3 1.2-2.1 1.5s-1.7.5-2.7.5-1.9-.2-2.7-.5c-.8-.3-1.5-.8-2.1-1.5s-1-1.5-1.3-2.6c-.3-1-.5-2.3-.5-3.7v-3.4c0-1.5.2-2.7.5-3.7s.8-1.9 1.3-2.6 1.3-1.2 2.1-1.5 1.7-.5 2.7-.5 1.9.2 2.7.5 1.5.8 2.1 1.5c.6.7 1 1.5 1.3 2.6.3 1 .5 2.3.5 3.7v3.4zM34.2 98c0-.9-.1-1.6-.2-2.2s-.3-1.1-.5-1.4c-.2-.4-.5-.6-.9-.8-.3-.2-.7-.2-1.1-.2-.4 0-.8.1-1.1.2-.3.2-.6.4-.8.8-.2.4-.4.8-.5 1.4s-.2 1.3-.2 2.2v4.4c0 .9.1 1.6.2 2.2.1.6.3 1.1.5 1.4.2.4.5.6.9.8s.7.2 1.1.2c.4 0 .8-.1 1.1-.2s.6-.4.8-.8.4-.8.5-1.4.2-1.3.2-2.2V98zM53.1 90.6l5 14 4.9-14h5.2V110h-4v-5.3l.4-9.1-5.2 14.4h-2.7l-5.2-14.4.4 9.1v5.3h-4V90.6h5.2zM71.4 91.8c0-.6.2-1 .6-1.4.4-.4.9-.6 1.6-.6.3 0 .6 0 .9.1.3.1.5.2.7.4.2.2.3.4.4.6.1.2.2.5.2.8 0 .3-.1.6-.2.8-.1.2-.2.5-.4.6-.2.2-.4.3-.7.4-.3.1-.6.1-.9.1-.3 0-.6 0-.9-.1s-.5-.2-.7-.4c-.2-.2-.3-.4-.4-.6-.1-.1-.2-.4-.2-.7zm4.1 18.1h-3.9V95.6h3.9v14.3zM82.7 109.9h-3.9V89.5h3.9v20.4zM90 109.9h-3.9V89.5H90v20.4zM93.1 91.8c0-.6.2-1 .6-1.4.4-.4.9-.6 1.6-.6.3 0 .6 0 .9.1.3.1.5.2.7.4.2.2.3.4.4.6.1.2.2.5.2.8 0 .3-.1.6-.2.8-.1.2-.2.5-.4.6-.2.2-.4.3-.7.4-.3.1-.6.1-.9.1-.3 0-.6 0-.9-.1s-.5-.2-.7-.4c-.2-.2-.3-.4-.4-.6-.2-.1-.2-.4-.2-.7zm4.1 18.1h-3.9V95.6h3.9v14.3zM99.7 102.6c0-1 .2-2 .5-2.9.3-.9.7-1.7 1.3-2.3.6-.7 1.3-1.2 2.1-1.5s1.8-.6 2.9-.6c1.1 0 2.1.2 2.9.6s1.6.9 2.1 1.5c.6.7 1 1.4 1.3 2.3.3.9.5 1.9.5 2.9v.3c0 1.1-.2 2-.5 2.9-.3.9-.7 1.7-1.3 2.3-.6.7-1.3 1.2-2.1 1.5-.8.4-1.8.6-2.9.6s-2.1-.2-2.9-.6c-.8-.4-1.6-.9-2.1-1.5-.6-.7-1-1.4-1.3-2.3-.3-.9-.5-1.9-.5-2.9v-.3zm3.9.3c0 .6.1 1.1.2 1.6s.3 1 .5 1.3.5.7.9.9c.4.2.8.3 1.4.3.5 0 1-.1 1.4-.3s.7-.5.9-.9c.2-.4.4-.8.5-1.3.1-.5.2-1.1.2-1.6v-.3c0-.6-.1-1.1-.2-1.6s-.3-1-.5-1.3c-.2-.4-.6-.7-.9-.9-.4-.2-.8-.3-1.4-.3-.5 0-1 .1-1.4.3-.4.2-.7.5-.9.9s-.4.8-.5 1.3c-.1.5-.2 1-.2 1.6v.3zM119.3 95.6l.1 1.7c.5-.6 1.1-1.1 1.8-1.4.7-.3 1.5-.5 2.3-.5.7 0 1.3.1 1.9.3s1 .5 1.4.9c.4.4.7 1 .9 1.7.2.7.3 1.6.3 2.6v9.1h-3.8v-9.2c0-.5-.1-.8-.2-1.1-.1-.3-.3-.5-.4-.7-.2-.2-.4-.3-.7-.4-.3-.1-.6-.1-1-.1-.6 0-1.1.1-1.5.4s-.7.6-1 1V110h-3.8V95.6h3.7zM138.7 99.1h4.8v3.5h-4.8v5.4H135v-5.4h-4.8v-3.5h4.8v-5.2h3.7v5.2zM158.1 90.6l5 14 4.9-14h5.2V110h-4v-5.3l.4-9.1-5.2 14.4h-2.7l-5.2-14.4.4 9.1v5.3h-4V90.6h5.2zM175.9 102.6c0-1 .2-2 .5-2.9.3-.9.7-1.7 1.3-2.3.6-.7 1.3-1.2 2.1-1.5.8-.4 1.8-.6 2.9-.6 1.1 0 2.1.2 2.9.6.9.4 1.6.9 2.1 1.5.6.7 1 1.4 1.3 2.3.3.9.5 1.9.5 2.9v.3c0 1.1-.2 2-.5 2.9-.3.9-.7 1.7-1.3 2.3-.6.7-1.3 1.2-2.1 1.5-.8.4-1.8.6-2.9.6-1.1 0-2.1-.2-2.9-.6-.8-.4-1.6-.9-2.1-1.5-.6-.7-1-1.4-1.3-2.3-.3-.9-.5-1.9-.5-2.9v-.3zm3.8.3c0 .6.1 1.1.2 1.6s.3 1 .5 1.3c.2.4.5.7.9.9s.8.3 1.4.3c.5 0 1-.1 1.4-.3.4-.2.7-.5.9-.9s.4-.8.5-1.3c.1-.5.2-1.1.2-1.6v-.3c0-.6-.1-1.1-.2-1.6s-.3-1-.5-1.3-.5-.7-.9-.9c-.4-.2-.8-.3-1.4-.3-.5 0-1 .1-1.4.3-.4.2-.7.5-.9.9-.2.4-.4.8-.5 1.3s-.2 1-.2 1.6v.3zM195.4 95.6l.1 1.7c.5-.6 1.1-1.1 1.8-1.4.7-.3 1.5-.5 2.3-.5.7 0 1.3.1 1.9.3s1 .5 1.4.9c.4.4.7 1 .9 1.7.2.7.3 1.6.3 2.6v9.1h-3.8v-9.2c0-.5-.1-.8-.2-1.1-.1-.3-.3-.5-.4-.7-.2-.2-.4-.3-.7-.4-.3-.1-.6-.1-1-.1-.6 0-1.1.1-1.5.4s-.7.6-1 1V110h-3.8V95.6h3.7zM211.7 92v3.5h2.5v2.8h-2.5v7.2c0 .3 0 .5.1.7.1.2.2.3.3.5.1.1.3.2.5.2s.4.1.6.1h.6s.4 0 .5-.1v2.9c-.3.1-.7.2-1 .2s-.8.1-1.3.1c-.6 0-1.2-.1-1.7-.2-.5-.2-.9-.4-1.3-.7-.4-.3-.6-.8-.8-1.3-.2-.5-.3-1.2-.3-2v-7.6h-2.1v-2.8h2.1V92h3.8zM220.1 97.1c.5-.6 1-1 1.7-1.3.6-.3 1.4-.5 2.2-.5.7 0 1.4.1 1.9.3.6.2 1.1.5 1.5 1 .4.4.7 1 1 1.7.2.7.3 1.6.3 2.6v9.1h-3.8v-9.1c0-.5-.1-.8-.2-1.2-.1-.3-.3-.6-.4-.8-.2-.2-.4-.3-.7-.4-.3-.1-.6-.1-1-.1-.6 0-1.1.1-1.5.4-.4.2-.7.6-.9 1V110h-3.8V89.5h3.8v7.6zM235.6 109.9h-3.9V89.5h3.9v20.4zM244.2 104.5l2.7-8.9h4.1l-5.8 16.5c-.1.4-.3.8-.5 1.2-.2.4-.5.8-.8 1.2-.4.4-.8.7-1.3.9-.5.2-1.2.4-1.9.4h-.9c-.1 0-.3 0-.4-.1-.1 0-.3-.1-.4-.1v-2.9h.6c.4 0 .7 0 1-.1.3-.1.5-.2.7-.3.2-.1.4-.3.5-.5.1-.2.2-.4.3-.7l.4-1.1-5-14.4h4.1l2.6 8.9z"/></g><g class="st1"><path class="st0" d="M11.8 137.5c0-.3 0-.6-.1-.9-.1-.3-.3-.5-.6-.8s-.7-.5-1.2-.7c-.5-.2-1.1-.5-1.9-.7-.9-.3-1.7-.6-2.5-1s-1.5-.8-2.1-1.3c-.6-.5-1.1-1-1.4-1.7-.3-.6-.5-1.4-.5-2.2 0-.8.2-1.5.5-2.2.4-.7.8-1.2 1.5-1.7s1.4-.8 2.3-1.1 1.8-.4 2.9-.4c1.1 0 2 .1 2.9.4.9.3 1.6.7 2.2 1.2.6.5 1.1 1.2 1.4 1.9.3.7.5 1.5.5 2.4h-4c0-.4-.1-.8-.2-1.1s-.3-.6-.6-.9c-.3-.2-.6-.4-1-.6-.4-.1-.9-.2-1.4-.2-.5 0-1 .1-1.4.2-.4.1-.7.3-1 .5-.3.2-.4.4-.6.7-.1.3-.2.6-.2.9 0 .6.3 1.2 1 1.6.7.4 1.6.8 2.9 1.2 1.1.3 2 .7 2.8 1.1.8.4 1.5.9 2 1.4s.9 1.1 1.2 1.7c.3.6.4 1.3.4 2.1 0 .9-.2 1.6-.5 2.3-.3.7-.8 1.2-1.4 1.7-.6.5-1.3.8-2.2 1.1-.9.2-1.8.4-2.9.4-.6 0-1.3-.1-1.9-.2s-1.2-.3-1.8-.5-1.1-.5-1.6-.9c-.5-.3-.9-.8-1.3-1.2-.4-.5-.7-1-.9-1.6-.2-.6-.3-1.3-.3-2h4c0 .6.1 1.1.3 1.5.2.4.4.7.8 1 .3.3.7.4 1.2.6s1 .2 1.6.2c.5 0 1-.1 1.3-.2.4-.1.7-.3.9-.5.2-.2.4-.4.6-.7s.3-.4.3-.8zM21.8 128.2l.1 1.6c.5-.6 1.1-1 1.7-1.4.7-.3 1.5-.5 2.4-.5.9 0 1.6.2 2.3.5.7.3 1.2.9 1.5 1.7.5-.7 1.1-1.2 1.8-1.6.7-.4 1.6-.6 2.5-.6.7 0 1.3.1 1.9.3s1.1.5 1.5.9c.4.4.7 1 .9 1.7.2.7.3 1.5.3 2.6v9.2H35v-9.2c0-.5-.1-.9-.2-1.2-.1-.3-.2-.6-.4-.7-.2-.2-.4-.3-.7-.4-.3-.1-.6-.1-.9-.1-.6 0-1.1.1-1.5.4s-.7.7-.9 1.2V142.4h-3.8v-9.1c0-.5 0-.9-.1-1.2-.1-.3-.2-.6-.4-.7-.2-.2-.4-.3-.7-.4-.3-.1-.6-.1-.9-.1-.6 0-1 .1-1.4.4s-.7.6-.9 1v10.2h-3.8v-14.4h3.4zM50.1 142.6c-.2-.3-.3-.8-.4-1.3-.4.4-.9.8-1.5 1.1-.6.3-1.3.5-2.2.5-.7 0-1.3-.1-1.9-.3-.6-.2-1.1-.5-1.6-.9-.4-.4-.8-.8-1-1.4s-.4-1.1-.4-1.7c0-.8.1-1.4.4-2 .3-.6.7-1.1 1.3-1.5.6-.4 1.3-.7 2.1-.9.8-.2 1.8-.3 2.9-.3h1.7v-.9c0-.7-.2-1.2-.5-1.6-.3-.4-.9-.6-1.6-.6-.6 0-1.2.2-1.5.5-.4.3-.6.7-.6 1.3h-3.8c0-.6.1-1.2.4-1.8.3-.6.7-1 1.2-1.5s1.2-.7 1.9-1c.8-.2 1.6-.4 2.5-.4.8 0 1.6.1 2.3.3.7.2 1.3.5 1.8 1 .5.4.9.9 1.2 1.6s.4 1.4.4 2.2V140.2c0 .3.1.6.1.9 0 .3.1.5.2.7l.3.6v.2h-3.7zm-3.2-2.7c.3 0 .6 0 .9-.1s.5-.2.8-.3c.2-.1.4-.3.6-.4.2-.2.3-.3.4-.5v-2.5H48c-.5 0-.9.1-1.3.2s-.7.3-.9.5-.4.4-.5.7-.2.6-.2.9c0 .5.2.9.5 1.2s.8.3 1.3.3z"/></g><path class="st1 st0" d="M64.5 131.8c-.2 0-.4-.1-.7-.1h-.7c-.8 0-1.4.1-1.8.4-.5.3-.8.6-1 1.1v9.4h-3.8v-14.4H60l.1 1.7c.4-.6.8-1.1 1.3-1.5.5-.3 1.2-.5 1.9-.5.2 0 .4 0 .6.1s.4.1.6.1v3.7zM71.6 124.7v3.5h2.5v2.8h-2.5v7.2c0 .3 0 .5.1.7.1.2.2.3.3.5.1.1.3.2.5.2s.4.1.6.1h.6c.2 0 .4 0 .5-.1v2.9c-.3.1-.7.2-1 .2-.4.1-.8.1-1.3.1-.6 0-1.2-.1-1.7-.2-.5-.2-.9-.4-1.3-.7-.4-.3-.6-.8-.8-1.3-.2-.5-.3-1.2-.3-2V131h-2.1v-2.8h2.1v-3.5h3.8zM91 126.5h-5.9v16.1h-4v-16.1h-5.9v-3.2H91v3.2zM100.3 131.8c-.2 0-.4-.1-.7-.1h-.7c-.8 0-1.4.1-1.8.4-.5.3-.8.6-1 1.1v9.4h-3.8v-14.4h3.6l.1 1.7c.4-.6.8-1.1 1.3-1.5.5-.3 1.2-.5 1.9-.5.2 0 .4 0 .6.1s.4.1.6.1l-.1 3.7z"/><g class="st1"><path class="st0" d="M110.1 142.6c-.2-.3-.3-.8-.4-1.3-.4.4-.9.8-1.5 1.1-.6.3-1.3.5-2.2.5-.7 0-1.3-.1-1.9-.3-.6-.2-1.1-.5-1.6-.9-.4-.4-.8-.8-1-1.4s-.4-1.1-.4-1.7c0-.8.1-1.4.4-2 .3-.6.7-1.1 1.3-1.5.6-.4 1.3-.7 2.1-.9.8-.2 1.8-.3 2.9-.3h1.7v-.9c0-.7-.2-1.2-.5-1.6-.3-.4-.9-.6-1.6-.6-.6 0-1.2.2-1.5.5-.4.3-.6.7-.6 1.3h-3.8c0-.6.1-1.2.4-1.8.3-.6.7-1 1.2-1.5s1.2-.7 1.9-1c.8-.2 1.6-.4 2.5-.4.8 0 1.6.1 2.3.3.7.2 1.3.5 1.8 1 .5.4.9.9 1.2 1.6s.4 1.4.4 2.2V140.2c0 .3.1.6.1.9 0 .3.1.5.2.7l.3.6v.2h-3.7zm-3.2-2.7c.3 0 .6 0 .9-.1s.5-.2.8-.3c.2-.1.4-.3.6-.4.2-.2.3-.3.4-.5v-2.5H108c-.5 0-.9.1-1.3.2s-.7.3-.9.5-.4.4-.5.7-.2.6-.2.9c0 .5.2.9.5 1.2s.7.3 1.3.3zM119.9 128.2l.1 1.7c.5-.6 1.1-1.1 1.8-1.4.7-.3 1.5-.5 2.3-.5.7 0 1.3.1 1.9.3.6.2 1 .5 1.4.9s.7 1 .9 1.7c.2.7.3 1.6.3 2.6v9.1h-3.8v-9.2c0-.5-.1-.8-.2-1.1-.1-.3-.3-.5-.4-.7-.2-.2-.4-.3-.7-.4-.3-.1-.6-.1-1-.1-.6 0-1.1.1-1.5.4s-.7.6-1 1v10.1h-3.8v-14.4h3.7zM139.4 138.6c0-.2 0-.4-.1-.6-.1-.2-.2-.3-.5-.5s-.5-.3-.9-.4c-.4-.1-.9-.3-1.5-.4-.7-.2-1.4-.4-2-.6-.6-.2-1.2-.5-1.6-.9-.5-.4-.8-.8-1.1-1.2-.3-.5-.4-1-.4-1.6 0-.6.1-1.2.4-1.7.3-.5.6-1 1.1-1.4.5-.4 1.1-.7 1.8-1s1.5-.4 2.4-.4c.9 0 1.8.1 2.5.3.7.2 1.4.6 1.9 1s.9.9 1.2 1.5.4 1.2.4 1.9h-3.8c0-.5-.2-1-.5-1.4-.4-.4-.9-.5-1.7-.5-.6 0-1.1.1-1.5.4-.4.3-.5.7-.5 1.1 0 .2 0 .4.1.6.1.2.2.3.5.5.2.1.5.3.8.4.3.1.8.2 1.3.3.8.2 1.5.3 2.2.6.7.2 1.2.5 1.7.9s.9.8 1.1 1.3c.3.5.4 1.1.4 1.8 0 .6-.1 1.2-.4 1.8-.3.5-.7 1-1.2 1.4-.5.4-1.2.7-1.9.9-.7.2-1.6.3-2.5.3-1 0-1.9-.1-2.7-.4-.8-.3-1.4-.7-1.9-1.1s-.9-1-1.2-1.6-.4-1.2-.4-1.7h3.6c0 .4.1.7.2 1s.3.5.6.7c.2.2.5.3.8.4.3.1.6.1 1 .1.7 0 1.3-.1 1.7-.4s.6-.9.6-1.4z"/></g><path class="st1 st0" d="M156.7 138.6h-7l-1.3 4h-4.2l7.2-19.4h3.7l7.2 19.4h-4.2l-1.4-4zm-5.9-3.2h4.8l-2.4-7.2-2.4 7.2zM179.1 136.2c-.1 1-.3 1.9-.7 2.7-.4.8-.9 1.5-1.5 2.1s-1.5 1-2.4 1.4c-.9.3-2 .5-3.2.5-1.2 0-2.4-.2-3.3-.6-1-.4-1.8-1-2.5-1.9-.7-.8-1.2-1.8-1.6-2.9-.4-1.1-.6-2.4-.6-3.9v-1.3c0-1.4.2-2.7.6-3.9.4-1.2.9-2.1 1.6-2.9.7-.8 1.5-1.4 2.5-1.9 1-.4 2.1-.7 3.3-.7 1.2 0 2.3.2 3.2.5.9.3 1.7.8 2.4 1.4.6.6 1.2 1.3 1.5 2.2.4.8.6 1.7.7 2.7h-4c0-.6-.1-1.1-.3-1.5-.2-.4-.4-.8-.7-1.1-.3-.3-.7-.5-1.1-.7s-1-.2-1.7-.2c-1.3 0-2.4.5-3 1.5s-1 2.5-1 4.6v1.3c0 1 .1 1.9.2 2.6.1.8.4 1.4.7 1.9.3.5.7.9 1.2 1.1.5.3 1.1.4 1.8.4.6 0 1.2-.1 1.6-.2.5-.1.8-.4 1.1-.6.3-.3.5-.6.7-1.1.2-.4.3-.9.3-1.5h4.2z"/><g class="st1"><path class="st0" d="M195.9 126.5H190v16.1h-4v-16.1h-5.9v-3.2h15.8v3.2zM202.4 142.6h-4v-19.4h4v19.4zM222 133.4c0 1.5-.2 2.8-.6 4-.4 1.2-1 2.2-1.7 3-.7.8-1.6 1.4-2.6 1.9-1 .4-2.1.7-3.3.7-1.2 0-2.3-.2-3.3-.7-1-.4-1.9-1.1-2.6-1.9s-1.3-1.8-1.7-3c-.4-1.2-.6-2.5-.6-4v-.9c0-1.5.2-2.8.6-4 .4-1.2 1-2.2 1.7-3 .7-.8 1.6-1.5 2.6-1.9s2.1-.7 3.3-.7c1.2 0 2.3.2 3.3.7s1.9 1.1 2.6 1.9 1.3 1.8 1.7 3c.4 1.2.6 2.5.6 4v.9zm-4.1-.9c0-2-.4-3.6-1.1-4.6s-1.8-1.6-3.1-1.6-2.4.5-3.1 1.6c-.7 1.1-1.1 2.6-1.1 4.6v.9c0 1 .1 1.9.3 2.7s.5 1.4.8 2c.4.5.8.9 1.3 1.2.5.3 1.1.4 1.8.4 1.3 0 2.4-.5 3.1-1.6s1.1-2.6 1.1-4.6v-1zM240.6 142.6h-4l-7.8-12.7v12.7h-4v-19.4h4l7.8 12.8v-12.8h4v19.4zM254.1 137.5c0-.3 0-.6-.1-.9-.1-.3-.3-.5-.6-.8s-.7-.5-1.2-.7-1.1-.5-1.9-.7c-.9-.3-1.7-.6-2.5-1s-1.5-.8-2.1-1.3c-.6-.5-1.1-1-1.4-1.7-.3-.6-.5-1.4-.5-2.2 0-.8.2-1.5.5-2.2.3-.7.8-1.2 1.5-1.7s1.4-.8 2.3-1.1 1.8-.4 2.9-.4c1.1 0 2 .1 2.9.4.9.3 1.6.7 2.2 1.2.6.5 1.1 1.2 1.4 1.9.3.7.5 1.5.5 2.4h-4c0-.4-.1-.8-.2-1.1-.1-.3-.3-.6-.6-.9-.3-.2-.6-.4-1-.6-.4-.1-.9-.2-1.4-.2-.5 0-1 .1-1.4.2-.4.1-.7.3-1 .5-.3.2-.4.4-.6.7-.1.3-.2.6-.2.9 0 .6.3 1.2 1 1.6s1.6.8 2.9 1.2c1.1.3 2 .7 2.8 1.1.8.4 1.5.9 2 1.4s.9 1.1 1.2 1.7c.3.6.4 1.3.4 2.1 0 .9-.2 1.6-.5 2.3-.3.7-.8 1.2-1.4 1.7-.6.5-1.3.8-2.2 1.1-.9.2-1.8.4-2.9.4-.6 0-1.3-.1-1.9-.2-.6-.1-1.2-.3-1.8-.5-.6-.2-1.1-.5-1.6-.9-.5-.3-.9-.8-1.3-1.2-.4-.5-.7-1-.9-1.6-.2-.6-.3-1.3-.3-2h4c0 .6.1 1.1.3 1.5.2.4.4.7.8 1 .3.3.7.4 1.2.6s1 .2 1.6.2c.5 0 1-.1 1.3-.2.4-.1.7-.3.9-.5.2-.2.4-.4.6-.7.3-.2.3-.4.3-.8z"/></g></svg>