<svg id="Layer_1" data-name="Layer 1" xmlns="http://www.w3.org/2000/svg" viewBox="0 0 200 200"><defs><style>.cls-1{fill:#68bc49;opacity:0;}.cls-2{fill:#0039a6;}.cls-3{fill:#fff;}.cls-4{fill:#e45bbf;}</style></defs><title>clientLogo</title><rect class="cls-1" width="200" height="200"/><path class="cls-2" d="M100,57.73A42.27,42.27,0,1,0,142.27,100,42.31,42.31,0,0,0,100,57.73Z"/><circle class="cls-3" cx="100" cy="100" r="38.15"/><path class="cls-4" d="M100,140.1A40.1,40.1,0,1,1,140.09,100,40.14,40.14,0,0,1,100,140.1Zm0-76.3A36.21,36.21,0,1,0,136.21,100,36.25,36.25,0,0,0,100,63.79Z"/><polygon class="cls-4" points="110.97 73.36 103.82 72.87 103.23 104.43 107.58 104.83 110.97 73.36"/><polygon class="cls-2" points="84.55 74.42 76.49 75.81 82.42 104.26 85.72 104.1 84.55 74.42"/><path class="cls-4" d="M85.57,73.17S96.47,71.88,99.47,79s-4.55,10-4.55,10,8.15,1.56,5.79,8.9-13.82,6.59-13.82,6.59L87,102s6.19,0.61,7.16-4.43c1-5.21-6.4-5.24-6.4-5.24l-0.24-3.76s5.57-.23,5.77-4.7S86,80,86,80Z"/><path class="cls-2" d="M111.76,74.46s10.94,0,11.7,8.38-8.14,11.08-8.14,11.08l3.81,9.73-3.43.66L109.74,95l0.45-3.54s5.13-1.13,5.9-4.21c1.23-5-4.91-5.91-4.91-5.91Z"/><path class="cls-2" d="M82.31,109.69A3.72,3.72,0,0,1,84,109a3.64,3.64,0,0,1,4.17,3A3.6,3.6,0,0,1,84.93,116a3.78,3.78,0,0,1-1.82-.2l0.11,0.68-2,.25L80,107.12l2-.25Zm1.94,1.17a1.74,1.74,0,0,0-1.54,1.86,1.75,1.75,0,0,0,2,1.42,1.74,1.74,0,0,0,1.54-1.86,1.77,1.77,0,0,0-2-1.42"/><path class="cls-2" d="M94.47,109.65l2,0.1-0.56,7.49-2-.09,0.09-.68a3.77,3.77,0,0,1-1.79.34,3.55,3.55,0,0,1-3.51-3.67,3.8,3.8,0,0,1,5.69-2.79Zm-3.82,3.58A1.72,1.72,0,0,0,92.31,115a1.77,1.77,0,0,0,1.87-1.57,1.72,1.72,0,0,0-1.66-1.73,1.79,1.79,0,0,0-1.87,1.57"/><path class="cls-2" d="M101,109.4l-0.29.07c-0.95.23-1.52,0.95-1.25,1.54l1.24,2.73c0.59,1.3-.59,2.76-2.64,3.26l-0.29.07-0.57-1.24,0.29-.07c0.95-.23,1.52-0.94,1.25-1.54l-1.24-2.73c-0.59-1.3.59-2.75,2.64-3.25l0.29-.07Z"/><polygon class="cls-2" points="105.37 112.8 101.53 116.28 102.18 105.83 104.14 105.95 103.71 111.76 107.17 108.25 108.59 109.5 106.73 111.41 108.9 114.34 107.32 115.41 105.37 112.8"/><path class="cls-2" d="M112,108a1.18,1.18,0,0,1-2.36.08,1.12,1.12,0,0,1,1.14-1.14A1.14,1.14,0,0,1,112,108m-0.14,1.66L112,116l-2,.06-0.23-6.42Z"/><polygon class="cls-2" points="120.35 109.73 119.91 117.51 115.36 112.63 115.27 116.09 113.3 116.06 113.67 108.37 118.3 113.16 118.38 109.7 120.35 109.73"/><path class="cls-2" d="M80.51,118.39l2.19-.16,0.1,0.82a4.13,4.13,0,0,1,1.92-.62l0.22,0,0.17,2-0.22,0a1.92,1.92,0,0,0-1.81,2l0.3,3.94-2.19.16Z"/><path class="cls-2" d="M88,119.94a3.13,3.13,0,1,1-3.31,3.16A3.25,3.25,0,0,1,88,119.94M88,124.55a1.49,1.49,0,1,0-1.6-1.46,1.56,1.56,0,0,0,1.6,1.46"/><path class="cls-2" d="M93.91,120.86a3.35,3.35,0,0,1,1.6-.35,3.22,3.22,0,0,1,3.27,3.2,3.27,3.27,0,0,1-3.45,3,3.33,3.33,0,0,1-1.58-.42l0,0.58-1.77,0,0.25-8.65,1.77,0Zm1.55,1.29a1.58,1.58,0,0,0-1.63,1.45,1.56,1.56,0,0,0,1.55,1.52,1.49,1.49,0,1,0,.08-3"/><path class="cls-2" d="M101,119.41a3.3,3.3,0,0,1,1.57-.44,3.13,3.13,0,1,1,.23,6.25,3.33,3.33,0,0,1-1.6-.33l0,0.58-1.77.06-0.32-8.64,1.77-.06Zm1.63,1.2a1.49,1.49,0,1,0,1.64,1.43,1.59,1.59,0,0,0-1.64-1.43"/><path class="cls-2" d="M109,117.71a1,1,0,0,1-1.12.94,1,1,0,0,1-1-1,1.06,1.06,0,0,1,2.12.1m-0.27,1.47-0.33,5.76-1.77-.09,0.32-5.75Z"/><polygon class="cls-2" points="116.2 119.06 116.01 126.25 111.77 121.65 111.75 124.75 109.98 124.73 110.03 117.1 114.41 122.14 114.44 119.03 116.2 119.06"/><path class="cls-2" d="M120.59,119.46l-0.29.06c-0.93.17-1.49,0.88-1.23,1.5l1.21,2.88c0.58,1.38-.59,2.8-2.6,3.18l-0.29.05-0.55-1.31,0.29-.05c0.93-.18,1.5-0.87,1.23-1.51l-1.21-2.88c-0.58-1.38.59-2.79,2.6-3.17l0.29-.05Z"/><path class="cls-2" d="M121.14,121a1.45,1.45,0,0,1,2.9,0A1.45,1.45,0,0,1,121.14,121Zm2.64,0a1.14,1.14,0,0,0-1.2-1.19,1.19,1.19,0,0,0,0,2.38A1.14,1.14,0,0,0,123.78,121Zm-0.55.78h-0.32l-0.26-.39h-0.29v0.38h-0.29v-1.57h0.48a0.6,0.6,0,0,1,.68.6,0.55,0.55,0,0,1-.31.51Zm-0.68-.62a0.33,0.33,0,0,0,.38-0.35,0.33,0.33,0,0,0-.38-0.36h-0.19v0.71h0.19Z"/></svg>