<svg id="Layer_1" data-name="Layer 1" xmlns="http://www.w3.org/2000/svg" viewBox="0 0 200 200"><defs><style>.cls-1,.cls-2,.cls-3{fill:#68bc49;}.cls-1{opacity:0;}.cls-3{fill-rule:evenodd;}</style></defs><title>clientLogo</title><rect class="cls-1" width="200" height="200"/><path class="cls-2" d="M177.38,91.18l-1.24,4,11.36-4.57L181,80.1l-1.28,4s-5.27-.54-8.18.93a24.21,24.21,0,0,0-7,5.74,59.94,59.94,0,0,0-3.85,5.13l-1.54-11.8h-8.29l2.82,18.47-4.94,14.1h9.79s2.15-6.19,2.34-6.79a44.43,44.43,0,0,1,5.14-9.75c3.54-4.61,7.85-9.1,11.42-9h0Z"/><path class="cls-2" d="M64.42,84.39l-6.86,20.5a13.58,13.58,0,0,1-1.17,2.85,2.84,2.84,0,0,1-2.55,1.55,1.33,1.33,0,0,1-1.5-1.6,11.54,11.54,0,0,1,.74-2.85l6.84-20.45h-8.8L44,105.66c-1.31,3.93-3.09,11.82,7.09,11.82s13.69-7.9,15-11.82l7.12-21.27h-8.8Z"/><path class="cls-2" d="M116.45,116.7l17.44-32.53h-8.59l-9.52,20.19c0.45-2.37,3.52-20.19,3.52-20.19h-7.55s-8.75,17.9-9.82,20.32l3.86-20.32H97.13L93.49,116.7H102l9.45-20.37c-0.45,2.24-3.54,20.37-3.54,20.37h8.5Z"/><path class="cls-3" d="M137.61,84.17h12l-3.86,32.57h-9.3l1.22-5.26h-6.57l-2.82,5.16h-8.17l17.47-32.48h0Zm-3,20.65H139l2-11.92-6.38,11.92h0Z"/><path class="cls-2" d="M19.2,119.9L12.5,109l11.78-4.84L23,108.27a8.17,8.17,0,0,0,4.75,1.07c1.41-.09,3-0.7,3.55-1.89,0.34-.81-0.11-2.52-1.21-3.66a13.91,13.91,0,0,1-2.76-4.45A12.89,12.89,0,0,1,27,93.19c0.64-2.72,4.14-9.78,13.8-9.35A16.2,16.2,0,0,1,47.48,86L43.9,92.79c-4.08-2.41-6.54-1.53-7.47.68s0.63,4.35,2,6c1.8,2.1,3.24,4.3,3.24,6.92,0,6.1-6.55,11-14.63,11a18.37,18.37,0,0,1-6.68-1.22L19.2,119.9h0Z"/><path class="cls-3" d="M80.43,97l2-5.66h1.48c1.24,0,3.52.2,2.41,3C85.4,96.5,83,97,81.64,97H80.43Zm-1.62,6.85c3.05-.14,4.9,1,4.43,3.13s-2.16,2.8-4,2.8H76.8l2-5.93h0Zm-13.51,13H77.9c4.46,0,11.63-1.49,13.86-8.18a7.57,7.57,0,0,0-3.4-8.78c2.53-.9,5-4,5.72-6.51,2-7.08-2.21-9.07-7.14-9.07H76.16L65.3,116.8h0Z"/><path class="cls-2" d="M162.18,115.42a1.31,1.31,0,1,1,1.32,1.35A1.31,1.31,0,0,1,162.18,115.42ZM163.5,117a1.62,1.62,0,1,0-1.64-1.62A1.62,1.62,0,0,0,163.5,117Zm-0.34-1.49h0.32l0.49,0.81h0.32l-0.53-.82a0.49,0.49,0,0,0,.48-0.51,0.53,0.53,0,0,0-.66-0.53h-0.71v1.87h0.28v-0.81Zm0-.24v-0.58h0.39c0.2,0,.41,0,0.41.27s-0.21.3-.45,0.3h-0.34Z"/></svg>