<svg id="Layer_1" data-name="Layer 1" xmlns="http://www.w3.org/2000/svg" viewBox="0 0 200 200"><defs><style>.cls-1{fill:#68bc49;opacity:0;}.cls-2{fill:#e2183d;}.cls-3{fill:#e3173e;}</style></defs><title>clientLogo</title><rect class="cls-1" width="200" height="200"/><g id="Chick-Fil-A_Logo" data-name="Chick-Fil-A Logo"><path class="cls-2" d="M180.56,101.59a2.15,2.15,0,1,0,2.15,2.15A2.16,2.16,0,0,0,180.56,101.59Zm0,3.89a1.73,1.73,0,1,1,1.73-1.73A1.73,1.73,0,0,1,180.56,105.47Z"/><path class="cls-2" d="M180.78,103.6a0.62,0.62,0,0,1-.35.08H180.2V103h0.15a1.08,1.08,0,0,1,.37,0,0.26,0.26,0,0,1,.19.25A0.29,0.29,0,0,1,180.78,103.6Zm-0.59.49h0.27a0.87,0.87,0,0,1,.22,0,0.28,0.28,0,0,1,.18.17,0.79,0.79,0,0,1,0,.27,1.42,1.42,0,0,0,0,.31h0.6l0-.06a0.21,0.21,0,0,1,0-.07s0,0,0-.07v-0.2a0.58,0.58,0,0,0-.21-0.5,0.84,0.84,0,0,0-.34-0.13,0.82,0.82,0,0,0,.42-0.15,0.47,0.47,0,0,0,.17-0.41,0.55,0.55,0,0,0-.32-0.53,1.24,1.24,0,0,0-.48-0.12h-1.17v2.23h0.63v-0.79Z"/><path class="cls-3" d="M40,90.67c0,2.19-2.72,4.87-4,2.81C35.33,91.91,37.08,89,38.7,89A1.37,1.37,0,0,1,40,90.67ZM61.21,69.75c-2-2.7-6.35-2.87-10.75.4s-6.9,8.52-4.89,11.22,7.77,1.83,12.16-1.44S63.22,72.46,61.21,69.75Zm-19-6.84c-2.63-.57-5.33,1.57-6.24,5.77s0.36,8.62,3,9.19S44.59,75,45.5,70.76,44.84,63.49,42.21,62.92ZM27.13,66.86c-2,.91-2.68,3.61-1.23,6.79s4.43,5.43,6.41,4.53,2.22-4.63.76-7.81S29.11,66,27.13,66.86ZM19.84,75.4c-1,1.19-.7,3.13,1.14,4.71s4.4,2.09,5.42.89,0.11-3.64-1.73-5.21S20.86,74.2,19.84,75.4Zm46.74,31.09a2.23,2.23,0,1,0,2.23,2.23A2.23,2.23,0,0,0,66.59,106.48Zm40.34,11.22c2.72,0,3.78-1.06,3.78-2.15,0-1.4-1.68-2.08-3.77-2.06s-3.66.81-3.66,2.07C103.27,116.6,104.2,117.7,106.92,117.7Zm51.6,0c2.71,0,3.76-1.06,3.76-2.15,0-1.4-1.68-2.07-3.76-2.05s-3.64.81-3.64,2.07C154.88,116.59,155.81,117.69,158.52,117.69ZM134.6,104.36a2.12,2.12,0,1,0,2.12,2.12A2.12,2.12,0,0,0,134.6,104.36Zm19.63,18a7.54,7.54,0,0,1-7,5.62h-0.11a7.59,7.59,0,0,1-6-3c-2.24,1.41-4.4,2.1-6,1.86a5.46,5.46,0,0,1-4.66-4.89,10.22,10.22,0,0,1-6.95,3.58,12.77,12.77,0,0,1,1.32,5.67c0,3-1.72,6-4.83,6-4.34,0-6.95-6.1-7.29-12a1.86,1.86,0,0,1-2.54-.69c-0.69-1.43,1-2.75,2.46-3.56,0.26-11.84,5.44-20.21,11-20.21,1.88,0,4.15,1.15,4.15,4.59,0,3.61-2.14,8.22-5.59,12.34a38.09,38.09,0,0,1-2.77,2.77c4.9,3.46,7.87-.27,9.09-2.56a17.86,17.86,0,0,0,.72-1.75c0.69-2,.5-1.51,1.15-3.47,0.93-2.79,2.45-2.67,3.13-2.56,2.44,0.41,1,3.11.38,5.48l0,0.06c-0.92,4-.49,7.26,2,7.76a5.9,5.9,0,0,0,3.63-1.36c-3.33-8.63,1.76-18.85,7-19.83,1.76-.33,4.07.32,4.65,3.43,0.61,3.26-.61,7.81-3.13,12.14a22.53,22.53,0,0,1-4.17,4.87,0.05,0.05,0,0,1,0,0,4.41,4.41,0,0,0,3.35,1.89,4.07,4.07,0,0,0,3.94-3,1.57,1.57,0,0,1,2-1.07A1.47,1.47,0,0,1,154.23,122.34Zm30.22,8c-3-.15-6-2.32-8.76-5.41a59.73,59.73,0,0,1-13.22,1.29,62,62,0,0,1-7.55,6.77s-2.64,2-3.92.3c-0.75-1.13-.37-2.35,1.69-3.65a34.69,34.69,0,0,0,4.64-3.74c-3-.81-2.23-3.86.66-3.51,0.21,0,1.17.16,2.64,0.27a89.48,89.48,0,0,0,8-9.53,21.92,21.92,0,0,1-1.67-7.41c0-2.69,1.54-5.73,4.67-5.73s4.58,2.52,4.58,5.12c0,2.21-1.35,5.21-3.42,8.45a40.82,40.82,0,0,0,4.44,7.38,26.78,26.78,0,0,0,5.41-2.42c2.32-1.38,4.31,1.28,1.88,3a24.35,24.35,0,0,1-4.78,2.26c1.79,1.72,3.67,2.87,5.48,3C188.32,127.06,188.44,130.66,184.45,130.34ZM55.23,95.06c0-1.53-4.21-4.44-7.18-4.71q0.05,1.24,0,2.56a35.78,35.78,0,0,1-.93,6.27C52.56,95.41,55.23,96.45,55.23,95.06Zm48.36,27.65c-1.79.15-2.19,4-5.77,4.21-2.44.13-3.56-2.76-3.56-2.76s6.91-3,6.86-9.53c-0.11-1.87-1.1-4.86-4.75-4.86a6.7,6.7,0,0,0-4.37,2,47.91,47.91,0,0,0,.84-7.1,1.8,1.8,0,0,0-2-2.16A2.05,2.05,0,0,0,89,104.66c-0.56,6-.65,6.94-1.16,10.78-0.94,7.06-6.14,9.51-9.52,9.32-1.44-.08-3.69-0.82-3.69-4.55,0-4,2.66-7,4.07-6.79,1,0.13,1.5,1.12.62,2.54-0.71,1.18-1.46,2.81.38,3.49,2.18,0.71,3.8-2.32,3.86-5.13a4.84,4.84,0,0,0-4.95-4.91c-3.7-.18-8.12,4.65-8.12,11.14a10.33,10.33,0,0,0,.11,1.53c-0.27,1.47-1.58,3-2.88,3s-2.61-2-2.46-4.57A17.71,17.71,0,0,1,66.67,115c0.73-2.18-.13-2.63-1.17-2.81-0.81-.15-2.09.06-2.77,2.23-0.61,2-1.41,4.67-2.11,6.64a13.89,13.89,0,0,1-1.71,3.6,3,3,0,0,1-2,1.14c-2.28,0-.35-4.42-0.35-7.46,0-.86-0.71-2.43-3-2,2.52-3.6,3.8-6.68,3.72-9.83a4.32,4.32,0,0,0-4.66-4.42c-5.19.1-7.91,5.78-8.89,19.06-4.68,4.4-10.38,7.06-15.81,6.62-7.69-.62-11.65-8.13-11.13-17.13,0.72-12.63,10.72-27.87,20.26-26.94,3.34,0.33,5.65,3.27,5.29,9.65C42,100.78,36.61,111.56,31,111.24c-2.61-.15-3.42-2.81-3.22-5.15,0.43-5.09,3-6.49,3.19-8.55a1.51,1.51,0,0,0-2.06-1.45c-1.57.5-4.7,4.38-5.08,9.9-0.47,6.74,4,8.84,6.63,9,7.81,0.44,15.44-10.46,16.08-21.9,0.41-7.41-2.82-12.19-8.95-12.85-11.91-1.28-24.41,14.3-25.05,30.6-0.38,9.75,4.34,20,15.35,20.74,5.26,0.34,10.76-1.73,15.58-5.44,0,0.83,0,1.57,0,2.12,0,1.37.53,2.54,2,2.5s1.81-1.08,1.78-2.33c0-.72,0-1.42,0-2.1,0.31-5.94,3.29-6.8,4.49-6.59,1.66,0.35.34,1.85,0.5,6.11A3.83,3.83,0,0,0,56,129.7c2.72,0,5.08-2,6.47-4.88l0,0c1.2,3,3.24,4.06,4.87,4.06,1.91,0,3.71-1.39,4.85-2.93a7.77,7.77,0,0,0,5.51,2.85,11.61,11.61,0,0,0,8.56-3.51c-0.25,1.65-.56,3.87-0.56,4.24a1.58,1.58,0,0,0,1.43,1.78c1.6,0.18,2.77-.89,3.27-6.12,0,0,2.26,5.17,7.28,5.17a7.47,7.47,0,0,0,7.21-6.27A1.21,1.21,0,0,0,103.59,122.7Zm13-4.15c4.47-4.19,7.94-10.17,7.92-13.37,0-.62-0.14-1.16-0.76-1.16C122.37,104,117.82,108.44,116.61,118.55Zm3.45,6.63a7.73,7.73,0,0,1-3.59-2.19l-0.16.12a1.23,1.23,0,0,1,0,.21c0,5.44,1.92,10.46,4.1,10.22S121.57,128.5,120.06,125.18Zm22.66-5.64c3.93-4.32,5.94-10.81,5.47-13.47a0.85,0.85,0,0,0-.91-0.92C145.44,105.38,141.17,113.22,142.71,119.55Zm28.4-10.26a11.06,11.06,0,0,0,1.55-4.08c0.08-.62,0-1.7-1-1.7C170.08,103.51,170.09,106,171.12,109.29Zm2.24,12.66a42,42,0,0,1-3-4.92c-1.45,1.94-3.06,3.89-4.72,5.75A44.82,44.82,0,0,0,173.35,121.95ZM51.11,114a49.06,49.06,0,0,1-3.44,4.32c0.07-.65.15-1.27,0.23-1.87,1.12-8.5,2.78-11.36,4.94-11a1.42,1.42,0,0,1,1,1.44C54,108.77,53.18,111,51.11,114Zm44.57-.69a1.79,1.79,0,0,1,1.7,2.1c-0.28,3.12-4.76,5.66-5.89,5.78C92.1,114.77,94.1,113.41,95.68,113.34Z"/></g></svg>