<svg id="Layer_1" data-name="Layer 1" xmlns="http://www.w3.org/2000/svg" viewBox="0 0 142.2 150"><defs><style>.cls-1,.cls-2{fill:#fff;}.cls-2{font-size:27.23px;font-family:Roboto;font-weight:700;}</style></defs><title>established</title><path class="cls-1" d="M94.75,63.72H31.21a4.54,4.54,0,0,1-4.54-4.54V-4.36A4.54,4.54,0,0,1,31.21-8.9H94.75a4.54,4.54,0,0,1,4.54,4.54V59.18A4.54,4.54,0,0,1,94.75,63.72Zm0-65.81a2.27,2.27,0,0,0-2.27-2.27h-59a2.27,2.27,0,0,0-2.27,2.27V4.71H94.75V-2.09ZM31.21,9.25V56.91a2.27,2.27,0,0,0,2.27,2.27h59a2.27,2.27,0,0,0,2.27-2.27V9.25H31.21ZM76.38,21.54s0,0.09,0,.14L60.39,49a2.3,2.3,0,0,1-3.11.82,2.21,2.21,0,0,1-.83-3.05l13.95-23.9H53.9a2.27,2.27,0,1,1,0-4.54H74.33l0.14,0a2.35,2.35,0,0,1,.55.11,2.54,2.54,0,0,1,.26.09,2,2,0,0,1,.22.07,2.19,2.19,0,0,1,.39.33l0.06,0a2.15,2.15,0,0,1,.5,2.33C76.42,21.41,76.41,21.48,76.38,21.54Z" transform="translate(8.12 8.9)"/><text class="cls-2" transform="translate(0 109.94)">Established<tspan x="39.85" y="32.68">2007</tspan></text></svg>