<?xml version="1.0" encoding="utf-8"?>
<!-- Generator: Adobe Illustrator 19.2.1, SVG Export Plug-In . SVG Version: 6.00 Build 0)  -->
<svg version="1.1" id="Layer_1" xmlns="http://www.w3.org/2000/svg" xmlns:xlink="http://www.w3.org/1999/xlink" x="0px" y="0px"
	 viewBox="0 0 142.2 150" style="enable-background:new 0 0 142.2 150;" xml:space="preserve">
<style type="text/css">
	.st0{fill:#FFFFFF;}
	.st1{enable-background:new    ;}
</style>
<title>established</title>
<path class="st0" d="M102.9,72.6H39.3c-2.5,0-4.5-2-4.5-4.5c0,0,0,0,0,0V4.5c0-2.5,2-4.5,4.5-4.5c0,0,0,0,0,0h63.5
	c2.5,0,4.5,2,4.5,4.5c0,0,0,0,0,0v63.5C107.4,70.6,105.4,72.6,102.9,72.6L102.9,72.6z M102.9,6.8c0-1.3-1-2.3-2.3-2.3h-59
	c-1.3,0-2.3,1-2.3,2.3c0,0,0,0,0,0v6.8h63.5C102.9,13.6,102.9,6.8,102.9,6.8z M39.3,18.1v47.7c0,1.3,1,2.3,2.3,2.3l0,0h59
	c1.3,0,2.3-1,2.3-2.3V18.1H39.3z M84.5,30.4c0,0,0,0.1,0,0.1l-16,27.3c-0.6,1.1-2,1.4-3.1,0.8c-1.1-0.6-1.4-1.9-0.9-3c0,0,0,0,0,0
	l13.9-23.9H62c-1.3,0-2.3-1-2.3-2.3c0-1.3,1-2.3,2.3-2.3c0,0,0,0,0,0h20.4h0.1c0.2,0,0.4,0.1,0.6,0.1c0.1,0,0.2,0.1,0.3,0.1
	c0.1,0,0.1,0,0.2,0.1c0.1,0.1,0.3,0.2,0.4,0.3h0.1c0.6,0.6,0.8,1.5,0.5,2.3C84.5,30.3,84.5,30.4,84.5,30.4z"/>
<g class="st1">
	<path class="st0" d="M13.4,101.6H5.7v5.2h9v3.2h-13V90.6h13v3.2h-9v4.6h7.7V101.6z"/>
	<path class="st0" d="M24.6,106c0-0.2,0-0.4-0.1-0.6c-0.1-0.2-0.2-0.3-0.5-0.5s-0.5-0.3-0.9-0.4c-0.4-0.1-0.9-0.3-1.5-0.4
		c-0.7-0.2-1.4-0.4-2-0.6c-0.6-0.2-1.2-0.5-1.6-0.9c-0.5-0.4-0.8-0.8-1.1-1.2c-0.3-0.5-0.4-1-0.4-1.6c0-0.6,0.1-1.2,0.4-1.7
		c0.3-0.5,0.6-1,1.1-1.4c0.5-0.4,1.1-0.7,1.8-1c0.7-0.2,1.5-0.4,2.4-0.4c0.9,0,1.8,0.1,2.5,0.3c0.7,0.2,1.4,0.6,1.9,1
		s0.9,0.9,1.2,1.5c0.3,0.6,0.4,1.2,0.4,1.9h-3.8c0-0.5-0.2-1-0.5-1.4C23.6,98.2,23,98,22.2,98c-0.6,0-1.1,0.1-1.5,0.4
		c-0.4,0.3-0.5,0.7-0.5,1.1c0,0.2,0,0.4,0.1,0.6c0.1,0.2,0.2,0.3,0.5,0.5c0.2,0.1,0.5,0.3,0.8,0.4c0.3,0.1,0.8,0.2,1.3,0.3
		c0.8,0.2,1.5,0.3,2.2,0.6c0.7,0.2,1.2,0.5,1.7,0.9c0.5,0.4,0.9,0.8,1.1,1.3c0.3,0.5,0.4,1.1,0.4,1.8c0,0.6-0.1,1.2-0.4,1.8
		c-0.3,0.5-0.7,1-1.2,1.4c-0.5,0.4-1.2,0.7-1.9,0.9c-0.7,0.2-1.6,0.3-2.5,0.3c-1,0-1.9-0.1-2.7-0.4c-0.8-0.3-1.4-0.7-1.9-1.1
		s-0.9-1-1.2-1.6c-0.3-0.6-0.4-1.2-0.4-1.7h3.6c0,0.4,0.1,0.7,0.2,1c0.1,0.3,0.3,0.5,0.6,0.7c0.2,0.2,0.5,0.3,0.8,0.4
		c0.3,0.1,0.6,0.1,1,0.1c0.7,0,1.3-0.1,1.7-0.4C24.4,106.8,24.6,106.4,24.6,106z"/>
	<path class="st0" d="M35.4,92v3.5h2.5v2.8h-2.5v7.2c0,0.3,0,0.5,0.1,0.7c0.1,0.2,0.2,0.3,0.3,0.5c0.1,0.1,0.3,0.2,0.5,0.2
		s0.4,0.1,0.6,0.1c0.2,0,0.4,0,0.6,0c0.2,0,0.4,0,0.5-0.1v2.9c-0.3,0.1-0.7,0.2-1,0.2c-0.4,0.1-0.8,0.1-1.3,0.1
		c-0.6,0-1.2-0.1-1.7-0.2c-0.5-0.2-0.9-0.4-1.3-0.7c-0.4-0.3-0.6-0.8-0.8-1.3c-0.2-0.5-0.3-1.2-0.3-2v-7.6h-2.1v-2.8h2.1V92H35.4z"
		/>
	<path class="st0" d="M48.3,109.9c-0.2-0.3-0.3-0.8-0.4-1.3c-0.4,0.4-0.9,0.8-1.5,1.1c-0.6,0.3-1.3,0.5-2.2,0.5
		c-0.7,0-1.3-0.1-1.9-0.3c-0.6-0.2-1.1-0.5-1.6-0.9c-0.4-0.4-0.8-0.8-1-1.4s-0.4-1.1-0.4-1.7c0-0.8,0.1-1.4,0.4-2
		c0.3-0.6,0.7-1.1,1.3-1.5c0.6-0.4,1.3-0.7,2.1-0.9c0.8-0.2,1.8-0.3,2.9-0.3h1.7v-0.8c0-0.7-0.2-1.2-0.5-1.6
		c-0.3-0.4-0.9-0.6-1.6-0.6c-0.6,0-1.2,0.2-1.5,0.5c-0.4,0.3-0.6,0.7-0.6,1.3h-3.8c0-0.6,0.1-1.2,0.4-1.8c0.3-0.6,0.7-1,1.2-1.5
		s1.2-0.7,1.9-1c0.8-0.2,1.6-0.4,2.5-0.4c0.8,0,1.6,0.1,2.3,0.3c0.7,0.2,1.3,0.5,1.8,1c0.5,0.4,0.9,0.9,1.2,1.6s0.4,1.4,0.4,2.2v6.1
		c0,0.4,0,0.8,0,1.1c0,0.3,0.1,0.6,0.1,0.9c0,0.3,0.1,0.5,0.2,0.7c0.1,0.2,0.2,0.4,0.3,0.6v0.2H48.3z M45.2,107.3
		c0.3,0,0.6,0,0.9-0.1s0.5-0.2,0.8-0.3c0.2-0.1,0.4-0.3,0.6-0.4c0.2-0.2,0.3-0.3,0.4-0.5v-2.5h-1.6c-0.5,0-0.9,0.1-1.3,0.2
		c-0.4,0.1-0.7,0.3-0.9,0.5s-0.4,0.4-0.5,0.7s-0.2,0.6-0.2,0.9c0,0.5,0.2,0.9,0.5,1.2S44.6,107.3,45.2,107.3z"/>
	<path class="st0" d="M67.6,102.9c0,1.1-0.1,2.1-0.3,3c-0.2,0.9-0.6,1.7-1,2.3c-0.5,0.6-1,1.1-1.7,1.5c-0.7,0.4-1.5,0.5-2.5,0.5
		c-0.8,0-1.6-0.2-2.2-0.5c-0.6-0.3-1.1-0.8-1.6-1.3l-0.2,1.5h-3.5V89.5h3.8v7.3c0.4-0.5,0.9-0.9,1.5-1.1s1.2-0.4,2-0.4
		c0.9,0,1.8,0.2,2.5,0.5c0.7,0.4,1.3,0.9,1.8,1.5c0.5,0.6,0.8,1.4,1.1,2.3c0.2,0.9,0.3,1.9,0.3,2.9V102.9z M63.7,102.6
		c0-0.6,0-1.1-0.1-1.6c-0.1-0.5-0.2-1-0.4-1.3c-0.2-0.4-0.5-0.7-0.8-0.9s-0.8-0.3-1.4-0.3c-0.6,0-1.2,0.1-1.6,0.4
		c-0.4,0.3-0.7,0.6-0.9,1.1v5.7c0.2,0.5,0.5,0.9,0.9,1.1c0.4,0.3,0.9,0.4,1.6,0.4c0.5,0,1-0.1,1.3-0.3c0.4-0.2,0.6-0.5,0.8-0.9
		c0.2-0.4,0.4-0.8,0.4-1.3c0.1-0.5,0.1-1.1,0.1-1.7V102.6z"/>
	<path class="st0" d="M74,109.9h-3.9V89.5H74V109.9z"/>
	<path class="st0" d="M77.1,91.8c0-0.6,0.2-1,0.6-1.4c0.4-0.4,0.9-0.6,1.6-0.6c0.3,0,0.6,0,0.9,0.1c0.3,0.1,0.5,0.2,0.7,0.4
		c0.2,0.2,0.3,0.4,0.4,0.6c0.1,0.2,0.2,0.5,0.2,0.8c0,0.3-0.1,0.6-0.2,0.8c-0.1,0.2-0.2,0.5-0.4,0.6c-0.2,0.2-0.4,0.3-0.7,0.4
		c-0.3,0.1-0.6,0.1-0.9,0.1c-0.3,0-0.6,0-0.9-0.1c-0.3-0.1-0.5-0.2-0.7-0.4c-0.2-0.2-0.3-0.4-0.4-0.6C77.2,92.4,77.1,92.1,77.1,91.8
		z M81.2,109.9h-3.9V95.6h3.9V109.9z"/>
	<path class="st0" d="M92.2,106c0-0.2,0-0.4-0.1-0.6c-0.1-0.2-0.2-0.3-0.5-0.5s-0.5-0.3-0.9-0.4s-0.9-0.3-1.5-0.4
		c-0.7-0.2-1.4-0.4-2-0.6c-0.6-0.2-1.2-0.5-1.6-0.9c-0.5-0.4-0.8-0.8-1.1-1.2c-0.3-0.5-0.4-1-0.4-1.6c0-0.6,0.1-1.2,0.4-1.7
		c0.3-0.5,0.6-1,1.1-1.4s1.1-0.7,1.8-1c0.7-0.2,1.5-0.4,2.4-0.4c0.9,0,1.8,0.1,2.5,0.3s1.4,0.6,1.9,1c0.5,0.4,0.9,0.9,1.2,1.5
		s0.4,1.2,0.4,1.9H92c0-0.5-0.2-1-0.5-1.4c-0.4-0.4-0.9-0.5-1.7-0.5c-0.6,0-1.1,0.1-1.5,0.4c-0.4,0.3-0.5,0.7-0.5,1.1
		c0,0.2,0,0.4,0.1,0.6c0.1,0.2,0.2,0.3,0.5,0.5c0.2,0.1,0.5,0.3,0.8,0.4c0.3,0.1,0.8,0.2,1.3,0.3c0.8,0.2,1.5,0.3,2.2,0.6
		c0.7,0.2,1.2,0.5,1.7,0.9c0.5,0.4,0.9,0.8,1.1,1.3c0.3,0.5,0.4,1.1,0.4,1.8c0,0.6-0.1,1.2-0.4,1.8c-0.3,0.5-0.7,1-1.2,1.4
		c-0.5,0.4-1.2,0.7-1.9,0.9s-1.6,0.3-2.5,0.3c-1,0-1.9-0.1-2.7-0.4c-0.8-0.3-1.4-0.7-1.9-1.1s-0.9-1-1.2-1.6
		c-0.3-0.6-0.4-1.2-0.4-1.7h3.6c0,0.4,0.1,0.7,0.2,1c0.1,0.3,0.3,0.5,0.6,0.7c0.2,0.2,0.5,0.3,0.8,0.4c0.3,0.1,0.6,0.1,1,0.1
		c0.7,0,1.3-0.1,1.7-0.4C92,106.8,92.2,106.4,92.2,106z"/>
	<path class="st0" d="M102.1,97.1c0.5-0.6,1-1,1.7-1.3c0.6-0.3,1.4-0.5,2.2-0.5c0.7,0,1.4,0.1,1.9,0.3c0.6,0.2,1.1,0.5,1.5,1
		c0.4,0.4,0.7,1,1,1.7c0.2,0.7,0.3,1.6,0.3,2.6v9.1h-3.8v-9.1c0-0.5-0.1-0.8-0.2-1.2c-0.1-0.3-0.3-0.6-0.4-0.8
		c-0.2-0.2-0.4-0.3-0.7-0.4c-0.3-0.1-0.6-0.1-1-0.1c-0.6,0-1.1,0.1-1.5,0.4c-0.4,0.2-0.7,0.6-0.9,1v10.2h-3.8V89.5h3.8V97.1z"/>
	<path class="st0" d="M120.2,110.2c-1.1,0-2.1-0.2-3-0.5s-1.6-0.9-2.2-1.5c-0.6-0.6-1.1-1.4-1.4-2.2c-0.3-0.8-0.5-1.8-0.5-2.7v-0.5
		c0-1.1,0.2-2.1,0.5-3c0.3-0.9,0.8-1.7,1.3-2.3c0.6-0.7,1.3-1.2,2.1-1.5c0.8-0.4,1.8-0.6,2.8-0.6c1,0,2,0.2,2.7,0.5
		c0.8,0.3,1.5,0.8,2,1.4s0.9,1.4,1.2,2.2c0.3,0.9,0.4,1.8,0.4,2.9v1.6H117c0.1,0.5,0.2,0.9,0.4,1.3c0.2,0.4,0.4,0.7,0.7,1
		s0.6,0.5,1,0.6c0.4,0.2,0.8,0.2,1.3,0.2c0.7,0,1.3-0.1,1.9-0.4c0.6-0.3,1.1-0.7,1.5-1.2l1.9,2.1c-0.2,0.3-0.5,0.6-0.9,1
		c-0.3,0.3-0.8,0.6-1.2,0.8c-0.5,0.2-1,0.4-1.6,0.6C121.6,110.1,120.9,110.2,120.2,110.2z M119.8,98.4c-0.4,0-0.8,0.1-1.1,0.2
		s-0.6,0.3-0.8,0.6c-0.2,0.3-0.4,0.6-0.6,0.9c-0.1,0.4-0.2,0.8-0.3,1.2h5.3v-0.3c0-0.4-0.1-0.7-0.2-1.1c-0.1-0.3-0.3-0.6-0.5-0.9
		c-0.2-0.2-0.5-0.4-0.8-0.6C120.6,98.5,120.2,98.4,119.8,98.4z"/>
	<path class="st0" d="M127.7,102.6c0-1.1,0.1-2.1,0.4-3c0.3-0.9,0.6-1.7,1.1-2.3c0.5-0.6,1.1-1.1,1.8-1.5s1.5-0.5,2.4-0.5
		c0.7,0,1.4,0.1,2,0.4c0.6,0.3,1.1,0.7,1.5,1.2v-7.3h3.9v20.4h-3.5l-0.2-1.5c-0.5,0.6-1,1-1.6,1.3s-1.3,0.5-2.1,0.5
		c-0.9,0-1.7-0.2-2.4-0.6c-0.7-0.4-1.3-0.9-1.8-1.5c-0.5-0.6-0.8-1.4-1.1-2.3c-0.3-0.9-0.4-1.9-0.4-2.9V102.6z M131.6,102.9
		c0,0.6,0,1.1,0.1,1.6s0.3,0.9,0.5,1.3c0.2,0.4,0.5,0.7,0.9,0.9c0.3,0.2,0.8,0.3,1.3,0.3c0.6,0,1.1-0.1,1.5-0.4s0.7-0.6,1-1.1v-5.7
		c-0.2-0.5-0.6-0.8-1-1.1c-0.4-0.3-0.9-0.4-1.5-0.4c-0.5,0-0.9,0.1-1.3,0.3c-0.4,0.2-0.6,0.5-0.9,0.9c-0.2,0.4-0.4,0.8-0.5,1.3
		c-0.1,0.5-0.2,1.1-0.2,1.7V102.9z"/>
</g>
<g class="st1">
	<path class="st0" d="M54.4,142.6H41.2V140l6.3-6.7c0.5-0.5,0.9-1,1.2-1.4c0.3-0.4,0.6-0.8,0.8-1.2c0.2-0.4,0.3-0.7,0.4-1
		c0.1-0.3,0.1-0.6,0.1-0.9c0-0.9-0.2-1.5-0.7-2c-0.4-0.5-1.1-0.7-1.9-0.7c-0.5,0-0.9,0.1-1.2,0.2c-0.4,0.2-0.6,0.4-0.9,0.7
		s-0.4,0.6-0.5,1s-0.2,0.8-0.2,1.3h-3.9c0-0.9,0.2-1.7,0.5-2.5c0.3-0.8,0.8-1.4,1.3-2c0.6-0.6,1.3-1,2.1-1.4
		c0.8-0.3,1.8-0.5,2.8-0.5c1,0,1.9,0.1,2.7,0.4c0.8,0.3,1.4,0.6,2,1.1c0.5,0.5,0.9,1,1.2,1.7s0.4,1.4,0.4,2.3c0,0.6-0.1,1.3-0.3,1.9
		s-0.5,1.2-0.9,1.8c-0.4,0.6-0.8,1.2-1.3,1.8s-1.1,1.3-1.8,1.9l-3.4,3.6h8.3V142.6z"/>
	<path class="st0" d="M69.8,134.6c0,1.5-0.2,2.7-0.5,3.7c-0.3,1-0.8,1.9-1.3,2.6c-0.6,0.7-1.3,1.2-2.1,1.5s-1.7,0.5-2.7,0.5
		s-1.9-0.2-2.7-0.5c-0.8-0.3-1.5-0.8-2.1-1.5s-1-1.5-1.3-2.6c-0.3-1-0.5-2.3-0.5-3.7v-3.4c0-1.5,0.2-2.7,0.5-3.7
		c0.3-1,0.8-1.9,1.3-2.6s1.3-1.2,2.1-1.5s1.7-0.5,2.7-0.5s1.9,0.2,2.7,0.5s1.5,0.8,2.1,1.5c0.6,0.7,1,1.5,1.3,2.6
		c0.3,1,0.5,2.3,0.5,3.7V134.6z M66,130.7c0-0.9-0.1-1.6-0.2-2.2s-0.3-1.1-0.5-1.4c-0.2-0.4-0.5-0.6-0.9-0.8
		c-0.3-0.2-0.7-0.2-1.1-0.2c-0.4,0-0.8,0.1-1.1,0.2c-0.3,0.2-0.6,0.4-0.8,0.8c-0.2,0.4-0.4,0.8-0.5,1.4s-0.2,1.3-0.2,2.2v4.4
		c0,0.9,0.1,1.6,0.2,2.2c0.1,0.6,0.3,1.1,0.5,1.4c0.2,0.4,0.5,0.6,0.9,0.8s0.7,0.2,1.1,0.2c0.4,0,0.8-0.1,1.1-0.2s0.6-0.4,0.8-0.8
		s0.4-0.8,0.5-1.4s0.2-1.3,0.2-2.2V130.7z"/>
	<path class="st0" d="M85.4,134.6c0,1.5-0.2,2.7-0.5,3.7c-0.3,1-0.8,1.9-1.3,2.6s-1.3,1.2-2.1,1.5c-0.8,0.3-1.7,0.5-2.7,0.5
		c-1,0-1.9-0.2-2.7-0.5c-0.8-0.3-1.5-0.8-2.1-1.5s-1-1.5-1.3-2.6c-0.3-1-0.5-2.3-0.5-3.7v-3.4c0-1.5,0.2-2.7,0.5-3.7
		c0.3-1,0.8-1.9,1.3-2.6s1.3-1.2,2.1-1.5s1.7-0.5,2.7-0.5c1,0,1.9,0.2,2.7,0.5c0.8,0.3,1.5,0.8,2.1,1.5c0.6,0.7,1,1.5,1.3,2.6
		c0.3,1,0.5,2.3,0.5,3.7V134.6z M81.6,130.7c0-0.9-0.1-1.6-0.2-2.2c-0.1-0.6-0.3-1.1-0.5-1.4c-0.2-0.4-0.5-0.6-0.9-0.8
		c-0.3-0.2-0.7-0.2-1.1-0.2c-0.4,0-0.8,0.1-1.1,0.2c-0.3,0.2-0.6,0.4-0.8,0.8c-0.2,0.4-0.4,0.8-0.5,1.4c-0.1,0.6-0.2,1.3-0.2,2.2
		v4.4c0,0.9,0.1,1.6,0.2,2.2s0.3,1.1,0.5,1.4c0.2,0.4,0.5,0.6,0.9,0.8s0.7,0.2,1.1,0.2s0.8-0.1,1.1-0.2s0.6-0.4,0.8-0.8
		c0.2-0.4,0.4-0.8,0.5-1.4c0.1-0.6,0.2-1.3,0.2-2.2V130.7z"/>
	<path class="st0" d="M101.2,125.4l-7.5,17.2h-4.1l7.5-16.2h-9.6v-3.1h13.7V125.4z"/>
</g>
</svg>
