<?xml version="1.0" encoding="utf-8"?>
<!-- Generator: Adobe Illustrator 19.2.1, SVG Export Plug-In . SVG Version: 6.00 Build 0)  -->
<svg version="1.1" id="Layer_1" xmlns="http://www.w3.org/2000/svg" xmlns:xlink="http://www.w3.org/1999/xlink" x="0px" y="0px"
	 viewBox="0 0 149.2 150" style="enable-background:new 0 0 149.2 150;" xml:space="preserve">
<style type="text/css">
	.st0{fill:#FFFFFF;}
	.st1{enable-background:new    ;}
</style>
<title>locations</title>
<path class="st0" d="M65.5,22.8c0-5,4.1-9.1,9.1-9.1c5,0,9.1,4.1,9.1,9.1s-4.1,9.1-9.1,9.1l0,0C69.6,31.9,65.5,27.8,65.5,22.8z"/>
<path class="st0" d="M74.6,0C59.5,0,47.3,12.2,47.3,27.3c0,12.8,19.6,36.6,25.6,43.6c0.8,1,2.2,1.1,3.2,0.2c0.1-0.1,0.2-0.2,0.2-0.2
	c6-7,25.6-30.8,25.6-43.6C102,12.2,89.7,0,74.6,0C74.6,0,74.6,0,74.6,0z M74.6,66c-10-11.8-22.8-29.9-22.8-38.6
	C51.8,14.8,62,4.6,74.6,4.6s22.8,10.2,22.8,22.8C97.4,36,84.6,54.1,74.6,66L74.6,66z"/>
<g class="st1">
	<path class="st0" d="M17.7,100.5c0,1.5-0.2,2.8-0.6,4c-0.4,1.2-1,2.2-1.7,3c-0.7,0.8-1.6,1.4-2.6,1.9s-2.1,0.7-3.4,0.7
		c-1.2,0-2.3-0.2-3.4-0.7c-1-0.4-1.9-1.1-2.6-1.9c-0.7-0.8-1.3-1.8-1.7-3c-0.4-1.2-0.6-2.5-0.6-4v-0.9c0-1.5,0.2-2.8,0.6-4
		s1-2.2,1.7-3c0.7-0.8,1.6-1.5,2.6-1.9s2.1-0.7,3.4-0.7s2.3,0.2,3.4,0.7c1,0.4,1.9,1.1,2.6,1.9c0.7,0.8,1.3,1.8,1.7,3
		c0.4,1.2,0.6,2.5,0.6,4V100.5z M13.6,99.6c0-2-0.4-3.6-1.1-4.6c-0.7-1.1-1.8-1.6-3.1-1.6c-1.4,0-2.4,0.5-3.1,1.6
		c-0.7,1.1-1.1,2.6-1.1,4.6v0.9c0,1,0.1,1.9,0.3,2.7s0.5,1.4,0.8,2c0.4,0.5,0.8,0.9,1.3,1.2c0.5,0.3,1.1,0.4,1.8,0.4
		c1.4,0,2.4-0.5,3.1-1.6c0.7-1.1,1.1-2.6,1.1-4.7V99.6z"/>
</g>
<g class="st1">
	<path class="st0" d="M25.8,105.1l2.7-9.7h4l-4.9,14.4h-3.7l-4.9-14.4h4L25.8,105.1z"/>
</g>
<g class="st1">
	<path class="st0" d="M40.6,110c-1.1,0-2.1-0.2-3-0.5c-0.9-0.4-1.6-0.9-2.3-1.5s-1.1-1.4-1.4-2.2c-0.3-0.8-0.5-1.8-0.5-2.7v-0.5
		c0-1.1,0.2-2.1,0.5-3s0.8-1.7,1.3-2.4s1.3-1.2,2.1-1.5c0.8-0.4,1.8-0.6,2.8-0.6c1,0,2,0.2,2.8,0.5s1.5,0.8,2,1.4
		c0.5,0.6,0.9,1.4,1.2,2.2s0.4,1.8,0.4,2.9v1.6h-9.2c0.1,0.5,0.2,0.9,0.4,1.3s0.4,0.7,0.7,1c0.3,0.3,0.6,0.5,1,0.6s0.9,0.2,1.3,0.2
		c0.7,0,1.4-0.1,1.9-0.4s1.1-0.7,1.5-1.2l1.9,2.1c-0.2,0.3-0.5,0.6-0.9,1c-0.3,0.3-0.8,0.6-1.2,0.8c-0.5,0.2-1,0.4-1.6,0.6
		C42,110,41.4,110,40.6,110z M40.2,98.2c-0.4,0-0.8,0.1-1.1,0.2s-0.6,0.4-0.8,0.6c-0.2,0.3-0.4,0.6-0.6,0.9
		c-0.1,0.4-0.2,0.8-0.3,1.2h5.4v-0.3c0-0.4-0.1-0.7-0.2-1.1c-0.1-0.3-0.3-0.6-0.5-0.9s-0.5-0.4-0.8-0.6C41,98.3,40.7,98.2,40.2,98.2
		z"/>
	<path class="st0" d="M56.9,99c-0.2,0-0.4-0.1-0.7-0.1c-0.3,0-0.5,0-0.7,0c-0.8,0-1.4,0.1-1.8,0.4s-0.8,0.6-1,1.1v9.5h-3.9V95.3h3.6
		l0.1,1.7c0.4-0.6,0.8-1.1,1.3-1.5c0.5-0.4,1.2-0.5,1.9-0.5c0.2,0,0.4,0,0.6,0.1c0.2,0,0.4,0.1,0.6,0.1L56.9,99z"/>
	<path class="st0" d="M76.8,102.5H79v3.1h-2.2v4.2H73v-4.2h-8l-0.2-2.4l8.1-12.8h3.9V102.5z M68.7,102.5H73v-6.9L72.7,96L68.7,102.5
		z"/>
	<path class="st0" d="M94.2,101.7c0,1.5-0.2,2.7-0.5,3.8c-0.3,1-0.8,1.9-1.3,2.6s-1.3,1.2-2.1,1.5s-1.7,0.5-2.7,0.5
		c-1,0-1.9-0.2-2.7-0.5s-1.5-0.8-2.1-1.5c-0.6-0.7-1-1.5-1.3-2.6s-0.5-2.3-0.5-3.8v-3.4c0-1.5,0.2-2.7,0.5-3.8
		c0.3-1,0.8-1.9,1.3-2.6s1.3-1.2,2.1-1.5c0.8-0.3,1.7-0.5,2.7-0.5c1,0,1.9,0.2,2.7,0.5c0.8,0.3,1.5,0.8,2.1,1.5
		c0.6,0.7,1,1.5,1.3,2.6s0.5,2.3,0.5,3.8V101.7z M90.3,97.8c0-0.9-0.1-1.6-0.2-2.2c-0.1-0.6-0.3-1.1-0.5-1.4
		c-0.2-0.4-0.5-0.6-0.9-0.8c-0.3-0.2-0.7-0.2-1.1-0.2c-0.4,0-0.8,0.1-1.1,0.2s-0.6,0.4-0.8,0.8s-0.4,0.8-0.5,1.4
		c-0.1,0.6-0.2,1.3-0.2,2.2v4.4c0,0.9,0.1,1.6,0.2,2.2c0.1,0.6,0.3,1.1,0.5,1.4s0.5,0.6,0.9,0.8c0.3,0.2,0.7,0.2,1.1,0.2
		c0.4,0,0.8-0.1,1.1-0.2c0.3-0.2,0.6-0.4,0.8-0.8c0.2-0.4,0.4-0.9,0.5-1.4c0.1-0.6,0.2-1.3,0.2-2.2V97.8z"/>
	<path class="st0" d="M100.6,109.1c0,0.5-0.1,1-0.2,1.5c-0.1,0.5-0.3,1-0.5,1.5c-0.2,0.5-0.5,0.9-0.8,1.4c-0.3,0.4-0.7,0.8-1.1,1.1
		l-2-1.1c0.2-0.3,0.3-0.6,0.5-0.9c0.2-0.3,0.3-0.6,0.4-1c0.1-0.3,0.2-0.7,0.3-1.1c0.1-0.4,0.1-0.8,0.1-1.3v-2.8h3.3L100.6,109.1z"/>
	<path class="st0" d="M116.5,101.7c0,1.5-0.2,2.7-0.5,3.8c-0.3,1-0.8,1.9-1.3,2.6c-0.6,0.7-1.3,1.2-2.1,1.5
		c-0.8,0.3-1.7,0.5-2.7,0.5c-1,0-1.9-0.2-2.7-0.5s-1.5-0.8-2.1-1.5s-1-1.5-1.3-2.6c-0.3-1-0.5-2.3-0.5-3.8v-3.4
		c0-1.5,0.2-2.7,0.5-3.8c0.3-1,0.8-1.9,1.3-2.6c0.6-0.7,1.3-1.2,2.1-1.5c0.8-0.3,1.7-0.5,2.7-0.5c1,0,1.9,0.2,2.7,0.5
		c0.8,0.3,1.5,0.8,2.1,1.5c0.6,0.7,1,1.5,1.3,2.6c0.3,1,0.5,2.3,0.5,3.8V101.7z M112.7,97.8c0-0.9-0.1-1.6-0.2-2.2
		c-0.1-0.6-0.3-1.1-0.5-1.4c-0.2-0.4-0.5-0.6-0.9-0.8s-0.7-0.2-1.1-0.2c-0.4,0-0.8,0.1-1.1,0.2c-0.3,0.2-0.6,0.4-0.8,0.8
		c-0.2,0.4-0.4,0.8-0.5,1.4c-0.1,0.6-0.2,1.3-0.2,2.2v4.4c0,0.9,0.1,1.6,0.2,2.2c0.1,0.6,0.3,1.1,0.5,1.4s0.5,0.6,0.9,0.8
		s0.7,0.2,1.1,0.2c0.4,0,0.8-0.1,1.1-0.2c0.3-0.2,0.6-0.4,0.8-0.8c0.2-0.4,0.4-0.9,0.5-1.4c0.1-0.6,0.2-1.3,0.2-2.2V97.8z"/>
	<path class="st0" d="M132.2,101.7c0,1.5-0.2,2.7-0.5,3.8c-0.3,1-0.8,1.9-1.3,2.6c-0.6,0.7-1.3,1.2-2.1,1.5
		c-0.8,0.3-1.7,0.5-2.7,0.5c-1,0-1.9-0.2-2.7-0.5s-1.5-0.8-2.1-1.5s-1-1.5-1.3-2.6c-0.3-1-0.5-2.3-0.5-3.8v-3.4
		c0-1.5,0.2-2.7,0.5-3.8c0.3-1,0.8-1.9,1.3-2.6c0.6-0.7,1.3-1.2,2.1-1.5c0.8-0.3,1.7-0.5,2.7-0.5c1,0,1.9,0.2,2.7,0.5
		c0.8,0.3,1.5,0.8,2.1,1.5c0.6,0.7,1,1.5,1.3,2.6c0.3,1,0.5,2.3,0.5,3.8V101.7z M128.4,97.8c0-0.9-0.1-1.6-0.2-2.2
		c-0.1-0.6-0.3-1.1-0.5-1.4c-0.2-0.4-0.5-0.6-0.9-0.8s-0.7-0.2-1.1-0.2c-0.4,0-0.8,0.1-1.1,0.2c-0.3,0.2-0.6,0.4-0.8,0.8
		c-0.2,0.4-0.4,0.8-0.5,1.4c-0.1,0.6-0.2,1.3-0.2,2.2v4.4c0,0.9,0.1,1.6,0.2,2.2c0.1,0.6,0.3,1.1,0.5,1.4s0.5,0.6,0.9,0.8
		s0.7,0.2,1.1,0.2c0.4,0,0.8-0.1,1.1-0.2c0.3-0.2,0.6-0.4,0.8-0.8c0.2-0.4,0.4-0.9,0.5-1.4c0.1-0.6,0.2-1.3,0.2-2.2V97.8z"/>
	<path class="st0" d="M147.9,101.7c0,1.5-0.2,2.7-0.5,3.8c-0.3,1-0.8,1.9-1.3,2.6c-0.6,0.7-1.3,1.2-2.1,1.5
		c-0.8,0.3-1.7,0.5-2.7,0.5c-1,0-1.9-0.2-2.7-0.5s-1.5-0.8-2.1-1.5c-0.6-0.7-1-1.5-1.3-2.6s-0.5-2.3-0.5-3.8v-3.4
		c0-1.5,0.2-2.7,0.5-3.8c0.3-1,0.8-1.9,1.3-2.6c0.6-0.7,1.3-1.2,2.1-1.5c0.8-0.3,1.7-0.5,2.7-0.5c1,0,1.9,0.2,2.7,0.5
		c0.8,0.3,1.5,0.8,2.1,1.5s1,1.5,1.3,2.6s0.5,2.3,0.5,3.8V101.7z M144,97.8c0-0.9-0.1-1.6-0.2-2.2c-0.1-0.6-0.3-1.1-0.5-1.4
		c-0.2-0.4-0.5-0.6-0.9-0.8s-0.7-0.2-1.1-0.2c-0.4,0-0.8,0.1-1.1,0.2s-0.6,0.4-0.8,0.8s-0.4,0.8-0.5,1.4c-0.1,0.6-0.2,1.3-0.2,2.2
		v4.4c0,0.9,0.1,1.6,0.2,2.2c0.1,0.6,0.3,1.1,0.5,1.4s0.5,0.6,0.9,0.8c0.3,0.2,0.7,0.2,1.1,0.2s0.8-0.1,1.1-0.2
		c0.3-0.2,0.6-0.4,0.8-0.8c0.2-0.4,0.4-0.9,0.5-1.4c0.1-0.6,0.2-1.3,0.2-2.2V97.8z"/>
</g>
<g class="st1">
	<path class="st0" d="M20.1,139.4h8.5v3.2H16.1v-19.4h4V139.4z"/>
	<path class="st0" d="M30,135.2c0-1,0.2-2,0.5-2.9c0.3-0.9,0.7-1.7,1.3-2.3c0.6-0.7,1.3-1.2,2.1-1.5c0.8-0.4,1.8-0.6,2.9-0.6
		c1.1,0,2.1,0.2,2.9,0.6c0.9,0.4,1.6,0.9,2.2,1.5s1,1.4,1.3,2.3c0.3,0.9,0.5,1.9,0.5,2.9v0.3c0,1.1-0.2,2-0.5,2.9
		c-0.3,0.9-0.7,1.7-1.3,2.3s-1.3,1.2-2.1,1.5c-0.8,0.4-1.8,0.6-2.9,0.6s-2.1-0.2-2.9-0.6c-0.9-0.4-1.6-0.9-2.1-1.5s-1-1.4-1.3-2.3
		c-0.3-0.9-0.5-1.9-0.5-2.9V135.2z M33.9,135.5c0,0.6,0.1,1.1,0.2,1.7c0.1,0.5,0.3,1,0.5,1.3s0.5,0.7,0.9,0.9
		c0.4,0.2,0.8,0.3,1.4,0.3c0.5,0,1-0.1,1.4-0.3c0.4-0.2,0.7-0.5,0.9-0.9s0.4-0.8,0.5-1.3c0.1-0.5,0.2-1.1,0.2-1.7v-0.3
		c0-0.6-0.1-1.1-0.2-1.6c-0.1-0.5-0.3-1-0.5-1.3c-0.2-0.4-0.6-0.7-0.9-0.9c-0.4-0.2-0.8-0.3-1.4-0.3c-0.5,0-1,0.1-1.4,0.3
		c-0.4,0.2-0.7,0.5-0.9,0.9c-0.2,0.4-0.4,0.8-0.5,1.3c-0.1,0.5-0.2,1.1-0.2,1.6V135.5z"/>
	<path class="st0" d="M52.1,139.7c0.4,0,0.7-0.1,1-0.2c0.3-0.1,0.5-0.2,0.8-0.4c0.2-0.2,0.4-0.4,0.5-0.7c0.1-0.3,0.2-0.6,0.2-0.9
		h3.6c0,0.8-0.2,1.5-0.5,2.1c-0.3,0.6-0.7,1.2-1.3,1.7c-0.5,0.5-1.2,0.8-1.9,1.1c-0.7,0.3-1.5,0.4-2.3,0.4c-1.1,0-2.1-0.2-2.9-0.6
		c-0.8-0.4-1.5-0.9-2.1-1.5c-0.6-0.7-1-1.4-1.2-2.3s-0.4-1.8-0.4-2.9v-0.4c0-1,0.1-2,0.4-2.9s0.7-1.7,1.2-2.3
		c0.6-0.7,1.2-1.2,2.1-1.6c0.8-0.4,1.8-0.6,2.9-0.6c0.9,0,1.7,0.1,2.4,0.4c0.7,0.3,1.4,0.6,1.9,1.1c0.5,0.5,0.9,1.1,1.2,1.8
		c0.3,0.7,0.4,1.5,0.5,2.3h-3.6c0-0.3-0.1-0.7-0.2-1c-0.1-0.3-0.3-0.6-0.5-0.8c-0.2-0.2-0.5-0.4-0.8-0.5c-0.3-0.1-0.6-0.2-1-0.2
		c-0.6,0-1,0.1-1.4,0.3s-0.6,0.5-0.8,0.9c-0.2,0.4-0.3,0.8-0.4,1.3c-0.1,0.5-0.1,1-0.1,1.6v0.4c0,0.6,0,1.1,0.1,1.6
		c0.1,0.5,0.2,1,0.4,1.3c0.2,0.4,0.5,0.7,0.8,0.9C51,139.6,51.5,139.7,52.1,139.7z"/>
	<path class="st0" d="M68.7,142.6c-0.2-0.3-0.3-0.8-0.4-1.3c-0.4,0.4-0.9,0.8-1.5,1.1c-0.6,0.3-1.3,0.5-2.2,0.5
		c-0.7,0-1.3-0.1-1.9-0.3c-0.6-0.2-1.1-0.5-1.6-0.9c-0.4-0.4-0.8-0.8-1-1.4c-0.2-0.5-0.4-1.1-0.4-1.7c0-0.8,0.1-1.4,0.4-2
		c0.3-0.6,0.7-1.1,1.3-1.5s1.3-0.7,2.1-0.9c0.8-0.2,1.8-0.3,2.9-0.3h1.7v-0.8c0-0.7-0.2-1.2-0.5-1.6c-0.3-0.4-0.9-0.6-1.6-0.6
		c-0.6,0-1.2,0.2-1.5,0.5c-0.4,0.3-0.6,0.7-0.6,1.3h-3.9c0-0.6,0.1-1.2,0.4-1.8c0.3-0.6,0.7-1.1,1.2-1.5c0.5-0.4,1.2-0.8,1.9-1
		c0.8-0.2,1.6-0.4,2.5-0.4c0.8,0,1.6,0.1,2.3,0.3c0.7,0.2,1.3,0.5,1.8,1c0.5,0.4,0.9,1,1.2,1.6s0.4,1.4,0.4,2.2v6.1
		c0,0.4,0,0.8,0,1.1c0,0.3,0.1,0.6,0.1,0.9s0.1,0.5,0.2,0.7c0.1,0.2,0.2,0.4,0.3,0.6v0.2H68.7z M65.5,139.9c0.3,0,0.6,0,0.9-0.1
		c0.3-0.1,0.5-0.2,0.8-0.3s0.4-0.3,0.6-0.4c0.2-0.2,0.3-0.3,0.4-0.5V136h-1.6c-0.5,0-0.9,0.1-1.3,0.2c-0.4,0.1-0.7,0.3-0.9,0.5
		c-0.2,0.2-0.4,0.4-0.5,0.7c-0.1,0.3-0.2,0.6-0.2,0.9c0,0.5,0.2,0.9,0.5,1.2S64.9,139.9,65.5,139.9z"/>
	<path class="st0" d="M79.6,124.6v3.6h2.5v2.8h-2.5v7.2c0,0.3,0,0.6,0.1,0.7c0.1,0.2,0.2,0.3,0.3,0.5s0.3,0.2,0.5,0.2
		c0.2,0,0.4,0.1,0.6,0.1c0.2,0,0.4,0,0.6,0c0.2,0,0.4,0,0.5-0.1v2.9c-0.3,0.1-0.7,0.2-1,0.2c-0.4,0.1-0.8,0.1-1.3,0.1
		c-0.6,0-1.2-0.1-1.7-0.2c-0.5-0.2-0.9-0.4-1.3-0.7c-0.4-0.3-0.6-0.8-0.8-1.3c-0.2-0.5-0.3-1.2-0.3-2V131h-2.1v-2.8h2.1v-3.6H79.6z"
		/>
	<path class="st0" d="M84.2,124.4c0-0.6,0.2-1.1,0.6-1.4c0.4-0.4,0.9-0.6,1.6-0.6c0.3,0,0.6,0,0.9,0.1c0.3,0.1,0.5,0.2,0.7,0.4
		c0.2,0.2,0.3,0.4,0.4,0.6c0.1,0.2,0.2,0.5,0.2,0.8c0,0.3-0.1,0.6-0.2,0.8c-0.1,0.2-0.2,0.5-0.4,0.6c-0.2,0.2-0.4,0.3-0.7,0.4
		c-0.3,0.1-0.6,0.1-0.9,0.1s-0.6,0-0.9-0.1c-0.3-0.1-0.5-0.2-0.7-0.4c-0.2-0.2-0.3-0.4-0.4-0.6C84.3,125,84.2,124.7,84.2,124.4z
		 M88.3,142.6h-3.9v-14.4h3.9V142.6z"/>
	<path class="st0" d="M90.9,135.2c0-1,0.2-2,0.5-2.9c0.3-0.9,0.7-1.7,1.3-2.3s1.3-1.2,2.1-1.5s1.8-0.6,2.9-0.6
		c1.1,0,2.1,0.2,2.9,0.6s1.6,0.9,2.2,1.5s1,1.4,1.3,2.3c0.3,0.9,0.5,1.9,0.5,2.9v0.3c0,1.1-0.2,2-0.5,2.9c-0.3,0.9-0.7,1.7-1.3,2.3
		s-1.3,1.2-2.1,1.5c-0.8,0.4-1.8,0.6-2.9,0.6s-2.1-0.2-2.9-0.6c-0.9-0.4-1.6-0.9-2.1-1.5s-1-1.4-1.3-2.3c-0.3-0.9-0.5-1.9-0.5-2.9
		V135.2z M94.7,135.5c0,0.6,0.1,1.1,0.2,1.7c0.1,0.5,0.3,1,0.5,1.3c0.2,0.4,0.5,0.7,0.9,0.9c0.4,0.2,0.8,0.3,1.4,0.3
		c0.5,0,1-0.1,1.4-0.3c0.4-0.2,0.7-0.5,0.9-0.9s0.4-0.8,0.5-1.3c0.1-0.5,0.2-1.1,0.2-1.7v-0.3c0-0.6-0.1-1.1-0.2-1.6s-0.3-1-0.5-1.3
		c-0.2-0.4-0.6-0.7-0.9-0.9s-0.8-0.3-1.4-0.3c-0.5,0-1,0.1-1.4,0.3s-0.7,0.5-0.9,0.9c-0.2,0.4-0.4,0.8-0.5,1.3
		c-0.1,0.5-0.2,1.1-0.2,1.6V135.5z"/>
	<path class="st0" d="M110.5,128.1l0.1,1.7c0.5-0.6,1.1-1.1,1.8-1.4c0.7-0.3,1.5-0.5,2.3-0.5c0.7,0,1.3,0.1,1.9,0.3s1,0.5,1.4,0.9
		c0.4,0.4,0.7,1,0.9,1.7c0.2,0.7,0.3,1.6,0.3,2.6v9.2h-3.9v-9.2c0-0.5-0.1-0.8-0.2-1.1c-0.1-0.3-0.2-0.5-0.4-0.7
		c-0.2-0.2-0.4-0.3-0.7-0.4c-0.3-0.1-0.6-0.1-1-0.1c-0.6,0-1.1,0.1-1.5,0.4c-0.4,0.2-0.7,0.6-1,1v10.2h-3.9v-14.4H110.5z"/>
	<path class="st0" d="M130.1,138.6c0-0.2,0-0.4-0.1-0.6s-0.2-0.3-0.5-0.5c-0.2-0.1-0.5-0.3-0.9-0.4c-0.4-0.1-0.9-0.3-1.5-0.4
		c-0.7-0.2-1.4-0.4-2-0.6c-0.6-0.2-1.2-0.5-1.6-0.9c-0.5-0.4-0.8-0.8-1.1-1.2c-0.3-0.5-0.4-1-0.4-1.6c0-0.6,0.1-1.2,0.4-1.7
		c0.3-0.5,0.6-1,1.1-1.4c0.5-0.4,1.1-0.7,1.8-1c0.7-0.2,1.5-0.4,2.4-0.4c0.9,0,1.8,0.1,2.5,0.3c0.7,0.2,1.4,0.6,1.9,1
		s0.9,0.9,1.2,1.5s0.4,1.2,0.4,1.9h-3.9c0-0.6-0.2-1-0.5-1.4c-0.4-0.4-0.9-0.5-1.7-0.5c-0.6,0-1.2,0.1-1.5,0.4
		c-0.4,0.3-0.5,0.7-0.5,1.1c0,0.2,0,0.4,0.1,0.6c0.1,0.2,0.2,0.3,0.5,0.5s0.5,0.3,0.8,0.4c0.3,0.1,0.8,0.2,1.3,0.3
		c0.8,0.2,1.5,0.3,2.2,0.6c0.7,0.2,1.2,0.5,1.7,0.9c0.5,0.4,0.9,0.8,1.1,1.3c0.3,0.5,0.4,1.1,0.4,1.8c0,0.6-0.1,1.2-0.4,1.8
		c-0.3,0.5-0.7,1-1.2,1.4c-0.5,0.4-1.2,0.7-1.9,0.9c-0.7,0.2-1.6,0.3-2.5,0.3c-1,0-1.9-0.1-2.7-0.4s-1.4-0.7-2-1.1s-0.9-1-1.2-1.6
		c-0.3-0.6-0.4-1.2-0.4-1.7h3.7c0,0.4,0.1,0.7,0.2,1s0.3,0.5,0.6,0.7s0.5,0.3,0.8,0.4c0.3,0.1,0.6,0.1,1,0.1c0.7,0,1.3-0.1,1.7-0.4
		C129.9,139.4,130.1,139.1,130.1,138.6z"/>
</g>
</svg>
