<svg id="Layer_1" data-name="Layer 1" xmlns="http://www.w3.org/2000/svg" viewBox="0 0 155.79 150"><defs><style>.cls-1,.cls-2{fill:#fff;}.cls-2{font-size:27.23px;font-family:Roboto;font-weight:700;}</style></defs><title>offices</title><path class="cls-1" d="M1060.34,63.72a36.31,36.31,0,1,1,36.31-36.31A36.31,36.31,0,0,1,1060.34,63.72Zm31.77-36.3H1074A90.58,90.58,0,0,1,1073,41h16A31.32,31.32,0,0,0,1092.11,27.41Zm-5.85,18.15h-14.14a42.52,42.52,0,0,1-4.66,12.75A31.77,31.77,0,0,0,1086.26,45.56Zm-34.87-22.69h17.89c-0.13-3.23-.43-6.25-0.81-9.09h-16.26C1051.82,16.63,1051.53,19.65,1051.39,22.88Zm-0.13,4.54a101,101,0,0,0,.91,13.61h16.34a101.17,101.17,0,0,0,.91-13.61h-18.16Zm9.08,31.77c3.08,0,5.79-5.4,7.44-13.62h-14.87C1054.55,53.78,1057.26,59.18,1060.34,59.18Zm-7.12-.87a42.51,42.51,0,0,1-4.66-12.75h-14.14A31.76,31.76,0,0,0,1053.22,58.31ZM1028.57,27.4h0ZM1031.76,41h16a90.73,90.73,0,0,1-1-13.61h-18.16A31.32,31.32,0,0,0,1031.76,41Zm15.08-18.15a87.14,87.14,0,0,1,.91-9.09h-16a31.63,31.63,0,0,0-2.76,9.09h17.87ZM1034.38,9.26h14.2a42.66,42.66,0,0,1,4.64-12.75A31.68,31.68,0,0,0,1034.38,9.26Zm26-13.62c-3.07,0-5.75,5.43-7.38,13.62h14.75C1066.09,1.06,1063.42-4.37,1060.34-4.37Zm7.12,0.87a42.63,42.63,0,0,1,4.64,12.75h14.2A31.68,31.68,0,0,0,1067.46-3.5ZM1089,13.79h-16a87.47,87.47,0,0,1,.91,9.09h17.87A31.59,31.59,0,0,0,1089,13.79Z" transform="translate(-982.45 8.9)"/><text class="cls-2" transform="translate(0 109.94)">International<tspan x="33.87" y="32.68">Offices</tspan></text></svg>