<?xml version="1.0" encoding="utf-8"?>
<!-- Generator: Adobe Illustrator 19.2.1, SVG Export Plug-In . SVG Version: 6.00 Build 0)  -->
<svg version="1.1" id="Layer_1" xmlns="http://www.w3.org/2000/svg" xmlns:xlink="http://www.w3.org/1999/xlink" x="0px" y="0px"
	 viewBox="0 0 155.8 150" style="enable-background:new 0 0 155.8 150;" xml:space="preserve">
<style type="text/css">
	.st0{fill:#FFFFFF;}
	.st1{enable-background:new    ;}
</style>
<title>offices</title>
<path class="st0" d="M77.9,72.6c-20.1,0-36.3-16.3-36.3-36.3S57.8,0,77.9,0s36.3,16.3,36.3,36.3C114.2,56.4,97.9,72.6,77.9,72.6
	L77.9,72.6z M109.7,36.3H91.5c0,4.5-0.3,9.1-1,13.6h16C108.6,45.7,109.7,41,109.7,36.3L109.7,36.3z M103.8,54.5H89.7
	c-0.9,4.5-2.4,8.8-4.7,12.8C92.6,65.4,99.3,60.9,103.8,54.5L103.8,54.5z M68.9,31.8h17.9c-0.1-3.2-0.4-6.2-0.8-9.1H69.8
	C69.4,25.5,69.1,28.5,68.9,31.8z M68.8,36.3c0,4.6,0.3,9.1,0.9,13.6h16.3c0.6-4.5,0.9-9.1,0.9-13.6H68.8z M77.9,68.1
	c3.1,0,5.8-5.4,7.4-13.6H70.5C72.1,62.7,74.8,68.1,77.9,68.1L77.9,68.1z M70.8,67.2c-2.2-4-3.8-8.3-4.7-12.8H52
	C56.5,60.9,63.1,65.4,70.8,67.2L70.8,67.2z M46.1,36.3L46.1,36.3z M49.3,49.9h16c-0.7-4.5-1-9.1-1-13.6H46.1
	C46.2,41,47.2,45.7,49.3,49.9z M64.4,31.8c0.1-3,0.4-6.1,0.9-9.1h-16c-1.4,2.9-2.3,5.9-2.8,9.1H64.4L64.4,31.8z M51.9,18.2h14.2
	c0.9-4.5,2.4-8.8,4.6-12.8C63.1,7.2,56.4,11.7,51.9,18.2z M77.9,4.5c-3.1,0-5.8,5.4-7.4,13.6h14.8C83.6,10,81,4.5,77.9,4.5L77.9,4.5
	z M85,5.4c2.2,4,3.8,8.3,4.6,12.8h14.2C99.4,11.7,92.7,7.2,85,5.4L85,5.4z M106.5,22.7h-16c0.5,3,0.8,6,0.9,9.1h17.9
	C108.9,28.6,107.9,25.6,106.5,22.7z"/>
<g class="st1">
	<path class="st0" d="M6,109.9H2V90.6h4V109.9z"/>
	<path class="st0" d="M13,95.6l0.1,1.7c0.5-0.6,1.1-1.1,1.8-1.4c0.7-0.3,1.5-0.5,2.3-0.5c0.7,0,1.3,0.1,1.9,0.3
		c0.6,0.2,1,0.5,1.4,0.9s0.7,1,0.9,1.7c0.2,0.7,0.3,1.6,0.3,2.6v9.1h-3.8v-9.2c0-0.5-0.1-0.8-0.2-1.1c-0.1-0.3-0.3-0.5-0.4-0.7
		c-0.2-0.2-0.4-0.3-0.7-0.4c-0.3-0.1-0.6-0.1-1-0.1c-0.6,0-1.1,0.1-1.5,0.4s-0.7,0.6-1,1v10.1H9.3V95.6H13z"/>
	<path class="st0" d="M29.3,92v3.5h2.5v2.8h-2.5v7.2c0,0.3,0,0.5,0.1,0.7c0.1,0.2,0.2,0.3,0.3,0.5c0.1,0.1,0.3,0.2,0.5,0.2
		s0.4,0.1,0.6,0.1c0.2,0,0.4,0,0.6,0c0.2,0,0.4,0,0.5-0.1v2.9c-0.3,0.1-0.7,0.2-1,0.2c-0.4,0.1-0.8,0.1-1.3,0.1
		c-0.6,0-1.2-0.1-1.7-0.2c-0.5-0.2-0.9-0.4-1.3-0.7c-0.4-0.3-0.6-0.8-0.8-1.3c-0.2-0.5-0.3-1.2-0.3-2v-7.6h-2.1v-2.8h2.1V92H29.3z"
		/>
	<path class="st0" d="M40.5,110.2c-1.1,0-2.1-0.2-3-0.5c-0.9-0.4-1.6-0.9-2.2-1.5c-0.6-0.6-1.1-1.4-1.4-2.2
		c-0.3-0.8-0.5-1.8-0.5-2.7v-0.5c0-1.1,0.2-2.1,0.5-3s0.8-1.7,1.3-2.3s1.3-1.2,2.1-1.5c0.8-0.4,1.8-0.6,2.8-0.6c1,0,1.9,0.2,2.7,0.5
		c0.8,0.3,1.5,0.8,2,1.4c0.5,0.6,0.9,1.4,1.2,2.2c0.3,0.9,0.4,1.8,0.4,2.9v1.6h-9.2c0.1,0.5,0.2,0.9,0.4,1.3c0.2,0.4,0.4,0.7,0.7,1
		c0.3,0.3,0.6,0.5,1,0.6c0.4,0.2,0.8,0.2,1.3,0.2c0.7,0,1.3-0.1,1.9-0.4c0.6-0.3,1.1-0.7,1.5-1.2l1.9,2.1c-0.2,0.3-0.5,0.6-0.9,1
		c-0.3,0.3-0.8,0.6-1.2,0.8c-0.5,0.2-1,0.4-1.6,0.6C41.8,110.1,41.2,110.2,40.5,110.2z M40,98.4c-0.4,0-0.8,0.1-1.1,0.2
		c-0.3,0.1-0.6,0.3-0.8,0.6s-0.4,0.6-0.6,0.9c-0.1,0.4-0.2,0.8-0.3,1.2h5.3v-0.3c0-0.4-0.1-0.7-0.2-1.1c-0.1-0.3-0.3-0.6-0.5-0.9
		c-0.2-0.2-0.5-0.4-0.8-0.6C40.9,98.5,40.5,98.4,40,98.4z"/>
	<path class="st0" d="M56.7,99.2c-0.2,0-0.4-0.1-0.7-0.1c-0.3,0-0.5,0-0.7,0c-0.8,0-1.4,0.1-1.8,0.4c-0.5,0.3-0.8,0.6-1,1.1v9.4
		h-3.8V95.6h3.6l0.1,1.7c0.4-0.6,0.8-1.1,1.3-1.5c0.5-0.3,1.2-0.5,1.9-0.5c0.2,0,0.4,0,0.6,0.1s0.4,0.1,0.6,0.1L56.7,99.2z"/>
	<path class="st0" d="M62.1,95.6l0.1,1.7c0.5-0.6,1.1-1.1,1.8-1.4c0.7-0.3,1.5-0.5,2.3-0.5c0.7,0,1.3,0.1,1.9,0.3
		c0.6,0.2,1,0.5,1.4,0.9s0.7,1,0.9,1.7c0.2,0.7,0.3,1.6,0.3,2.6v9.1H67v-9.2c0-0.5-0.1-0.8-0.2-1.1c-0.1-0.3-0.3-0.5-0.4-0.7
		c-0.2-0.2-0.4-0.3-0.7-0.4c-0.3-0.1-0.6-0.1-1-0.1c-0.6,0-1.1,0.1-1.5,0.4s-0.7,0.6-1,1v10.1h-3.8V95.6H62.1z"/>
	<path class="st0" d="M82.1,109.9c-0.2-0.3-0.3-0.8-0.4-1.3c-0.4,0.4-0.9,0.8-1.5,1.1c-0.6,0.3-1.3,0.5-2.2,0.5
		c-0.7,0-1.3-0.1-1.9-0.3c-0.6-0.2-1.1-0.5-1.6-0.9c-0.4-0.4-0.8-0.8-1-1.4s-0.4-1.1-0.4-1.7c0-0.8,0.1-1.4,0.4-2
		c0.3-0.6,0.7-1.1,1.3-1.5c0.6-0.4,1.3-0.7,2.1-0.9c0.8-0.2,1.8-0.3,2.9-0.3h1.7v-0.8c0-0.7-0.2-1.2-0.5-1.6
		c-0.3-0.4-0.9-0.6-1.6-0.6c-0.6,0-1.2,0.2-1.5,0.5c-0.4,0.3-0.6,0.7-0.6,1.3h-3.8c0-0.6,0.1-1.2,0.4-1.8c0.3-0.6,0.7-1,1.2-1.5
		s1.2-0.7,1.9-1c0.8-0.2,1.6-0.4,2.5-0.4c0.8,0,1.6,0.1,2.3,0.3c0.7,0.2,1.3,0.5,1.8,1s0.9,0.9,1.2,1.6s0.4,1.4,0.4,2.2v6.1
		c0,0.4,0,0.8,0,1.1c0,0.3,0.1,0.6,0.1,0.9s0.1,0.5,0.2,0.7c0.1,0.2,0.2,0.4,0.3,0.6v0.2H82.1z M78.9,107.3c0.3,0,0.6,0,0.9-0.1
		s0.5-0.2,0.8-0.3c0.2-0.1,0.4-0.3,0.6-0.4c0.2-0.2,0.3-0.3,0.4-0.5v-2.5H80c-0.5,0-0.9,0.1-1.3,0.2c-0.4,0.1-0.7,0.3-0.9,0.5
		s-0.4,0.4-0.5,0.7s-0.2,0.6-0.2,0.9c0,0.5,0.2,0.9,0.5,1.2S78.3,107.3,78.9,107.3z"/>
	<path class="st0" d="M93,92v3.5h2.5v2.8H93v7.2c0,0.3,0,0.5,0.1,0.7c0.1,0.2,0.2,0.3,0.3,0.5c0.1,0.1,0.3,0.2,0.5,0.2
		s0.4,0.1,0.6,0.1c0.2,0,0.4,0,0.6,0c0.2,0,0.4,0,0.5-0.1v2.9c-0.3,0.1-0.7,0.2-1,0.2s-0.8,0.1-1.3,0.1c-0.6,0-1.2-0.1-1.7-0.2
		s-0.9-0.4-1.3-0.7c-0.4-0.3-0.6-0.8-0.8-1.3c-0.2-0.5-0.3-1.2-0.3-2v-7.6H87v-2.8h2.1V92H93z"/>
	<path class="st0" d="M97.5,91.8c0-0.6,0.2-1,0.6-1.4c0.4-0.4,0.9-0.6,1.6-0.6c0.3,0,0.6,0,0.9,0.1c0.3,0.1,0.5,0.2,0.7,0.4
		c0.2,0.2,0.3,0.4,0.4,0.6c0.1,0.2,0.2,0.5,0.2,0.8c0,0.3-0.1,0.6-0.2,0.8c-0.1,0.2-0.2,0.5-0.4,0.6c-0.2,0.2-0.4,0.3-0.7,0.4
		s-0.6,0.1-0.9,0.1c-0.3,0-0.6,0-0.9-0.1s-0.5-0.2-0.7-0.4c-0.2-0.2-0.3-0.4-0.4-0.6C97.6,92.4,97.5,92.1,97.5,91.8z M101.6,109.9
		h-3.9V95.6h3.9V109.9z"/>
	<path class="st0" d="M104.2,102.6c0-1,0.2-2,0.5-2.9c0.3-0.9,0.7-1.7,1.3-2.3c0.6-0.7,1.3-1.2,2.1-1.5c0.8-0.4,1.8-0.6,2.9-0.6
		c1.1,0,2.1,0.2,2.9,0.6c0.9,0.4,1.6,0.9,2.1,1.5c0.6,0.7,1,1.4,1.3,2.3c0.3,0.9,0.5,1.9,0.5,2.9v0.3c0,1.1-0.2,2-0.5,2.9
		c-0.3,0.9-0.7,1.7-1.3,2.3c-0.6,0.7-1.3,1.2-2.1,1.5c-0.8,0.4-1.8,0.6-2.9,0.6c-1.1,0-2.1-0.2-2.9-0.6c-0.8-0.4-1.6-0.9-2.1-1.5
		c-0.6-0.7-1-1.4-1.3-2.3c-0.3-0.9-0.5-1.9-0.5-2.9V102.6z M108,102.9c0,0.6,0.1,1.1,0.2,1.6c0.1,0.5,0.3,1,0.5,1.3
		c0.2,0.4,0.5,0.7,0.9,0.9s0.8,0.3,1.4,0.3c0.5,0,1-0.1,1.4-0.3c0.4-0.2,0.7-0.5,0.9-0.9s0.4-0.8,0.5-1.3c0.1-0.5,0.2-1.1,0.2-1.6
		v-0.3c0-0.6-0.1-1.1-0.2-1.6s-0.3-1-0.5-1.3s-0.5-0.7-0.9-0.9c-0.4-0.2-0.8-0.3-1.4-0.3c-0.5,0-1,0.1-1.4,0.3
		c-0.4,0.2-0.7,0.5-0.9,0.9c-0.2,0.4-0.4,0.8-0.5,1.3s-0.2,1-0.2,1.6V102.9z"/>
	<path class="st0" d="M123.7,95.6l0.1,1.7c0.5-0.6,1.1-1.1,1.8-1.4c0.7-0.3,1.5-0.5,2.3-0.5c0.7,0,1.3,0.1,1.9,0.3s1,0.5,1.4,0.9
		c0.4,0.4,0.7,1,0.9,1.7c0.2,0.7,0.3,1.6,0.3,2.6v9.1h-3.8v-9.2c0-0.5-0.1-0.8-0.2-1.1c-0.1-0.3-0.3-0.5-0.4-0.7
		c-0.2-0.2-0.4-0.3-0.7-0.4c-0.3-0.1-0.6-0.1-1-0.1c-0.6,0-1.1,0.1-1.5,0.4s-0.7,0.6-1,1v10.1h-3.8V95.6H123.7z"/>
	<path class="st0" d="M143.8,109.9c-0.2-0.3-0.3-0.8-0.4-1.3c-0.4,0.4-0.9,0.8-1.5,1.1c-0.6,0.3-1.3,0.5-2.2,0.5
		c-0.7,0-1.3-0.1-1.9-0.3c-0.6-0.2-1.1-0.5-1.6-0.9c-0.4-0.4-0.8-0.8-1-1.4s-0.4-1.1-0.4-1.7c0-0.8,0.1-1.4,0.4-2s0.7-1.1,1.3-1.5
		c0.6-0.4,1.3-0.7,2.1-0.9s1.8-0.3,2.9-0.3h1.7v-0.8c0-0.7-0.2-1.2-0.5-1.6c-0.3-0.4-0.9-0.6-1.6-0.6c-0.6,0-1.2,0.2-1.5,0.5
		c-0.4,0.3-0.6,0.7-0.6,1.3h-3.8c0-0.6,0.1-1.2,0.4-1.8c0.3-0.6,0.7-1,1.2-1.5c0.5-0.4,1.2-0.7,1.9-1c0.8-0.2,1.6-0.4,2.5-0.4
		c0.8,0,1.6,0.1,2.3,0.3c0.7,0.2,1.3,0.5,1.8,1c0.5,0.4,0.9,0.9,1.2,1.6c0.3,0.6,0.4,1.4,0.4,2.2v6.1c0,0.4,0,0.8,0,1.1
		c0,0.3,0.1,0.6,0.1,0.9c0,0.3,0.1,0.5,0.2,0.7c0.1,0.2,0.2,0.4,0.3,0.6v0.2H143.8z M140.6,107.3c0.3,0,0.6,0,0.9-0.1
		c0.3-0.1,0.5-0.2,0.8-0.3s0.4-0.3,0.6-0.4c0.2-0.2,0.3-0.3,0.4-0.5v-2.5h-1.6c-0.5,0-0.9,0.1-1.3,0.2c-0.4,0.1-0.7,0.3-0.9,0.5
		s-0.4,0.4-0.5,0.7c-0.1,0.3-0.2,0.6-0.2,0.9c0,0.5,0.2,0.9,0.5,1.2S140,107.3,140.6,107.3z"/>
	<path class="st0" d="M154.1,109.9h-3.9V89.5h3.9V109.9z"/>
</g>
<g class="st1">
	<path class="st0" d="M51.5,133.4c0,1.5-0.2,2.8-0.6,4c-0.4,1.2-1,2.2-1.7,3c-0.7,0.8-1.6,1.4-2.6,1.9c-1,0.4-2.1,0.7-3.3,0.7
		s-2.3-0.2-3.3-0.7c-1-0.4-1.9-1.1-2.6-1.9c-0.7-0.8-1.3-1.8-1.7-3c-0.4-1.2-0.6-2.5-0.6-4v-0.9c0-1.5,0.2-2.8,0.6-4
		c0.4-1.2,1-2.2,1.7-3c0.7-0.8,1.6-1.5,2.6-1.9c1-0.4,2.1-0.7,3.3-0.7s2.3,0.2,3.3,0.7c1,0.4,1.9,1.1,2.6,1.9c0.7,0.8,1.3,1.8,1.7,3
		c0.4,1.2,0.6,2.5,0.6,4V133.4z M47.5,132.5c0-2-0.4-3.6-1.1-4.6c-0.7-1.1-1.8-1.6-3.1-1.6c-1.3,0-2.4,0.5-3.1,1.6
		c-0.7,1.1-1.1,2.6-1.1,4.6v0.9c0,1,0.1,1.9,0.3,2.7s0.5,1.4,0.8,2c0.4,0.5,0.8,0.9,1.3,1.2c0.5,0.3,1.1,0.4,1.8,0.4
		c1.3,0,2.4-0.5,3.1-1.6c0.7-1.1,1.1-2.6,1.1-4.6V132.5z"/>
	<path class="st0" d="M55.2,142.6v-11.6h-2.1v-2.8h2.1V127c0-0.8,0.1-1.5,0.4-2.2c0.2-0.6,0.6-1.2,1.1-1.6c0.5-0.4,1-0.8,1.7-1
		c0.7-0.2,1.4-0.3,2.2-0.3c0.3,0,0.7,0,1,0.1c0.3,0.1,0.6,0.1,1,0.2l0,3c-0.3-0.1-0.7-0.1-1.2-0.1c-0.7,0-1.2,0.2-1.6,0.5
		c-0.4,0.3-0.6,0.8-0.6,1.4v1.2h2.9v2.8h-2.9v11.6H55.2z"/>
	<path class="st0" d="M64.8,142.6v-11.6h-2.1v-2.8h2.1v-0.6c0-0.9,0.1-1.7,0.4-2.5s0.7-1.3,1.2-1.8s1.2-0.8,2-1.1
		c0.8-0.2,1.7-0.4,2.7-0.4c0.8,0,1.5,0.1,2.2,0.2s1.4,0.3,2.2,0.6l-0.6,3.2c-0.2-0.1-0.5-0.1-0.7-0.2c-0.3-0.1-0.5-0.1-0.8-0.2
		c-0.3-0.1-0.6-0.1-0.9-0.1c-0.3,0-0.7-0.1-1.1-0.1c-0.9,0-1.6,0.2-2,0.6c-0.4,0.4-0.7,1-0.7,1.8v0.6h2.8v2.8h-2.8v11.6H64.8z
		 M77.3,142.6h-3.9v-14.4h3.9V142.6z"/>
	<path class="st0" d="M86.5,139.8c0.4,0,0.7-0.1,1-0.2c0.3-0.1,0.5-0.2,0.8-0.4s0.4-0.4,0.5-0.7c0.1-0.3,0.2-0.6,0.2-0.9h3.6
		c0,0.8-0.2,1.5-0.5,2.1c-0.3,0.6-0.7,1.2-1.3,1.7c-0.5,0.5-1.2,0.8-1.9,1.1c-0.7,0.3-1.5,0.4-2.3,0.4c-1.1,0-2.1-0.2-2.9-0.6
		c-0.8-0.4-1.5-0.9-2.1-1.5s-1-1.4-1.2-2.3c-0.3-0.9-0.4-1.8-0.4-2.9v-0.4c0-1,0.1-2,0.4-2.9c0.3-0.9,0.7-1.7,1.2-2.3
		s1.2-1.2,2.1-1.5s1.8-0.6,2.9-0.6c0.9,0,1.7,0.1,2.4,0.4s1.4,0.6,1.9,1.1c0.5,0.5,0.9,1.1,1.2,1.8c0.3,0.7,0.4,1.5,0.5,2.3h-3.6
		c0-0.3-0.1-0.7-0.2-1c-0.1-0.3-0.3-0.6-0.5-0.8c-0.2-0.2-0.5-0.4-0.8-0.5c-0.3-0.1-0.6-0.2-1-0.2c-0.6,0-1,0.1-1.4,0.3
		s-0.6,0.5-0.8,0.9c-0.2,0.4-0.3,0.8-0.4,1.3c-0.1,0.5-0.1,1-0.1,1.6v0.4c0,0.5,0,1.1,0.1,1.6c0.1,0.5,0.2,0.9,0.4,1.3
		c0.2,0.4,0.5,0.7,0.8,0.9C85.4,139.7,85.9,139.8,86.5,139.8z"/>
	<path class="st0" d="M101.3,142.9c-1.1,0-2.1-0.2-3-0.5s-1.6-0.9-2.2-1.5c-0.6-0.6-1.1-1.4-1.4-2.2c-0.3-0.8-0.5-1.8-0.5-2.7v-0.5
		c0-1.1,0.2-2.1,0.5-3s0.8-1.7,1.3-2.3c0.6-0.7,1.3-1.2,2.1-1.5c0.8-0.4,1.8-0.6,2.8-0.6c1,0,1.9,0.2,2.7,0.5c0.8,0.3,1.5,0.8,2,1.4
		c0.5,0.6,0.9,1.4,1.2,2.2c0.3,0.9,0.4,1.8,0.4,2.9v1.6H98c0.1,0.5,0.2,0.9,0.4,1.3c0.2,0.4,0.4,0.7,0.7,1s0.6,0.5,1,0.6
		c0.4,0.2,0.8,0.2,1.3,0.2c0.7,0,1.3-0.1,1.9-0.4c0.6-0.3,1.1-0.7,1.5-1.2l1.9,2.1c-0.2,0.3-0.5,0.6-0.9,1c-0.3,0.3-0.8,0.6-1.2,0.8
		c-0.5,0.2-1,0.4-1.6,0.6C102.6,142.8,102,142.9,101.3,142.9z M100.9,131.1c-0.4,0-0.8,0.1-1.1,0.2c-0.3,0.1-0.6,0.3-0.8,0.6
		c-0.2,0.3-0.4,0.6-0.6,0.9s-0.2,0.8-0.3,1.2h5.3v-0.3c0-0.4-0.1-0.7-0.2-1.1s-0.3-0.6-0.5-0.9c-0.2-0.2-0.5-0.4-0.8-0.6
		C101.7,131.1,101.3,131.1,100.9,131.1z"/>
	<path class="st0" d="M117.2,138.6c0-0.2,0-0.4-0.1-0.6c-0.1-0.2-0.2-0.3-0.5-0.5s-0.5-0.3-0.9-0.4s-0.9-0.3-1.5-0.4
		c-0.7-0.2-1.4-0.4-2-0.6c-0.6-0.2-1.2-0.5-1.6-0.9c-0.5-0.4-0.8-0.8-1.1-1.2s-0.4-1-0.4-1.6c0-0.6,0.1-1.2,0.4-1.7
		c0.3-0.5,0.6-1,1.1-1.4s1.1-0.7,1.8-1c0.7-0.2,1.5-0.4,2.4-0.4c0.9,0,1.8,0.1,2.5,0.3s1.4,0.6,1.9,1s0.9,0.9,1.2,1.5
		c0.3,0.6,0.4,1.2,0.4,1.9H117c0-0.5-0.2-1-0.5-1.4c-0.4-0.4-0.9-0.5-1.7-0.5c-0.6,0-1.1,0.1-1.5,0.4c-0.4,0.3-0.5,0.7-0.5,1.1
		c0,0.2,0,0.4,0.1,0.6s0.2,0.3,0.5,0.5c0.2,0.1,0.5,0.3,0.8,0.4c0.3,0.1,0.8,0.2,1.3,0.3c0.8,0.2,1.5,0.3,2.2,0.6s1.2,0.5,1.7,0.9
		c0.5,0.4,0.9,0.8,1.1,1.3c0.3,0.5,0.4,1.1,0.4,1.8c0,0.6-0.1,1.2-0.4,1.8c-0.3,0.5-0.7,1-1.2,1.4c-0.5,0.4-1.2,0.7-1.9,0.9
		s-1.6,0.3-2.5,0.3c-1,0-1.9-0.1-2.7-0.4c-0.8-0.3-1.4-0.7-1.9-1.1s-0.9-1-1.2-1.6c-0.3-0.6-0.4-1.2-0.4-1.7h3.6
		c0,0.4,0.1,0.7,0.2,1c0.1,0.3,0.3,0.5,0.6,0.7c0.2,0.2,0.5,0.3,0.8,0.4c0.3,0.1,0.6,0.1,1,0.1c0.7,0,1.3-0.1,1.7-0.4
		C117,139.5,117.2,139.1,117.2,138.6z"/>
</g>
</svg>
