<?xml version="1.0" encoding="utf-8"?>
<!-- Generator: Adobe Illustrator 19.2.1, SVG Export Plug-In . SVG Version: 6.00 Build 0)  -->
<svg version="1.1" id="Layer_1" xmlns="http://www.w3.org/2000/svg" xmlns:xlink="http://www.w3.org/1999/xlink" x="0px" y="0px"
	 viewBox="0 0 259.1 150" style="enable-background:new 0 0 259.1 150;" xml:space="preserve">
<style type="text/css">
	.st0{fill:#FFFFFF;}
	.st1{enable-background:new    ;}
</style>
<title>transactions</title>
<path class="st0" d="M168.1,56.8L168.1,56.8v8.9c0,1.3-1,2.3-2.3,2.3c-0.5,0-1-0.2-1.4-0.5l-13.3-10.7h-17V11.4h34
	c7.5,0,13.6,6.1,13.6,13.6v18.1C181.7,50.7,175.7,56.8,168.1,56.8z M177.2,25c0-5-4.1-9.1-9.1-9.1l0,0h-34v36.3h17.4l12.1,9.1v-9.1
	h4.5c5,0,9.1-4.1,9.1-9.1c0,0,0,0,0,0L177.2,25L177.2,25z"/>
<path class="st0" d="M134.1,2.3v68.1c0,1.3-1,2.3-2.3,2.3l0,0h-1c-0.9,0-1.9-0.4-2.5-1.1l-7.4-8l-7.8,7.5c-0.9,0.9-2.3,0.9-3.2,0
	l-7.5-7.5l-7.7,7.5c-0.9,0.9-2.3,0.9-3.2,0c0,0,0,0,0,0l-7.2-7.4l-7.9,8.1c-0.6,0.6-1.5,1-2.4,1h-1.3c-1.3,0-2.3-1-2.3-2.3
	c0,0,0,0,0,0V2.3c0-1.3,1-2.3,2.3-2.3l0,0h59C133.1,0,134.1,1,134.1,2.3C134.1,2.3,134.1,2.3,134.1,2.3z M75.1,66.6l6.1-6.2l1.6-1.7
	c0.9-0.9,2.3-0.9,3.2-0.1c0,0,0,0,0.1,0.1l1.6,1.7l5.6,5.8l6.1-5.9l1.6-1.6c0.9-0.9,2.3-0.9,3.2,0l1.6,1.6l5.9,5.9l6.2-6l1.7-1.6
	c0.9-0.9,2.3-0.8,3.2,0.1c0,0,0,0,0,0l1.6,1.7l5.3,5.7V4.5H75.1V66.6L75.1,66.6L75.1,66.6z M101.4,41.7v-8.9c-4-1-8-2.3-8-6.8
	c0-3.8,3.4-6.4,8-6.8v-3.3h2.4v3.4c2.9,0.2,5.6,1.4,7.7,3.4l-1.9,2.3c-1.5-1.6-3.6-2.6-5.7-2.8v8c4,1.1,8.2,2.4,8.2,7.3
	c0,3.3-2.2,6.7-8.2,7.1v3.3h-2.4v-3.3c-3.3-0.1-6.5-1.5-8.8-3.8l1.9-2.3C96.4,40.2,98.8,41.4,101.4,41.7L101.4,41.7z M101.4,22
	c-2.8,0.2-4.7,1.7-4.7,3.8s2,2.9,4.7,3.6V22L101.4,22z M103.8,41.7c3.7-0.4,4.9-2.5,4.9-4.2c0-2.4-2.2-3.4-4.9-4.1V41.7z"/>
<g class="st1">
	<path class="st0" d="M19.9,90.4v3.2h-0.2c-0.9,0-1.7,0.1-2.5,0.4c-0.7,0.2-1.4,0.6-1.9,1c-0.5,0.4-1,1-1.3,1.6
		c-0.3,0.6-0.5,1.3-0.6,2.1c0.5-0.5,1-0.9,1.7-1.2c0.7-0.3,1.4-0.4,2.2-0.4c0.9,0,1.7,0.2,2.4,0.5c0.7,0.3,1.3,0.8,1.7,1.4
		c0.5,0.6,0.8,1.3,1,2.1c0.2,0.8,0.3,1.6,0.3,2.5c0,0.9-0.2,1.8-0.5,2.6c-0.3,0.8-0.7,1.5-1.3,2.1s-1.3,1.1-2.1,1.4
		s-1.7,0.5-2.7,0.5c-1,0-2-0.2-2.8-0.6c-0.8-0.4-1.6-0.9-2.1-1.6c-0.6-0.7-1-1.5-1.4-2.4c-0.3-0.9-0.5-2-0.5-3.1V101
		c0-1.6,0.2-3,0.7-4.3c0.4-1.3,1.1-2.4,1.9-3.4c0.8-0.9,1.9-1.7,3.1-2.2c1.2-0.5,2.6-0.8,4.2-0.8H19.9z M16.1,100.1
		c-0.3,0-0.7,0-1,0.1c-0.3,0.1-0.6,0.2-0.8,0.4c-0.2,0.2-0.5,0.4-0.6,0.6s-0.3,0.4-0.4,0.7v1.2c0,0.7,0.1,1.3,0.2,1.8
		c0.1,0.5,0.3,0.9,0.6,1.3c0.3,0.3,0.6,0.6,0.9,0.8c0.4,0.2,0.8,0.3,1.2,0.3c0.4,0,0.8-0.1,1.1-0.3c0.3-0.2,0.6-0.4,0.9-0.7
		s0.4-0.7,0.6-1.1s0.2-0.9,0.2-1.4c0-0.5-0.1-1-0.2-1.4c-0.1-0.4-0.3-0.8-0.6-1.1s-0.5-0.6-0.9-0.7S16.6,100.1,16.1,100.1z"/>
	<path class="st0" d="M38.1,101.9c0,1.5-0.2,2.7-0.5,3.7c-0.3,1-0.8,1.9-1.3,2.6c-0.6,0.7-1.3,1.2-2.1,1.5s-1.7,0.5-2.7,0.5
		s-1.9-0.2-2.7-0.5c-0.8-0.3-1.5-0.8-2.1-1.5s-1-1.5-1.3-2.6c-0.3-1-0.5-2.3-0.5-3.7v-3.4c0-1.5,0.2-2.7,0.5-3.7
		c0.3-1,0.8-1.9,1.3-2.6s1.3-1.2,2.1-1.5s1.7-0.5,2.7-0.5s1.9,0.2,2.7,0.5s1.5,0.8,2.1,1.5c0.6,0.7,1,1.5,1.3,2.6
		c0.3,1,0.5,2.3,0.5,3.7V101.9z M34.2,98c0-0.9-0.1-1.6-0.2-2.2s-0.3-1.1-0.5-1.4c-0.2-0.4-0.5-0.6-0.9-0.8
		c-0.3-0.2-0.7-0.2-1.1-0.2c-0.4,0-0.8,0.1-1.1,0.2c-0.3,0.2-0.6,0.4-0.8,0.8c-0.2,0.4-0.4,0.8-0.5,1.4s-0.2,1.3-0.2,2.2v4.4
		c0,0.9,0.1,1.6,0.2,2.2c0.1,0.6,0.3,1.1,0.5,1.4c0.2,0.4,0.5,0.6,0.9,0.8s0.7,0.2,1.1,0.2c0.4,0,0.8-0.1,1.1-0.2s0.6-0.4,0.8-0.8
		s0.4-0.8,0.5-1.4s0.2-1.3,0.2-2.2V98z"/>
	<path class="st0" d="M53.1,90.6l5,14l4.9-14h5.2v19.4h-4v-5.3l0.4-9.1l-5.2,14.4h-2.7l-5.2-14.4l0.4,9.1v5.3h-4V90.6H53.1z"/>
	<path class="st0" d="M71.4,91.8c0-0.6,0.2-1,0.6-1.4c0.4-0.4,0.9-0.6,1.6-0.6c0.3,0,0.6,0,0.9,0.1c0.3,0.1,0.5,0.2,0.7,0.4
		c0.2,0.2,0.3,0.4,0.4,0.6c0.1,0.2,0.2,0.5,0.2,0.8c0,0.3-0.1,0.6-0.2,0.8c-0.1,0.2-0.2,0.5-0.4,0.6c-0.2,0.2-0.4,0.3-0.7,0.4
		c-0.3,0.1-0.6,0.1-0.9,0.1c-0.3,0-0.6,0-0.9-0.1s-0.5-0.2-0.7-0.4c-0.2-0.2-0.3-0.4-0.4-0.6C71.5,92.4,71.4,92.1,71.4,91.8z
		 M75.5,109.9h-3.9V95.6h3.9V109.9z"/>
	<path class="st0" d="M82.7,109.9h-3.9V89.5h3.9V109.9z"/>
	<path class="st0" d="M90,109.9h-3.9V89.5H90V109.9z"/>
	<path class="st0" d="M93.1,91.8c0-0.6,0.2-1,0.6-1.4c0.4-0.4,0.9-0.6,1.6-0.6c0.3,0,0.6,0,0.9,0.1c0.3,0.1,0.5,0.2,0.7,0.4
		c0.2,0.2,0.3,0.4,0.4,0.6c0.1,0.2,0.2,0.5,0.2,0.8c0,0.3-0.1,0.6-0.2,0.8c-0.1,0.2-0.2,0.5-0.4,0.6c-0.2,0.2-0.4,0.3-0.7,0.4
		c-0.3,0.1-0.6,0.1-0.9,0.1c-0.3,0-0.6,0-0.9-0.1s-0.5-0.2-0.7-0.4c-0.2-0.2-0.3-0.4-0.4-0.6C93.1,92.4,93.1,92.1,93.1,91.8z
		 M97.2,109.9h-3.9V95.6h3.9V109.9z"/>
	<path class="st0" d="M99.7,102.6c0-1,0.2-2,0.5-2.9c0.3-0.9,0.7-1.7,1.3-2.3c0.6-0.7,1.3-1.2,2.1-1.5s1.8-0.6,2.9-0.6
		c1.1,0,2.1,0.2,2.9,0.6s1.6,0.9,2.1,1.5c0.6,0.7,1,1.4,1.3,2.3c0.3,0.9,0.5,1.9,0.5,2.9v0.3c0,1.1-0.2,2-0.5,2.9
		c-0.3,0.9-0.7,1.7-1.3,2.3c-0.6,0.7-1.3,1.2-2.1,1.5c-0.8,0.4-1.8,0.6-2.9,0.6s-2.1-0.2-2.9-0.6c-0.8-0.4-1.6-0.9-2.1-1.5
		c-0.6-0.7-1-1.4-1.3-2.3c-0.3-0.9-0.5-1.9-0.5-2.9V102.6z M103.6,102.9c0,0.6,0.1,1.1,0.2,1.6c0.1,0.5,0.3,1,0.5,1.3
		s0.5,0.7,0.9,0.9c0.4,0.2,0.8,0.3,1.4,0.3c0.5,0,1-0.1,1.4-0.3s0.7-0.5,0.9-0.9c0.2-0.4,0.4-0.8,0.5-1.3c0.1-0.5,0.2-1.1,0.2-1.6
		v-0.3c0-0.6-0.1-1.1-0.2-1.6c-0.1-0.5-0.3-1-0.5-1.3c-0.2-0.4-0.6-0.7-0.9-0.9c-0.4-0.2-0.8-0.3-1.4-0.3c-0.5,0-1,0.1-1.4,0.3
		c-0.4,0.2-0.7,0.5-0.9,0.9s-0.4,0.8-0.5,1.3c-0.1,0.5-0.2,1-0.2,1.6V102.9z"/>
	<path class="st0" d="M119.3,95.6l0.1,1.7c0.5-0.6,1.1-1.1,1.8-1.4c0.7-0.3,1.5-0.5,2.3-0.5c0.7,0,1.3,0.1,1.9,0.3s1,0.5,1.4,0.9
		c0.4,0.4,0.7,1,0.9,1.7c0.2,0.7,0.3,1.6,0.3,2.6v9.1h-3.8v-9.2c0-0.5-0.1-0.8-0.2-1.1c-0.1-0.3-0.3-0.5-0.4-0.7
		c-0.2-0.2-0.4-0.3-0.7-0.4c-0.3-0.1-0.6-0.1-1-0.1c-0.6,0-1.1,0.1-1.5,0.4s-0.7,0.6-1,1v10.1h-3.8V95.6H119.3z"/>
	<path class="st0" d="M138.7,99.1h4.8v3.5h-4.8v5.4h-3.7v-5.4h-4.8v-3.5h4.8v-5.2h3.7V99.1z"/>
	<path class="st0" d="M158.1,90.6l5,14l4.9-14h5.2v19.4h-4v-5.3l0.4-9.1l-5.2,14.4h-2.7l-5.2-14.4l0.4,9.1v5.3h-4V90.6H158.1z"/>
	<path class="st0" d="M175.9,102.6c0-1,0.2-2,0.5-2.9c0.3-0.9,0.7-1.7,1.3-2.3c0.6-0.7,1.3-1.2,2.1-1.5c0.8-0.4,1.8-0.6,2.9-0.6
		c1.1,0,2.1,0.2,2.9,0.6c0.9,0.4,1.6,0.9,2.1,1.5c0.6,0.7,1,1.4,1.3,2.3c0.3,0.9,0.5,1.9,0.5,2.9v0.3c0,1.1-0.2,2-0.5,2.9
		c-0.3,0.9-0.7,1.7-1.3,2.3c-0.6,0.7-1.3,1.2-2.1,1.5c-0.8,0.4-1.8,0.6-2.9,0.6c-1.1,0-2.1-0.2-2.9-0.6c-0.8-0.4-1.6-0.9-2.1-1.5
		c-0.6-0.7-1-1.4-1.3-2.3c-0.3-0.9-0.5-1.9-0.5-2.9V102.6z M179.7,102.9c0,0.6,0.1,1.1,0.2,1.6c0.1,0.5,0.3,1,0.5,1.3
		c0.2,0.4,0.5,0.7,0.9,0.9s0.8,0.3,1.4,0.3c0.5,0,1-0.1,1.4-0.3c0.4-0.2,0.7-0.5,0.9-0.9s0.4-0.8,0.5-1.3c0.1-0.5,0.2-1.1,0.2-1.6
		v-0.3c0-0.6-0.1-1.1-0.2-1.6s-0.3-1-0.5-1.3s-0.5-0.7-0.9-0.9c-0.4-0.2-0.8-0.3-1.4-0.3c-0.5,0-1,0.1-1.4,0.3
		c-0.4,0.2-0.7,0.5-0.9,0.9c-0.2,0.4-0.4,0.8-0.5,1.3s-0.2,1-0.2,1.6V102.9z"/>
	<path class="st0" d="M195.4,95.6l0.1,1.7c0.5-0.6,1.1-1.1,1.8-1.4c0.7-0.3,1.5-0.5,2.3-0.5c0.7,0,1.3,0.1,1.9,0.3s1,0.5,1.4,0.9
		c0.4,0.4,0.7,1,0.9,1.7c0.2,0.7,0.3,1.6,0.3,2.6v9.1h-3.8v-9.2c0-0.5-0.1-0.8-0.2-1.1c-0.1-0.3-0.3-0.5-0.4-0.7
		c-0.2-0.2-0.4-0.3-0.7-0.4c-0.3-0.1-0.6-0.1-1-0.1c-0.6,0-1.1,0.1-1.5,0.4s-0.7,0.6-1,1v10.1h-3.8V95.6H195.4z"/>
	<path class="st0" d="M211.7,92v3.5h2.5v2.8h-2.5v7.2c0,0.3,0,0.5,0.1,0.7c0.1,0.2,0.2,0.3,0.3,0.5c0.1,0.1,0.3,0.2,0.5,0.2
		s0.4,0.1,0.6,0.1c0.2,0,0.4,0,0.6,0s0.4,0,0.5-0.1v2.9c-0.3,0.1-0.7,0.2-1,0.2s-0.8,0.1-1.3,0.1c-0.6,0-1.2-0.1-1.7-0.2
		c-0.5-0.2-0.9-0.4-1.3-0.7c-0.4-0.3-0.6-0.8-0.8-1.3c-0.2-0.5-0.3-1.2-0.3-2v-7.6h-2.1v-2.8h2.1V92H211.7z"/>
	<path class="st0" d="M220.1,97.1c0.5-0.6,1-1,1.7-1.3c0.6-0.3,1.4-0.5,2.2-0.5c0.7,0,1.4,0.1,1.9,0.3c0.6,0.2,1.1,0.5,1.5,1
		c0.4,0.4,0.7,1,1,1.7c0.2,0.7,0.3,1.6,0.3,2.6v9.1h-3.8v-9.1c0-0.5-0.1-0.8-0.2-1.2c-0.1-0.3-0.3-0.6-0.4-0.8
		c-0.2-0.2-0.4-0.3-0.7-0.4c-0.3-0.1-0.6-0.1-1-0.1c-0.6,0-1.1,0.1-1.5,0.4c-0.4,0.2-0.7,0.6-0.9,1v10.2h-3.8V89.5h3.8V97.1z"/>
	<path class="st0" d="M235.6,109.9h-3.9V89.5h3.9V109.9z"/>
	<path class="st0" d="M244.2,104.5l2.7-8.9h4.1l-5.8,16.5c-0.1,0.4-0.3,0.8-0.5,1.2c-0.2,0.4-0.5,0.8-0.8,1.2
		c-0.4,0.4-0.8,0.7-1.3,0.9c-0.5,0.2-1.2,0.4-1.9,0.4c-0.2,0-0.3,0-0.5,0c-0.1,0-0.3,0-0.4,0c-0.1,0-0.3,0-0.4-0.1
		c-0.1,0-0.3-0.1-0.4-0.1v-2.9c0.1,0,0.2,0,0.3,0c0.1,0,0.2,0,0.3,0c0.4,0,0.7,0,1-0.1c0.3-0.1,0.5-0.2,0.7-0.3
		c0.2-0.1,0.4-0.3,0.5-0.5c0.1-0.2,0.2-0.4,0.3-0.7l0.4-1.1l-5-14.4h4.1L244.2,104.5z"/>
</g>
<g class="st1">
	<path class="st0" d="M11.8,137.5c0-0.3,0-0.6-0.1-0.9c-0.1-0.3-0.3-0.5-0.6-0.8s-0.7-0.5-1.2-0.7c-0.5-0.2-1.1-0.5-1.9-0.7
		c-0.9-0.3-1.7-0.6-2.5-1c-0.8-0.4-1.5-0.8-2.1-1.3c-0.6-0.5-1.1-1-1.4-1.7c-0.3-0.6-0.5-1.4-0.5-2.2c0-0.8,0.2-1.5,0.5-2.2
		c0.4-0.7,0.8-1.2,1.5-1.7s1.4-0.8,2.3-1.1s1.8-0.4,2.9-0.4c1.1,0,2,0.1,2.9,0.4c0.9,0.3,1.6,0.7,2.2,1.2c0.6,0.5,1.1,1.2,1.4,1.9
		c0.3,0.7,0.5,1.5,0.5,2.4h-4c0-0.4-0.1-0.8-0.2-1.1s-0.3-0.6-0.6-0.9c-0.3-0.2-0.6-0.4-1-0.6c-0.4-0.1-0.9-0.2-1.4-0.2
		c-0.5,0-1,0.1-1.4,0.2c-0.4,0.1-0.7,0.3-1,0.5c-0.3,0.2-0.4,0.4-0.6,0.7c-0.1,0.3-0.2,0.6-0.2,0.9c0,0.6,0.3,1.2,1,1.6
		c0.7,0.4,1.6,0.8,2.9,1.2c1.1,0.3,2,0.7,2.8,1.1c0.8,0.4,1.5,0.9,2,1.4s0.9,1.1,1.2,1.7c0.3,0.6,0.4,1.3,0.4,2.1
		c0,0.9-0.2,1.6-0.5,2.3c-0.3,0.7-0.8,1.2-1.4,1.7c-0.6,0.5-1.3,0.8-2.2,1.1c-0.9,0.2-1.8,0.4-2.9,0.4c-0.6,0-1.3-0.1-1.9-0.2
		s-1.2-0.3-1.8-0.5s-1.1-0.5-1.6-0.9c-0.5-0.3-0.9-0.8-1.3-1.2c-0.4-0.5-0.7-1-0.9-1.6c-0.2-0.6-0.3-1.3-0.3-2h4
		c0,0.6,0.1,1.1,0.3,1.5c0.2,0.4,0.4,0.7,0.8,1c0.3,0.3,0.7,0.4,1.2,0.6s1,0.2,1.6,0.2c0.5,0,1-0.1,1.3-0.2c0.4-0.1,0.7-0.3,0.9-0.5
		c0.2-0.2,0.4-0.4,0.6-0.7S11.8,137.9,11.8,137.5z"/>
	<path class="st0" d="M21.8,128.2l0.1,1.6c0.5-0.6,1.1-1,1.7-1.4c0.7-0.3,1.5-0.5,2.4-0.5c0.9,0,1.6,0.2,2.3,0.5
		c0.7,0.3,1.2,0.9,1.5,1.7c0.5-0.7,1.1-1.2,1.8-1.6c0.7-0.4,1.6-0.6,2.5-0.6c0.7,0,1.3,0.1,1.9,0.3s1.1,0.5,1.5,0.9
		c0.4,0.4,0.7,1,0.9,1.7c0.2,0.7,0.3,1.5,0.3,2.6v9.2H35v-9.2c0-0.5-0.1-0.9-0.2-1.2c-0.1-0.3-0.2-0.6-0.4-0.7
		c-0.2-0.2-0.4-0.3-0.7-0.4c-0.3-0.1-0.6-0.1-0.9-0.1c-0.6,0-1.1,0.1-1.5,0.4s-0.7,0.7-0.9,1.2c0,0,0,0.1,0,0.1c0,0.1,0,0.1,0,0.1
		v9.6h-3.8v-9.1c0-0.5,0-0.9-0.1-1.2c-0.1-0.3-0.2-0.6-0.4-0.7c-0.2-0.2-0.4-0.3-0.7-0.4c-0.3-0.1-0.6-0.1-0.9-0.1
		c-0.6,0-1,0.1-1.4,0.4s-0.7,0.6-0.9,1v10.2h-3.8v-14.4H21.8z"/>
	<path class="st0" d="M50.1,142.6c-0.2-0.3-0.3-0.8-0.4-1.3c-0.4,0.4-0.9,0.8-1.5,1.1c-0.6,0.3-1.3,0.5-2.2,0.5
		c-0.7,0-1.3-0.1-1.9-0.3c-0.6-0.2-1.1-0.5-1.6-0.9c-0.4-0.4-0.8-0.8-1-1.4s-0.4-1.1-0.4-1.7c0-0.8,0.1-1.4,0.4-2
		c0.3-0.6,0.7-1.1,1.3-1.5c0.6-0.4,1.3-0.7,2.1-0.9c0.8-0.2,1.8-0.3,2.9-0.3h1.7V133c0-0.7-0.2-1.2-0.5-1.6
		c-0.3-0.4-0.9-0.6-1.6-0.6c-0.6,0-1.2,0.2-1.5,0.5c-0.4,0.3-0.6,0.7-0.6,1.3h-3.8c0-0.6,0.1-1.2,0.4-1.8c0.3-0.6,0.7-1,1.2-1.5
		s1.2-0.7,1.9-1c0.8-0.2,1.6-0.4,2.5-0.4c0.8,0,1.6,0.1,2.3,0.3c0.7,0.2,1.3,0.5,1.8,1c0.5,0.4,0.9,0.9,1.2,1.6s0.4,1.4,0.4,2.2v6.1
		c0,0.4,0,0.8,0,1.1c0,0.3,0.1,0.6,0.1,0.9c0,0.3,0.1,0.5,0.2,0.7c0.1,0.2,0.2,0.4,0.3,0.6v0.2H50.1z M46.9,139.9
		c0.3,0,0.6,0,0.9-0.1s0.5-0.2,0.8-0.3c0.2-0.1,0.4-0.3,0.6-0.4c0.2-0.2,0.3-0.3,0.4-0.5v-2.5H48c-0.5,0-0.9,0.1-1.3,0.2
		c-0.4,0.1-0.7,0.3-0.9,0.5s-0.4,0.4-0.5,0.7s-0.2,0.6-0.2,0.9c0,0.5,0.2,0.9,0.5,1.2S46.4,139.9,46.9,139.9z"/>
</g>
<g class="st1">
	<path class="st0" d="M64.5,131.8c-0.2,0-0.4-0.1-0.7-0.1c-0.3,0-0.5,0-0.7,0c-0.8,0-1.4,0.1-1.8,0.4c-0.5,0.3-0.8,0.6-1,1.1v9.4
		h-3.8v-14.4H60l0.1,1.7c0.4-0.6,0.8-1.1,1.3-1.5c0.5-0.3,1.2-0.5,1.9-0.5c0.2,0,0.4,0,0.6,0.1s0.4,0.1,0.6,0.1L64.5,131.8z"/>
</g>
<g class="st1">
	<path class="st0" d="M71.6,124.7v3.5h2.5v2.8h-2.5v7.2c0,0.3,0,0.5,0.1,0.7c0.1,0.2,0.2,0.3,0.3,0.5c0.1,0.1,0.3,0.2,0.5,0.2
		s0.4,0.1,0.6,0.1c0.2,0,0.4,0,0.6,0c0.2,0,0.4,0,0.5-0.1v2.9c-0.3,0.1-0.7,0.2-1,0.2c-0.4,0.1-0.8,0.1-1.3,0.1
		c-0.6,0-1.2-0.1-1.7-0.2c-0.5-0.2-0.9-0.4-1.3-0.7c-0.4-0.3-0.6-0.8-0.8-1.3c-0.2-0.5-0.3-1.2-0.3-2v-7.6h-2.1v-2.8h2.1v-3.5H71.6z
		"/>
</g>
<g class="st1">
	<path class="st0" d="M91,126.5h-5.9v16.1h-4v-16.1h-5.9v-3.2H91V126.5z"/>
</g>
<g class="st1">
	<path class="st0" d="M100.3,131.8c-0.2,0-0.4-0.1-0.7-0.1c-0.3,0-0.5,0-0.7,0c-0.8,0-1.4,0.1-1.8,0.4c-0.5,0.3-0.8,0.6-1,1.1v9.4
		h-3.8v-14.4h3.6l0.1,1.7c0.4-0.6,0.8-1.1,1.3-1.5c0.5-0.3,1.2-0.5,1.9-0.5c0.2,0,0.4,0,0.6,0.1s0.4,0.1,0.6,0.1L100.3,131.8z"/>
</g>
<g class="st1">
	<path class="st0" d="M110.1,142.6c-0.2-0.3-0.3-0.8-0.4-1.3c-0.4,0.4-0.9,0.8-1.5,1.1c-0.6,0.3-1.3,0.5-2.2,0.5
		c-0.7,0-1.3-0.1-1.9-0.3c-0.6-0.2-1.1-0.5-1.6-0.9c-0.4-0.4-0.8-0.8-1-1.4s-0.4-1.1-0.4-1.7c0-0.8,0.1-1.4,0.4-2
		c0.3-0.6,0.7-1.1,1.3-1.5c0.6-0.4,1.3-0.7,2.1-0.9c0.8-0.2,1.8-0.3,2.9-0.3h1.7V133c0-0.7-0.2-1.2-0.5-1.6
		c-0.3-0.4-0.9-0.6-1.6-0.6c-0.6,0-1.2,0.2-1.5,0.5c-0.4,0.3-0.6,0.7-0.6,1.3h-3.8c0-0.6,0.1-1.2,0.4-1.8c0.3-0.6,0.7-1,1.2-1.5
		s1.2-0.7,1.9-1c0.8-0.2,1.6-0.4,2.5-0.4c0.8,0,1.6,0.1,2.3,0.3c0.7,0.2,1.3,0.5,1.8,1c0.5,0.4,0.9,0.9,1.2,1.6s0.4,1.4,0.4,2.2v6.1
		c0,0.4,0,0.8,0,1.1c0,0.3,0.1,0.6,0.1,0.9c0,0.3,0.1,0.5,0.2,0.7c0.1,0.2,0.2,0.4,0.3,0.6v0.2H110.1z M106.9,139.9
		c0.3,0,0.6,0,0.9-0.1s0.5-0.2,0.8-0.3c0.2-0.1,0.4-0.3,0.6-0.4c0.2-0.2,0.3-0.3,0.4-0.5v-2.5h-1.6c-0.5,0-0.9,0.1-1.3,0.2
		c-0.4,0.1-0.7,0.3-0.9,0.5s-0.4,0.4-0.5,0.7s-0.2,0.6-0.2,0.9c0,0.5,0.2,0.9,0.5,1.2S106.3,139.9,106.9,139.9z"/>
	<path class="st0" d="M119.9,128.2l0.1,1.7c0.5-0.6,1.1-1.1,1.8-1.4c0.7-0.3,1.5-0.5,2.3-0.5c0.7,0,1.3,0.1,1.9,0.3
		c0.6,0.2,1,0.5,1.4,0.9s0.7,1,0.9,1.7c0.2,0.7,0.3,1.6,0.3,2.6v9.1h-3.8v-9.2c0-0.5-0.1-0.8-0.2-1.1c-0.1-0.3-0.3-0.5-0.4-0.7
		c-0.2-0.2-0.4-0.3-0.7-0.4c-0.3-0.1-0.6-0.1-1-0.1c-0.6,0-1.1,0.1-1.5,0.4s-0.7,0.6-1,1v10.1h-3.8v-14.4H119.9z"/>
	<path class="st0" d="M139.4,138.6c0-0.2,0-0.4-0.1-0.6c-0.1-0.2-0.2-0.3-0.5-0.5s-0.5-0.3-0.9-0.4c-0.4-0.1-0.9-0.3-1.5-0.4
		c-0.7-0.2-1.4-0.4-2-0.6c-0.6-0.2-1.2-0.5-1.6-0.9c-0.5-0.4-0.8-0.8-1.1-1.2c-0.3-0.5-0.4-1-0.4-1.6c0-0.6,0.1-1.2,0.4-1.7
		c0.3-0.5,0.6-1,1.1-1.4c0.5-0.4,1.1-0.7,1.8-1s1.5-0.4,2.4-0.4c0.9,0,1.8,0.1,2.5,0.3c0.7,0.2,1.4,0.6,1.9,1s0.9,0.9,1.2,1.5
		s0.4,1.2,0.4,1.9h-3.8c0-0.5-0.2-1-0.5-1.4c-0.4-0.4-0.9-0.5-1.7-0.5c-0.6,0-1.1,0.1-1.5,0.4c-0.4,0.3-0.5,0.7-0.5,1.1
		c0,0.2,0,0.4,0.1,0.6c0.1,0.2,0.2,0.3,0.5,0.5c0.2,0.1,0.5,0.3,0.8,0.4c0.3,0.1,0.8,0.2,1.3,0.3c0.8,0.2,1.5,0.3,2.2,0.6
		c0.7,0.2,1.2,0.5,1.7,0.9c0.5,0.4,0.9,0.8,1.1,1.3c0.3,0.5,0.4,1.1,0.4,1.8c0,0.6-0.1,1.2-0.4,1.8c-0.3,0.5-0.7,1-1.2,1.4
		c-0.5,0.4-1.2,0.7-1.9,0.9c-0.7,0.2-1.6,0.3-2.5,0.3c-1,0-1.9-0.1-2.7-0.4c-0.8-0.3-1.4-0.7-1.9-1.1s-0.9-1-1.2-1.6
		s-0.4-1.2-0.4-1.7h3.6c0,0.4,0.1,0.7,0.2,1s0.3,0.5,0.6,0.7c0.2,0.2,0.5,0.3,0.8,0.4c0.3,0.1,0.6,0.1,1,0.1c0.7,0,1.3-0.1,1.7-0.4
		S139.4,139.1,139.4,138.6z"/>
</g>
<g class="st1">
	<path class="st0" d="M156.7,138.6h-7l-1.3,4h-4.2l7.2-19.4h3.7l7.2,19.4h-4.2L156.7,138.6z M150.8,135.4h4.8l-2.4-7.2L150.8,135.4z
		"/>
</g>
<g class="st1">
	<path class="st0" d="M179.1,136.2c-0.1,1-0.3,1.9-0.7,2.7c-0.4,0.8-0.9,1.5-1.5,2.1s-1.5,1-2.4,1.4c-0.9,0.3-2,0.5-3.2,0.5
		c-1.2,0-2.4-0.2-3.3-0.6c-1-0.4-1.8-1-2.5-1.9c-0.7-0.8-1.2-1.8-1.6-2.9c-0.4-1.1-0.6-2.4-0.6-3.9v-1.3c0-1.4,0.2-2.7,0.6-3.9
		c0.4-1.2,0.9-2.1,1.6-2.9c0.7-0.8,1.5-1.4,2.5-1.9c1-0.4,2.1-0.7,3.3-0.7c1.2,0,2.3,0.2,3.2,0.5c0.9,0.3,1.7,0.8,2.4,1.4
		c0.6,0.6,1.2,1.3,1.5,2.2c0.4,0.8,0.6,1.7,0.7,2.7h-4c0-0.6-0.1-1.1-0.3-1.5c-0.2-0.4-0.4-0.8-0.7-1.1c-0.3-0.3-0.7-0.5-1.1-0.7
		s-1-0.2-1.7-0.2c-1.3,0-2.4,0.5-3,1.5s-1,2.5-1,4.6v1.3c0,1,0.1,1.9,0.2,2.6c0.1,0.8,0.4,1.4,0.7,1.9c0.3,0.5,0.7,0.9,1.2,1.1
		c0.5,0.3,1.1,0.4,1.8,0.4c0.6,0,1.2-0.1,1.6-0.2c0.5-0.1,0.8-0.4,1.1-0.6c0.3-0.3,0.5-0.6,0.7-1.1c0.2-0.4,0.3-0.9,0.3-1.5H179.1z"
		/>
</g>
<g class="st1">
	<path class="st0" d="M195.9,126.5h-5.9v16.1h-4v-16.1h-5.9v-3.2h15.8V126.5z"/>
	<path class="st0" d="M202.4,142.6h-4v-19.4h4V142.6z"/>
	<path class="st0" d="M222,133.4c0,1.5-0.2,2.8-0.6,4c-0.4,1.2-1,2.2-1.7,3c-0.7,0.8-1.6,1.4-2.6,1.9c-1,0.4-2.1,0.7-3.3,0.7
		c-1.2,0-2.3-0.2-3.3-0.7c-1-0.4-1.9-1.1-2.6-1.9s-1.3-1.8-1.7-3c-0.4-1.2-0.6-2.5-0.6-4v-0.9c0-1.5,0.2-2.8,0.6-4
		c0.4-1.2,1-2.2,1.7-3c0.7-0.8,1.6-1.5,2.6-1.9s2.1-0.7,3.3-0.7c1.2,0,2.3,0.2,3.3,0.7s1.9,1.1,2.6,1.9s1.3,1.8,1.7,3
		c0.4,1.2,0.6,2.5,0.6,4V133.4z M217.9,132.5c0-2-0.4-3.6-1.1-4.6s-1.8-1.6-3.1-1.6c-1.3,0-2.4,0.5-3.1,1.6
		c-0.7,1.1-1.1,2.6-1.1,4.6v0.9c0,1,0.1,1.9,0.3,2.7s0.5,1.4,0.8,2c0.4,0.5,0.8,0.9,1.3,1.2c0.5,0.3,1.1,0.4,1.8,0.4
		c1.3,0,2.4-0.5,3.1-1.6s1.1-2.6,1.1-4.6V132.5z"/>
	<path class="st0" d="M240.6,142.6h-4l-7.8-12.7v12.7h-4v-19.4h4l7.8,12.8v-12.8h4V142.6z"/>
	<path class="st0" d="M254.1,137.5c0-0.3,0-0.6-0.1-0.9c-0.1-0.3-0.3-0.5-0.6-0.8s-0.7-0.5-1.2-0.7s-1.1-0.5-1.9-0.7
		c-0.9-0.3-1.7-0.6-2.5-1s-1.5-0.8-2.1-1.3c-0.6-0.5-1.1-1-1.4-1.7c-0.3-0.6-0.5-1.4-0.5-2.2c0-0.8,0.2-1.5,0.5-2.2
		c0.3-0.7,0.8-1.2,1.5-1.7s1.4-0.8,2.3-1.1s1.8-0.4,2.9-0.4c1.1,0,2,0.1,2.9,0.4c0.9,0.3,1.6,0.7,2.2,1.2c0.6,0.5,1.1,1.2,1.4,1.9
		c0.3,0.7,0.5,1.5,0.5,2.4h-4c0-0.4-0.1-0.8-0.2-1.1c-0.1-0.3-0.3-0.6-0.6-0.9c-0.3-0.2-0.6-0.4-1-0.6c-0.4-0.1-0.9-0.2-1.4-0.2
		c-0.5,0-1,0.1-1.4,0.2c-0.4,0.1-0.7,0.3-1,0.5c-0.3,0.2-0.4,0.4-0.6,0.7c-0.1,0.3-0.2,0.6-0.2,0.9c0,0.6,0.3,1.2,1,1.6
		s1.6,0.8,2.9,1.2c1.1,0.3,2,0.7,2.8,1.1c0.8,0.4,1.5,0.9,2,1.4s0.9,1.1,1.2,1.7c0.3,0.6,0.4,1.3,0.4,2.1c0,0.9-0.2,1.6-0.5,2.3
		c-0.3,0.7-0.8,1.2-1.4,1.7c-0.6,0.5-1.3,0.8-2.2,1.1c-0.9,0.2-1.8,0.4-2.9,0.4c-0.6,0-1.3-0.1-1.9-0.2c-0.6-0.1-1.2-0.3-1.8-0.5
		c-0.6-0.2-1.1-0.5-1.6-0.9c-0.5-0.3-0.9-0.8-1.3-1.2c-0.4-0.5-0.7-1-0.9-1.6c-0.2-0.6-0.3-1.3-0.3-2h4c0,0.6,0.1,1.1,0.3,1.5
		c0.2,0.4,0.4,0.7,0.8,1c0.3,0.3,0.7,0.4,1.2,0.6s1,0.2,1.6,0.2c0.5,0,1-0.1,1.3-0.2c0.4-0.1,0.7-0.3,0.9-0.5
		c0.2-0.2,0.4-0.4,0.6-0.7C254.1,138.1,254.1,137.9,254.1,137.5z"/>
</g>
</svg>
