<svg id="Layer_1" xmlns="http://www.w3.org/2000/svg" viewBox="0 0 1920 589.8"><style>.st0{fill:#46868A;} .st1{fill:#67493F;} .st2{fill:#BD765B;} .st3{fill:#A66850;} .st4{fill:#C69E7D;} .st5{fill:#AC8A6B;} .st6{fill:#905B44;} .st7{fill:#BA9674;} .st8{fill:#A86A51;} .st9{fill:#C8A07C;} .st10{fill:#AD907E;} .st11{fill:#58595B;} .st12{fill:#231F20;} .st13{opacity:0.5;fill:#231F20;} .st14{fill:#DB4140;} .st15{fill:#B53433;} .st16{fill:#FFD773;} .st17{fill:#D1B260;} .st18{opacity:0.35;} .st19{fill:none;stroke:#231F20;stroke-width:8;stroke-miterlimit:10;} .st20{fill:#4F2F22;} .st21{fill:#FFFFFF;} .st22{font-family:&amp;apos;Times-Roman&amp;apos;;} .st23{font-size:22.3928px;} .st24{letter-spacing:2;} .st25{font-size:16.7946px;} .st26{letter-spacing:1;} .st27{fill:#3B4248;} .st28{fill:#929497;} .st29{fill:#E6E7E8;} .st30{fill:#FCC79B;} .st31{fill:#BA94C4;} .st32{fill:#2D2D32;} .st33{fill:#88639C;} .st34{fill:#2E2E2B;} .st35{fill:#467F83;} .st36{fill:#569EA4;} .st37{fill:#FFC719;} .st38{fill:#FFC0AD;} .st39{fill:none;} .st40{fill:#A3CF65;} .st41{fill:#709E40;} .st42{fill:#522915;} .st43{fill:none;stroke:#709E40;stroke-width:2;stroke-miterlimit:10;} .st44{fill:#FFAA2F;} .st45{fill:#2E2E2B;stroke:#2E2E2B;} .st46{fill:#452D00;} .st47{fill:#532F2B;} .st48{fill:none;stroke:#D1D3D4;stroke-width:2;stroke-miterlimit:10;} .st49{fill:#035D80;} .st50{fill:#0790C4;} .st51{fill:#D1D3D4;} .st52{fill:none;stroke:#2E2E2B;stroke-width:3;stroke-miterlimit:10;} .st53{fill:#78B0B6;} .st54{fill:#FBC331;} .st55{fill:#36686B;} .st56{fill:#F97D31;} .st57{fill:none;stroke:#E67092;stroke-width:2;stroke-miterlimit:10;} .st58{fill:#DA3565;} .st59{fill:#E67092;} .st60{fill:#E6795B;} .st61{fill:#BE654B;}</style><path class="st0" d="M0 589.8h1920s1.2-375.7 0-376c0 0-85.6 16.5-85.8 16.5-.5 0-84.4-13.9-85.8-14.3l-247.3 80.8c-.5-.2-126.1-24-126.1-24-.1 0-3.7 2.2-9 5.4-15.1 9-43.9 26.1-43.9 26.1-.1 0-116.8-59.6-116.9-59.6 0 0-295.8 107.8-441.5 160.9-61.2-22.4-222-81.2-222.7-81.4 0 0-63.8 11.3-63.9 11.3-.3 0-57.7-9.5-58.7-9.8L249.1 381c-.3-.1-86.3-16.4-86.3-16.4s-2.5 1.5-6.2 3.7c-10.4 6.2-30.1 17.9-30 17.9C126.7 386 0 350.6 0 350.6v239.2z"/><path class="st1" d="M720.8 97.6l17.4-17.7V47.5H335.6v32.4l17.5 17.5z"/><path class="st2" d="M289 99.8h64v433.8h-64zM720.8 99.8h64v433.8h-64z"/><path class="st3" d="M353 496.1h367.8v37.5H353z"/><path class="st4" d="M720.8 60L536.9 22 353 60v169h367.8z"/><path class="st5" d="M965.2 175.5h53.7v103.9h-53.7z"/><path class="st6" d="M965.2 279.4h53.7v254.1h-53.7z"/><path class="st7" d="M784.9 135.6h180.3v103.9H784.9z"/><path class="st8" d="M784.9 239.5h180.3v294H784.9z"/><path class="st7" d="M108.7 135.6H289v103.9H108.7z"/><path class="st8" d="M108.7 239.5H289v294H108.7z"/><path class="st9" d="M820.2 484.492h-35.4v-9.4h35.4z"/><path class="st10" d="M965.125 484.492h-34.5v-9.4h34.5z"/><path class="st9" d="M288.946 484.492h-35.4v-9.4h35.4zM143.122 484.492h-34.5v-9.4h34.5zM930.7 505.385H820.3v-9.4h110.4z"/><path class="st11" d="M824.2 320.6h102.4V492H824.2z"/><path class="st12" d="M922.7 324.6V488h-94.4V324.6h94.4m8-8H820.2V496h110.4V316.6h.1z"/><path class="st11" d="M147.2 328.9h102.4v200.6H147.2z"/><path class="st12" d="M245.6 332.9v192.6h-94.4V332.9h94.4m8-8H143.2v208.6h110.4V324.9z"/><path class="st13" d="M819.8 493.7h110.4V292H817.6l-15 61.8v61.5h17.2zM141 292l-15.1 61.8v61.5h17.3v118.2h110.4V292z"/><path class="st14" d="M820.7 292h24.5v77.8h-24.5z"/><path class="st15" d="M820.7 353.8h24.5v16.1h-24.5z"/><path class="st14" d="M848.7 292h24.5v77.8h-24.5z"/><path class="st15" d="M848.7 353.8h24.5v16.1h-24.5z"/><path class="st14" d="M876.8 292h24.5v77.8h-24.5z"/><path class="st15" d="M876.8 353.8h24.5v16.1h-24.5z"/><path class="st14" d="M904.8 292h24.5v77.8h-24.5z"/><path class="st15" d="M904.8 353.8h24.5v16.1h-24.5z"/><path class="st16" d="M817.2 292h3.5v61.7h-3.5z"/><path class="st17" d="M817.2 353.8h3.5v16.1h-3.5z"/><path class="st16" d="M845.2 292h3.5v61.7h-3.5z"/><path class="st17" d="M845.2 353.8v16.1h.1c0-.6.6-1.3 1.7-1.3s1.7.6 1.7 1.3h.1v-16.1h-3.6z"/><path class="st16" d="M873.3 292h3.5v61.7h-3.5z"/><path class="st17" d="M873.3 353.8v16.1h.1c0-.6.6-1.3 1.7-1.3s1.7.6 1.7 1.3h.1v-16.1h-3.6z"/><path class="st16" d="M901.3 292h3.5v61.7h-3.5z"/><path class="st17" d="M901.3 353.8v16.1h.1c0-.6.6-1.3 1.7-1.3s1.7.6 1.7 1.3h.1v-16.1h-3.6z"/><path class="st16" d="M929.3 292h3.5v61.7h-3.5z"/><path class="st17" d="M929.3 353.8h3.5v16.1h-3.5z"/><path class="st14" d="M144.5 292H169v77.8h-24.5z"/><path class="st15" d="M144.5 353.8H169v16.1h-24.5z"/><path class="st14" d="M172.5 292H197v77.8h-24.5z"/><path class="st15" d="M172.5 353.8H197v16.1h-24.5z"/><path class="st14" d="M200.6 292h24.5v77.8h-24.5z"/><path class="st15" d="M200.6 353.8h24.5v16.1h-24.5z"/><path class="st14" d="M228.6 292h24.5v77.8h-24.5z"/><path class="st15" d="M228.6 353.8h24.5v16.1h-24.5z"/><path class="st16" d="M141 292h3.5v61.7H141z"/><path class="st17" d="M141 353.8h3.5v16.1H141z"/><path class="st16" d="M169 292h3.5v61.7H169z"/><path class="st17" d="M169 353.8v16.1h.1c0-.6.6-1.3 1.7-1.3s1.7.6 1.7 1.3h.1v-16.1H169z"/><path class="st16" d="M197.1 292h3.5v61.7h-3.5z"/><path class="st17" d="M197.1 353.8v16.1h.1c0-.6.6-1.3 1.7-1.3s1.7.6 1.7 1.3h.1v-16.1h-3.6z"/><path class="st16" d="M225.1 292h3.5v61.7h-3.5z"/><path class="st17" d="M225.1 353.8v16.1h.1c0-.6.6-1.3 1.7-1.3s1.7.6 1.7 1.3h.1v-16.1h-3.6z"/><path class="st16" d="M253.1 292h3.5v61.7h-3.5z"/><path class="st17" d="M253.1 353.8h3.5v16.1h-3.5z"/><path class="st11" d="M357 233h359.9v259.1H357z"/><path class="st12" d="M712.9 237v251.1H361V237h351.9m8-8H353v267.1h367.9V229z"/><path class="st18 st12" d="M714.7 233.7H359.3v258z"/><path class="st19" d="M354.9 309.8H719M354.9 415.3H719M626.4 231.4v262.2M447.5 233.7v257.9"/><ellipse class="st12" cx="227.4" cy="445.8" rx="6.2" ry="5.6"/><path class="st9" d="M353 496.1h367.9v9.4H353zM352.964 479.827h-64v-9.4h64zM784.883 479.827h-64v-9.4h64z"/><path class="st14" d="M666.5 125.5c-1.9 0-3.5 1.5-3.5 3.5 0 1.9 1.6 3.5 3.5 3.5s3.5-1.6 3.5-3.5c0-2-1.6-3.5-3.5-3.5zm0 6.2c-1.5 0-2.8-1.2-2.8-2.8 0-1.5 1.3-2.8 2.8-2.8 1.5 0 2.8 1.2 2.8 2.8 0 1.6-1.2 2.8-2.8 2.8z"/><path class="st14" d="M666.9 128.7c-.1.1-.3.1-.6.1h-.4v-1h.2c.3 0 .4 0 .6.1.2.1.3.2.3.4.1.2 0 .3-.1.4zm-1 .8h.4c.2 0 .3 0 .3.1.1 0 .2.1.3.3 0 .1.1.2.1.4s0 .4.1.5h1v-.1-.1-.4c0-.4-.1-.6-.3-.8-.1-.1-.3-.2-.5-.2.3 0 .5-.1.7-.2.2-.1.3-.4.3-.7 0-.4-.2-.7-.5-.9-.2-.1-.5-.2-.8-.2H665.1v3.6h1v-1.3zM440.4 107.9c-.1 3.5-4.4 7.8-6.4 4.5-1.1-2.5 1.7-7.2 4.3-7.2 2.1 0 2.1 1.9 2.1 2.7zm34.1-33.7c-3.2-4.3-10.2-4.6-17.3.6-7.1 5.3-11.1 13.7-7.9 18.1 3.2 4.3 12.5 2.9 19.6-2.3 7.1-5.2 8.8-12 5.6-16.4zm-30.6-11c-4.2-.9-8.6 2.5-10 9.3-1.5 6.8.6 13.9 4.8 14.8 4.2.9 9.1-4.7 10.5-11.5 1.5-6.7-1-11.6-5.3-12.6zm-24.2 6.4c-3.2 1.5-4.3 5.8-2 10.9 2.3 5.1 7.1 8.7 10.3 7.3 3.2-1.5 3.6-7.5 1.2-12.6-2.3-5.1-6.3-7.1-9.5-5.6zm-11.8 13.7c-1.6 1.9-1.1 5 1.8 7.6 3 2.5 7.1 3.4 8.7 1.4 1.6-1.9.2-5.9-2.8-8.4-2.9-2.5-6-2.5-7.7-.6zm75.2 50c-2 0-3.6 1.6-3.6 3.6s1.6 3.6 3.6 3.6 3.6-1.6 3.6-3.6-1.6-3.6-3.6-3.6zm65 18.1c4.4 0 6.1-1.7 6.1-3.5 0-2.3-2.7-3.3-6.1-3.3-3.4 0-5.9 1.3-5.9 3.3 0 1.7 1.5 3.5 5.9 3.5zm83 0c4.4 0 6.1-1.7 6.1-3.5 0-2.2-2.7-3.3-6.1-3.3-3.4 0-5.9 1.3-5.9 3.3 0 1.7 1.5 3.5 5.9 3.5zm-38.5-21.5c-1.9 0-3.4 1.5-3.4 3.4s1.5 3.4 3.4 3.4 3.4-1.5 3.4-3.4-1.5-3.4-3.4-3.4zm31.6 28.9c-.6 2.3-3.6 8.9-11.3 9h-.2c-3.6.1-7-1.7-9.6-4.8-3.6 2.3-7.1 3.4-9.6 3-5.4-.8-7-5.1-7.5-7.9-3.1 3.7-7.2 5.4-11.2 5.8 1.4 2.8 2.1 6.1 2.1 9.1 0 4.8-2.8 9.6-7.8 9.6-7 0-11.2-9.8-11.7-19.4-1.2.4-3.2.8-4.1-1.1-1.1-2.3 1.6-4.4 4-5.7.4-19 8.7-32.5 17.8-32.5 3 0 6.7 1.8 6.7 7.4 0 5.8-3.4 13.2-9 19.9-.8.9-2.5 2.7-4.5 4.5 7.9 5.6 12.7-.4 14.6-4.1.5-1 .9-2 1.2-2.8 1.1-3.2.8-2.4 1.9-5.6 1.5-4.5 3.9-4.3 5-4.1 3.9.7 1.6 5 .6 8.8v.1c-1.5 6.5-.8 11.7 3.3 12.5 1.3.2 3.5-.6 5.8-2.2-5.4-13.9 2.8-30.3 11.3-31.9 2.8-.5 6.5.5 7.5 5.5 1 5.3-1 12.6-5 19.5-.9 1.6-3.6 5.1-6.7 7.8v.1c2.4 3.1 5.4 3 5.4 3 4.5 0 5.8-3.4 6.3-4.8.6-1.6 1.9-2.2 3.3-1.7 1.5.4 1.7 1.9 1.4 3zm48.6 12.9c-4.8-.2-9.7-3.7-14.1-8.7-7.8 1.8-15.7 2.1-21.3 2.1-4.6 4.7-9 8.7-12.1 10.9 0 0-4.2 3.2-6.3.5-1.2-1.8-.6-3.8 2.7-5.9 2.1-1.3 4.7-3.4 7.5-6-4.8-1.3-3.6-6.2 1.1-5.6.3 0 1.9.3 4.2.4 4.6-4.8 9.3-10.3 12.9-15.3-1.7-4.4-2.7-8.6-2.7-11.9 0-4.3 2.5-9.2 7.5-9.2 4.9 0 7.4 4.1 7.4 8.2 0 3.6-2.2 8.4-5.5 13.6 1.9 4.1 4.4 8.3 7.1 11.9 3-1 5.9-2.2 8.7-3.9 3.7-2.2 6.9 2.1 3 4.8-2.4 1.5-5 2.7-7.7 3.6 2.9 2.8 5.9 4.6 8.8 4.9 5 .3 5.2 6.1-1.2 5.6zm-207.9-56.8c0-2.5-6.8-7.1-11.6-7.6.1 1.3 0 2.7 0 4.1-.2 3.4-.7 6.8-1.5 10.1 8.8-6 13.1-4.3 13.1-6.6zm77.8 44.5c-2.9.2-3.5 6.5-9.3 6.8-3.9.2-5.7-4.4-5.7-4.4s11.1-4.9 11-15.3c-.2-3-1.8-7.8-7.6-7.8-2.5 0-5.4 1.6-7 3.3.6-2.8 1.1-6.5 1.4-11.4.2-3.2-2.2-3.5-3.1-3.5-.7 0-2.7.5-3 3.4-.9 9.7-1 11.2-1.9 17.3-1.5 11.4-9.9 15.3-15.3 15-2.3-.1-5.9-1.3-5.9-7.3 0-6.4 4.3-11.2 6.5-10.9 1.6.2 2.4 1.8 1 4.1-1.1 1.9-2.3 4.5.6 5.6 3.5 1.1 6.1-3.7 6.2-8.2 0-3.5-2.3-7.6-8-7.9-6-.3-13.1 7.5-13.1 17.9 0 .9.1 1.7.2 2.5-.4 2.4-2.5 4.8-4.6 4.8-2.3 0-4.2-3.2-4-7.4.3-4.2 1.6-7.1 2.2-8.8 1.2-3.5-.2-4.2-1.9-4.5-1.3-.2-3.4.1-4.5 3.6-1 3.2-2.3 7.5-3.4 10.7-.7 2-1.6 4.2-2.8 5.8-1 1.1-2.1 1.8-3.2 1.8-3.7 0-.6-7.1-.6-12 0-1.4-1.1-3.9-4.8-3.2 4.1-5.8 6.1-10.7 6-15.8-.2-5.6-4.4-7.2-7.5-7.1-8.4.2-12.7 9.3-14.3 30.7-7.5 7.1-16.7 11.4-25.4 10.7-12.4-1-18.7-13.1-17.9-27.6 1.2-20.3 17.3-44.8 32.6-43.3 5.4.5 9.1 5.3 8.5 15.5-.7 11.9-9.3 29.2-18.3 28.7-4.2-.2-5.5-4.5-5.2-8.3.7-8.2 4.9-10.4 5.1-13.8.2-2-1.8-2.8-3.3-2.3-2.5.8-7.6 7-8.2 15.9-.7 10.8 6.4 14.2 10.7 14.5 12.6.7 24.8-16.8 25.9-35.2.7-11.9-4.5-19.6-14.4-20.7-19.2-2.1-39.3 23-40.3 49.2-.6 15.7 7 32.1 24.7 33.4 8.5.5 17.3-2.8 25.1-8.7v3.4c.1 2.2.9 4.1 3.3 4 2.3-.1 2.9-1.7 2.9-3.7v-3.4c.5-9.6 5.3-10.9 7.2-10.6 2.7.6.5 3 .8 9.8.2 4.9 4.2 6.2 6.1 6.2 4.4 0 8.2-3.2 10.4-7.8l.1-.1c1.9 4.8 5.2 6.5 7.8 6.5 3.1 0 6-2.2 7.8-4.7 2.5 3.1 6.1 4.5 8.9 4.6 5.5.3 10.2-2.3 13.8-5.6-.4 2.7-.9 6.2-.9 6.8 0 1.6.7 2.7 2.3 2.9 2.6.3 4.5-1.4 5.3-9.9 0 0 3.6 8.3 11.7 8.3s11.6-7.7 11.6-10.1c-.1-.9-.4-2.5-2.3-2.4zm20.9-6.7c7.2-6.7 12.8-16.4 12.7-21.5 0-1-.2-1.9-1.2-1.9-2.2.1-9.5 7.2-11.5 23.4zm5.6 10.7c-2.5-.8-4.6-2.1-5.8-3.5-.1.1-.2.1-.3.2 0 .1 0 .2-.1.3-.1 8.7 3.1 16.8 6.6 16.4 3.8-.5 2-8-.4-13.4zm36.4-9.1c6.3-7 9.6-17.4 8.8-21.7-.2-.9-.5-1.6-1.5-1.5-2.9.5-9.8 13.1-7.3 23.2zm45.7-16.5c1.5-2.6 2.4-4.9 2.5-6.6.1-1-.1-2.7-1.5-2.7-2.6 0-2.6 4-1 9.3zm3.6 20.4c-1.8-2.5-3.4-5.2-4.8-7.9-2.3 3.1-4.9 6.3-7.6 9.3 3.8-.1 8.1-.5 12.4-1.4zm-196.6-12.7c-1.5 2.1-3.3 4.4-5.5 7 .1-1 .2-2 .4-3 1.8-13.7 4.5-18.3 8-17.7 1.1.2 1.6 1.4 1.6 2.3.1 2.9-1.2 6.6-4.5 11.4zm71.7-1.1c2.3 0 2.8 2.2 2.7 3.4-.5 5-7.7 9.1-9.5 9.3 1-10.4 4.2-12.6 6.8-12.7z"/><path class="st13" d="M353 75.9l183.9-42 183.9 42v21.7L536.9 60.5 353 97.6z"/><path class="st20" d="M108.7 147.7l-8-7.9v-5.5H289v13.4zM965.2 147.7l7.9-7.9v-5.5H784.9v13.4zM784.9 108l5.6-5.6s2.3-4.8 0-4.8h-69.7V108h64.1zM289 108l-5.6-5.6s-2.3-4.8 0-4.8h69.7V108H289z"/><path class="st5" d="M536.9 1.5l-201.3 46v32.4l201.3-46 201.3 46V47.5z"/><path class="st12" d="M407.1 226h259.6v25H407.1z"/><path class="st13" d="M666.7 250l-3.6 12.8H401.9v-27h-13.1v-26.7l6.8-17.4 271.1 34.9z"/><path class="st14" d="M395.6 191.7h282.7V229H395.6z"/><text transform="translate(444.806 218.604)" class="st21 st22 st23 st24">THE ORIGINAL</text><text transform="translate(438.806 244.293)" class="st21 st22 st25 st26">CHICKEN SANDWICH</text><path class="st13" d="M217.8 203l1.6-6v-25.3h-42l-4.1 10V203z"/><path class="st27" d="M177.4 171.7h42V197h-42z"/><path class="st13" d="M894.5 206.2l1.5-6v-25.3h-42l-4.1 9.9v21.4z"/><path class="st27" d="M854 174.9h42v25.3h-42z"/><path class="st13" d="M766.8 190.7L765 197h-30.4v-29.7l4.2-14.6h28z"/><path class="st27" d="M766.814 152.732v38h-28v-38z"/><path class="st13" d="M335 190.7l-1.8 6.4h-30.5v-29.8l4.3-14.6h28z"/><path class="st27" d="M334.955 152.69v38h-28v-38z"/><path class="st8" d="M108.7 147.7H289v11.9H108.7zM784.9 147.7h180.3v11.9H784.9z"/><path class="st13" d="M738.2 90.3l-17.3 84.6-.1-84.6zM330 99.8l-19.8 209.5v224.2H353V99.8z"/><path class="st28" d="M0 532.9h1920v56.8H0z"/><path class="st29" d="M705.9 377.6c.1-.4.3-.7.5-1.1.8-1.8 2.8-3.7 5.5-4.8 2.6-1.2 5.7-1.4 8.7.2 2 0 4.1.7 5.9 2.2 1.6 1.4 4 4 4 9.5s-5.1 10.2-6.3 11.3c-.1-.9-.3-3-.8-3.8-.3-.5-.7-1-1.1-1.4.6-.1 1.5-.6 1.3-2.9-.2-3.3-2.9-1.1-2.9-1.1-.1 0-.6 1.8-.7 1.8-.5 0-1.1-2.2-1.1-2.2l-4.7-6.1c-.7 0-3.9.1-5.4 1-1.7 1-1.7 3.3-1.7 3.3.1.7.2 1.4.2 2.1 0 3.5-1.3 5-1.1 5.4.3.4 2 .7 2 .7s-.1 1.3-.4 1.9c-.3.6.8.9.8.9s-.6 1.3.2 1.5c0 0 0 .7.1 1.5-1 .5-1.9.8-1.9.8s-1.2-2.9-2-10.4c-.2-2.6-.6-6.4.9-10.3z"/><path class="st30" d="M708.6 394.6s-1.1-.3-.8-.9c.3-.6.4-1.9.4-1.9s-1.7-.3-2-.7c-.3-.4 1-2 1.1-5.4 0-.6-.1-1.3-.2-2.1 0 0 0-2.2 1.7-3.3 1.5-.9 4.7-1 5.4-1l4.7 6.1s.5 2.3 1.1 2.2c.1 0 .7-1.9.7-1.8 0 0 2.7-2.2 2.9 1.1.2 2.3-.8 2.8-1.3 2.9.4.4.8.9 1.1 1.4.5.8.7 2.9.8 3.8-.1.1-.2.2-.3.4-3.2 4 .8 9.2.8 9.2l-9.7 3.5s3.1-11.3-.3-10.2c-4 1.3-5.6 1-5.7.1v-.3c-.1-.8-.1-1.5-.1-1.5-.9-.4-.3-1.6-.3-1.6zM700.7 471.8c1.5-2.4 3-6.9 4.3-9.8.2-.4.3-.7.5-1l-.1.9 4.4-1.2c.3 6.2-2.8 9.4-3.1 8.9-.3-.6 1.1-4 1.1-4-.4 1.4-3.5 5-4.7 6.2-1.7 1.3-3.4 1.5-2.4 0z"/><path class="st31" d="M705.4 460.9l7-42.7.7-2.2 8.6 1-11.4 43.4-.7.2-4.4 1.2z"/><path class="st32" d="M693.3 543.9c3.1 1 4.5-3 5.1-5.8l6.6.9-.2 10.7-2 .1-.3-6.6s-2 6.1-3.6 6.4c-1.6.3-7.1-1.5-8.9-2.5-1.7-1.2.6-4.1 3.3-3.2zM739.8 545.6l-1.7.9-3.2-5.8s.9 6.4-.4 7.3c-1.3.9-7.1 1.8-9.1 1.7-2-.1-1.2-3.8 1.6-4.2 3.8-.6 2.4-6.4 1.6-8.9l6.3-1.7 4.9 10.7z"/><path class="st11" d="M722.9 470.9c1.4-.9 2.6-1.8 3.7-2.7-2.5 5.3-.6 27.3-.6 27.3l9.2 39.4-.4.1-6.3 1.7-.2.1s-9.3-30.5-10.8-38.8c-.5-2.6-1.4-7.2-2.4-12.3 2.4-6.3 5.5-13.3 7.8-14.8z"/><path class="st28" d="M698.1 538s2.9-34.4 4.6-42.6c1.5-7.2 6.1-30.7 6.9-33.5.4-1.4.7-2.7.9-4 10.3 3.5 19.8-1.7 19.8-1.7v-.2c1.1 5.5-.4 9.1-3.8 12.2-1.1.9-2.3 1.8-3.7 2.7-2.3 1.5-5.4 8.5-7.7 14.8-2.1 5.6-3.7 10.6-3.7 10.6l-6.4 42.6h-.1l-6.6-.9h-.2z"/><path class="st33" d="M710.6 457.8c-.2-.1-.4-.1-.6-.2-.4-2.2 0-13.5.4-24.2.3-6.3-1.3-5.5-2.4-8.6-2.1-6.5 7-16.8 7-16.8s7.3-4.9 8.9-4.7c2.8.3 6.5 1.7 5.2 18.3-.8 9.3 1.1 26.8 1.4 34.4v.2c-.1 0-9.6 5.2-19.9 1.6z"/><path class="st30" d="M593.4 464.3c.3.1.6.2 1 .3.1 1.2.2 2.4.4 3.7.1.6.4 2.1.8 4.2-.5 2.8-1.1 6.2-1.7 9.6-1.6-.7-2.1-6.2-1.5-11.8.2-1.9.5-6.2 1-11.4-.1 3-.1 5 0 5.4z"/><path class="st34" d="M619.9 541.1c.5.6 1.1 1.6 1.5 3.2.9 3.5 1.1 3.5-.5 4.3-1.6.8-4.7 1.7-9.1 2.2-4 .5-8.6.9-10.9-.1-.8-.3-.8-1.4-.5-2.6.3-1.2 5.6-1.1 7.6-2.3 1.1-.6 2.3-1.7 3.2-2.6 0 .1 0 .2.1.3l8.6-2.4zM576.4 544c.5-1.2 5.7-.4 7.8-1.3 1.4-.6 3.4-2.5 4.6-3.6l8.2.6c.3.7.5 1.6.7 3 .5 3.5.7 3.5-1 4.1-1.7.6-4.9 1.1-9.3 1.2-4.1 0-8.7 0-10.8-1.3-.8-.5-.7-1.5-.2-2.7z"/><path class="st35" d="M588.2 539s.9-31.2 2.5-39.6c.6-3.4 1.9-10.5 3.1-17.3.6-3.4 1.2-6.8 1.7-9.6 1.5 7.4 4.7 21.9 5.9 28.3l-4.2 38.9h-.3l-8.2-.6-.5-.1z"/><path class="st36" d="M595.5 472.5c-.4-2.1-.7-3.6-.8-4.2-.2-1.2-.3-2.5-.4-3.7 9.2 2.9 19-.3 21.8-1.3-.3 2.3-1 5.1-2.7 8.1-1 1.8-.2 27.9-.2 27.9l6.7 41.7-8.7 2.5c0-.1 0-.2-.1-.3-6.8-25.3-7.6-31.6-9.6-41.7-.1-.3-.1-.6-.2-.9-1.1-6.2-4.3-20.7-5.8-28.1z"/><path class="st30" d="M600.3 409.9c.1-1.3.1-3.1.2-4.5.1-1.1.4-1.5.4-2.4 0-1.6-.3-2.7-1.1-2.5-4.3 1.2-6.5.5-6.6-.4-.1-.9.1-2.1.1-2.1-.9-.6.1-1.3.1-1.3s-1.1-.6-.7-1.2c.4-.6.3-1.6.3-1.6s-2 .8-2.4-.2c-.2-.5.9-3 1.5-6 .4-1.9-.4-4.4.5-6.6.9-.1 2.1-.3 3.1-.4 2.6-.1 6 .8 6.3 3.2.6 4.3 3 4.8 4.1 5.6 0 0 1-1.9 2.6-1.2 1.8.8-.3 5.5-.3 5.5l2.4 4.3c-.5 2.8.1 6.9.4 9.1-.5.2-10.9 2.7-10.9 2.7z"/><path class="st37" d="M611.5 407.2c-.1 0-.2-.1-.3-.1.1.1.2.1.3.1zM599.6 411.2c-.1.3-.3.5-.4.8.2-.3.3-.5.4-.8z"/><path class="st28" d="M594.3 464.6c-.3-.1-.6-.2-1-.3-.1-.4-.1-2.4-.1-5.4.1-5.7.4-14.8 1.2-22.7.9-8.1 1.4-16.5 4.6-23.9-.1.2-.2.5-.3.7 1.8-.8 3.6-1.4 5.2-2 2.5-1 5-2.1 7.6-3v-.1c.1-.2.1-.5.2-.7-.1 0-.2-.1-.3-.1.8.2 1.7.7 2.4 1.9-.5-.3-.9-.4-1.5-.4-12.5.3-2.7 24.4-2.7 24.4l.4-.2 5.3 15.5s.6 4.5 1.5 10.3c0 1.6 0 3.1.1 4.2 0 0-.3.1-.8.3-2.8 1.2-12.6 4.4-21.8 1.5z"/><path class="st11" d="M611.6 408s0 .1 0 0c-2.6 1-5.2 2.1-7.7 3.1-1.6.6-3.4 1.2-5.2 2 .1-.2.2-.5.3-.7 0-.1.1-.2.1-.3.1-.3.2-.6.4-.8.2-.4.4-.9.6-1.3l10.9-2.7c.1 0 .2.1.3.1.1 0 .2.1.3.1.2.1.1.3 0 .5z"/><path class="st34" d="M608.3 393.8s2-4.7.3-5.5c-1.5-.7-2.6 1.2-2.6 1.2-1.1-.9-3.5-1.3-4.1-5.6-.3-2.4-3.7-3.3-6.3-3.2-1 0-2.2.3-3.1.4-1.5.1-2.1-.3 1.2-3.3 5.2-4.8 14.3-3 18.1-.2 3.7 2.8 3.4 9.3 2.6 12.9-.8 3.5-3.6 7.5-3.6 7.6l-2.5-4.3z"/><path class="st38" d="M629.3 491.4h0zM626.7 491.1c.1 0 .1 0 .2.1-.1-.1-.1-.1-.2-.1zM630.4 490.6s0-.1 0 0c0-.1 0 0 0 0zM626.3 490.9c.1 0 .1.1.2.1-.1-.1-.1-.1-.2-.1zM629.8 491.3c0-.1 0-.1 0 0 0-.1 0-.1 0 0zM628.8 491.5h0zM629.1 491.5h.1-.1zM627 491.2c.1 0 .1 0 .2.1 0 0-.1-.1-.2-.1zM627.4 491.3h.1c0 .1-.1.1-.1 0zM627.7 491.4h.1c0 .1 0 .1-.1 0zM630.2 490.9zM630.3 490.8c0-.1 0-.1 0 0 0-.1 0-.1 0 0zM629.6 491.4s0-.1 0 0c0-.1 0 0 0 0zM628.1 491.5c.1 0 .1 0 0 0 .1 0 .1 0 0 0zM630 491.1zM628.5 490.8h0zM625.1 490l.1.1s0-.1-.1-.1zM630.5 489.9zM630.5 490.2c0-.1 0-.1 0 0 0-.1 0-.1 0 0zM630.5 490.4c0-.1 0-.1 0 0 0-.1 0-.1 0 0zM624 488.8l.2.2-.2-.2zM624.7 489.6l.2.2c0-.1-.1-.1-.2-.2zM624.4 489.2l.2.2c-.1-.1-.2-.1-.2-.2zM623.4 487.8c0 .1.1.1.1.2-.1-.1-.1-.1-.1-.2zM626 490.7l.1.1c0-.1-.1-.1-.1-.1zM625.5 490.3l.1.1-.1-.1zM623.7 488.3l.2.2c-.1 0-.2-.1-.2-.2z"/><path class="st30" d="M610.2 432.9l10.7-4.1c.6 2.8 2.5 12.4 3 14.1.5 2.1 2.6 37.8 2.6 37.8v-.2c-.6-.2-1.2-.4-1.8-.7-.4.2-.9.3-1.4.4-.1.3-.2.7-.3 1 0 .2-.2 1.4-.2 1.8v2.3c0 .7.1 1.3.1 2-.5-.8-.9-1.8-1.3-2.9-1.7-5.3-3.6-17-4.9-25.6-.9-5.9-1.5-10.3-1.5-10.3l-5-15.6z"/><path class="st30" d="M622.9 485.3c0-.8-.1-1.5 0-2.3 0-.4.2-1.6.2-1.8.1-.3.2-.7.3-1 .5-.1.9-.2 1.4-.4.6.3 1.2.6 1.8.7v.2s3.1 6 3.9 8.9V490.6s0 .1-.1.1v.1l-.1.1v.1c0 .1-.1.1-.2.2-.1 0-.1.1-.2.1h-.1s-.1 0-.1.1h-.1s-.1 0-.1.1h-.1-.1H629l-.1-.4c-.1 0-.1-.4-.2-.4h-.1c-.1 0-.2.4-.3.4l-.1.2c-.1 0-.2.1-.3.1H627.6h-.1c-.1 0-.1 0-.2-.1-.1 0-.1 0-.2-.1-.1 0-.1-.1-.2-.1s-.1 0-.2-.1c-.1 0-.1-.1-.2-.1s-.1-.1-.2-.1-.1-.1-.2-.1l-.1-.1c-.1-.1-.2-.1-.3-.2l-.1-.1c-.1-.1-.2-.1-.3-.2l-.1-.1-.2-.2-.2-.2-.2-.2-.2-.2c-.1-.1-.1-.2-.2-.2l-.2-.2c-.1-.1-.1-.2-.2-.3l-.2-.2c-.1-.1-.1-.2-.2-.3 0-.1-.1-.1-.1-.2-.1-.2-.2-.3-.3-.5 0-.7 0-1.4-.1-2z"/><path class="st11" d="M610.2 432.9l-.4.2s-9.7-24.1 2.7-24.4c.5 0 1 .1 1.5.4 3.5 2 5.5 11.1 7.4 19.5l-.4.1-10.8 4.2z"/><path class="st39" d="M655.2 543.5c-.6.6-1.4 1.3-2.2 1.7-1 .6-3.4.7-4.5 1.1l.1-26.2s.1-.2.2-.7c.1.4.2.8.3 1.3 1.4 6.7 4.9 15 6.1 22.8z"/><path class="st30" d="M644.7 498.5c-.2.6-.5 3.1-1 6.1-1.3 0-1.4-3.9-.7-8 .6.2 1.3.3 2 .4l-.3 1.5zM649.1 454.6c0-1.3-.2-2.2-.8-2.1-3.6.8-5.3-.2-5.4-.9-.1-.8.2-1.4.2-1.4-.7-.6.1-1 .1-1s-.8-.6-.5-1 .3-1.3.3-1.3-1.5-.2-1.8-1c-.2-.4 1-1.1 1.7-3.5.5-1.8-.5-4.8 1-6.7.6.3 1.3.6 2 .6 2.1.1 4.8.9 5 2.9.3 3.5 2.2 4 3.1 4.8 0 0 .9-1.5 2.1-.9 1.4.7-.5 4.5-.5 4.5l1 3c-.4 1.2-.4 2.9-.1 4.5l-7.6 2.3c.1-1.3.2-2.4.2-2.8z"/><path class="st11" d="M656.1 443c-1.2-.6-2.1.9-2.1.9-.9-.7-2.8-1.2-3.1-4.8-.2-2-2.8-2.8-5-2.9-.7 0-1.4-.3-2-.6-2.2-1.3-3.3-4.1 1.1-3.3 5.7 1 11-.5 13.9 1.9 2.9 2.5 2.6 7.9 1.8 10.7-.9 2.9-4.1 5.6-4.1 5.6v-.1l-1-3c0 .1 1.9-3.7.5-4.4z"/><path class="st34" d="M648.2 546.5h-.2v-.1c1-.4 3.8-.5 4.8-1.1.7-.4 1.7-1.2 2.3-1.7 0 .1.1.1.1.2l5.9-1.5v-.2c.4.4.8 1.1 1.1 2.2.6 2.3.8 2.3-.3 2.9-1.1.5-3.2 1.1-6.2 1.5-2.4.3-5 .5-6.7.2 0-.2-.2-.4-.2-.6-.2-.8-.5-1.4-.6-1.8z"/><path class="st34" d="M648.5 546.5c.1.4.3 1 .4 1.7 0 .2.1.4.1.6.3 1.8.3 1.8-.7 2.2-1.1.4-3.3.8-6.3.8-2.7 0-5.9 0-7.3-.9-.5-.3-.4-1-.1-1.8.3-.8 3.9-.2 5.3-.9.8-.4 2-1.4 2.8-2.1l5.8.4z"/><path class="st35" d="M655.2 543.7v-.2c-1.2-7.9-4.7-16.2-6.1-22.8-.1-.4-.2-.8-.3-1.3.7-2.2 2.9-9.6 5.3-13.3 0-.1-.2-.1-.1-.2.8-.9 1.5-1.7 2.1-2.5-.5 3.4-.8 13.8-.8 13.8l5.8 24.6v.2l-5.9 1.7z"/><path class="st36" d="M645 497.1c5.6 1 12.1.4 14.8 0-.2 1.7-1.4 3.6-3.7 6.5-.6.7-1.3 1.6-2.1 2.5 0 .1.1.1.1.2-2.3 3.7-4.6 11-5.3 13.3-.1.4-.5.7-.5.7l-.4 26.2v.1h.2l-5.8-.4s-2.1-21.6-1.1-26.6c.6-2.8 1.6-9.7 2.3-14.9.4-3 .8-5.5 1-6.1.3-.6.4-1.1.5-1.5z"/><path class="st40" d="M652.2 489.1c1.2-2.1 3-10.7 3.8-14.8l1 .2c1.4-6.1 2.1-13.8-.5-15-7.3-3.3-8.3 13.4-8.3 13.4l1.7.3-2.9 11h-.4c-.7 0-1.8 0-3.2-.1.3-2.2.6-4.5.8-6.6.6-5.2.7-12.1 2.9-17.2 1.2-.5 2.7-1 3.7-1.4 1.6-.6 6.2-1.7 6.7-1.8 1.7 1.2 3.5 4.1 3.7 11.2.2 6.5-.2 23.5 0 28.6 0 0-.5.1-1.3.2-2.7.3-9.2 1-14.8 0-.7-.1-1.4-.3-2-.4-.5-.1-.9-.3-1.4-.4-.1-.4.3-2.8.8-6 4.7.2 9 .1 9.7-1.2z"/><path class="st41" d="M650.7 458.9c-1 .4-2.5.9-3.7 1.4 0 0-.1 0-.1.1.3-.7 1-2.3 1.3-3l.6-.2 7.6-2.3.6-.2.4 2.2c-.5.3-5.1 1.4-6.7 2z"/><path class="st30" d="M624 482.2c2.4-1.2 4.1.6 4.7 1.6 0 0 9.1.2 14.5.3 1.3 0 2.5 0 3.2.1h.4l2.9-11 6.2 1.1c-.8 4.1-2.6 12.7-3.8 14.8-.7 1.3-5 1.4-9.8 1.1-5.6-.4-11.8-1.5-13.5-1.9 0 0-4.5 1.6-6.2-.8-1.6-2.4-.9-4.1 1.4-5.3z"/><path class="st41" d="M656.4 459.5c2.6 1.2 1.9 8.8.5 15l-1-.2-6.2-1.1-1.7-.3c.1 0 1.1-16.7 8.4-13.4z"/><path class="st30" d="M314 413.2c3.5-3.3 4.4-11.5 4.4-11.5s1.9.4 1.7-2.7c-.2-3.1-2.7-1-2.7-1-.1 0-.1-.1-.2-.1-3.4.2-7.2-5.6-8.4-7.7-1.4-.1-3.3.2-4.1 2.2 0 0-.5 1.5-.3 2.9.1.9.3 1.8.3 2.5 0 3.3-1.3 4.8-1 5.2.2.4 1.9.7 1.9.7s-.1 1.3-.4 1.8c-.3.5.8.9.8.9s-.5 1.2.2 1.4c0 0 0 .8.1 1.7.1.9 1.6.5 5.5-.7 3.3-1.1.3 9 .3 9h8.1s-1.2-3-1.1-6.6c-1.5.3-3 .9-4.6 1.6-.4 0-.4.4-.5.4z"/><path class="st34" d="M322.7 386.8c-1.6-1.6-3.9-2.3-6.1-2.3-5.9-2.6-12.3 1.9-13.1 5.2-1 3.8.9 6.1.9 6.1 0-.2-.1-.4-.1-.6-.1-1.5.3-2.9.3-2.9.8-1.9 2.6-2.3 4.1-2.2 1.2 2.1 5.1 7.9 8.4 7.7.1 0 .1.1.2.1 0 0 2.5-2.1 2.7 1 .2 3.1-1.7 2.7-1.7 2.7s-.8 8.2-4.4 11.5c.1 0 .2-.1.3-.1 1.6-.7 3.1-1.1 4.6-1.3 2.2-.4 4.5-.7 6.9-1.6 0-1.2.6-4.2.8-5.1.7-3.6 2.6-12-3.8-18.2z"/><path class="st30" d="M302.3 470.5c-1.2 2.8-2.6 7.1-4 9.3-.9 1.5.7 1.3 2.1-.1 1.2-1.1 4.1-4.6 4.5-5.9 0 0-1.3 3.3-1 3.8.2.5 3.3-2.6 2.9-8.7l-3.6-.4c-.3.5-.6 1.2-.9 2z"/><path class="st42" d="M318.3 427.7l-8.3-1-.6.2-6.8 41.6h.5l3.6.4.7.1z"/><path class="st43" d="M304.5 475.7s.3-45.4 7.5-56.3"/><path class="st11" d="M300.4 487.6l24.8 1.2v-22.9l-24.8-1.2z"/><path class="st44" d="M307.2 467c.1.3.1.6.2.9.1-.3.1-.5.2-.8-.2-.1-.3-.1-.4-.1z"/><path class="st33" d="M322.3 502.4s-1.9-20.9.5-26c-1 .9-2.2 1.8-3.5 2.6-2.2 1.4-5.1 8.1-7.3 14.1.9 4.8 1.8 9.2 2.2 11.7 1.5 7.9 10.3 36.9 10.3 36.9l6.5-1.7-8.7-37.6z"/><path class="st31" d="M319.4 479c1.3-.8 2.5-1.7 3.5-2.6 3.3-2.9 4.7-6.4 3.6-11.6v.2s-9.7 4-19 2.1c-.1.3-.1.5-.2.8-.2.8-.4 1.7-.6 2.6-.7 2.7-5.1 25-6.5 31.9-1.6 7.8-4.4 40.5-4.4 40.5l6.7.9 6-40.5s1.5-4.8 3.5-10.1c2.3-6.1 5.2-12.8 7.4-14.2z"/><path class="st40" d="M326.5 465v-.2c-.2-7.2-2-23.9-1.3-32.8 1.3-15.9-2.2-16.5-4.9-16.8-2.7-.3-12.7 4.2-14.6 12.6-.7 3.1 1.3 8.7 1 14.6-.4 10.2-2.7 21.5-2.3 23.6.9.3 1.8.6 2.7.8.1 0 .2 0 .3.1 9.4 2.1 19.1-1.9 19.1-1.9z"/><path class="st34" d="M296.7 542.5s-1.5 3.3-4.6 4.5c-3.1 1.2-6 1-6.4 3.1 0 0 4.3 2.7 17.3 1v-7.6l-6.3-1zM325.1 541.3s-.7 2.9-3.3 4.8c-2.6 1.9-5.8 2.5-5.7 4.5 0 0 7 2.4 16.1-3l-1.5-7.7-5.6 1.4z"/><path class="st41" d="M320.2 413.2l.6 2.1-12.2 7.2 1.4-4.4z"/><path class="st45" d="M292.1 436.9c.2 0 .5.3.5.6 0 .4-.1.7-.3.7-.2 0-.4-.3-.5-.6-.1-.4 0-.7.3-.7zm-2.6-12l2.3-.3v.3l-2.3.3v-.3zm-.9-.5c-.3 0-.4.4-.4.8l1.5 12.6c.1.4.3.8.6.7l3.9-.5c.3 0 .4-.4.4-.8l-1.5-12.6c-.1-.4-.3-.8-.6-.7l-3.9.5z"/><path class="st45" d="M292.1 436.9c.2 0 .5.3.5.6 0 .4-.1.7-.3.7-.2 0-.4-.3-.5-.6-.1-.4 0-.7.3-.7zm-2.6-12l2.3-.3v.3l-2.3.3v-.3zm-.9-.5c-.3 0-.4.4-.4.8l1.5 12.6c.1.4.3.8.6.7l3.9-.5c.3 0 .4-.4.4-.8l-1.5-12.6c-.1-.4-.3-.8-.6-.7l-3.9.5z"/><path class="st41" d="M321.8 452.4c2.6-19 2.5-32.5 1.3-35.1-1.3-2.8-4.9-.2-6.1 2.3-3.7 7.5-1.8 28.5-1.4 32.9h6.2z"/><path class="st30" d="M295.2 430.5c-1.4-1.3-2-.4-2-.4s-4.9-3.2-5.9-2.3c-1.3 1-.2 3.5 2.2 5.9 2.4 2.3 4.5 3.5 5.6 4.1l2.9-3.6c-.6-1-1.7-2.8-2.8-3.7z"/><path class="st41" d="M320.2 448.8l-22-15-.2.2-2.9 3.6-.1.1c8.6 6.3 14.4 11.6 22.3 16.3.2.1.4.2.6.4l2.3-5.6z"/><path class="st46" d="M450.9 379.5c.1-.4.3-.7.5-1.1.8-1.8 2.8-3.7 5.5-4.8 2.6-1.2 5.7-1.4 8.7.2 2 0 4.1.7 5.9 2.2 1.6 1.4 4 4 4 9.5s-5.1 10.2-6.3 11.3c-.1-.9-.3-3-.8-3.8-.3-.5-.7-1-1.1-1.4.6-.1 1.5-.6 1.3-2.9-.2-3.3-2.9-1.1-2.9-1.1-.1 0-.6 1.8-.7 1.8-.5 0-1.1-2.2-1.1-2.2l-4.7-6.1c-.7 0-3.9.1-5.4 1-1.7 1-1.7 3.3-1.7 3.3.1.7.2 1.4.2 2.1 0 3.5-1.3 5-1.1 5.4.3.4 2 .7 2 .7s-.1 1.3-.4 1.9c-.3.6.8.9.8.9s-.6 1.3.2 1.5c0 0 0 .7.1 1.5-1 .5-1.9.8-1.9.8s-1.2-2.9-2-10.4c-.2-2.5-.6-6.3.9-10.3z"/><path class="st30" d="M453.6 396.5s-1.1-.3-.8-.9c.3-.6.4-1.9.4-1.9s-1.7-.3-2-.7c-.3-.4 1-2 1.1-5.4 0-.6-.1-1.3-.2-2.1 0 0 0-2.2 1.7-3.3 1.5-.9 4.7-1 5.4-1l4.7 6.1s.5 2.3 1.1 2.2c.1 0 .7-1.9.7-1.8 0 0 2.7-2.2 2.9 1.1.2 2.3-.8 2.8-1.3 2.9.4.4.8.9 1.1 1.4.5.8.7 2.9.8 3.8-.1.1-.2.2-.3.4-3.2 4 .8 9.2.8 9.2L460 410s3.1-11.3-.3-10.2c-4 1.3-5.6 1-5.7.1v-.3c-.1-.8-.1-1.5-.1-1.5-.9-.3-.3-1.6-.3-1.6zM445.7 473.7c1.5-2.4 3-6.9 4.3-9.8.2-.4.3-.7.5-1l-.1.9 4.4-1.2c.3 6.2-2.8 9.4-3.1 8.9-.3-.6 1.1-4 1.1-4-.4 1.4-3.5 5-4.7 6.2-1.7 1.4-3.4 1.6-2.4 0z"/><path class="st32" d="M450.4 462.9l7-42.8.7-2.1 8.6 1-11.4 43.4-.7.2-4.4 1.2zM438.3 545.8c3.1 1 4.5-3 5.1-5.8l6.6.9-.2 10.7-2 .1-.3-6.6s-2 6.1-3.6 6.4c-1.6.3-7.1-1.5-8.9-2.5-1.7-1.1.6-4 3.3-3.2zM484.8 547.6l-1.7.9-3.2-5.8s.9 6.4-.4 7.3c-1.3.9-7.1 1.8-9.1 1.7-2-.1-1.2-3.8 1.6-4.2 3.8-.6 2.4-6.4 1.6-8.9l6.3-1.7 4.9 10.7z"/><path class="st35" d="M467.9 472.9c1.4-.9 2.6-1.8 3.7-2.7-2.5 5.3-.6 27.3-.6 27.3l9.2 39.4-.4.1-6.3 1.7-.2.1s-9.3-30.5-10.8-38.8c-.5-2.6-1.4-7.2-2.4-12.3 2.4-6.3 5.5-13.4 7.8-14.8z"/><path class="st36" d="M443.1 540s2.9-34.4 4.6-42.6c1.5-7.2 6.1-30.7 6.9-33.5.4-1.4.7-2.7.9-4 10.3 3.5 19.8-1.7 19.8-1.7v-.2c1.1 5.5-.4 9.1-3.8 12.2-1.1.9-2.3 1.8-3.7 2.7-2.3 1.5-5.4 8.5-7.7 14.8-2.1 5.6-3.7 10.6-3.7 10.6l-6.4 42.6h-.1l-6.6-.9h-.2z"/><path class="st28" d="M455.6 459.8c-.2-.1-.4-.1-.6-.2-.4-2.2 0-13.5.4-24.2.3-6.3-1.3-5.5-2.4-8.6-2.1-6.5 7-16.8 7-16.8s7.3-4.9 8.9-4.7c2.8.3 6.5 1.7 5.2 18.3-.8 9.3 1.1 26.8 1.4 34.4v.2c-.1-.1-9.6 5.1-19.9 1.6z"/><path class="st32" d="M470.4 445.2c2.8-20.1 3.2-33.2 1.8-35.9-2.2-4.2-6.3-2.8-7.6-.2-4 8.1-1.2 32.1-.7 36.1h6.5z"/><path class="st21" d="M433.4 440.6c.3 0 .7.2.7.6 0 .4-.2.7-.6.7-.3 0-.7-.2-.7-.6.1-.3.3-.6.6-.7zm-3-11l3.4-.4v.3l-3.4.4v-.3zm-1.3-.4c-.4 0-.7.4-.6.8l1.4 11.7c0 .4.4.7.8.6l5.9-.7c.4 0 .7-.4.6-.8l-1.4-11.7c0-.4-.4-.7-.8-.6l-5.9.7z"/><path class="st21" d="M429.1 429.2c-.4 0-.7.4-.6.8l1.4 11.7c0 .4.4.7.8.6l5.9-.7c.4 0 .7-.4.6-.8l-1.4-11.7c0-.4-.4-.7-.8-.6l-5.9.7z"/><path class="st30" d="M435.2 432.9c1.4.5 3.2 1.7 4.1 2.4l-1.4 4.7c-1.2-.1-3.8-.4-7.1-1.7-3.3-1.3-5.3-3.3-4.5-4.8.7-1.2 6.7-.1 6.7-.1s.3-1.2 2.2-.5z"/><path class="st32" d="M466.6 440.7l-27.2-5.7-.1.3-1.4 4.7-.1.2c10.9 2.7 18.7 5.5 28.2 6.9.2 0 .4.1.5.1v-6.5z"/><path class="st30" d="M806.4 486.3c.3.1.6.2 1 .3.1 1.2.2 2.4.4 3.7.1.6.4 2.1.8 4.2-.5 2.8-1.1 6.2-1.7 9.6-1.6-.7-2.1-6.2-1.5-11.8.2-1.9.5-6.2 1-11.4-.1 3-.1 5 0 5.4z"/><path class="st34" d="M832.9 563.1c.5.6 1.1 1.6 1.5 3.2.9 3.5 1.1 3.5-.5 4.3-1.6.8-4.7 1.7-9.1 2.2-4 .5-8.6.9-10.9-.1-.8-.3-.8-1.4-.5-2.6.3-1.2 5.6-1.1 7.6-2.3 1.1-.6 2.3-1.7 3.2-2.6 0 .1 0 .2.1.3l8.6-2.4zM789.4 566c.5-1.2 5.7-.4 7.8-1.3 1.4-.6 3.4-2.5 4.6-3.6l8.2.6c.3.7.5 1.6.7 3 .5 3.5.7 3.5-1 4.1-1.7.6-4.9 1.1-9.3 1.2-4.1 0-8.7 0-10.8-1.3-.8-.5-.7-1.5-.2-2.7z"/><path class="st11" d="M801.2 561s.9-31.2 2.5-39.6c.6-3.4 1.9-10.5 3.1-17.3.6-3.4 1.2-6.8 1.7-9.6 1.5 7.4 4.7 21.9 5.9 28.3l-4.2 38.9h-.3l-8.2-.6-.5-.1z"/><path class="st28" d="M808.5 494.5c-.4-2.1-.7-3.6-.8-4.2-.2-1.2-.3-2.5-.4-3.7 9.2 2.9 19-.3 21.8-1.3-.3 2.3-1 5.1-2.7 8.1-1 1.8-.2 27.9-.2 27.9l6.7 41.7-8.7 2.5c0-.1 0-.2-.1-.3-6.8-25.3-7.6-31.6-9.6-41.7-.1-.3-.1-.6-.2-.9-1.1-6.2-4.3-20.7-5.8-28.1z"/><path class="st30" d="M813.3 431.9c.1-1.3.1-3.1.2-4.5.1-1.1.4-1.5.4-2.4 0-1.6-.3-2.7-1.1-2.5-4.3 1.2-6.5.5-6.6-.4-.1-.9.1-2.1.1-2.1-.9-.6.1-1.3.1-1.3s-1.1-.6-.7-1.2c.4-.6.3-1.6.3-1.6s-2 .8-2.4-.2c-.2-.5.9-3 1.5-6 .4-1.9-.4-4.4.5-6.6.9-.1 2.1-.3 3.1-.4 2.6-.1 6 .8 6.3 3.2.6 4.3 3 4.8 4.1 5.6 0 0 1-1.9 2.6-1.2 1.8.8-.3 5.5-.3 5.5l2.4 4.3c-.5 2.8.1 6.9.4 9.1-.5.2-10.9 2.7-10.9 2.7z"/><path class="st37" d="M824.5 429.2c-.1 0-.2-.1-.3-.1.1.1.2.1.3.1zM812.6 433.2c-.1.3-.3.5-.4.8.2-.3.3-.5.4-.8z"/><path class="st14" d="M807.3 486.6c-.3-.1-.6-.2-1-.3-.1-.4-.1-2.4-.1-5.4.1-5.7.4-14.8 1.2-22.7.9-8.1 1.4-16.5 4.6-23.9-.1.2-.2.5-.3.7 1.8-.8 3.6-1.4 5.2-2 2.5-1 5-2.1 7.6-3v-.1c.1-.2.1-.5.2-.7-.1 0-.2-.1-.3-.1.8.2 1.7.7 2.4 1.9-.2-.1 2.3 11.1 3 23 .7 11.6-.5 23.8 0 26.7 0 1.6 0 3.1.1 4.2 0 0-.3.1-.8.3-2.8 1.1-12.6 4.3-21.8 1.4z"/><path class="st15" d="M824.6 430s0 .1 0 0c-2.6 1-5.2 2.1-7.7 3.1-1.6.6-3.4 1.2-5.2 2 .1-.2.2-.5.3-.7 0-.1.1-.2.1-.3.1-.3.2-.6.4-.8.2-.4.4-.9.6-1.3l10.9-2.7c.1 0 .2.1.3.1.1 0 .2.1.3.1.2.1.1.3 0 .5z"/><path class="st47" d="M821.3 415.8s2-4.7.3-5.5c-1.5-.7-2.6 1.2-2.6 1.2-1.1-.9-3.5-1.3-4.1-5.6-.3-2.4-3.7-3.3-6.3-3.2-1 0-2.2.3-3.1.4-1.5.1-2.1-.3 1.2-3.3 5.2-4.8 14.3-3 18.1-.2 3.7 2.8 3.4 9.3 2.6 12.9-.8 3.5-3.6 7.5-3.6 7.6l-2.5-4.3z"/><path class="st38" d="M842.3 513.4h0zM839.7 513.1c.1 0 .1 0 .2.1-.1-.1-.1-.1-.2-.1zM843.4 512.6s0-.1 0 0c0-.1 0 0 0 0zM839.3 512.9c.1 0 .1.1.2.1-.1-.1-.1-.1-.2-.1zM842.8 513.3c0-.1 0-.1 0 0 0-.1 0-.1 0 0zM841.8 513.5h0zM842.1 513.5h.1-.1zM840 513.2c.1 0 .1 0 .2.1 0 0-.1-.1-.2-.1zM840.4 513.3h.1c0 .1-.1.1-.1 0zM840.7 513.4h.1c0 .1 0 .1-.1 0zM843.2 512.9zM843.3 512.8c0-.1 0-.1 0 0 0-.1 0-.1 0 0zM842.6 513.4s0-.1 0 0c0-.1 0 0 0 0zM841.1 513.5c.1 0 .1 0 0 0 .1 0 .1 0 0 0zM843 513.1zM841.5 512.8h0zM838.1 512l.1.1s0-.1-.1-.1zM843.5 511.9zM843.5 512.2c0-.1 0-.1 0 0 0-.1 0-.1 0 0zM843.5 512.4c0-.1 0-.1 0 0 0-.1 0-.1 0 0zM837 510.8l.2.2-.2-.2zM837.7 511.6l.2.2c0-.1-.1-.1-.2-.2zM837.4 511.2l.2.2c-.1-.1-.2-.1-.2-.2zM836.4 509.8c0 .1.1.1.1.2-.1-.1-.1-.1-.1-.2zM839 512.7l.1.1c0-.1-.1-.1-.1-.1zM838.5 512.3l.1.1-.1-.1zM836.7 510.3l.2.2c-.1 0-.2-.1-.2-.2z"/><path class="st45" d="M788.6 454.6c.1.4-.1.7-.3.8-.2.1-.5-.1-.6-.5-.1-.4.1-.7.3-.8.3-.1.6.1.6.5zm-1.2-12.5l-2.5.9-.1-.3 2.5-.9.1.3zm-3.5.3c-.3.1-.5.5-.4 1l2.1 12.3c.1.4.4.7.7.6l4.2-1.5c.3-.1.5-.5.4-1l-2.1-12.3c-.1-.4-.4-.7-.7-.6l-4.2 1.5z"/><path class="st45" d="M783.9 442.4c-.3.1-.5.5-.4 1l2.1 12.3c.1.4.4.7.7.6l4.2-1.5c.3-.1.5-.5.4-1l-2.1-12.3c-.1-.4-.4-.7-.7-.6l-4.2 1.5z"/><path class="st30" d="M830.2 451.4l-11.4 1.9 1.1 8.6c-9.9-3.6-24.8-8.8-26.6-9.4-.1 0-.2-.1-.2-.1s-4.9-4.7-7.5-6.2c-.1 0-.2-.1-.2-.1H785.1h-.1-.1-.1-.1-.1-.1-.1-.1-.1c-.1 0-.1.1-.2.1s-.1.1-.2.1l-.1.1-.1.1s0 .1-.1.1l-.1.1s0 .1-.1.1l-.1.1s0 .1-.1.1c0 0 0 .1-.1.1 0 0 .4.2.3.2 0 .1.3.2.3.3v.1c0 .1-.4.1-.4.2h-.2c0 .1-.1.1-.1.2l-.1.1V449.7c0 .1 0 .2.1.2v.2c0 .1.1.2.1.4 0 .1 0 .1.1.2 0 .1.1.2.1.3 0 .1.1.1.1.2s.1.2.1.3c0 .1.1.1.1.2s.1.2.1.3c0 .1.1.1.1.2.1.1.1.2.2.3 0 .1.1.1.1.2.1.1.1.2.2.3l.2.2c.1.1.2.2.2.3l.2.2.4.4c.7.7 1.5 1.3 2.5 2 4.6 3.1 15.3 8.1 23.3 11.7 2.8 1.3 5.3 2.4 7 3.1 0 0 4.8 1.3 7.6-.4 3.4-1.8 4.6-16.8 4.6-19.1zm-42.5 3.2c-.5-.2-1-.3-1.5-.5.6.2 1.1.4 1.5.5.4.1.7.2 1.1.3-.3-.1-.7-.2-1.1-.3zm5.4.4c.1-.2.3-.4.4-.6-.1-.5-.2-1-.2-1.5 0 .5.1 1 .2 1.5-.1.2-.3.4-.4.6z"/><path class="st15" d="M818.8 453.3l-.5.1s-4.7-25.6 7.6-23.3c.5.1 1 .3 1.4.7 3 2.6 3.1 12 3.3 20.6l-.4.1-11.4 1.8z"/><path class="st30" d="M923 413.2c3.5-3.3 4.4-11.5 4.4-11.5s1.9.4 1.7-2.7c-.2-3.1-2.7-1-2.7-1-.1 0-.1-.1-.2-.1-3.4.2-7.2-5.6-8.4-7.7-1.4-.1-3.3.2-4.1 2.2 0 0-.5 1.5-.3 2.9.1.9.3 1.8.3 2.5 0 3.3-1.3 4.8-1 5.2.2.4 1.9.7 1.9.7s-.1 1.3-.4 1.8c-.3.5.8.9.8.9s-.5 1.2.2 1.4c0 0 0 .8.1 1.7.1.9 1.6.5 5.5-.7 3.3-1.1.3 9 .3 9h8.1s-1.2-3-1.1-6.6c-1.5.3-3 .9-4.6 1.6-.4 0-.4.4-.5.4z"/><path class="st34" d="M931.7 386.8c-1.6-1.6-3.9-2.3-6.1-2.3-5.9-2.6-12.3 1.9-13.1 5.2-1 3.8.9 6.1.9 6.1 0-.2-.1-.4-.1-.6-.1-1.5.3-2.9.3-2.9.8-1.9 2.6-2.3 4.1-2.2 1.2 2.1 5.1 7.9 8.4 7.7.1 0 .1.1.2.1 0 0 2.5-2.1 2.7 1 .2 3.1-1.7 2.7-1.7 2.7s-.8 8.2-4.4 11.5c.1 0 .2-.1.3-.1 1.6-.7 3.1-1.1 4.6-1.3 2.2-.4 4.5-.7 6.9-1.6 0-1.2.6-4.2.8-5.1.7-3.6 2.6-12-3.8-18.2z"/><path class="st30" d="M911.3 470.5c-1.2 2.8-2.6 7.1-4 9.3-.9 1.5.7 1.3 2.1-.1 1.2-1.1 4.1-4.6 4.5-5.9 0 0-1.3 3.3-1 3.8.2.5 3.3-2.6 2.9-8.7l-3.6-.4c-.3.5-.6 1.2-.9 2z"/><path class="st42" d="M927.3 427.7l-8.3-1-.6.2-6.8 41.6h.5l3.6.4.7.1z"/><path class="st48" d="M913.5 475.7s.3-45.4 7.5-56.3"/><path class="st11" d="M909.4 487.6l24.8 1.2v-22.9l-24.8-1.2z"/><path class="st44" d="M916.2 467c.1.3.1.6.2.9.1-.3.1-.5.2-.8-.2-.1-.3-.1-.4-.1z"/><path class="st49" d="M931.3 502.4s-1.9-20.9.5-26c-1 .9-2.2 1.8-3.5 2.6-2.2 1.4-5.1 8.1-7.3 14.1.9 4.8 1.8 9.2 2.2 11.7 1.5 7.9 10.3 36.9 10.3 36.9l6.5-1.7-8.7-37.6z"/><path class="st50" d="M928.4 479c1.3-.8 2.5-1.7 3.5-2.6 3.3-2.9 4.7-6.4 3.6-11.6v.2s-9.7 4-19 2.1c-.1.3-.1.5-.2.8-.2.8-.4 1.7-.6 2.6-.7 2.7-5.1 25-6.5 31.9-1.6 7.8-4.4 40.5-4.4 40.5l6.7.9 6-40.5s1.5-4.8 3.5-10.1c2.3-6.1 5.2-12.8 7.4-14.2z"/><path class="st21" d="M935.5 465v-.2c-.2-7.2-2-23.9-1.3-32.8 1.3-15.9-2.2-16.5-4.9-16.8-2.7-.3-12.7 4.2-14.6 12.6-.7 3.1 1.3 8.7 1 14.6-.4 10.2-2.7 21.5-2.3 23.6.9.3 1.8.6 2.7.8.1 0 .2 0 .3.1 9.4 2.1 19.1-1.9 19.1-1.9z"/><path class="st34" d="M905.7 542.5s-1.5 3.3-4.6 4.5c-3.1 1.2-6 1-6.4 3.1 0 0 4.3 2.7 17.3 1v-7.6l-6.3-1zM934.1 541.3s-.7 2.9-3.3 4.8c-2.6 1.9-5.8 2.5-5.7 4.5 0 0 7 2.4 16.1-3l-1.5-7.7-5.6 1.4z"/><path class="st51" d="M929.2 413.2l.6 2.1-12.2 7.2 1.4-4.4z"/><path class="st52" d="M923.4 498.1v-8.4c0-1.7-1.4-3.1-3.1-3.1h-3.9c-1.7 0-3.1 1.4-3.1 3.1v8.3"/><path class="st53" d="M931.3 522.8h-26.2l1.9-30.1 22.6.1z"/><path class="st21" d="M909.9 501.3h16.9v15.3h-16.9z"/><path class="st30" d="M917 484.5c-.7 1.8.4 2 .4 2s-1 5.8.1 6.4c1.5.8 3.3-1.1 4.6-4.2 1.2-3.1 1.5-5.5 1.6-6.7l-4.5-1.3c-.6.7-1.7 2.5-2.2 3.8z"/><path class="st51" d="M932.1 417.3c-1.3-2.8-4.9-.2-6.1 2.3-4.2 8.4-1.3 33.7-1.3 33.7l-5.7 27.2.3.1 4.5 1.3h.2c2.6-10.4 5.2-17.8 6.5-26.8 2.9-20.4 2.9-35 1.6-37.8z"/><path class="st54" d="M1191.9 390.5c.1-.4.3-.7.5-1.1.8-1.8 2.8-3.7 5.5-4.8 2.6-1.2 5.7-1.4 8.7.2 2 0 4.1.7 5.9 2.2 1.6 1.4 4 4 4 9.5s-5.1 10.2-6.3 11.3c-.1-.9-.3-3-.8-3.8-.3-.5-.7-1-1.1-1.4.6-.1 1.5-.6 1.3-2.9-.2-3.3-2.9-1.1-2.9-1.1-.1 0-.6 1.8-.7 1.8-.5 0-1.1-2.2-1.1-2.2l-4.7-6.1c-.7 0-3.9.1-5.4 1-1.7 1-1.7 3.3-1.7 3.3.1.7.2 1.4.2 2.1 0 3.5-1.3 5-1.1 5.4.3.4 2 .7 2 .7s-.1 1.3-.4 1.9c-.3.6.8.9.8.9s-.6 1.3.2 1.5c0 0 0 .7.1 1.5-1 .5-1.9.8-1.9.8s-1.2-2.9-2-10.4c-.2-2.5-.6-6.3.9-10.3z"/><path class="st30" d="M1194.6 407.5s-1.1-.3-.8-.9c.3-.6.4-1.9.4-1.9s-1.7-.3-2-.7c-.3-.4 1-2 1.1-5.4 0-.6-.1-1.3-.2-2.1 0 0 0-2.2 1.7-3.3 1.5-.9 4.7-1 5.4-1l4.7 6.1s.5 2.3 1.1 2.2c.1 0 .7-1.9.7-1.8 0 0 2.7-2.2 2.9 1.1.2 2.3-.8 2.8-1.3 2.9.4.4.8.9 1.1 1.4.5.8.7 2.9.8 3.8-.1.1-.2.2-.3.4-3.2 4 .8 9.2.8 9.2l-9.7 3.5s3.1-11.3-.3-10.2c-4 1.3-5.6 1-5.7.1v-.3c-.1-.8-.1-1.5-.1-1.5-.9-.3-.3-1.6-.3-1.6zM1186.7 484.7c1.5-2.4 3-6.9 4.3-9.8.2-.4.3-.7.5-1l-.1.9 4.4-1.2c.3 6.2-2.8 9.4-3.1 8.9-.3-.6 1.1-4 1.1-4-.4 1.4-3.5 5-4.7 6.2-1.7 1.4-3.4 1.6-2.4 0z"/><path class="st11" d="M1191.4 473.9l7-42.8.7-2.1 8.6 1-11.4 43.4-.7.2-4.4 1.2z"/><path class="st32" d="M1179.3 556.8c3.1 1 4.5-3 5.1-5.8l6.6.9-.2 10.7-2 .1-.3-6.6s-2 6.1-3.6 6.4c-1.6.3-7.1-1.5-8.9-2.5-1.7-1.1.6-4 3.3-3.2zM1225.8 558.6l-1.7.9-3.2-5.8s.9 6.4-.4 7.3c-1.3.9-7.1 1.8-9.1 1.7-2-.1-1.2-3.8 1.6-4.2 3.8-.6 2.4-6.4 1.6-8.9l6.3-1.7 4.9 10.7z"/><path class="st51" d="M1208.9 483.9c1.4-.9 2.6-1.8 3.7-2.7-2.5 5.3-.6 27.3-.6 27.3l9.2 39.4-.4.1-6.3 1.7-.2.1s-9.3-30.5-10.8-38.8c-.5-2.6-1.4-7.2-2.4-12.3 2.4-6.3 5.5-13.4 7.8-14.8z"/><path class="st21" d="M1184.1 551s2.9-34.4 4.6-42.6c1.5-7.2 6.1-30.7 6.9-33.5.4-1.4.7-2.7.9-4 10.3 3.5 19.8-1.7 19.8-1.7v-.2c1.1 5.5-.4 9.1-3.8 12.2-1.1.9-2.3 1.8-3.7 2.7-2.3 1.5-5.4 8.5-7.7 14.8-2.1 5.6-3.7 10.6-3.7 10.6l-6.4 42.6h-.1l-6.6-.9h-.2z"/><path class="st34" d="M1196.6 470.8c-.2-.1-.4-.1-.6-.2-.4-2.2 0-13.5.4-24.2.3-6.3-1.3-5.5-2.4-8.6-2.1-6.5 7-16.8 7-16.8s7.3-4.9 8.9-4.7c2.8.3 6.5 1.7 5.2 18.3-.8 9.3 1.1 26.8 1.4 34.4v.2c-.1-.1-9.6 5.1-19.9 1.6z"/><path class="st30" d="M1283.4 475.3c.3.1.6.2 1 .3.1 1.2.2 2.4.4 3.7.1.6.4 2.1.8 4.2-.5 2.8-1.1 6.2-1.7 9.6-1.6-.7-2.1-6.2-1.5-11.8.2-1.9.5-6.2 1-11.4-.1 3-.1 5 0 5.4z"/><path class="st34" d="M1309.9 552.1c.5.6 1.1 1.6 1.5 3.2.9 3.5 1.1 3.5-.5 4.3-1.6.8-4.7 1.7-9.1 2.2-4 .5-8.6.9-10.9-.1-.8-.3-.8-1.4-.5-2.6.3-1.2 5.6-1.1 7.6-2.3 1.1-.6 2.3-1.7 3.2-2.6 0 .1 0 .2.1.3l8.6-2.4zM1266.4 555c.5-1.2 5.7-.4 7.8-1.3 1.4-.6 3.4-2.5 4.6-3.6l8.2.6c.3.7.5 1.6.7 3 .5 3.5.7 3.5-1 4.1-1.7.6-4.9 1.1-9.3 1.2-4.1 0-8.7 0-10.8-1.3-.8-.5-.7-1.5-.2-2.7z"/><path class="st11" d="M1278.2 550s.9-31.2 2.5-39.6c.6-3.4 1.9-10.5 3.1-17.3.6-3.4 1.2-6.8 1.7-9.6 1.5 7.4 4.7 21.9 5.9 28.3l-4.2 38.9h-.3l-8.2-.6-.5-.1z"/><path class="st28" d="M1285.5 483.5c-.4-2.1-.7-3.6-.8-4.2-.2-1.2-.3-2.5-.4-3.7 9.2 2.9 19-.3 21.8-1.3-.3 2.3-1 5.1-2.7 8.1-1 1.8-.2 27.9-.2 27.9l6.7 41.7-8.7 2.5c0-.1 0-.2-.1-.3-6.8-25.3-7.6-31.6-9.6-41.7-.1-.3-.1-.6-.2-.9-1.1-6.2-4.3-20.7-5.8-28.1z"/><path class="st30" d="M1290.3 420.9c.1-1.3.1-3.1.2-4.5.1-1.1.4-1.5.4-2.4 0-1.6-.3-2.7-1.1-2.5-4.3 1.2-6.5.5-6.6-.4-.1-.9.1-2.1.1-2.1-.9-.6.1-1.3.1-1.3s-1.1-.6-.7-1.2c.4-.6.3-1.6.3-1.6s-2 .8-2.4-.2c-.2-.5.9-3 1.5-6 .4-1.9-.4-4.4.5-6.6.9-.1 2.1-.3 3.1-.4 2.6-.1 6 .8 6.3 3.2.6 4.3 3 4.8 4.1 5.6 0 0 1-1.9 2.6-1.2 1.8.8-.3 5.5-.3 5.5l2.4 4.3c-.5 2.8.1 6.9.4 9.1-.5.2-10.9 2.7-10.9 2.7z"/><path class="st37" d="M1301.5 418.2c-.1 0-.2-.1-.3-.1.1.1.2.1.3.1zM1289.6 422.2c-.1.3-.3.5-.4.8.2-.3.3-.5.4-.8z"/><path class="st40" d="M1284.3 475.6c-.3-.1-.6-.2-1-.3-.1-.4-.1-2.4-.1-5.4.1-5.7.4-14.8 1.2-22.7.9-8.1 1.4-16.5 4.6-23.9-.1.2-.2.5-.3.7 1.8-.8 3.6-1.4 5.2-2 2.5-1 5-2.1 7.6-3v-.1c.1-.2.1-.5.2-.7-.1 0-.2-.1-.3-.1.8.2 1.7.7 2.4 1.9-.5-.3-.9-.4-1.5-.4-12.5.3-2.7 24.4-2.7 24.4l.4-.2 5.3 15.5s.6 4.5 1.5 10.3c0 1.6 0 3.1.1 4.2 0 0-.3.1-.8.3-2.8 1.2-12.6 4.4-21.8 1.5z"/><path class="st41" d="M1301.6 419s0 .1 0 0c-2.6 1-5.2 2.1-7.7 3.1-1.6.6-3.4 1.2-5.2 2 .1-.2.2-.5.3-.7 0-.1.1-.2.1-.3.1-.3.2-.6.4-.8.2-.4.4-.9.6-1.3l10.9-2.7c.1 0 .2.1.3.1.1 0 .2.1.3.1.2.1.1.3 0 .5z"/><path class="st34" d="M1298.3 404.8s2-4.7.3-5.5c-1.5-.7-2.6 1.2-2.6 1.2-1.1-.9-3.5-1.3-4.1-5.6-.3-2.4-3.7-3.3-6.3-3.2-1 0-2.2.3-3.1.4-1.5.1-2.1-.3 1.2-3.3 5.2-4.8 14.3-3 18.1-.2 3.7 2.8 3.4 9.3 2.6 12.9-.8 3.5-3.6 7.5-3.6 7.6l-2.5-4.3z"/><path class="st38" d="M1319.3 502.4h0zM1316.7 502.1c.1 0 .1 0 .2.1-.1-.1-.1-.1-.2-.1zM1320.4 501.6s0-.1 0 0c0-.1 0 0 0 0zM1316.3 501.9c.1 0 .1.1.2.1-.1-.1-.1-.1-.2-.1zM1319.8 502.3c0-.1 0-.1 0 0 0-.1 0-.1 0 0zM1318.8 502.5h0zM1319.1 502.5h.1-.1zM1317 502.2c.1 0 .1 0 .2.1 0 0-.1-.1-.2-.1zM1317.4 502.3h.1c0 .1-.1.1-.1 0zM1317.7 502.4h.1c0 .1 0 .1-.1 0zM1320.2 501.9zM1320.3 501.8c0-.1 0-.1 0 0 0-.1 0-.1 0 0zM1319.6 502.4s0-.1 0 0c0-.1 0 0 0 0zM1318.1 502.5c.1 0 .1 0 0 0 .1 0 .1 0 0 0zM1320 502.1zM1318.5 501.8h0zM1315.1 501l.1.1s0-.1-.1-.1zM1320.5 500.9zM1320.5 501.2c0-.1 0-.1 0 0 0-.1 0-.1 0 0zM1320.5 501.4c0-.1 0-.1 0 0 0-.1 0-.1 0 0zM1314 499.8l.2.2-.2-.2zM1314.7 500.6l.2.2c0-.1-.1-.1-.2-.2zM1314.4 500.2l.2.2c-.1-.1-.2-.1-.2-.2zM1313.4 498.8c0 .1.1.1.1.2-.1-.1-.1-.1-.1-.2zM1316 501.7l.1.1c0-.1-.1-.1-.1-.1zM1315.5 501.3l.1.1-.1-.1zM1313.7 499.3l.2.2c-.1 0-.2-.1-.2-.2z"/><path class="st30" d="M1300.2 443.9l10.7-4.1c.6 2.8 2.5 12.4 3 14.1.5 2.1 2.6 37.8 2.6 37.8v-.2c-.6-.2-1.2-.4-1.8-.7-.4.2-.9.3-1.4.4-.1.3-.2.7-.3 1 0 .2-.2 1.4-.2 1.8v2.3c0 .7.1 1.3.1 2-.5-.8-.9-1.8-1.3-2.9-1.7-5.3-3.6-17-4.9-25.6-.9-5.9-1.5-10.3-1.5-10.3l-5-15.6z"/><path class="st30" d="M1312.9 496.3c0-.8-.1-1.5 0-2.3 0-.4.2-1.6.2-1.8.1-.3.2-.7.3-1 .5-.1.9-.2 1.4-.4.6.3 1.2.6 1.8.7v.2s3.1 6 3.9 8.9V501.6s0 .1-.1.1v.1l-.1.1v.1c0 .1-.1.1-.2.2-.1 0-.1.1-.2.1h-.1s-.1 0-.1.1h-.1s-.1 0-.1.1h-.1-.1H1319l-.1-.4c-.1 0-.1-.4-.2-.4h-.1c-.1 0-.2.4-.3.4l-.1.2c-.1 0-.2.1-.3.1H1317.6h-.1c-.1 0-.1 0-.2-.1-.1 0-.1 0-.2-.1-.1 0-.1-.1-.2-.1s-.1 0-.2-.1c-.1 0-.1-.1-.2-.1s-.1-.1-.2-.1-.1-.1-.2-.1l-.1-.1c-.1-.1-.2-.1-.3-.2l-.1-.1c-.1-.1-.2-.1-.3-.2l-.1-.1-.2-.2-.2-.2-.2-.2-.2-.2c-.1-.1-.1-.2-.2-.2l-.2-.2c-.1-.1-.1-.2-.2-.3l-.2-.2c-.1-.1-.1-.2-.2-.3 0-.1-.1-.1-.1-.2-.1-.2-.2-.3-.3-.5 0-.7 0-1.4-.1-2z"/><path class="st41" d="M1300.2 443.9l-.4.2s-9.7-24.1 2.7-24.4c.5 0 1 .1 1.5.4 3.5 2 5.5 11.1 7.4 19.5l-.4.1-10.8 4.2z"/><path class="st39" d="M1345.2 554.5c-.6.6-1.4 1.3-2.2 1.7-1 .6-3.4.7-4.5 1.1l.1-26.2s.1-.2.2-.7c.1.4.2.8.3 1.3 1.4 6.7 4.9 15 6.1 22.8z"/><path class="st30" d="M1334.7 509.5c-.2.6-.5 3.1-1 6.1-1.3 0-1.4-3.9-.7-8 .6.2 1.3.3 2 .4l-.3 1.5zM1339.1 465.6c0-1.3-.2-2.2-.8-2.1-3.6.8-5.3-.2-5.4-.9-.1-.8.2-1.4.2-1.4-.7-.6.1-1 .1-1s-.8-.6-.5-1c.3-.5.3-1.3.3-1.3s-1.5-.2-1.8-1c-.2-.4 1-1.1 1.7-3.5.5-1.8-.5-4.8 1-6.7.6.3 1.3.6 2 .6 2.1.1 4.8.9 5 2.9.3 3.5 2.2 4 3.1 4.8 0 0 .9-1.5 2.1-.9 1.4.7-.5 4.5-.5 4.5l1 3c-.4 1.2-.4 2.9-.1 4.5l-7.6 2.3c.1-1.3.2-2.4.2-2.8z"/><path class="st11" d="M1346.1 454c-1.2-.6-2.1.9-2.1.9-.9-.7-2.8-1.2-3.1-4.8-.2-2-2.8-2.8-5-2.9-.7 0-1.4-.3-2-.6-2.2-1.3-3.3-4.1 1.1-3.3 5.7 1 11-.5 13.9 1.9 2.9 2.5 2.6 7.9 1.8 10.7-.9 2.9-4.1 5.6-4.1 5.6v-.1l-1-3c0 .1 1.9-3.7.5-4.4z"/><path class="st34" d="M1338.2 557.5h-.2v-.1c1-.4 3.8-.5 4.8-1.1.7-.4 1.7-1.2 2.3-1.7 0 .1.1.1.1.2l5.9-1.5v-.2c.4.4.8 1.1 1.1 2.2.6 2.3.8 2.3-.3 2.9-1.1.5-3.2 1.1-6.2 1.5-2.4.3-5 .5-6.7.2 0-.2-.2-.4-.2-.6-.2-.8-.5-1.4-.6-1.8z"/><path class="st34" d="M1338.5 557.5c.1.4.3 1 .4 1.7 0 .2.1.4.1.6.3 1.8.3 1.8-.7 2.2-1.1.4-3.3.8-6.3.8-2.7 0-5.9 0-7.3-.9-.5-.3-.4-1-.1-1.8.3-.8 3.9-.2 5.3-.9.8-.4 2-1.4 2.8-2.1l5.8.4z"/><path class="st55" d="M1345.2 554.7v-.2c-1.2-7.9-4.7-16.2-6.1-22.8-.1-.4-.2-.8-.3-1.3.7-2.2 2.9-9.6 5.3-13.3 0-.1-.2-.1-.1-.2.8-.9 1.5-1.7 2.1-2.5-.5 3.4-.8 13.8-.8 13.8l5.8 24.6v.2l-5.9 1.7z"/><path class="st35" d="M1335 508.1c5.6 1 12.1.4 14.8 0-.2 1.7-1.4 3.6-3.7 6.5-.6.7-1.3 1.6-2.1 2.5 0 .1.1.1.1.2-2.3 3.7-4.6 11-5.3 13.3-.1.4-.5.7-.5.7l-.4 26.2v.1h.2l-5.8-.4s-2.1-21.6-1.1-26.6c.6-2.8 1.6-9.7 2.3-14.9.4-3 .8-5.5 1-6.1.3-.6.4-1.1.5-1.5z"/><path class="st28" d="M1342.2 500.1c1.2-2.1 3-10.7 3.8-14.8l1 .2c1.4-6.1 2.1-13.8-.5-15-7.3-3.3-8.3 13.4-8.3 13.4l1.7.3-2.9 11h-.4c-.7 0-1.8 0-3.2-.1.3-2.2.6-4.5.8-6.6.6-5.2.7-12.1 2.9-17.2 1.2-.5 2.7-1 3.7-1.4 1.6-.6 6.2-1.7 6.7-1.8 1.7 1.2 3.5 4.1 3.7 11.2.2 6.5-.2 23.5 0 28.6 0 0-.5.1-1.3.2-2.7.3-9.2 1-14.8 0-.7-.1-1.4-.3-2-.4-.5-.1-.9-.3-1.4-.4-.1-.4.3-2.8.8-6 4.7.2 9 .1 9.7-1.2z"/><path class="st11" d="M1340.7 469.9c-1 .4-2.5.9-3.7 1.4 0 0-.1 0-.1.1.3-.7 1-2.3 1.3-3l.6-.2 7.6-2.3.6-.2.4 2.2c-.5.3-5.1 1.4-6.7 2z"/><path class="st30" d="M1314 493.2c2.4-1.2 4.1.6 4.7 1.6 0 0 9.1.2 14.5.3 1.3 0 2.5 0 3.2.1h.4l2.9-11 6.2 1.1c-.8 4.1-2.6 12.7-3.8 14.8-.7 1.3-5 1.4-9.8 1.1-5.6-.4-11.8-1.5-13.5-1.9 0 0-4.5 1.6-6.2-.8-1.6-2.4-.9-4.1 1.4-5.3z"/><path class="st11" d="M1346.4 470.5c2.6 1.2 1.9 8.8.5 15l-1-.2-6.2-1.1-1.7-.3c.1 0 1.1-16.7 8.4-13.4z"/><path class="st30" d="M1484 435.2c3.5-3.3 4.4-11.5 4.4-11.5s1.9.4 1.7-2.7c-.2-3.1-2.7-1-2.7-1-.1 0-.1-.1-.2-.1-3.4.2-7.2-5.6-8.4-7.7-1.4-.1-3.3.2-4.1 2.2 0 0-.5 1.5-.3 2.9.1.9.3 1.8.3 2.5 0 3.3-1.3 4.8-1 5.2.2.4 1.9.7 1.9.7s-.1 1.3-.4 1.8c-.3.5.8.9.8.9s-.5 1.2.2 1.4c0 0 0 .8.1 1.7.1.9 1.6.5 5.5-.7 3.3-1.1.3 9 .3 9h8.1s-1.2-3-1.1-6.6c-1.5.3-3 .9-4.6 1.6-.4 0-.4.4-.5.4z"/><path class="st56" d="M1492.7 408.8c-1.6-1.6-3.9-2.3-6.1-2.3-5.9-2.6-12.3 1.9-13.1 5.2-1 3.8.9 6.1.9 6.1 0-.2-.1-.4-.1-.6-.1-1.5.3-2.9.3-2.9.8-1.9 2.6-2.3 4.1-2.2 1.2 2.1 5.1 7.9 8.4 7.7.1 0 .1.1.2.1 0 0 2.5-2.1 2.7 1 .2 3.1-1.7 2.7-1.7 2.7s-.8 8.2-4.4 11.5c.1 0 .2-.1.3-.1 1.6-.7 3.1-1.1 4.6-1.3 2.2-.4 4.5-.7 6.9-1.6 0-1.2.6-4.2.8-5.1.7-3.6 2.6-12-3.8-18.2z"/><path class="st30" d="M1472.3 492.5c-1.2 2.8-2.6 7.1-4 9.3-.9 1.5.7 1.3 2.1-.1 1.2-1.1 4.1-4.6 4.5-5.9 0 0-1.3 3.3-1 3.8.2.5 3.3-2.6 2.9-8.7l-3.6-.4c-.3.5-.6 1.2-.9 2z"/><path class="st42" d="M1488.3 449.7l-8.3-1-.6.2-6.8 41.6h.5l3.6.4.7.1z"/><path class="st57" d="M1474.5 497.7s.3-45.4 7.5-56.3"/><path class="st31" d="M1470.4 509.6l24.8 1.2v-22.9l-24.8-1.2z"/><path class="st44" d="M1477.2 489c.1.3.1.6.2.9.1-.3.1-.5.2-.8-.2-.1-.3-.1-.4-.1z"/><path class="st34" d="M1492.3 524.4s-1.9-20.9.5-26c-1 .9-2.2 1.8-3.5 2.6-2.2 1.4-5.1 8.1-7.3 14.1.9 4.8 1.8 9.2 2.2 11.7 1.5 7.9 10.3 36.9 10.3 36.9l6.5-1.7-8.7-37.6z"/><path class="st11" d="M1489.4 501c1.3-.8 2.5-1.7 3.5-2.6 3.3-2.9 4.7-6.4 3.6-11.6v.2s-9.7 4-19 2.1c-.1.3-.1.5-.2.8-.2.8-.4 1.7-.6 2.6-.7 2.7-5.1 25-6.5 31.9-1.6 7.8-4.4 40.5-4.4 40.5l6.7.9 6-40.5s1.5-4.8 3.5-10.1c2.3-6.1 5.2-12.8 7.4-14.2z"/><path class="st58" d="M1496.5 487v-.2c-.2-7.2-2-23.9-1.3-32.8 1.3-15.9-2.2-16.5-4.9-16.8-2.7-.3-12.8 4.2-14.6 12.6-.7 3.1 1.3 8.7 1 14.6-.4 10.2-2.7 21.5-2.3 23.6.9.3 1.8.6 2.7.8.1 0 .2 0 .3.1 9.4 2.1 19.1-1.9 19.1-1.9z"/><path class="st34" d="M1466.7 564.5s-1.5 3.3-4.6 4.5c-3.1 1.2-6 1-6.4 3.1 0 0 4.3 2.7 17.3 1v-7.6l-6.3-1zM1495.1 563.3s-.7 2.9-3.3 4.8c-2.6 1.9-5.8 2.5-5.7 4.5 0 0 7 2.4 16.1-3l-1.5-7.7-5.6 1.4z"/><path class="st59" d="M1490.2 435.2l.6 2.1-12.2 7.2 1.4-4.4z"/><path class="st52" d="M1484.4 520.1v-8.4c0-1.7-1.4-3.1-3.1-3.1h-3.9c-1.7 0-3.1 1.4-3.1 3.1v8.3"/><path class="st31" d="M1492.3 544.8h-26.2l1.9-30.1 22.6.1z"/><path class="st21" d="M1470.9 523.3h16.9v15.3h-16.9z"/><path class="st30" d="M1478 506.5c-.7 1.8.4 2 .4 2s-1 5.8.1 6.4c1.5.8 3.3-1.1 4.6-4.2 1.2-3.1 1.5-5.5 1.6-6.7l-4.5-1.3c-.6.7-1.7 2.5-2.2 3.8z"/><path class="st59" d="M1493.1 439.3c-1.3-2.8-4.9-.2-6.1 2.3-4.2 8.4-1.3 33.7-1.3 33.7l-5.7 27.2.3.1 4.5 1.3h.2c2.6-10.4 5.2-17.8 6.5-26.8 2.9-20.4 2.9-35 1.6-37.8z"/><path class="st29" d="M1620.9 401.5c.1-.4.3-.7.5-1.1.8-1.8 2.8-3.7 5.5-4.8 2.6-1.2 5.7-1.4 8.7.2 2 0 4.1.7 5.9 2.2 1.6 1.4 4 4 4 9.5s-5.1 10.2-6.3 11.3c-.1-.9-.3-3-.8-3.8-.3-.5-.7-1-1.1-1.4.6-.1 1.5-.6 1.3-2.9-.2-3.3-2.9-1.1-2.9-1.1-.1 0-.6 1.8-.7 1.8-.5 0-1.1-2.2-1.1-2.2l-4.7-6.1c-.7 0-3.9.1-5.4 1-1.7 1-1.7 3.3-1.7 3.3.1.7.2 1.4.2 2.1 0 3.5-1.3 5-1.1 5.4.3.4 2 .7 2 .7s-.1 1.3-.4 1.9c-.3.6.8.9.8.9s-.6 1.3.2 1.5c0 0 0 .7.1 1.5-1 .5-1.9.8-1.9.8s-1.2-2.9-2-10.4c-.2-2.5-.6-6.3.9-10.3z"/><path class="st30" d="M1623.6 418.5s-1.1-.3-.8-.9c.3-.6.4-1.9.4-1.9s-1.7-.3-2-.7c-.3-.4 1-2 1.1-5.4 0-.6-.1-1.3-.2-2.1 0 0 0-2.2 1.7-3.3 1.5-.9 4.7-1 5.4-1l4.7 6.1s.5 2.3 1.1 2.2c.1 0 .7-1.9.7-1.8 0 0 2.7-2.2 2.9 1.1.2 2.3-.8 2.8-1.3 2.9.4.4.8.9 1.1 1.4.5.8.7 2.9.8 3.8-.1.1-.2.2-.3.4-3.2 4 .8 9.2.8 9.2l-9.7 3.5s3.1-11.3-.3-10.2c-4 1.3-5.6 1-5.7.1v-.3c-.1-.8-.1-1.5-.1-1.5-.9-.3-.3-1.6-.3-1.6zM1615.7 495.7c1.5-2.4 3-6.9 4.3-9.8.2-.4.3-.7.5-1l-.1.9 4.4-1.2c.3 6.2-2.8 9.4-3.1 8.9-.3-.6 1.1-4 1.1-4-.4 1.4-3.5 5-4.7 6.2-1.7 1.4-3.4 1.6-2.4 0z"/><path class="st60" d="M1620.4 484.9l7-42.8.7-2.1 8.6 1-11.4 43.4-.7.2-4.4 1.2z"/><path class="st32" d="M1608.3 567.8c3.1 1 4.5-3 5.1-5.8l6.6.9-.2 10.7-2 .1-.3-6.6s-2 6.1-3.6 6.4c-1.6.3-7.1-1.5-8.9-2.5-1.7-1.1.6-4 3.3-3.2zM1654.8 569.6l-1.7.9-3.2-5.8s.9 6.4-.4 7.3c-1.3.9-7.1 1.8-9.1 1.7-2-.1-1.2-3.8 1.6-4.2 3.8-.6 2.4-6.4 1.6-8.9l6.3-1.7 4.9 10.7z"/><path class="st32" d="M1637.9 494.9c1.4-.9 2.6-1.8 3.7-2.7-2.5 5.3-.6 27.3-.6 27.3l9.2 39.4-.4.1-6.3 1.7-.2.1s-9.3-30.5-10.8-38.8c-.5-2.6-1.4-7.2-2.4-12.3 2.4-6.3 5.5-13.4 7.8-14.8z"/><path class="st11" d="M1613.1 562s2.9-34.4 4.6-42.6c1.5-7.2 6.1-30.7 6.9-33.5.4-1.4.7-2.7.9-4 10.3 3.5 19.8-1.7 19.8-1.7v-.2c1.1 5.5-.4 9.1-3.8 12.2-1.1.9-2.3 1.8-3.7 2.7-2.3 1.5-5.4 8.5-7.7 14.8-2.1 5.6-3.7 10.6-3.7 10.6l-6.4 42.6h-.1l-6.6-.9h-.2z"/><path class="st61" d="M1625.6 481.8c-.2-.1-.4-.1-.6-.2-.4-2.2 0-13.5.4-24.2.3-6.3-1.3-5.5-2.4-8.6-2.1-6.5 7-16.8 7-16.8s7.3-4.9 8.9-4.7c2.8.3 6.5 1.7 5.2 18.3-.8 9.3 1.1 26.8 1.4 34.4v.2c-.1-.1-9.6 5.1-19.9 1.6z"/><path class="st53" d="M1634 504.7l14-11.1v14.2h-28v-14.2z"/><path class="st29" d="M1620.5 493.7v.1h27.5v-.1l-13.7 11z"/><path class="st30" d="M1625.9 500.6c.5-1.4 1.7-3.2 2.4-4.1l4.7 1.4c-.1 1.2-.4 3.8-1.7 7.1-1.3 3.3-3.3 5.3-4.8 4.5-1.2-.7-.1-6.7-.1-6.7s-1.2-.3-.5-2.2z"/><path class="st60" d="M1627.9 496.5l6-28.6s-3.8-27.8.6-36.7c1.3-2.6 5.4-4 7.6.2 1.5 2.9 1 17-2.1 38.5-1.4 9.5-4.2 17.3-6.9 28.2l-.2-.1-4.7-1.4-.3-.1z"/><path class="st30" d="M1556 416.2c3.5-3.3 4.4-11.5 4.4-11.5s1.9.4 1.7-2.7c-.2-3.1-2.7-1-2.7-1-.1 0-.1-.1-.2-.1-3.4.2-7.2-5.6-8.4-7.7-1.4-.1-3.3.2-4.1 2.2 0 0-.5 1.5-.3 2.9.1.9.3 1.8.3 2.5 0 3.3-1.3 4.8-1 5.2.2.4 1.9.7 1.9.7s-.1 1.3-.4 1.8c-.3.5.8.9.8.9s-.5 1.2.2 1.4c0 0 0 .8.1 1.7.1.9 1.6.5 5.5-.7 3.3-1.1.3 9 .3 9h8.1s-1.2-3-1.1-6.6c-1.5.3-3 .9-4.6 1.6-.4 0-.4.4-.5.4z"/><path class="st34" d="M1564.7 389.8c-1.6-1.6-3.9-2.3-6.1-2.3-5.9-2.6-12.3 1.9-13.1 5.2-1 3.8.9 6.1.9 6.1 0-.2-.1-.4-.1-.6-.1-1.5.3-2.9.3-2.9.8-1.9 2.6-2.3 4.1-2.2 1.2 2.1 5.1 7.9 8.4 7.7.1 0 .1.1.2.1 0 0 2.5-2.1 2.7 1 .2 3.1-1.7 2.7-1.7 2.7s-.8 8.2-4.4 11.5c.1 0 .2-.1.3-.1 1.6-.7 3.1-1.1 4.6-1.3 2.2-.4 4.5-.7 6.9-1.6 0-1.2.6-4.2.8-5.1.7-3.6 2.6-12-3.8-18.2z"/><path class="st30" d="M1544.3 473.5c-1.2 2.8-2.6 7.1-4 9.3-.9 1.5.7 1.3 2.1-.1 1.2-1.1 4.1-4.6 4.5-5.9 0 0-1.3 3.3-1 3.8.2.5 3.3-2.6 2.9-8.7l-3.6-.4c-.3.5-.6 1.2-.9 2z"/><path class="st42" d="M1560.3 430.7l-8.3-1-.6.2-6.8 41.6h.5l3.6.4.7.1z"/><path class="st43" d="M1546.5 478.7s.3-45.4 7.5-56.3"/><path class="st11" d="M1542.4 490.6l24.8 1.2v-22.9l-24.8-1.2z"/><path class="st44" d="M1549.2 470c.1.3.1.6.2.9.1-.3.1-.5.2-.8-.2-.1-.3-.1-.4-.1z"/><path class="st33" d="M1564.3 505.4s-1.9-20.9.5-26c-1 .9-2.2 1.8-3.5 2.6-2.2 1.4-5.1 8.1-7.3 14.1.9 4.8 1.8 9.2 2.2 11.7 1.5 7.9 10.3 36.9 10.3 36.9l6.5-1.7-8.7-37.6z"/><path class="st31" d="M1561.4 482c1.3-.8 2.5-1.7 3.5-2.6 3.3-2.9 4.7-6.4 3.6-11.6v.2s-9.7 4-19 2.1c-.1.3-.1.5-.2.8-.2.8-.4 1.7-.6 2.6-.7 2.7-5.1 25-6.5 31.9-1.6 7.8-4.4 40.5-4.4 40.5l6.7.9 6-40.5s1.5-4.8 3.5-10.1c2.3-6.1 5.2-12.8 7.4-14.2z"/><path class="st40" d="M1568.5 468v-.2c-.2-7.2-2-23.9-1.3-32.8 1.3-15.9-2.2-16.5-4.9-16.8-2.7-.3-12.8 4.2-14.6 12.6-.7 3.1 1.3 8.7 1 14.6-.4 10.2-2.7 21.5-2.3 23.6.9.3 1.8.6 2.7.8.1 0 .2 0 .3.1 9.4 2.1 19.1-1.9 19.1-1.9z"/><path class="st34" d="M1538.7 545.5s-1.5 3.3-4.6 4.5c-3.1 1.2-6 1-6.4 3.1 0 0 4.3 2.7 17.3 1v-7.6l-6.3-1zM1567.1 544.3s-.7 2.9-3.3 4.8c-2.6 1.9-5.8 2.5-5.7 4.5 0 0 7 2.4 16.1-3l-1.5-7.7-5.6 1.4z"/><path class="st41" d="M1562.2 416.2l.6 2.1-12.2 7.2 1.4-4.4z"/><path class="st46" d="M1692.9 382.5c.1-.4.3-.7.5-1.1.8-1.8 2.8-3.7 5.5-4.8 2.6-1.2 5.7-1.4 8.7.2 2 0 4.1.7 5.9 2.2 1.6 1.4 4 4 4 9.5s-5.1 10.2-6.3 11.3c-.1-.9-.3-3-.8-3.8-.3-.5-.7-1-1.1-1.4.6-.1 1.5-.6 1.3-2.9-.2-3.3-2.9-1.1-2.9-1.1-.1 0-.6 1.8-.7 1.8-.5 0-1.1-2.2-1.1-2.2l-4.7-6.1c-.7 0-3.9.1-5.4 1-1.7 1-1.7 3.3-1.7 3.3.1.7.2 1.4.2 2.1 0 3.5-1.3 5-1.1 5.4.3.4 2 .7 2 .7s-.1 1.3-.4 1.9c-.3.6.8.9.8.9s-.6 1.3.2 1.5c0 0 0 .7.1 1.5-1 .5-1.9.8-1.9.8s-1.2-2.9-2-10.4c-.2-2.5-.6-6.3.9-10.3z"/><path class="st30" d="M1695.6 399.5s-1.1-.3-.8-.9c.3-.6.4-1.9.4-1.9s-1.7-.3-2-.7c-.3-.4 1-2 1.1-5.4 0-.6-.1-1.3-.2-2.1 0 0 0-2.2 1.7-3.3 1.5-.9 4.7-1 5.4-1l4.7 6.1s.5 2.3 1.1 2.2c.1 0 .7-1.9.7-1.8 0 0 2.7-2.2 2.9 1.1.2 2.3-.8 2.8-1.3 2.9.4.4.8.9 1.1 1.4.5.8.7 2.9.8 3.8-.1.1-.2.2-.3.4-3.2 4 .8 9.2.8 9.2l-9.7 3.5s3.1-11.3-.3-10.2c-4 1.3-5.6 1-5.7.1v-.3c-.1-.8-.1-1.5-.1-1.5-.9-.3-.3-1.6-.3-1.6zM1687.7 476.7c1.5-2.4 3-6.9 4.3-9.8.2-.4.3-.7.5-1l-.1.9 4.4-1.2c.3 6.2-2.8 9.4-3.1 8.9-.3-.6 1.1-4 1.1-4-.4 1.4-3.5 5-4.7 6.2-1.7 1.4-3.4 1.6-2.4 0z"/><path class="st11" d="M1692.4 465.9l7-42.8.7-2.1 8.6 1-11.4 43.4-.7.2-4.4 1.2z"/><path class="st32" d="M1680.3 548.8c3.1 1 4.5-3 5.1-5.8l6.6.9-.2 10.7-2 .1-.3-6.6s-2 6.1-3.6 6.4c-1.6.3-7.1-1.5-8.9-2.5-1.7-1.1.6-4 3.3-3.2zM1726.8 550.6l-1.7.9-3.2-5.8s.9 6.4-.4 7.3c-1.3.9-7.1 1.8-9.1 1.7-2-.1-1.2-3.8 1.6-4.2 3.8-.6 2.4-6.4 1.6-8.9l6.3-1.7 4.9 10.7z"/><path class="st51" d="M1709.9 475.9c1.4-.9 2.6-1.8 3.7-2.7-2.5 5.3-.6 27.3-.6 27.3l9.2 39.4-.4.1-6.3 1.7-.2.1s-9.3-30.5-10.8-38.8c-.5-2.6-1.4-7.2-2.4-12.3 2.4-6.3 5.5-13.4 7.8-14.8z"/><path class="st21" d="M1685.1 543s2.9-34.4 4.6-42.6c1.5-7.2 6.1-30.7 6.9-33.5.4-1.4.7-2.7.9-4 10.3 3.5 19.8-1.7 19.8-1.7v-.2c1.1 5.5-.4 9.1-3.8 12.2-1.1.9-2.3 1.8-3.7 2.7-2.3 1.5-5.4 8.5-7.7 14.8-2.1 5.6-3.7 10.6-3.7 10.6l-6.4 42.6h-.1l-6.6-.9h-.2z"/><path class="st28" d="M1697.6 462.8c-.2-.1-.4-.1-.6-.2-.4-2.2 0-13.5.4-24.2.3-6.3-1.3-5.5-2.4-8.6-2.1-6.5 7-16.8 7-16.8s7.3-4.9 8.9-4.7c2.8.3 6.5 1.7 5.2 18.3-.8 9.3 1.1 26.8 1.4 34.4v.2c-.1-.1-9.6 5.1-19.9 1.6z"/><path class="st30" d="M1773.4 467.3c.3.1.6.2 1 .3.1 1.2.2 2.4.4 3.7.1.6.4 2.1.8 4.2-.5 2.8-1.1 6.2-1.7 9.6-1.6-.7-2.1-6.2-1.5-11.8.2-1.9.5-6.2 1-11.4-.1 3-.1 5 0 5.4z"/><path class="st34" d="M1799.9 544.1c.5.6 1.1 1.6 1.5 3.2.9 3.5 1.1 3.5-.5 4.3-1.6.8-4.7 1.7-9.1 2.2-4 .5-8.6.9-10.9-.1-.8-.3-.8-1.4-.5-2.6.3-1.2 5.6-1.1 7.6-2.3 1.1-.6 2.3-1.7 3.2-2.6 0 .1 0 .2.1.3l8.6-2.4zM1756.4 547c.5-1.2 5.7-.4 7.8-1.3 1.4-.6 3.4-2.5 4.6-3.6l8.2.6c.3.7.5 1.6.7 3 .5 3.5.7 3.5-1 4.1-1.7.6-4.9 1.1-9.3 1.2-4.1 0-8.7 0-10.8-1.3-.8-.5-.7-1.5-.2-2.7z"/><path class="st11" d="M1768.2 542s.9-31.2 2.5-39.6c.6-3.4 1.9-10.5 3.1-17.3.6-3.4 1.2-6.8 1.7-9.6 1.5 7.4 4.7 21.9 5.9 28.3l-4.2 38.9h-.3l-8.2-.6-.5-.1z"/><path class="st28" d="M1775.5 475.5c-.4-2.1-.7-3.6-.8-4.2-.2-1.2-.3-2.5-.4-3.7 9.2 2.9 19-.3 21.8-1.3-.3 2.3-1 5.1-2.7 8.1-1 1.8-.2 27.9-.2 27.9l6.7 41.7-8.7 2.5c0-.1 0-.2-.1-.3-6.8-25.3-7.6-31.6-9.6-41.7-.1-.3-.1-.6-.2-.9-1.1-6.2-4.3-20.7-5.8-28.1z"/><path class="st30" d="M1780.3 412.9c.1-1.3.1-3.1.2-4.5.1-1.1.4-1.5.4-2.4 0-1.6-.3-2.7-1.1-2.5-4.3 1.2-6.5.5-6.6-.4-.1-.9.1-2.1.1-2.1-.9-.6.1-1.3.1-1.3s-1.1-.6-.7-1.2c.4-.6.3-1.6.3-1.6s-2 .8-2.4-.2c-.2-.5.9-3 1.5-6 .4-1.9-.4-4.4.5-6.6.9-.1 2.1-.3 3.1-.4 2.6-.1 6 .8 6.3 3.2.6 4.3 3 4.8 4.1 5.6 0 0 1-1.9 2.6-1.2 1.8.8-.3 5.5-.3 5.5l2.4 4.3c-.5 2.8.1 6.9.4 9.1-.5.2-10.9 2.7-10.9 2.7z"/><path class="st37" d="M1791.5 410.2c-.1 0-.2-.1-.3-.1.1.1.2.1.3.1zM1779.6 414.2c-.1.3-.3.5-.4.8.2-.3.3-.5.4-.8z"/><path class="st14" d="M1774.3 467.6c-.3-.1-.6-.2-1-.3-.1-.4-.1-2.4-.1-5.4.1-5.7.4-14.8 1.2-22.7.9-8.1 1.4-16.5 4.6-23.9-.1.2-.2.5-.3.7 1.8-.8 3.6-1.4 5.2-2 2.5-1 5-2.1 7.6-3v-.1c.1-.2.1-.5.2-.7-.1 0-.2-.1-.3-.1.8.2 1.7.7 2.4 1.9-.5-.3-.9-.4-1.5-.4-12.5.3-2.7 24.4-2.7 24.4l.4-.2 5.3 15.5s.6 4.5 1.5 10.3c0 1.6 0 3.1.1 4.2 0 0-.3.1-.8.3-2.8 1.2-12.6 4.4-21.8 1.5z"/><path class="st15" d="M1791.6 411s0 .1 0 0c-2.6 1-5.2 2.1-7.7 3.1-1.6.6-3.4 1.2-5.2 2 .1-.2.2-.5.3-.7 0-.1.1-.2.1-.3.1-.3.2-.6.4-.8.2-.4.4-.9.6-1.3l10.9-2.7c.1 0 .2.1.3.1.1 0 .2.1.3.1.2.1.1.3 0 .5z"/><path class="st47" d="M1788.3 396.8s2-4.7.3-5.5c-1.5-.7-2.6 1.2-2.6 1.2-1.1-.9-3.5-1.3-4.1-5.6-.3-2.4-3.7-3.3-6.3-3.2-1 0-2.2.3-3.1.4-1.5.1-2.1-.3 1.2-3.3 5.2-4.8 14.3-3 18.1-.2 3.7 2.8 3.4 9.3 2.6 12.9-.8 3.5-3.6 7.5-3.6 7.6l-2.5-4.3z"/><path class="st38" d="M1809.3 494.4h0zM1806.7 494.1c.1 0 .1 0 .2.1-.1-.1-.1-.1-.2-.1zM1810.4 493.6s0-.1 0 0c0-.1 0 0 0 0zM1806.3 493.9c.1 0 .1.1.2.1-.1-.1-.1-.1-.2-.1zM1809.8 494.3c0-.1 0-.1 0 0 0-.1 0-.1 0 0zM1808.8 494.5h0zM1809.1 494.5h.1-.1zM1807 494.2c.1 0 .1 0 .2.1 0 0-.1-.1-.2-.1zM1807.4 494.3h.1c0 .1-.1.1-.1 0zM1807.7 494.4h.1c0 .1 0 .1-.1 0zM1810.2 493.9zM1810.3 493.8c0-.1 0-.1 0 0 0-.1 0-.1 0 0zM1809.6 494.4s0-.1 0 0c0-.1 0 0 0 0zM1808.1 494.5c.1 0 .1 0 0 0 .1 0 .1 0 0 0zM1810 494.1zM1808.5 493.8h0zM1805.1 493l.1.1s0-.1-.1-.1zM1810.5 492.9zM1810.5 493.2c0-.1 0-.1 0 0 0-.1 0-.1 0 0zM1810.5 493.4c0-.1 0-.1 0 0 0-.1 0-.1 0 0zM1804 491.8l.2.2-.2-.2zM1804.7 492.6l.2.2c0-.1-.1-.1-.2-.2zM1804.4 492.2l.2.2c-.1-.1-.2-.1-.2-.2zM1803.4 490.8c0 .1.1.1.1.2-.1-.1-.1-.1-.1-.2zM1806 493.7l.1.1c0-.1-.1-.1-.1-.1zM1805.5 493.3l.1.1-.1-.1zM1803.7 491.3l.2.2c-.1 0-.2-.1-.2-.2z"/><path class="st30" d="M1790.2 435.9l10.7-4.1c.6 2.8 2.5 12.4 3 14.1.5 2.1 2.6 37.8 2.6 37.8v-.2c-.6-.2-1.2-.4-1.8-.7-.4.2-.9.3-1.4.4-.1.3-.2.7-.3 1 0 .2-.2 1.4-.2 1.8v2.3c0 .7.1 1.3.1 2-.5-.8-.9-1.8-1.3-2.9-1.7-5.3-3.6-17-4.9-25.6-.9-5.9-1.5-10.3-1.5-10.3l-5-15.6z"/><path class="st30" d="M1802.9 488.3c0-.8-.1-1.5 0-2.3 0-.4.2-1.6.2-1.8.1-.3.2-.7.3-1 .5-.1.9-.2 1.4-.4.6.3 1.2.6 1.8.7v.2s3.1 6 3.9 8.9V493.6s0 .1-.1.1v.1l-.1.1v.1c0 .1-.1.1-.2.2-.1 0-.1.1-.2.1h-.1s-.1 0-.1.1h-.1s-.1 0-.1.1h-.1-.1H1809l-.1-.4c-.1 0-.1-.4-.2-.4h-.1c-.1 0-.2.4-.3.4l-.1.2c-.1 0-.2.1-.3.1H1807.6h-.1c-.1 0-.1 0-.2-.1-.1 0-.1 0-.2-.1-.1 0-.1-.1-.2-.1s-.1 0-.2-.1c-.1 0-.1-.1-.2-.1s-.1-.1-.2-.1-.1-.1-.2-.1l-.1-.1c-.1-.1-.2-.1-.3-.2l-.1-.1c-.1-.1-.2-.1-.3-.2l-.1-.1-.2-.2-.2-.2-.2-.2-.2-.2c-.1-.1-.1-.2-.2-.2l-.2-.2c-.1-.1-.1-.2-.2-.3l-.2-.2c-.1-.1-.1-.2-.2-.3 0-.1-.1-.1-.1-.2-.1-.2-.2-.3-.3-.5 0-.7 0-1.4-.1-2z"/><path class="st15" d="M1790.2 435.9l-.4.2s-9.7-24.1 2.7-24.4c.5 0 1 .1 1.5.4 3.5 2 5.5 11.1 7.4 19.5l-.4.1-10.8 4.2z"/><path class="st39" d="M1835.2 546.5c-.6.6-1.4 1.3-2.2 1.7-1 .6-3.4.7-4.5 1.1l.1-26.2s.1-.2.2-.7c.1.4.2.8.3 1.3 1.4 6.7 4.9 15 6.1 22.8z"/><path class="st30" d="M1824.7 501.5c-.2.6-.5 3.1-1 6.1-1.3 0-1.4-3.9-.7-8 .6.2 1.3.3 2 .4l-.3 1.5zM1829.1 457.6c0-1.3-.2-2.2-.8-2.1-3.6.8-5.3-.2-5.4-.9-.1-.8.2-1.4.2-1.4-.7-.6.1-1 .1-1s-.8-.6-.5-1c.3-.5.3-1.3.3-1.3s-1.5-.2-1.8-1c-.2-.4 1-1.1 1.7-3.5.5-1.8-.5-4.8 1-6.7.6.3 1.3.6 2 .6 2.1.1 4.8.9 5 2.9.3 3.5 2.2 4 3.1 4.8 0 0 .9-1.5 2.1-.9 1.4.7-.5 4.5-.5 4.5l1 3c-.4 1.2-.4 2.9-.1 4.5l-7.6 2.3c.1-1.3.2-2.4.2-2.8z"/><path class="st11" d="M1836.1 446c-1.2-.6-2.1.9-2.1.9-.9-.7-2.8-1.2-3.1-4.8-.2-2-2.8-2.8-5-2.9-.7 0-1.4-.3-2-.6-2.2-1.3-3.3-4.1 1.1-3.3 5.7 1 11-.5 13.9 1.9 2.9 2.5 2.6 7.9 1.8 10.7-.9 2.9-4.1 5.6-4.1 5.6v-.1l-1-3c0 .1 1.9-3.7.5-4.4z"/><path class="st34" d="M1828.2 549.5h-.2v-.1c1-.4 3.8-.5 4.8-1.1.7-.4 1.7-1.2 2.3-1.7 0 .1.1.1.1.2l5.9-1.5v-.2c.4.4.8 1.1 1.1 2.2.6 2.3.8 2.3-.3 2.9-1.1.5-3.2 1.1-6.2 1.5-2.4.3-5 .5-6.7.2 0-.2-.2-.4-.2-.6-.2-.8-.5-1.4-.6-1.8z"/><path class="st34" d="M1828.5 549.5c.1.4.3 1 .4 1.7 0 .2.1.4.1.6.3 1.8.3 1.8-.7 2.2-1.1.4-3.3.8-6.3.8-2.7 0-5.9 0-7.3-.9-.5-.3-.4-1-.1-1.8.3-.8 3.9-.2 5.3-.9.8-.4 2-1.4 2.8-2.1l5.8.4z"/><path class="st35" d="M1835.2 546.7v-.2c-1.2-7.9-4.7-16.2-6.1-22.8-.1-.4-.2-.8-.3-1.3.7-2.2 2.9-9.6 5.3-13.3 0-.1-.2-.1-.1-.2.8-.9 1.5-1.7 2.1-2.5-.5 3.4-.8 13.8-.8 13.8l5.8 24.6v.2l-5.9 1.7z"/><path class="st36" d="M1825 500.1c5.6 1 12.1.4 14.8 0-.2 1.7-1.4 3.6-3.7 6.5-.6.7-1.3 1.6-2.1 2.5 0 .1.1.1.1.2-2.3 3.7-4.6 11-5.3 13.3-.1.4-.5.7-.5.7l-.4 26.2v.1h.2l-5.8-.4s-2.1-21.6-1.1-26.6c.6-2.8 1.6-9.7 2.3-14.9.4-3 .8-5.5 1-6.1.3-.6.4-1.1.5-1.5z"/><path class="st61" d="M1832.2 492.1c1.2-2.1 3-10.7 3.8-14.8l1 .2c1.4-6.1 2.1-13.8-.5-15-7.3-3.3-8.3 13.4-8.3 13.4l1.7.3-2.9 11h-.4c-.7 0-1.8 0-3.2-.1.3-2.2.6-4.5.8-6.6.6-5.2.7-12.1 2.9-17.2 1.2-.5 2.7-1 3.7-1.4 1.6-.6 6.2-1.7 6.7-1.8 1.7 1.2 3.5 4.1 3.7 11.2.2 6.5-.2 23.5 0 28.6 0 0-.5.1-1.3.2-2.7.3-9.2 1-14.8 0-.7-.1-1.4-.3-2-.4-.5-.1-.9-.3-1.4-.4-.1-.4.3-2.8.8-6 4.7.2 9 .1 9.7-1.2z"/><path class="st60" d="M1830.7 461.9c-1 .4-2.5.9-3.7 1.4 0 0-.1 0-.1.1.3-.7 1-2.3 1.3-3l.6-.2 7.6-2.3.6-.2.4 2.2c-.5.3-5.1 1.4-6.7 2z"/><path class="st30" d="M1804 485.2c2.4-1.2 4.1.6 4.7 1.6 0 0 9.1.2 14.5.3 1.3 0 2.5 0 3.2.1h.4l2.9-11 6.2 1.1c-.8 4.1-2.6 12.7-3.8 14.8-.7 1.3-5 1.4-9.8 1.1-5.6-.4-11.8-1.5-13.5-1.9 0 0-4.5 1.6-6.2-.8-1.6-2.4-.9-4.1 1.4-5.3z"/><path class="st60" d="M1836.4 462.5c2.6 1.2 1.9 8.8.5 15l-1-.2-6.2-1.1-1.7-.3c.1 0 1.1-16.7 8.4-13.4z"/><path class="st29" d="M1094.9 392.6c.1-.4.3-.7.5-1.1.8-1.8 2.8-3.7 5.5-4.8 2.6-1.2 5.7-1.4 8.7.2 2 0 4.1.7 5.9 2.2 1.6 1.4 4 4 4 9.5s-5.1 10.2-6.3 11.3c-.1-.9-.3-3-.8-3.8-.3-.5-.7-1-1.1-1.4.6-.1 1.5-.6 1.3-2.9-.2-3.3-2.9-1.1-2.9-1.1-.1 0-.6 1.8-.7 1.8-.5 0-1.1-2.2-1.1-2.2l-4.7-6.1c-.7 0-3.9.1-5.4 1-1.7 1-1.7 3.3-1.7 3.3.1.7.2 1.4.2 2.1 0 3.5-1.3 5-1.1 5.4.3.4 2 .7 2 .7s-.1 1.3-.4 1.9c-.3.6.8.9.8.9s-.6 1.3.2 1.5c0 0 0 .7.1 1.5-1 .5-1.9.8-1.9.8s-1.2-2.9-2-10.4c-.2-2.6-.6-6.4.9-10.3z"/><path class="st30" d="M1097.6 409.6s-1.1-.3-.8-.9c.3-.6.4-1.9.4-1.9s-1.7-.3-2-.7c-.3-.4 1-2 1.1-5.4 0-.6-.1-1.3-.2-2.1 0 0 0-2.2 1.7-3.3 1.5-.9 4.7-1 5.4-1l4.7 6.1s.5 2.3 1.1 2.2c.1 0 .7-1.9.7-1.8 0 0 2.7-2.2 2.9 1.1.2 2.3-.8 2.8-1.3 2.9.4.4.8.9 1.1 1.4.5.8.7 2.9.8 3.8-.1.1-.2.2-.3.4-3.2 4 .8 9.2.8 9.2l-9.7 3.5s3.1-11.3-.3-10.2c-4 1.3-5.6 1-5.7.1v-.3c-.1-.8-.1-1.5-.1-1.5-.9-.4-.3-1.6-.3-1.6zM1089.7 486.8c1.5-2.4 3-6.9 4.3-9.8.2-.4.3-.7.5-1l-.1.9 4.4-1.2c.3 6.2-2.8 9.4-3.1 8.9-.3-.6 1.1-4 1.1-4-.4 1.4-3.5 5-4.7 6.2-1.7 1.3-3.4 1.5-2.4 0z"/><path class="st31" d="M1094.4 475.9l7-42.7.7-2.2 8.6 1-11.4 43.4-.7.2-4.4 1.2z"/><path class="st32" d="M1082.3 558.9c3.1 1 4.5-3 5.1-5.8l6.6.9-.2 10.7-2 .1-.3-6.6s-2 6.1-3.6 6.4c-1.6.3-7.1-1.5-8.9-2.5-1.7-1.2.6-4.1 3.3-3.2zM1128.8 560.6l-1.7.9-3.2-5.8s.9 6.4-.4 7.3c-1.3.9-7.1 1.8-9.1 1.7-2-.1-1.2-3.8 1.6-4.2 3.8-.6 2.4-6.4 1.6-8.9l6.3-1.7 4.9 10.7z"/><path class="st11" d="M1111.9 485.9c1.4-.9 2.6-1.8 3.7-2.7-2.5 5.3-.6 27.3-.6 27.3l9.2 39.4-.4.1-6.3 1.7-.2.1s-9.3-30.5-10.8-38.8c-.5-2.6-1.4-7.2-2.4-12.3 2.4-6.3 5.5-13.3 7.8-14.8z"/><path class="st28" d="M1087.1 553s2.9-34.4 4.6-42.6c1.5-7.2 6.1-30.7 6.9-33.5.4-1.4.7-2.7.9-4 10.3 3.5 19.8-1.7 19.8-1.7v-.2c1.1 5.5-.4 9.1-3.8 12.2-1.1.9-2.3 1.8-3.7 2.7-2.3 1.5-5.4 8.5-7.7 14.8-2.1 5.6-3.7 10.6-3.7 10.6l-6.4 42.6h-.1l-6.6-.9h-.2z"/><path class="st33" d="M1099.6 472.8c-.2-.1-.4-.1-.6-.2-.4-2.2 0-13.5.4-24.2.3-6.3-1.3-5.5-2.4-8.6-2.1-6.5 7-16.8 7-16.8s7.3-4.9 8.9-4.7c2.8.3 6.5 1.7 5.2 18.3-.8 9.3 1.1 26.8 1.4 34.4v.2c-.1 0-9.6 5.2-19.9 1.6z"/><path class="st32" d="M1108 495.7l14-11v14.1h-28v-14.1z"/><path class="st29" d="M1094.5 484.7v.1h27.5v-.1l-13.7 11z"/><path class="st30" d="M1099.9 491.7c.5-1.4 1.7-3.2 2.4-4.1l4.7 1.4c-.1 1.2-.4 3.8-1.7 7.1-1.3 3.3-3.3 5.3-4.8 4.5-1.2-.7-.1-6.7-.1-6.7s-1.2-.3-.5-2.2z"/><path class="st31" d="M1101.9 487.5l6-28.6s-3.8-27.8.6-36.7c1.3-2.6 5.4-4 7.6.2 1.5 2.9 1 17-2.1 38.5-1.4 9.5-4.2 17.3-6.9 28.2l-.2-.1-4.7-1.4-.3-.1z"/><path class="st30" d="M1004.4 479.3c.3.1.6.2 1 .3.1 1.2.2 2.4.4 3.7.1.6.4 2.1.8 4.2-.5 2.8-1.1 6.2-1.7 9.6-1.6-.7-2.1-6.2-1.5-11.8.2-1.9.5-6.2 1-11.4-.1 3-.1 5 0 5.4z"/><path class="st34" d="M1030.9 556.1c.5.6 1.1 1.6 1.5 3.2.9 3.5 1.1 3.5-.5 4.3-1.6.8-4.7 1.7-9.1 2.2-4 .5-8.6.9-10.9-.1-.8-.3-.8-1.4-.5-2.6.3-1.2 5.6-1.1 7.6-2.3 1.1-.6 2.3-1.7 3.2-2.6 0 .1 0 .2.1.3l8.6-2.4zM987.4 559c.5-1.2 5.7-.4 7.8-1.3 1.4-.6 3.4-2.5 4.6-3.6l8.2.6c.3.7.5 1.6.7 3 .5 3.5.7 3.5-1 4.1-1.7.6-4.9 1.1-9.3 1.2-4.1 0-8.7 0-10.8-1.3-.8-.5-.7-1.5-.2-2.7z"/><path class="st35" d="M999.2 554s.9-31.2 2.5-39.6c.6-3.4 1.9-10.5 3.1-17.3.6-3.4 1.2-6.8 1.7-9.6 1.5 7.4 4.7 21.9 5.9 28.3l-4.2 38.9h-.3l-8.2-.6-.5-.1z"/><path class="st36" d="M1006.5 487.5c-.4-2.1-.7-3.6-.8-4.2-.2-1.2-.3-2.5-.4-3.7 9.2 2.9 19-.3 21.8-1.3-.3 2.3-1 5.1-2.7 8.1-1 1.8-.2 27.9-.2 27.9l6.7 41.7-8.7 2.5c0-.1 0-.2-.1-.3-6.8-25.3-7.6-31.6-9.6-41.7-.1-.3-.1-.6-.2-.9-1.1-6.2-4.3-20.7-5.8-28.1z"/><path class="st30" d="M1011.3 424.9c.1-1.3.1-3.1.2-4.5.1-1.1.4-1.5.4-2.4 0-1.6-.3-2.7-1.1-2.5-4.3 1.2-6.5.5-6.6-.4-.1-.9.1-2.1.1-2.1-.9-.6.1-1.3.1-1.3s-1.1-.6-.7-1.2c.4-.6.3-1.6.3-1.6s-2 .8-2.4-.2c-.2-.5.9-3 1.5-6 .4-1.9-.4-4.4.5-6.6.9-.1 2.1-.3 3.1-.4 2.6-.1 6 .8 6.3 3.2.6 4.3 3 4.8 4.1 5.6 0 0 1-1.9 2.6-1.2 1.8.8-.3 5.5-.3 5.5l2.4 4.3c-.5 2.8.1 6.9.4 9.1-.5.2-10.9 2.7-10.9 2.7z"/><path class="st37" d="M1022.5 422.2c-.1 0-.2-.1-.3-.1.1.1.2.1.3.1zM1010.6 426.2c-.1.3-.3.5-.4.8.2-.3.3-.5.4-.8z"/><path class="st11" d="M1022.6 423s0 .1 0 0c-2.6 1-5.2 2.1-7.7 3.1-1.6.6-3.4 1.2-5.2 2 .1-.2.2-.5.3-.7 0-.1.1-.2.1-.3.1-.3.2-.6.4-.8.2-.4.4-.9.6-1.3l10.9-2.7c.1 0 .2.1.3.1.1 0 .2.1.3.1.2.1.1.3 0 .5z"/><path class="st34" d="M1019.3 408.8s2-4.7.3-5.5c-1.5-.7-2.6 1.2-2.6 1.2-1.1-.9-3.5-1.3-4.1-5.6-.3-2.4-3.7-3.3-6.3-3.2-1 0-2.2.3-3.1.4-1.5.1-2.1-.3 1.2-3.3 5.2-4.8 14.3-3 18.1-.2 3.7 2.8 3.4 9.3 2.6 12.9-.8 3.5-3.6 7.5-3.6 7.6l-2.5-4.3z"/><path class="st30" d="M1414 417.2c3.5-3.3 4.4-11.5 4.4-11.5s1.9.4 1.7-2.7c-.2-3.1-2.7-1-2.7-1-.1 0-.1-.1-.2-.1-3.4.2-7.2-5.6-8.4-7.7-1.4-.1-3.3.2-4.1 2.2 0 0-.5 1.5-.3 2.9.1.9.3 1.8.3 2.5 0 3.3-1.3 4.8-1 5.2.2.4 1.9.7 1.9.7s-.1 1.3-.4 1.8c-.3.5.8.9.8.9s-.5 1.2.2 1.4c0 0 0 .8.1 1.7.1.9 1.6.5 5.5-.7 3.3-1.1.3 9 .3 9h8.1s-1.2-3-1.1-6.6c-1.5.3-3 .9-4.6 1.6-.4 0-.4.4-.5.4z"/><path class="st34" d="M1422.7 390.8c-1.6-1.6-3.9-2.3-6.1-2.3-5.9-2.6-12.3 1.9-13.1 5.2-1 3.8.9 6.1.9 6.1 0-.2-.1-.4-.1-.6-.1-1.5.3-2.9.3-2.9.8-1.9 2.6-2.3 4.1-2.2 1.2 2.1 5.1 7.9 8.4 7.7.1 0 .1.1.2.1 0 0 2.5-2.1 2.7 1 .2 3.1-1.7 2.7-1.7 2.7s-.8 8.2-4.4 11.5c.1 0 .2-.1.3-.1 1.6-.7 3.1-1.1 4.6-1.3 2.2-.4 4.5-.7 6.9-1.6 0-1.2.6-4.2.8-5.1.7-3.6 2.6-12-3.8-18.2z"/><path class="st30" d="M1402.3 474.5c-1.2 2.8-2.6 7.1-4 9.3-.9 1.5.7 1.3 2.1-.1 1.2-1.1 4.1-4.6 4.5-5.9 0 0-1.3 3.3-1 3.8.2.5 3.3-2.6 2.9-8.7l-3.6-.4c-.3.5-.6 1.2-.9 2z"/><path class="st42" d="M1418.3 431.7l-8.3-1-.6.2-6.8 41.6h.5l3.6.4.7.1z"/><path class="st48" d="M1404.5 479.7s.3-45.4 7.5-56.3"/><path class="st11" d="M1400.4 491.6l24.8 1.2v-22.9l-24.8-1.2z"/><path class="st44" d="M1407.2 471c.1.3.1.6.2.9.1-.3.1-.5.2-.8-.2-.1-.3-.1-.4-.1z"/><path class="st49" d="M1422.3 506.4s-1.9-20.9.5-26c-1 .9-2.2 1.8-3.5 2.6-2.2 1.4-5.1 8.1-7.3 14.1.9 4.8 1.8 9.2 2.2 11.7 1.5 7.9 10.3 36.9 10.3 36.9l6.5-1.7-8.7-37.6z"/><path class="st50" d="M1419.4 483c1.3-.8 2.5-1.7 3.5-2.6 3.3-2.9 4.7-6.4 3.6-11.6v.2s-9.7 4-19 2.1c-.1.3-.1.5-.2.8-.2.8-.4 1.7-.6 2.6-.7 2.7-5.1 25-6.5 31.9-1.6 7.8-4.4 40.5-4.4 40.5l6.7.9 6-40.5s1.5-4.8 3.5-10.1c2.3-6.1 5.2-12.8 7.4-14.2z"/><path class="st21" d="M1426.5 469v-.2c-.2-7.2-2-23.9-1.3-32.8 1.3-15.9-2.2-16.5-4.9-16.8-2.7-.3-12.8 4.2-14.6 12.6-.7 3.1 1.3 8.7 1 14.6-.4 10.2-2.7 21.5-2.3 23.6.9.3 1.8.6 2.7.8.1 0 .2 0 .3.1 9.4 2.1 19.1-1.9 19.1-1.9z"/><path class="st34" d="M1396.7 546.5s-1.5 3.3-4.6 4.5c-3.1 1.2-6 1-6.4 3.1 0 0 4.3 2.7 17.3 1v-7.6l-6.3-1zM1425.1 545.3s-.7 2.9-3.3 4.8c-2.6 1.9-5.8 2.5-5.7 4.5 0 0 7 2.4 16.1-3l-1.5-7.7-5.6 1.4z"/><path class="st51" d="M1420.2 417.2l.6 2.1-12.2 7.2 1.4-4.4z"/><path class="st52" d="M1414.4 502.1v-8.4c0-1.7-1.4-3.1-3.1-3.1h-3.9c-1.7 0-3.1 1.4-3.1 3.1v8.3"/><path class="st53" d="M1422.3 526.8h-26.2l1.9-30.1 22.6.1z"/><path class="st21" d="M1400.9 505.3h16.9v15.3h-16.9z"/><path class="st30" d="M1408 488.5c-.7 1.8.4 2 .4 2s-1 5.8.1 6.4c1.5.8 3.3-1.1 4.6-4.2 1.2-3.1 1.5-5.5 1.6-6.7l-4.5-1.3c-.6.7-1.7 2.5-2.2 3.8z"/><path class="st51" d="M1423.1 421.3c-1.3-2.8-4.9-.2-6.1 2.3-4.2 8.4-1.3 33.7-1.3 33.7l-5.7 27.2.3.1 4.5 1.3h.2c2.6-10.4 5.2-17.8 6.5-26.8 2.9-20.4 2.9-35 1.6-37.8z"/><path class="st54" d="M378.9 393.5c.1-.4.3-.7.5-1.1.8-1.8 2.8-3.7 5.5-4.8 2.6-1.2 5.7-1.4 8.7.2 2 0 4.1.7 5.9 2.2 1.6 1.4 4 4 4 9.5s-5.1 10.2-6.3 11.3c-.1-.9-.3-3-.8-3.8-.3-.5-.7-1-1.1-1.4.6-.1 1.5-.6 1.3-2.9-.2-3.3-2.9-1.1-2.9-1.1-.1 0-.6 1.8-.7 1.8-.5 0-1.1-2.2-1.1-2.2l-4.7-6.1c-.7 0-3.9.1-5.4 1-1.7 1-1.7 3.3-1.7 3.3.1.7.2 1.4.2 2.1 0 3.5-1.3 5-1.1 5.4.3.4 2 .7 2 .7s-.1 1.3-.4 1.9c-.3.6.8.9.8.9s-.6 1.3.2 1.5c0 0 0 .7.1 1.5-1 .5-1.9.8-1.9.8s-1.2-2.9-2-10.4c-.2-2.5-.6-6.3.9-10.3z"/><path class="st30" d="M381.6 410.5s-1.1-.3-.8-.9c.3-.6.4-1.9.4-1.9s-1.7-.3-2-.7c-.3-.4 1-2 1.1-5.4 0-.6-.1-1.3-.2-2.1 0 0 0-2.2 1.7-3.3 1.5-.9 4.7-1 5.4-1l4.7 6.1s.5 2.3 1.1 2.2c.1 0 .7-1.9.7-1.8 0 0 2.7-2.2 2.9 1.1.2 2.3-.8 2.8-1.3 2.9.4.4.8.9 1.1 1.4.5.8.7 2.9.8 3.8-.1.1-.2.2-.3.4-3.2 4 .8 9.2.8 9.2L388 424s3.1-11.3-.3-10.2c-4 1.3-5.6 1-5.7.1v-.3c-.1-.8-.1-1.5-.1-1.5-.9-.3-.3-1.6-.3-1.6zM373.7 487.7c1.5-2.4 3-6.9 4.3-9.8.2-.4.3-.7.5-1l-.1.9 4.4-1.2c.3 6.2-2.8 9.4-3.1 8.9-.3-.6 1.1-4 1.1-4-.4 1.4-3.5 5-4.7 6.2-1.7 1.4-3.4 1.6-2.4 0z"/><path class="st11" d="M378.4 476.9l7-42.8.7-2.1 8.6 1-11.4 43.4-.7.2-4.4 1.2z"/><path class="st32" d="M366.3 559.8c3.1 1 4.5-3 5.1-5.8l6.6.9-.2 10.7-2 .1-.3-6.6s-2 6.1-3.6 6.4c-1.6.3-7.1-1.5-8.9-2.5-1.7-1.1.6-4 3.3-3.2zM412.8 561.6l-1.7.9-3.2-5.8s.9 6.4-.4 7.3c-1.3.9-7.1 1.8-9.1 1.7-2-.1-1.2-3.8 1.6-4.2 3.8-.6 2.4-6.4 1.6-8.9l6.3-1.7 4.9 10.7z"/><path class="st51" d="M395.9 486.9c1.4-.9 2.6-1.8 3.7-2.7-2.5 5.3-.6 27.3-.6 27.3l9.2 39.4-.4.1-6.3 1.7-.2.1s-9.3-30.5-10.8-38.8c-.5-2.6-1.4-7.2-2.4-12.3 2.4-6.3 5.5-13.4 7.8-14.8z"/><path class="st21" d="M371.1 554s2.9-34.4 4.6-42.6c1.5-7.2 6.1-30.7 6.9-33.5.4-1.4.7-2.7.9-4 10.3 3.5 19.8-1.7 19.8-1.7v-.2c1.1 5.5-.4 9.1-3.8 12.2-1.1.9-2.3 1.8-3.7 2.7-2.3 1.5-5.4 8.5-7.7 14.8-2.1 5.6-3.7 10.6-3.7 10.6l-6.4 42.6h-.1l-6.6-.9h-.2z"/><path class="st34" d="M383.6 473.8c-.2-.1-.4-.1-.6-.2-.4-2.2 0-13.5.4-24.2.3-6.3-1.3-5.5-2.4-8.6-2.1-6.5 7-16.8 7-16.8s7.3-4.9 8.9-4.7c2.8.3 6.5 1.7 5.2 18.3-.8 9.3 1.1 26.8 1.4 34.4v.2c-.1-.1-9.6 5.1-19.9 1.6z"/><path class="st53" d="M392 496.7l14-11.1v14.2h-28v-14.2z"/><path class="st29" d="M378.5 485.7v.1H406v-.1l-13.7 11z"/><path class="st30" d="M383.9 492.6c.5-1.4 1.7-3.2 2.4-4.1l4.7 1.4c-.1 1.2-.4 3.8-1.7 7.1-1.3 3.3-3.3 5.3-4.8 4.5-1.2-.7-.1-6.7-.1-6.7s-1.2-.3-.5-2.2z"/><path class="st11" d="M385.9 488.5l6-28.6s-3.8-27.8.6-36.7c1.3-2.6 5.4-4 7.6.2 1.5 2.9 1 17-2.1 38.5-1.4 9.5-4.2 17.3-6.9 28.2l-.2-.1-4.7-1.4-.3-.1z"/><path class="st30" d="M538 428.2c3.5-3.3 4.4-11.5 4.4-11.5s1.9.4 1.7-2.7c-.2-3.1-2.7-1-2.7-1-.1 0-.1-.1-.2-.1-3.4.2-7.2-5.6-8.4-7.7-1.4-.1-3.3.2-4.1 2.2 0 0-.5 1.5-.3 2.9.1.9.3 1.8.3 2.5 0 3.3-1.3 4.8-1 5.2.2.4 1.9.7 1.9.7s-.1 1.3-.4 1.8c-.3.5.8.9.8.9s-.5 1.2.2 1.4c0 0 0 .8.1 1.7.1.9 1.6.5 5.5-.7 3.3-1.1.3 9 .3 9h8.1s-1.2-3-1.1-6.6c-1.5.3-3 .9-4.6 1.6-.4 0-.4.4-.5.4z"/><path class="st56" d="M546.7 401.8c-1.6-1.6-3.9-2.3-6.1-2.3-5.9-2.6-12.3 1.9-13.1 5.2-1 3.8.9 6.1.9 6.1 0-.2-.1-.4-.1-.6-.1-1.5.3-2.9.3-2.9.8-1.9 2.6-2.3 4.1-2.2 1.2 2.1 5.1 7.9 8.4 7.7.1 0 .1.1.2.1 0 0 2.5-2.1 2.7 1 .2 3.1-1.7 2.7-1.7 2.7s-.8 8.2-4.4 11.5c.1 0 .2-.1.3-.1 1.6-.7 3.1-1.1 4.6-1.3 2.2-.4 4.5-.7 6.9-1.6 0-1.2.6-4.2.8-5.1.7-3.6 2.6-12-3.8-18.2z"/><path class="st30" d="M526.3 485.5c-1.2 2.8-2.6 7.1-4 9.3-.9 1.5.7 1.3 2.1-.1 1.2-1.1 4.1-4.6 4.5-5.9 0 0-1.3 3.3-1 3.8.2.5 3.3-2.6 2.9-8.7l-3.6-.4c-.3.5-.6 1.2-.9 2z"/><path class="st42" d="M542.3 442.7l-8.3-1-.6.2-6.8 41.6h.5l3.6.4.7.1z"/><path class="st57" d="M528.5 490.7s.3-45.4 7.5-56.3"/><path class="st53" d="M524.4 502.6l24.8 1.2v-22.9l-24.8-1.2z"/><path class="st44" d="M531.2 482c.1.3.1.6.2.9.1-.3.1-.5.2-.8-.2-.1-.3-.1-.4-.1z"/><path class="st32" d="M546.3 517.4s-1.9-20.9.5-26c-1 .9-2.2 1.8-3.5 2.6-2.2 1.4-5.1 8.1-7.3 14.1.9 4.8 1.8 9.2 2.2 11.7 1.5 7.9 10.3 36.9 10.3 36.9l6.5-1.7-8.7-37.6z"/><path class="st11" d="M543.4 494c1.3-.8 2.5-1.7 3.5-2.6 3.3-2.9 4.7-6.4 3.6-11.6v.2s-9.7 4-19 2.1c-.1.3-.1.5-.2.8-.2.8-.4 1.7-.6 2.6-.7 2.7-5.1 25-6.5 31.9-1.6 7.8-4.4 40.5-4.4 40.5l6.7.9 6-40.5s1.5-4.8 3.5-10.1c2.3-6.1 5.2-12.8 7.4-14.2z"/><path class="st58" d="M550.5 480v-.2c-.2-7.2-2-23.9-1.3-32.8 1.3-15.9-2.2-16.5-4.9-16.8-2.7-.3-12.7 4.2-14.6 12.6-.7 3.1 1.3 8.7 1 14.6-.4 10.2-2.7 21.5-2.3 23.6.9.3 1.8.6 2.7.8.1 0 .2 0 .3.1 9.4 2.1 19.1-1.9 19.1-1.9z"/><path class="st34" d="M520.7 557.5s-1.5 3.3-4.6 4.5c-3.1 1.2-6 1-6.4 3.1 0 0 4.3 2.7 17.3 1v-7.6l-6.3-1zM549.1 556.3s-.7 2.9-3.3 4.8c-2.6 1.9-5.8 2.5-5.7 4.5 0 0 7 2.4 16.1-3l-1.5-7.7-5.6 1.4z"/><path class="st59" d="M544.2 428.2l.6 2.1-12.2 7.2 1.4-4.4z"/><path class="st52" d="M538.4 513.1v-8.4c0-1.7-1.4-3.1-3.1-3.1h-3.9c-1.7 0-3.1 1.4-3.1 3.1v8.3"/><path class="st53" d="M546.3 537.8h-26.2l1.9-30.1 22.6.1z"/><path class="st21" d="M524.9 516.3h16.9v15.3h-16.9z"/><path class="st30" d="M532 499.5c-.7 1.8.4 2 .4 2s-1 5.8.1 6.4c1.5.8 3.3-1.1 4.6-4.2 1.2-3.1 1.5-5.5 1.6-6.7l-4.5-1.3c-.6.7-1.7 2.5-2.2 3.8z"/><path class="st59" d="M547.1 432.3c-1.3-2.8-4.9-.2-6.1 2.3-4.2 8.4-1.3 33.7-1.3 33.7l-5.7 27.2.3.1 4.5 1.3h.2c2.6-10.4 5.2-17.8 6.5-26.8 2.9-20.4 2.9-35 1.6-37.8z"/><circle class="st41" cx="318.7" cy="451.4" r="3.2"/><circle class="st32" cx="467.3" cy="444.1" r="3.4"/><g><path class="st31" d="M725.4 443.2c2.8-20.1 3.2-33.2 1.8-35.9-2.2-4.2-6.3-2.8-7.6-.2-4 8.1-1.2 32.1-.7 36.1h6.5z"/><path class="st21" d="M688.4 438.6c.3 0 .7.2.7.6 0 .4-.2.7-.6.7-.3 0-.7-.2-.7-.6.1-.3.3-.6.6-.7zm-3-11l3.4-.4v.3l-3.4.4v-.3zm-1.3-.4c-.4 0-.7.4-.6.8l1.4 11.7c0 .4.4.7.8.6l5.9-.7c.4 0 .7-.4.6-.8l-1.4-11.7c0-.4-.4-.7-.8-.6l-5.9.7z"/><path class="st21" d="M684.1 427.2c-.4 0-.7.4-.6.8l1.4 11.7c0 .4.4.7.8.6l5.9-.7c.4 0 .7-.4.6-.8l-1.4-11.7c0-.4-.4-.7-.8-.6l-5.9.7z"/><path class="st30" d="M690.2 430.9c1.4.5 3.2 1.7 4.1 2.4l-1.4 4.7c-1.2-.1-3.8-.4-7.1-1.7-3.3-1.3-5.3-3.3-4.5-4.8.7-1.2 6.7-.1 6.7-.1s.3-1.2 2.2-.5z"/><path class="st31" d="M721.6 438.7l-27.2-5.7-.1.3-1.4 4.7-.1.2c10.9 2.7 18.7 5.5 28.2 6.9.2 0 .4.1.5.1v-6.5z"/></g><circle class="st31" cx="722.3" cy="442.1" r="3.4"/><g><path class="st28" d="M1005.3 479.6c-.3-.1-.6-.2-1-.3-.1-.4-.1-2.4-.1-5.4.1-5.7.4-14.8 1.2-22.7.9-8.1 1.4-16.5 4.6-23.9-.1.2-.2.5-.3.7 1.8-.8 3.6-1.4 5.2-2 2.5-1 5-2.1 7.6-3v-.1c.1-.2.1-.5.2-.7-.1 0-.2-.1-.3-.1.8.2 1.7.7 2.4 1.9-.2-.1 2.3 11.1 3 23 .7 11.6-.5 23.8 0 26.7 0 1.6 0 3.1.1 4.2 0 0-.3.1-.8.3-2.8 1.1-12.6 4.3-21.8 1.4z"/><path class="st45" d="M986.6 447.6c.1.4-.1.7-.3.8-.2.1-.5-.1-.6-.5-.1-.4.1-.7.3-.8.3-.1.6.1.6.5zm-1.2-12.5l-2.5.9-.1-.3 2.5-.9.1.3zm-3.5.3c-.3.1-.5.5-.4 1l2.1 12.3c.1.4.4.7.7.6l4.2-1.5c.3-.1.5-.5.4-1l-2.1-12.3c-.1-.4-.4-.7-.7-.6l-4.2 1.5z"/><path class="st45" d="M981.9 435.4c-.3.1-.5.5-.4 1l2.1 12.3c.1.4.4.7.7.6l4.2-1.5c.3-.1.5-.5.4-1l-2.1-12.3c-.1-.4-.4-.7-.7-.6l-4.2 1.5z"/><path class="st30" d="M1028.2 444.4l-11.4 1.9 1.1 8.6c-9.9-3.6-24.8-8.8-26.6-9.4-.1 0-.2-.1-.2-.1s-4.9-4.7-7.5-6.2c-.1 0-.2-.1-.2-.1H983.1h-.1-.1-.1-.1-.1-.1-.1-.1-.1c-.1 0-.1.1-.2.1s-.1.1-.2.1l-.1.1-.1.1s0 .1-.1.1l-.1.1s0 .1-.1.1l-.1.1s0 .1-.1.1c0 0 0 .1-.1.1 0 0 .4.2.3.2 0 .1.3.2.3.3v.1c0 .1-.4.1-.4.2h-.2c0 .1-.1.1-.1.2l-.1.1V442.7c0 .1 0 .2.1.2v.2c0 .1.1.2.1.4 0 .1 0 .1.1.2 0 .1.1.2.1.3 0 .1.1.1.1.2s.1.2.1.3c0 .1.1.1.1.2s.1.2.1.3c0 .1.1.1.1.2.1.1.1.2.2.3 0 .1.1.1.1.2.1.1.1.2.2.3l.2.2c.1.1.2.2.2.3l.2.2.4.4c.7.7 1.5 1.3 2.5 2 4.6 3.1 15.3 8.1 23.3 11.7 2.8 1.3 5.3 2.4 7 3.1 0 0 4.8 1.3 7.6-.4 3.4-1.8 4.6-16.8 4.6-19.1zm-42.5 3.2c-.5-.2-1-.3-1.5-.5.6.2 1.1.4 1.5.5.4.1.7.2 1.1.3-.3-.1-.7-.2-1.1-.3zm5.4.4c.1-.2.3-.4.4-.6-.1-.5-.2-1-.2-1.5 0 .5.1 1 .2 1.5-.1.2-.3.4-.4.6z"/><path class="st11" d="M1016.8 446.3l-.5.1s-4.7-25.6 7.6-23.3c.5.1 1 .3 1.4.7 3 2.6 3.1 12 3.3 20.6l-.4.1-11.4 1.8z"/></g><g><path class="st11" d="M1211.4 456.2c2.8-20.1 3.2-33.2 1.8-35.9-2.2-4.2-6.3-2.8-7.6-.2-4 8.1-1.2 32.1-.7 36.1h6.5z"/><path class="st21" d="M1174.4 451.6c.3 0 .7.2.7.6 0 .4-.2.7-.6.7-.3 0-.7-.2-.7-.6.1-.3.3-.6.6-.7zm-3-11l3.4-.4v.3l-3.4.4v-.3zm-1.3-.4c-.4 0-.7.4-.6.8l1.4 11.7c0 .4.4.7.8.6l5.9-.7c.4 0 .7-.4.6-.8l-1.4-11.7c0-.4-.4-.7-.8-.6l-5.9.7z"/><path class="st21" d="M1170.1 440.2c-.4 0-.7.4-.6.8l1.4 11.7c0 .4.4.7.8.6l5.9-.7c.4 0 .7-.4.6-.8l-1.4-11.7c0-.4-.4-.7-.8-.6l-5.9.7z"/><path class="st30" d="M1176.2 443.9c1.4.5 3.2 1.7 4.1 2.4l-1.4 4.7c-1.2-.1-3.8-.4-7.1-1.7-3.3-1.3-5.3-3.3-4.5-4.8.7-1.2 6.7-.1 6.7-.1s.3-1.2 2.2-.5z"/><path class="st11" d="M1207.6 451.7l-27.2-5.7-.1.3-1.4 4.7-.1.2c10.9 2.7 18.7 5.5 28.2 6.9.2 0 .4.1.5.1v-6.5z"/><circle class="st11" cx="1208.3" cy="454.9" r="3.4"/></g><g><path class="st45" d="M1534.1 439.9c.2 0 .5.3.5.6 0 .4-.1.7-.3.7-.2 0-.4-.3-.5-.6-.1-.4 0-.7.3-.7zm-2.6-12l2.3-.3v.3l-2.3.3v-.3zm-.9-.5c-.3 0-.4.4-.4.8l1.5 12.6c.1.4.3.8.6.7l3.9-.5c.3 0 .4-.4.4-.8l-1.5-12.6c-.1-.4-.3-.8-.6-.7l-3.9.5z"/><path class="st45" d="M1534.1 439.9c.2 0 .5.3.5.6 0 .4-.1.7-.3.7-.2 0-.4-.3-.5-.6-.1-.4 0-.7.3-.7zm-2.6-12l2.3-.3v.3l-2.3.3v-.3zm-.9-.5c-.3 0-.4.4-.4.8l1.5 12.6c.1.4.3.8.6.7l3.9-.5c.3 0 .4-.4.4-.8l-1.5-12.6c-.1-.4-.3-.8-.6-.7l-3.9.5z"/><path class="st41" d="M1563.8 455.4c2.6-19 2.5-32.5 1.3-35.1-1.3-2.8-4.9-.2-6.1 2.3-3.7 7.5-1.8 28.5-1.4 32.9h6.2z"/><g><path class="st30" d="M1537.2 433.5c-1.4-1.3-2-.4-2-.4s-4.9-3.2-5.9-2.3c-1.3 1-.2 3.5 2.2 5.9 2.4 2.3 4.5 3.5 5.6 4.1l2.9-3.6c-.6-1-1.7-2.8-2.8-3.7z"/><path class="st41" d="M1562.2 451.8l-22-15-.2.3-2.9 3.6-.1.1c8.6 6.3 14.4 11.6 22.3 16.3.2.1.4.2.6.4l2.3-5.7z"/></g></g><circle class="st41" cx="1560.9" cy="454.5" r="3.2"/><g><path class="st11" d="M1712.4 448.2c2.8-20.1 3.2-33.2 1.8-35.9-2.2-4.2-6.3-2.8-7.6-.2-4 8.1-1.2 32.1-.7 36.1h6.5z"/><path class="st21" d="M1675.4 443.6c.3 0 .7.2.7.6 0 .4-.2.7-.6.7-.3 0-.7-.2-.7-.6.1-.3.3-.6.6-.7zm-3-11l3.4-.4v.3l-3.4.4v-.3zm-1.3-.4c-.4 0-.7.4-.6.8l1.4 11.7c0 .4.4.7.8.6l5.9-.7c.4 0 .7-.4.6-.8l-1.4-11.7c0-.4-.4-.7-.8-.6l-5.9.7z"/><path class="st21" d="M1671.1 432.2c-.4 0-.7.4-.6.8l1.4 11.7c0 .4.4.7.8.6l5.9-.7c.4 0 .7-.4.6-.8l-1.4-11.7c0-.4-.4-.7-.8-.6l-5.9.7z"/><path class="st30" d="M1677.2 435.9c1.4.5 3.2 1.7 4.1 2.4l-1.4 4.7c-1.2-.1-3.8-.4-7.1-1.7-3.3-1.3-5.3-3.3-4.5-4.8.7-1.2 6.7-.1 6.7-.1s.3-1.2 2.2-.5z"/><path class="st11" d="M1708.6 443.7l-27.2-5.7-.1.3-1.4 4.7-.1.2c10.9 2.7 18.7 5.5 28.2 6.9.2 0 .4.1.5.1v-6.5z"/><circle class="st11" cx="1709.3" cy="446.9" r="3.4"/></g></svg>