<svg id="Layer_1" xmlns="http://www.w3.org/2000/svg" viewBox="0 0 1920 643.2"><style>.st0{fill:#46868A;} .st1{fill:#929497;} .st2{fill:#67493F;} .st3{fill:#BD765B;} .st4{fill:#A66850;} .st5{fill:#C69E7D;} .st6{fill:#AC8A6B;} .st7{fill:#905B44;} .st8{fill:#BA9674;} .st9{fill:#A86A51;} .st10{fill:#C8A07C;} .st11{fill:#AD907E;} .st12{fill:#58595B;} .st13{fill:#231F20;} .st14{opacity:0.5;fill:#231F20;} .st15{fill:#DB4140;} .st16{fill:#B53433;} .st17{fill:#FFD773;} .st18{fill:#D1B260;} .st19{opacity:0.35;} .st20{fill:none;stroke:#231F20;stroke-width:8;stroke-miterlimit:10;} .st21{opacity:0.5;} .st22{fill:#4F2F22;} .st23{fill:#FFFFFF;} .st24{font-family:&amp;apos;Times-Roman&amp;apos;;} .st25{font-size:22.3928px;} .st26{letter-spacing:2;} .st27{font-size:16.7946px;} .st28{letter-spacing:1;} .st29{fill:#3B4248;} .st30{fill:#E6E7E8;} .st31{fill:#FCC79B;} .st32{fill:#BA94C4;} .st33{fill:#2D2D32;} .st34{fill:#88639C;} .st35{fill:#2E2E2B;} .st36{fill:#467F83;} .st37{fill:#569EA4;} .st38{fill:#FFC719;} .st39{fill:#FFC0AD;} .st40{fill:none;} .st41{fill:#A3CF65;} .st42{fill:#709E40;} .st43{fill:#522915;} .st44{fill:none;stroke:#709E40;stroke-width:2;stroke-miterlimit:10;} .st45{fill:#FFAA2F;} .st46{fill:none;stroke:#2E2E2B;stroke-width:3;stroke-miterlimit:10;} .st47{fill:#78B0B6;} .st48{fill:#452D00;} .st49{fill:#532F2B;} .st50{fill:#BE654B;} .st51{fill:#E6795B;} .st52{fill:none;stroke:#D1D3D4;stroke-width:2;stroke-miterlimit:10;} .st53{fill:#035D80;} .st54{fill:#0790C4;} .st55{fill:#D1D3D4;} .st56{fill:#FBC331;} .st57{fill:#36686B;} .st58{fill:#F97D31;} .st59{fill:none;stroke:#E67092;stroke-width:2;stroke-miterlimit:10;} .st60{fill:#DA3565;} .st61{fill:#E67092;}</style><path class="st0" d="M1920 643.2s1.2-455.1 0-455.5c0 0-82 19.5-82.2 19.5-.5 0-84.7-16.5-86.1-16.9l-248.3 95.9c-.5-.2-126.6-28.5-126.6-28.5-.1 0-3.7 2.6-9.1 6.4-15.2 10.7-44.1 31-44.1 31-.1 0-117.3-70.8-117.3-70.8s-297 128-443.4 191c-61.5-26.6-223-96.4-223.6-96.7 0 0-64.1 13.4-64.2 13.4-.3 0-58-11.3-58.9-11.6l-170 65.6c-.3-.1-86.6-19.5-86.7-19.5 0 0-2.6 1.8-6.2 4.4-10.4 7.3-30.2 21.2-30.1 21.2-.1 0-80.3-48.5-80.3-48.5l-43 18.5V643c3.3-4.4 1920.1.2 1920.1.2z"/><path class="st1" d="M0 586.4h1920v56.8H0z"/><path class="st2" d="M730.1 98.1l17.4-17.7V48H344.9v32.4l17.5 17.5z"/><path class="st3" d="M298.2 108.5h64v479.8h-64zM730.1 108.5h64v479.8h-64z"/><path class="st4" d="M362.2 546.8H730v41.4H362.2z"/><path class="st5" d="M730.1 64.5l-183.9-42-184 42v186.9h367.9z"/><path class="st6" d="M974.4 192.3h53.7v114.9h-53.7z"/><path class="st7" d="M974.4 307.2h53.7v281.1h-53.7z"/><path class="st8" d="M794.1 148.2h180.3v114.9H794.1z"/><path class="st9" d="M794.1 263h180.3v325.2H794.1z"/><path class="st8" d="M117.9 148.2h180.3v114.9H117.9z"/><path class="st9" d="M117.9 263h180.3v325.2H117.9z"/><path class="st10" d="M829.508 533.96h-35.4v-10.4h35.4z"/><path class="st11" d="M974.432 533.96h-34.5v-10.4h34.5z"/><path class="st10" d="M298.252 533.96h-35.4v-10.4h35.4zM152.428 533.96h-34.5v-10.4h34.5zM939.908 557.196h-110.4v-10.4h110.4z"/><path class="st12" d="M833.5 352.4h102.4v190.5H833.5z"/><path class="st13" d="M931.9 356.4v182.5h-94.4V356.4h94.4m8-8H829.5v198.5h110.4V348.4z"/><path class="st12" d="M156.4 361.5h102.4v222.8H156.4z"/><path class="st13" d="M254.8 365.5v214.8h-94.4V365.5h94.4m8-8H152.4v230.8h110.4V357.5z"/><path class="st14" d="M829.1 544.2h110.4v-223H826.9l-15.1 68.2v68h17.3zM150.2 321.2l-15 68.2v68h17.2v130.8h110.4v-267z"/><path class="st15" d="M829.9 321.2h24.5v86.1h-24.5z"/><path class="st16" d="M829.9 389.4h24.5v17.8h-24.5z"/><path class="st15" d="M858 321.2h24.5v86.1H858z"/><path class="st16" d="M858 389.4h24.5v17.8H858z"/><path class="st15" d="M886 321.2h24.5v86.1H886z"/><path class="st16" d="M886 389.4h24.5v17.8H886z"/><path class="st15" d="M914.1 321.2h24.5v86.1h-24.5z"/><path class="st16" d="M914.1 389.4h24.5v17.8h-24.5z"/><path class="st17" d="M826.4 321.2h3.5v68.3h-3.5z"/><path class="st18" d="M826.4 389.4h3.5v17.8h-3.5z"/><path class="st17" d="M854.5 321.2h3.5v68.3h-3.5z"/><path class="st18" d="M854.5 389.4v17.8h.1c0-.7.6-1.4 1.7-1.4s1.7.7 1.7 1.4h.1v-17.8h-3.6z"/><path class="st17" d="M882.5 321.2h3.5v68.3h-3.5z"/><path class="st18" d="M882.5 389.4v17.8h.1c0-.7.6-1.4 1.7-1.4s1.7.7 1.7 1.4h.1v-17.8h-3.6z"/><path class="st17" d="M910.6 321.2h3.5v68.3h-3.5z"/><path class="st18" d="M910.6 389.4v17.8h.1c0-.7.6-1.4 1.7-1.4s1.7.7 1.7 1.4h.1v-17.8h-3.6z"/><path class="st17" d="M938.6 321.2h3.5v68.3h-3.5z"/><path class="st18" d="M938.6 389.4h3.5v17.8h-3.5z"/><path class="st15" d="M153.7 321.2h24.5v86.1h-24.5z"/><path class="st16" d="M153.7 389.4h24.5v17.8h-24.5z"/><path class="st15" d="M181.8 321.2h24.5v86.1h-24.5z"/><path class="st16" d="M181.8 389.4h24.5v17.8h-24.5z"/><path class="st15" d="M209.8 321.2h24.5v86.1h-24.5z"/><path class="st16" d="M209.8 389.4h24.5v17.8h-24.5z"/><path class="st15" d="M237.9 321.2h24.5v86.1h-24.5z"/><path class="st16" d="M237.9 389.4h24.5v17.8h-24.5z"/><path class="st17" d="M150.2 321.2h3.5v68.3h-3.5z"/><path class="st18" d="M150.2 389.4h3.5v17.8h-3.5z"/><path class="st17" d="M178.3 321.2h3.5v68.3h-3.5z"/><path class="st18" d="M178.3 389.4v17.8h.1c0-.7.6-1.4 1.7-1.4s1.7.7 1.7 1.4h.1v-17.8h-3.6z"/><path class="st17" d="M206.3 321.2h3.5v68.3h-3.5z"/><path class="st18" d="M206.3 389.4v17.8h.1c0-.7.6-1.4 1.7-1.4s1.7.7 1.7 1.4h.1v-17.8h-3.6z"/><path class="st17" d="M234.4 321.2h3.5v68.3h-3.5z"/><path class="st18" d="M234.4 389.4v17.8h.1c0-.7.6-1.4 1.7-1.4s1.7.7 1.7 1.4h.1v-17.8h-3.6z"/><path class="st17" d="M262.4 321.2h3.5v68.3h-3.5z"/><path class="st18" d="M262.4 389.4h3.5v17.8h-3.5z"/><g><path class="st12" d="M366.2 255.4h359.9v287.4H366.2z"/><path class="st13" d="M722.1 259.4v279.4H370.2V259.4h351.9m8-8H362.2v295.4h367.9V251.4z"/></g><g class="st19"><path class="st13" d="M724 256.6H368.6V542z"/></g><g><path class="st20" d="M364.1 340.8h364.1M364.1 457.4h364.1"/><g><path class="st20" d="M635.6 254.1v290M456.7 256.6v285.3"/></g></g><circle class="st13" cx="236.6" cy="491.2" r="6.2"/><path class="st10" d="M362.2 546.8h367.9v10.4H362.2zM362.27 528.803h-64v-10.4h64zM794.09 528.803h-64v-10.4h64z"/><g id="Chick-Fil-A_Logo_2_"><g class="st21"><path d="M670.8 130.9c-1.9 0-3.5 1.5-3.5 3.5 0 1.9 1.6 3.5 3.5 3.5s3.5-1.6 3.5-3.5-1.6-3.5-3.5-3.5zm0 6.3c-1.5 0-2.8-1.2-2.8-2.8 0-1.5 1.3-2.8 2.8-2.8 1.5 0 2.8 1.2 2.8 2.8 0 1.5-1.3 2.8-2.8 2.8z"/><path d="M671.1 134.2c-.1.1-.3.1-.6.1h-.4v-1h.2c.3 0 .4 0 .6.1.2.1.3.2.3.4.1.1.1.3-.1.4zm-.9.8h.4c.2 0 .3 0 .3.1.1 0 .2.1.3.3 0 .1.1.2.1.4s0 .4.1.5h1v-.1-.1-.4c0-.4-.1-.6-.3-.8-.1-.1-.3-.2-.5-.2.3 0 .5-.1.7-.2.2-.1.3-.4.3-.7 0-.4-.2-.7-.5-.9-.2-.1-.5-.2-.8-.2H669.4v3.6h1V135zM444.7 113.4c-.1 3.5-4.4 7.8-6.4 4.5-1.1-2.5 1.7-7.2 4.3-7.2 2 0 2.1 1.9 2.1 2.7zm34.1-33.7c-3.2-4.3-10.2-4.6-17.3.6-7.1 5.3-11.1 13.7-7.9 18.1 3.2 4.3 12.5 2.9 19.6-2.3 7-5.2 8.8-12 5.6-16.4zm-30.6-11c-4.2-.9-8.6 2.5-10 9.3-1.5 6.8.6 13.9 4.8 14.8 4.2.9 9.1-4.7 10.5-11.5 1.4-6.7-1.1-11.7-5.3-12.6zm-24.3 6.4c-3.2 1.5-4.3 5.8-2 10.9 2.3 5.1 7.1 8.7 10.3 7.3 3.2-1.5 3.6-7.5 1.2-12.6-2.3-5.1-6.3-7.1-9.5-5.6zm-11.7 13.7c-1.6 1.9-1.1 5 1.8 7.6 3 2.5 7.1 3.4 8.7 1.4 1.6-1.9.2-5.9-2.8-8.4-2.9-2.5-6.1-2.5-7.7-.6zm75.2 50c-2 0-3.6 1.6-3.6 3.6s1.6 3.6 3.6 3.6 3.6-1.6 3.6-3.6-1.6-3.6-3.6-3.6zm64.9 18.1c4.4 0 6.1-1.7 6.1-3.5 0-2.3-2.7-3.3-6.1-3.3-3.4 0-5.9 1.3-5.9 3.3 0 1.7 1.5 3.5 5.9 3.5zm83 0c4.4 0 6.1-1.7 6.1-3.5 0-2.2-2.7-3.3-6.1-3.3-3.4 0-5.9 1.3-5.9 3.3.1 1.7 1.6 3.5 5.9 3.5zm-38.5-21.5c-1.9 0-3.4 1.5-3.4 3.4s1.5 3.4 3.4 3.4 3.4-1.5 3.4-3.4-1.5-3.4-3.4-3.4zm31.6 28.9c-.6 2.3-3.6 8.9-11.3 9h-.1c-3.6.1-7-1.7-9.6-4.8-3.6 2.3-7.1 3.4-9.6 3-5.4-.8-7-5.1-7.5-7.9-3.1 3.7-7.2 5.4-11.2 5.8 1.4 2.8 2.1 6.1 2.1 9.1 0 4.8-2.8 9.6-7.8 9.6-7 0-11.2-9.8-11.7-19.4-1.2.4-3.2.8-4.1-1.1-1.1-2.3 1.6-4.4 4-5.7.4-19 8.7-32.5 17.8-32.5 3 0 6.7 1.8 6.7 7.4 0 5.8-3.4 13.2-9 19.9-.8.9-2.5 2.7-4.5 4.5 7.9 5.6 12.7-.4 14.6-4.1.5-1 .9-2 1.2-2.8 1.1-3.2.8-2.4 1.9-5.6 1.5-4.5 3.9-4.3 5-4.1 3.9.7 1.6 5 .6 8.8v.1c-1.5 6.5-.8 11.7 3.3 12.5 1.3.2 3.5-.6 5.8-2.2-5.4-13.9 2.8-30.3 11.3-31.9 2.8-.5 6.5.5 7.5 5.5 1 5.3-1 12.6-5 19.5-.9 1.6-3.6 5.1-6.7 7.8v.1c2.4 3.1 5.4 3 5.4 3 4.5 0 5.8-3.4 6.3-4.8.6-1.6 1.9-2.2 3.3-1.7 1.5.4 1.6 1.9 1.3 3zm48.6 12.9c-4.8-.2-9.7-3.7-14.1-8.7-7.8 1.8-15.7 2.1-21.3 2.1-4.6 4.7-9 8.7-12.1 10.9 0 0-4.2 3.2-6.3.5-1.2-1.8-.6-3.8 2.7-5.9 2.1-1.3 4.7-3.4 7.5-6-4.8-1.3-3.6-6.2 1.1-5.6.3 0 1.9.3 4.2.4 4.6-4.8 9.3-10.3 12.9-15.3-1.7-4.4-2.7-8.6-2.7-11.9 0-4.3 2.5-9.2 7.5-9.2 4.9 0 7.4 4.1 7.4 8.2 0 3.6-2.2 8.4-5.5 13.6 1.9 4.1 4.4 8.3 7.1 11.9 3-1 5.9-2.2 8.7-3.9 3.7-2.2 6.9 2.1 3 4.8-2.4 1.5-5 2.7-7.7 3.6 2.9 2.8 5.9 4.6 8.8 4.9 5.1.3 5.3 6.1-1.2 5.6zm-207.9-56.8c0-2.5-6.8-7.1-11.6-7.6.1 1.3 0 2.7 0 4.1-.2 3.4-.7 6.8-1.5 10.1 8.8-6 13.1-4.3 13.1-6.6zm77.8 44.5c-2.9.2-3.5 6.5-9.3 6.8-3.9.2-5.7-4.4-5.7-4.4s11.1-4.9 11-15.3c-.2-3-1.8-7.8-7.6-7.8-2.5 0-5.4 1.6-7 3.3.6-2.8 1.1-6.5 1.4-11.4.2-3.2-2.2-3.5-3.1-3.5-.7 0-2.7.5-3 3.4-.9 9.7-1 11.2-1.9 17.3-1.5 11.4-9.9 15.3-15.3 15-2.3-.1-5.9-1.3-5.9-7.3 0-6.4 4.3-11.2 6.5-10.9 1.6.2 2.4 1.8 1 4.1-1.1 1.9-2.3 4.5.6 5.6 3.5 1.1 6.1-3.7 6.2-8.2 0-3.5-2.3-7.6-8-7.9-6-.3-13.1 7.5-13.1 17.9 0 .9.1 1.7.2 2.5-.4 2.4-2.5 4.8-4.6 4.8-2.3 0-4.2-3.2-4-7.4.3-4.2 1.6-7.1 2.2-8.8 1.2-3.5-.2-4.2-1.9-4.5-1.3-.2-3.4.1-4.5 3.6-1 3.2-2.3 7.5-3.4 10.7-.7 2-1.6 4.2-2.8 5.8-1 1.1-2.1 1.8-3.2 1.8-3.7 0-.6-7.1-.6-12 0-1.4-1.1-3.9-4.8-3.2 4.1-5.8 6.1-10.7 6-15.8-.2-5.6-4.4-7.2-7.5-7.1-8.4.2-12.7 9.3-14.3 30.7-7.5 7.1-16.7 11.4-25.4 10.7-12.4-1-18.7-13.1-17.9-27.6 1.2-20.3 17.3-44.8 32.6-43.3 5.4.5 9.1 5.3 8.5 15.5-.7 11.9-9.3 29.2-18.3 28.7-4.2-.2-5.5-4.5-5.2-8.3.7-8.2 4.9-10.4 5.1-13.8.2-2-1.8-2.8-3.3-2.3-2.5.8-7.6 7-8.2 15.9-.7 10.8 6.4 14.2 10.7 14.5 12.6.7 24.8-16.8 25.9-35.2.7-11.9-4.5-19.6-14.4-20.7-19.2-2.1-39.3 23-40.3 49.2-.6 15.7 7 32.1 24.7 33.4 8.5.5 17.3-2.8 25.1-8.7v3.4c.1 2.2.9 4.1 3.3 4 2.3-.1 2.9-1.7 2.9-3.7V171c.5-9.6 5.3-10.9 7.2-10.6 2.7.6.5 3 .8 9.8.2 4.9 4.2 6.2 6.1 6.2 4.4 0 8.2-3.2 10.4-7.8l.1-.1c1.9 4.8 5.2 6.5 7.8 6.5 3.1 0 6-2.2 7.8-4.7 2.5 3.1 6.1 4.5 8.9 4.6 5.5.3 10.2-2.3 13.8-5.6-.4 2.7-.9 6.2-.9 6.8 0 1.6.7 2.7 2.3 2.9 2.6.3 4.5-1.4 5.3-9.9 0 0 3.6 8.3 11.7 8.3s11.6-7.7 11.6-10.1c0-.9-.3-2.6-2.3-2.4zm21-6.7c7.2-6.7 12.8-16.4 12.7-21.5 0-1-.2-1.9-1.2-1.9-2.2.1-9.6 7.2-11.5 23.4zm5.5 10.7c-2.5-.8-4.6-2.1-5.8-3.5-.1.1-.2.1-.3.2 0 .1 0 .2-.1.3-.1 8.7 3.1 16.8 6.6 16.4 3.8-.6 2.1-8.1-.4-13.4zm36.5-9.1c6.3-7 9.6-17.4 8.8-21.7-.2-.9-.5-1.6-1.5-1.5-2.9.4-9.8 13.1-7.3 23.2zm45.7-16.5c1.5-2.6 2.4-4.9 2.5-6.6.1-1-.1-2.7-1.5-2.7-2.7 0-2.7 4-1 9.3zm3.6 20.4c-1.8-2.5-3.4-5.2-4.8-7.9-2.3 3.1-4.9 6.3-7.6 9.3 3.8-.2 8-.5 12.4-1.4zM462.5 151c-1.5 2.1-3.3 4.4-5.5 7 .1-1 .2-2 .4-3 1.8-13.7 4.5-18.3 8-17.7 1.1.2 1.6 1.4 1.6 2.3.2 2.9-1.2 6.6-4.5 11.4zm71.7-1.2c2.3 0 2.8 2.2 2.7 3.4-.5 5-7.7 9.1-9.5 9.3 1.1-10.3 4.3-12.5 6.8-12.7z"/></g><path class="st15" d="M675.8 125.9c-1.9 0-3.5 1.5-3.5 3.5 0 1.9 1.6 3.5 3.5 3.5s3.5-1.6 3.5-3.5-1.6-3.5-3.5-3.5zm0 6.3c-1.5 0-2.8-1.2-2.8-2.8 0-1.5 1.3-2.8 2.8-2.8 1.5 0 2.8 1.2 2.8 2.8 0 1.5-1.3 2.8-2.8 2.8z"/><path class="st15" d="M676.1 129.2c-.1.1-.3.1-.6.1h-.4v-1h.2c.3 0 .4 0 .6.1.2.1.3.2.3.4.1.1.1.3-.1.4zm-.9.8h.4c.2 0 .3 0 .3.1.1 0 .2.1.3.3 0 .1.1.2.1.4s0 .4.1.5h1v-.1-.1-.4c0-.4-.1-.6-.3-.8-.1-.1-.3-.2-.5-.2.3 0 .5-.1.7-.2.2-.1.3-.4.3-.7 0-.4-.2-.7-.5-.9-.2-.1-.5-.2-.8-.2H674.4v3.6h1V130zM449.7 108.4c-.1 3.5-4.4 7.8-6.4 4.5-1.1-2.5 1.7-7.2 4.3-7.2 2 0 2.1 1.9 2.1 2.7zm34.1-33.7c-3.2-4.3-10.2-4.6-17.3.6-7.1 5.3-11.1 13.7-7.9 18.1 3.2 4.3 12.5 2.9 19.6-2.3 7-5.2 8.8-12 5.6-16.4zm-30.6-11c-4.2-.9-8.6 2.5-10 9.3-1.5 6.8.6 13.9 4.8 14.8 4.2.9 9.1-4.7 10.5-11.5 1.4-6.7-1.1-11.7-5.3-12.6zm-24.3 6.4c-3.2 1.5-4.3 5.8-2 10.9 2.3 5.1 7.1 8.7 10.3 7.3 3.2-1.5 3.6-7.5 1.2-12.6-2.3-5.1-6.3-7.1-9.5-5.6zm-11.7 13.7c-1.6 1.9-1.1 5 1.8 7.6 3 2.5 7.1 3.4 8.7 1.4 1.6-1.9.2-5.9-2.8-8.4-2.9-2.5-6.1-2.5-7.7-.6zm75.2 50c-2 0-3.6 1.6-3.6 3.6s1.6 3.6 3.6 3.6 3.6-1.6 3.6-3.6-1.6-3.6-3.6-3.6zm64.9 18.1c4.4 0 6.1-1.7 6.1-3.5 0-2.3-2.7-3.3-6.1-3.3-3.4 0-5.9 1.3-5.9 3.3 0 1.7 1.5 3.5 5.9 3.5zm83 0c4.4 0 6.1-1.7 6.1-3.5 0-2.2-2.7-3.3-6.1-3.3-3.4 0-5.9 1.3-5.9 3.3.1 1.7 1.6 3.5 5.9 3.5zm-38.5-21.5c-1.9 0-3.4 1.5-3.4 3.4s1.5 3.4 3.4 3.4 3.4-1.5 3.4-3.4-1.5-3.4-3.4-3.4zm31.6 28.9c-.6 2.3-3.6 8.9-11.3 9h-.1c-3.6.1-7-1.7-9.6-4.8-3.6 2.3-7.1 3.4-9.6 3-5.4-.8-7-5.1-7.5-7.9-3.1 3.7-7.2 5.4-11.2 5.8 1.4 2.8 2.1 6.1 2.1 9.1 0 4.8-2.8 9.6-7.8 9.6-7 0-11.2-9.8-11.7-19.4-1.2.4-3.2.8-4.1-1.1-1.1-2.3 1.6-4.4 4-5.7.4-19 8.7-32.5 17.8-32.5 3 0 6.7 1.8 6.7 7.4 0 5.8-3.4 13.2-9 19.9-.8.9-2.5 2.7-4.5 4.5 7.9 5.6 12.7-.4 14.6-4.1.5-1 .9-2 1.2-2.8 1.1-3.2.8-2.4 1.9-5.6 1.5-4.5 3.9-4.3 5-4.1 3.9.7 1.6 5 .6 8.8v.1c-1.5 6.5-.8 11.7 3.3 12.5 1.3.2 3.5-.6 5.8-2.2-5.4-13.9 2.8-30.3 11.3-31.9 2.8-.5 6.5.5 7.5 5.5 1 5.3-1 12.6-5 19.5-.9 1.6-3.6 5.1-6.7 7.8v.1c2.4 3.1 5.4 3 5.4 3 4.5 0 5.8-3.4 6.3-4.8.6-1.6 1.9-2.2 3.3-1.7 1.5.4 1.6 1.9 1.3 3zm48.6 12.9c-4.8-.2-9.7-3.7-14.1-8.7-7.8 1.8-15.7 2.1-21.3 2.1-4.6 4.7-9 8.7-12.1 10.9 0 0-4.2 3.2-6.3.5-1.2-1.8-.6-3.8 2.7-5.9 2.1-1.3 4.7-3.4 7.5-6-4.8-1.3-3.6-6.2 1.1-5.6.3 0 1.9.3 4.2.4 4.6-4.8 9.3-10.3 12.9-15.3-1.7-4.4-2.7-8.6-2.7-11.9 0-4.3 2.5-9.2 7.5-9.2 4.9 0 7.4 4.1 7.4 8.2 0 3.6-2.2 8.4-5.5 13.6 1.9 4.1 4.4 8.3 7.1 11.9 3-1 5.9-2.2 8.7-3.9 3.7-2.2 6.9 2.1 3 4.8-2.4 1.5-5 2.7-7.7 3.6 2.9 2.8 5.9 4.6 8.8 4.9 5.1.3 5.3 6.1-1.2 5.6zm-207.9-56.8c0-2.5-6.8-7.1-11.6-7.6.1 1.3 0 2.7 0 4.1-.2 3.4-.7 6.8-1.5 10.1 8.8-6 13.1-4.3 13.1-6.6zm77.8 44.5c-2.9.2-3.5 6.5-9.3 6.8-3.9.2-5.7-4.4-5.7-4.4s11.1-4.9 11-15.3c-.2-3-1.8-7.8-7.6-7.8-2.5 0-5.4 1.6-7 3.3.6-2.8 1.1-6.5 1.4-11.4.2-3.2-2.2-3.5-3.1-3.5-.7 0-2.7.5-3 3.4-.9 9.7-1 11.2-1.9 17.3-1.5 11.4-9.9 15.3-15.3 15-2.3-.1-5.9-1.3-5.9-7.3 0-6.4 4.3-11.2 6.5-10.9 1.6.2 2.4 1.8 1 4.1-1.1 1.9-2.3 4.5.6 5.6 3.5 1.1 6.1-3.7 6.2-8.2 0-3.5-2.3-7.6-8-7.9-6-.3-13.1 7.5-13.1 17.9 0 .9.1 1.7.2 2.5-.4 2.4-2.5 4.8-4.6 4.8-2.3 0-4.2-3.2-4-7.4.3-4.2 1.6-7.1 2.2-8.8 1.2-3.5-.2-4.2-1.9-4.5-1.3-.2-3.4.1-4.5 3.6-1 3.2-2.3 7.5-3.4 10.7-.7 2-1.6 4.2-2.8 5.8-1 1.1-2.1 1.8-3.2 1.8-3.7 0-.6-7.1-.6-12 0-1.4-1.1-3.9-4.8-3.2 4.1-5.8 6.1-10.7 6-15.8-.2-5.6-4.4-7.2-7.5-7.1-8.4.2-12.7 9.3-14.3 30.7-7.5 7.1-16.7 11.4-25.4 10.7-12.4-1-18.7-13.1-17.9-27.6 1.2-20.3 17.3-44.8 32.6-43.3 5.4.5 9.1 5.3 8.5 15.5-.7 11.9-9.3 29.2-18.3 28.7-4.2-.2-5.5-4.5-5.2-8.3.7-8.2 4.9-10.4 5.1-13.8.2-2-1.8-2.8-3.3-2.3-2.5.8-7.6 7-8.2 15.9-.7 10.8 6.4 14.2 10.7 14.5 12.6.7 24.8-16.8 25.9-35.2.7-11.9-4.5-19.6-14.4-20.7-19.2-2.1-39.3 23-40.3 49.2-.6 15.7 7 32.1 24.7 33.4 8.5.5 17.3-2.8 25.1-8.7v3.4c.1 2.2.9 4.1 3.3 4 2.3-.1 2.9-1.7 2.9-3.7V166c.5-9.6 5.3-10.9 7.2-10.6 2.7.6.5 3 .8 9.8.2 4.9 4.2 6.2 6.1 6.2 4.4 0 8.2-3.2 10.4-7.8l.1-.1c1.9 4.8 5.2 6.5 7.8 6.5 3.1 0 6-2.2 7.8-4.7 2.5 3.1 6.1 4.5 8.9 4.6 5.5.3 10.2-2.3 13.8-5.6-.4 2.7-.9 6.2-.9 6.8 0 1.6.7 2.7 2.3 2.9 2.6.3 4.5-1.4 5.3-9.9 0 0 3.6 8.3 11.7 8.3s11.6-7.7 11.6-10.1c0-.9-.3-2.6-2.3-2.4zm21-6.7c7.2-6.7 12.8-16.4 12.7-21.5 0-1-.2-1.9-1.2-1.9-2.2.1-9.6 7.2-11.5 23.4zm5.5 10.7c-2.5-.8-4.6-2.1-5.8-3.5-.1.1-.2.1-.3.2 0 .1 0 .2-.1.3-.1 8.7 3.1 16.8 6.6 16.4 3.8-.6 2.1-8.1-.4-13.4zm36.5-9.1c6.3-7 9.6-17.4 8.8-21.7-.2-.9-.5-1.6-1.5-1.5-2.9.4-9.8 13.1-7.3 23.2zm45.7-16.5c1.5-2.6 2.4-4.9 2.5-6.6.1-1-.1-2.7-1.5-2.7-2.7 0-2.7 4-1 9.3zm3.6 20.4c-1.8-2.5-3.4-5.2-4.8-7.9-2.3 3.1-4.9 6.3-7.6 9.3 3.8-.2 8-.5 12.4-1.4zM467.5 146c-1.5 2.1-3.3 4.4-5.5 7 .1-1 .2-2 .4-3 1.8-13.7 4.5-18.3 8-17.7 1.1.2 1.6 1.4 1.6 2.3.2 2.9-1.2 6.6-4.5 11.4zm71.7-1.2c2.3 0 2.8 2.2 2.7 3.4-.5 5-7.7 9.1-9.5 9.3 1.1-10.3 4.3-12.5 6.8-12.7z"/></g><path class="st14" d="M362.2 76.4l184-42 183.9 42v21.7L546.2 61l-184 37.1z"/><path class="st22" d="M117.9 148.2l-7.9-8v-5.4h188.2v13.4zM974.4 148.2l7.9-8v-5.4H794.1v13.4zM794.1 108.5l5.6-5.6s2.3-4.8 0-4.8H730v10.4h64.1zM298.2 108.5l-5.6-5.6s-2.3-4.8 0-4.8h69.7v10.4h-64.1z"/><path class="st6" d="M546.2 2L344.9 48v32.4l201.3-46 201.3 46V48z"/><path class="st13" d="M416.4 226.5H676v25H416.4z"/><path class="st14" d="M676 251.4l-3.7 13.8H411.1v-28.9H398v-28.5l6.8-18.6L676 226.5z"/><path class="st15" d="M404.8 189.2h282.7v37.3H404.8z"/><text transform="translate(454.06 216.093)" class="st23 st24 st25 st26">THE ORIGINAL</text><text transform="translate(448.06 244.784)" class="st23 st24 st27 st28">CHICKEN SANDWICH</text><path class="st14" d="M227.1 222.7l1.5-6.6v-28h-42l-4.1 11v23.6z"/><path class="st29" d="M186.6 188.1h42v28h-42z"/><path class="st14" d="M903.7 226.2l1.6-6.6v-28h-42l-4.1 11v23.6z"/><path class="st29" d="M863.3 191.6h42v28h-42z"/><path class="st14" d="M776.1 209l-1.8 7.1h-30.4v-32.9l4.2-16.2h28z"/><path class="st29" d="M776.127 167.038v42h-28v-42z"/><path class="st14" d="M344.2 209.1l-1.8 7H312v-32.9l4.2-16.1h28z"/><path class="st29" d="M344.268 166.997v42h-28v-42z"/><path class="st9" d="M117.9 148.2h180.3v11.9H117.9zM794.1 148.2h180.3v11.9H794.1z"/><path class="st14" d="M747.5 98.1l-17.4 93.5V98.1zM339.3 108.5l-19.9 231.8v247.9h42.8V108.5z"/><g><path class="st30" d="M705.9 431.1c.1-.4.3-.7.5-1.1.8-1.8 2.8-3.7 5.5-4.8 2.6-1.2 5.7-1.4 8.7.2 2 0 4.1.7 5.9 2.2 1.6 1.4 4 4 4 9.5s-5.1 10.2-6.3 11.3c-.1-.9-.3-3-.8-3.8-.3-.5-.7-1-1.1-1.4.6-.1 1.5-.6 1.3-2.9-.2-3.3-2.9-1.1-2.9-1.1-.1 0-.6 1.8-.7 1.8-.5 0-1.1-2.2-1.1-2.2l-4.7-6.1c-.7 0-3.9.1-5.4 1-1.7 1-1.7 3.3-1.7 3.3.1.7.2 1.4.2 2.1 0 3.5-1.3 5-1.1 5.4.3.4 2 .7 2 .7s-.1 1.3-.4 1.9c-.3.6.8.9.8.9s-.6 1.3.2 1.5c0 0 0 .7.1 1.5-1 .5-1.9.8-1.9.8s-1.2-2.9-2-10.4c-.2-2.6-.6-6.4.9-10.3z"/><path class="st31" d="M708.6 448.1s-1.1-.3-.8-.9c.3-.6.4-1.9.4-1.9s-1.7-.3-2-.7c-.3-.4 1-2 1.1-5.4 0-.6-.1-1.3-.2-2.1 0 0 0-2.2 1.7-3.3 1.5-.9 4.7-1 5.4-1l4.7 6.1s.5 2.3 1.1 2.2c.1 0 .7-1.9.7-1.8 0 0 2.7-2.2 2.9 1.1.2 2.3-.8 2.8-1.3 2.9.4.4.8.9 1.1 1.4.5.8.7 2.9.8 3.8-.1.1-.2.2-.3.4-3.2 4 .8 9.2.8 9.2l-9.7 3.5s3.1-11.3-.3-10.2c-4 1.3-5.6 1-5.7.1v-.3c-.1-.8-.1-1.5-.1-1.5-.9-.4-.3-1.6-.3-1.6zM700.7 525.3c1.5-2.4 3-6.9 4.3-9.8.2-.4.3-.7.5-1l-.1.9 4.4-1.2c.3 6.2-2.8 9.4-3.1 8.9-.3-.6 1.1-4 1.1-4-.4 1.4-3.5 5-4.7 6.2-1.7 1.3-3.4 1.5-2.4 0z"/><path class="st32" d="M705.4 514.4l7-42.7.7-2.2 8.6 1-11.4 43.4-.7.2-4.4 1.2z"/><path class="st33" d="M693.3 597.4c3.1 1 4.5-3 5.1-5.8l6.6.9-.2 10.7-2 .1-.3-6.6s-2 6.1-3.6 6.4c-1.6.3-7.1-1.5-8.9-2.5-1.7-1.2.6-4.1 3.3-3.2zM739.8 599.1l-1.7.9-3.2-5.8s.9 6.4-.4 7.3c-1.3.9-7.1 1.8-9.1 1.7-2-.1-1.2-3.8 1.6-4.2 3.8-.6 2.4-6.4 1.6-8.9l6.3-1.7 4.9 10.7z"/><path class="st12" d="M722.9 524.4c1.4-.9 2.6-1.8 3.7-2.7-2.6 5.3-.6 27.3-.6 27.3l9.2 39.4-.4.1-6.3 1.7-.2.1s-9.3-30.5-10.8-38.8c-.5-2.6-1.4-7.2-2.4-12.3 2.4-6.3 5.5-13.3 7.8-14.8z"/><path class="st1" d="M698.1 591.5s2.9-34.4 4.6-42.6c1.5-7.2 6.1-30.7 6.9-33.5.4-1.4.7-2.7.9-4 10.3 3.5 19.8-1.7 19.8-1.7v-.2c1.1 5.5-.4 9.1-3.8 12.2-1.1.9-2.3 1.8-3.7 2.7-2.3 1.5-5.4 8.5-7.7 14.8-2.1 5.6-3.7 10.6-3.7 10.6l-6.4 42.6h-.1l-6.6-.9h-.2z"/><path class="st34" d="M710.6 511.3c-.2-.1-.4-.1-.6-.2-.4-2.2 0-13.5.4-24.2.3-6.3-1.3-5.5-2.4-8.6-2.1-6.5 7-16.8 7-16.8s7.3-4.9 8.9-4.7c2.8.3 6.5 1.7 5.2 18.3-.8 9.3 1.1 26.8 1.4 34.4v.2c-.1 0-9.6 5.2-19.9 1.6z"/><path class="st33" d="M719 534.2l14-11v14h-28v-14z"/><path class="st30" d="M705.5 523.2H733l-13.7 11z"/><path class="st31" d="M710.9 530.2c.5-1.4 1.7-3.2 2.4-4.1l4.7 1.4c-.1 1.2-.4 3.8-1.7 7.1-1.3 3.3-3.3 5.3-4.8 4.5-1.2-.7-.1-6.7-.1-6.7s-1.2-.3-.5-2.2z"/><path class="st32" d="M712.9 526l6-28.6s-3.8-27.8.6-36.7c1.3-2.6 5.4-4 7.6.2 1.5 2.9 1 17-2.1 38.5-1.4 9.5-4.2 17.3-6.9 28.2l-.2-.1-4.7-1.4-.3-.1z"/><path class="st31" d="M593.4 517.8c.3.1.6.2 1 .3.1 1.2.2 2.4.4 3.7.1.6.4 2.1.8 4.2-.5 2.8-1.1 6.2-1.7 9.6-1.6-.7-2.1-6.2-1.5-11.8.2-1.9.5-6.2 1-11.4-.1 3-.1 5 0 5.4z"/><path class="st35" d="M619.9 594.6c.5.6 1.1 1.6 1.5 3.2.9 3.5 1.1 3.5-.5 4.3-1.6.8-4.7 1.7-9.1 2.2-4 .5-8.6.9-10.9-.1-.8-.3-.8-1.4-.5-2.6.3-1.2 5.6-1.1 7.6-2.3 1.1-.6 2.3-1.7 3.2-2.6 0 .1 0 .2.1.3l8.6-2.4zM576.4 597.5c.5-1.2 5.7-.4 7.8-1.3 1.4-.6 3.4-2.5 4.6-3.6l8.2.6c.3.7.5 1.6.7 3 .5 3.5.7 3.5-1 4.1-1.7.6-4.9 1.1-9.3 1.2-4.1 0-8.7 0-10.8-1.3-.8-.5-.7-1.5-.2-2.7z"/><path class="st36" d="M588.2 592.5s.9-31.2 2.5-39.6c.6-3.4 1.9-10.5 3.1-17.3.6-3.4 1.2-6.8 1.7-9.6 1.5 7.4 4.7 21.9 5.9 28.3l-4.2 38.9h-.3l-8.2-.6-.5-.1z"/><path class="st37" d="M595.5 526c-.4-2.1-.7-3.6-.8-4.2-.2-1.2-.3-2.5-.4-3.7 9.2 2.9 19-.3 21.8-1.3-.3 2.3-1 5.1-2.7 8.1-1 1.8-.2 27.9-.2 27.9l6.7 41.7-8.7 2.5c0-.1 0-.2-.1-.3-6.8-25.3-7.6-31.6-9.6-41.7-.1-.3-.1-.6-.2-.9-1.1-6.2-4.3-20.7-5.8-28.1z"/><path class="st31" d="M600.3 463.4c.1-1.3.1-3.1.2-4.5.1-1.1.4-1.5.4-2.4 0-1.6-.3-2.7-1.1-2.5-4.3 1.2-6.5.5-6.6-.4-.1-.9.1-2.1.1-2.1-.9-.6.1-1.3.1-1.3s-1.1-.6-.7-1.2c.4-.6.3-1.6.3-1.6s-2 .8-2.4-.2c-.2-.5.9-3 1.5-6 .4-1.9-.4-4.4.5-6.6.9-.1 2.1-.3 3.1-.4 2.6-.1 6 .8 6.3 3.2.6 4.3 3 4.8 4.1 5.6 0 0 1-1.9 2.6-1.2 1.8.8-.3 5.5-.3 5.5l2.4 4.3c-.5 2.8.1 6.9.4 9.1-.5.2-10.9 2.7-10.9 2.7z"/><path class="st38" d="M611.5 460.7c-.1 0-.2-.1-.3-.1.1.1.2.1.3.1zM599.6 464.7c-.1.3-.3.5-.4.8.2-.3.3-.5.4-.8z"/><path class="st1" d="M594.3 518.1c-.3-.1-.6-.2-1-.3-.1-.4-.1-2.4-.1-5.4.1-5.7.4-14.8 1.2-22.7.9-8.1 1.4-16.5 4.6-23.9-.1.2-.2.5-.3.7 1.8-.8 3.6-1.4 5.2-2 2.5-1 5-2.1 7.6-3v-.1c.1-.2.1-.5.2-.7-.1 0-.2-.1-.3-.1.8.2 1.7.7 2.4 1.9-.5-.3-.9-.4-1.5-.4-12.5.3-2.7 24.4-2.7 24.4l.4-.2 5.3 15.5s.6 4.5 1.5 10.3c0 1.6 0 3.1.1 4.2 0 0-.3.1-.8.3-2.8 1.2-12.6 4.4-21.8 1.5z"/><path class="st12" d="M611.6 461.5s0 .1 0 0c-2.6 1-5.2 2.1-7.7 3.1-1.6.6-3.4 1.2-5.2 2 .1-.2.2-.5.3-.7 0-.1.1-.2.1-.3.1-.3.2-.6.4-.8.2-.4.4-.9.6-1.3l10.9-2.7c.1 0 .2.1.3.1.1 0 .2.1.3.1.2.1.1.3 0 .5z"/><path class="st35" d="M608.3 447.3s2-4.7.3-5.5c-1.5-.7-2.6 1.2-2.6 1.2-1.1-.9-3.5-1.3-4.1-5.6-.3-2.4-3.7-3.3-6.3-3.2-1 0-2.2.3-3.1.4-1.5.1-2.1-.3 1.2-3.3 5.2-4.8 14.3-3 18.1-.2 3.7 2.8 3.4 9.3 2.6 12.9-.8 3.5-3.6 7.5-3.6 7.6l-2.5-4.3z"/><path class="st39" d="M629.3 544.9h0zM626.7 544.6c.1 0 .1 0 .2.1-.1-.1-.1-.1-.2-.1zM630.4 544.1s0-.1 0 0c0-.1 0 0 0 0zM626.3 544.4c.1 0 .1.1.2.1-.1-.1-.1-.1-.2-.1zM629.8 544.8c0-.1 0-.1 0 0 0-.1 0-.1 0 0zM628.8 545h0zM629.1 545h.1-.1zM627 544.7c.1 0 .1 0 .2.1 0 0-.1-.1-.2-.1zM627.4 544.8h.1c0 .1-.1.1-.1 0zM627.7 544.9h.1c0 .1 0 .1-.1 0zM630.2 544.4zM630.3 544.3c0-.1 0-.1 0 0 0-.1 0-.1 0 0zM629.6 544.9s0-.1 0 0c0-.1 0 0 0 0zM628.1 545c.1 0 .1 0 0 0 .1 0 .1 0 0 0zM630 544.6zM628.5 544.2h0zM625.1 543.5l.1.1s0-.1-.1-.1zM630.5 543.4zM630.5 543.7c0-.1 0-.1 0 0 0-.1 0-.1 0 0zM630.5 543.9c0-.1 0-.1 0 0 0-.1 0-.1 0 0zM624 542.3l.2.2-.2-.2zM624.7 543.1l.2.2c0-.1-.1-.1-.2-.2zM624.4 542.7l.2.2c-.1-.1-.2-.1-.2-.2zM623.4 541.3c0 .1.1.1.1.2-.1-.1-.1-.1-.1-.2zM626 544.2l.1.1c0-.1-.1-.1-.1-.1zM625.5 543.8l.1.1-.1-.1zM623.7 541.8l.2.2c-.1 0-.2-.1-.2-.2z"/><path class="st31" d="M610.2 486.4l10.7-4.1c.6 2.8 2.5 12.4 3 14.1.5 2.1 2.6 37.8 2.6 37.8v-.2c-.6-.2-1.2-.4-1.8-.7-.4.2-.9.3-1.4.4-.1.3-.2.7-.3 1 0 .2-.2 1.4-.2 1.8v2.3c0 .7.1 1.3.1 2-.5-.8-.9-1.8-1.3-2.9-1.7-5.3-3.6-17-4.9-25.6-.9-5.9-1.5-10.3-1.5-10.3l-5-15.6z"/><path class="st31" d="M622.9 538.8c0-.8-.1-1.5 0-2.3 0-.4.2-1.6.2-1.8.1-.3.2-.7.3-1 .5-.1.9-.2 1.4-.4.6.3 1.2.6 1.8.7v.2s3.1 6 3.9 8.9V544.1s0 .1-.1.1v.1l-.1.1v.1c0 .1-.1.1-.2.2-.1 0-.1.1-.2.1h-.1s-.1 0-.1.1h-.1s-.1 0-.1.1h-.1-.1H629l-.1-.4c-.1 0-.1-.4-.2-.4h-.1c-.1 0-.2.4-.3.4l-.1.2c-.1 0-.2.1-.3.1H627.6h-.1c-.1 0-.1 0-.2-.1-.1 0-.1 0-.2-.1-.1 0-.1-.1-.2-.1s-.1 0-.2-.1c-.1 0-.1-.1-.2-.1s-.1-.1-.2-.1-.1-.1-.2-.1l-.1-.1c-.1-.1-.2-.1-.3-.2l-.1-.1c-.1-.1-.2-.1-.3-.2l-.1-.1-.2-.2-.2-.2-.2-.2-.2-.2c-.1-.1-.1-.2-.2-.2l-.2-.2c-.1-.1-.1-.2-.2-.3l-.2-.2c-.1-.1-.1-.2-.2-.3 0-.1-.1-.1-.1-.2-.1-.2-.2-.3-.3-.5 0-.7 0-1.4-.1-2z"/><path class="st12" d="M610.2 486.4l-.4.2s-9.7-24.1 2.7-24.4c.5 0 1 .1 1.5.4 3.5 2 5.5 11.1 7.4 19.5l-.4.1-10.8 4.2z"/><g><path class="st40" d="M655.2 597c-.6.6-1.4 1.3-2.2 1.7-1 .6-3.4.7-4.5 1.1l.1-26.2s.1-.2.2-.7c.1.4.2.8.3 1.3 1.4 6.7 4.9 15 6.1 22.8z"/><path class="st31" d="M644.7 552c-.2.6-.5 3.1-1 6.1-1.3 0-1.4-3.9-.7-8 .6.2 1.3.3 2 .4l-.3 1.5zM649.1 508.1c0-1.3-.2-2.2-.8-2.1-3.6.8-5.3-.2-5.4-.9-.1-.8.2-1.4.2-1.4-.7-.6.1-1 .1-1s-.8-.6-.5-1 .3-1.3.3-1.3-1.5-.2-1.8-1c-.2-.4 1-1.1 1.7-3.5.5-1.8-.5-4.8 1-6.7.6.3 1.3.6 2 .6 2.1.1 4.8.9 5 2.9.3 3.5 2.2 4 3.1 4.8 0 0 .9-1.5 2.1-.9 1.4.7-.5 4.5-.5 4.5l1 3c-.4 1.2-.4 2.9-.1 4.5l-7.6 2.3c.1-1.3.2-2.4.2-2.8z"/><path class="st12" d="M656.1 496.5c-1.2-.6-2.1.9-2.1.9-.9-.7-2.8-1.2-3.1-4.8-.2-2-2.8-2.8-5-2.9-.7 0-1.4-.3-2-.6-2.2-1.3-3.3-4.1 1.1-3.3 5.7 1 11-.5 13.9 1.9 2.9 2.5 2.6 7.9 1.8 10.7-.9 2.9-4.1 5.6-4.1 5.6v-.1l-1-3c0 .1 1.9-3.7.5-4.4z"/><path class="st35" d="M648.2 600h-.2v-.1c1-.4 3.8-.5 4.8-1.1.7-.4 1.7-1.2 2.3-1.7 0 .1.1.1.1.2l5.9-1.5v-.2c.4.4.8 1.1 1.1 2.2.6 2.3.8 2.3-.3 2.9-1.1.5-3.2 1.1-6.2 1.5-2.4.3-5 .5-6.7.2 0-.2-.2-.4-.2-.6-.2-.8-.5-1.4-.6-1.8z"/><path class="st35" d="M648.5 600c.1.4.3 1 .4 1.7 0 .2.1.4.1.6.3 1.8.3 1.8-.7 2.2-1.1.4-3.3.8-6.3.8-2.7 0-5.9 0-7.3-.9-.5-.3-.4-1-.1-1.8.3-.8 3.9-.2 5.3-.9.8-.4 2-1.4 2.8-2.1l5.8.4z"/><path class="st36" d="M655.2 597.2v-.2c-1.2-7.9-4.7-16.2-6.1-22.8-.1-.4-.2-.8-.3-1.3.7-2.2 2.9-9.6 5.3-13.3 0-.1-.2-.1-.1-.2.8-.9 1.5-1.7 2.1-2.5-.5 3.4-.8 13.8-.8 13.8l5.8 24.6v.2l-5.9 1.7z"/><path class="st37" d="M645 550.6c5.6 1 12.1.4 14.8 0-.2 1.7-1.4 3.6-3.7 6.5-.6.7-1.3 1.6-2.1 2.5 0 .1.1.1.1.2-2.3 3.7-4.6 11-5.3 13.3-.1.4-.5.7-.5.7l-.4 26.2v.1h.2l-5.8-.4s-2.1-21.6-1.1-26.6c.6-2.8 1.6-9.7 2.3-14.9.4-3 .8-5.5 1-6.1.3-.6.4-1.1.5-1.5z"/><path class="st41" d="M652.2 542.6c1.2-2.1 3-10.7 3.8-14.8l1 .2c1.4-6.1 2.1-13.8-.5-15-7.3-3.3-8.3 13.4-8.3 13.4l1.7.3-2.9 11h-.4c-.7 0-1.8 0-3.2-.1.3-2.2.6-4.5.8-6.6.6-5.2.7-12.1 2.9-17.2 1.2-.5 2.7-1 3.7-1.4 1.6-.6 6.2-1.7 6.7-1.8 1.7 1.2 3.5 4.1 3.7 11.2.2 6.5-.2 23.5 0 28.6 0 0-.5.1-1.3.2-2.7.3-9.2 1-14.8 0-.7-.1-1.4-.3-2-.4-.5-.1-.9-.3-1.4-.4-.1-.4.3-2.8.8-6 4.7.2 9 .1 9.7-1.2z"/><path class="st42" d="M650.7 512.4c-1 .4-2.5.9-3.7 1.4 0 0-.1 0-.1.1.3-.7 1-2.3 1.3-3l.6-.2 7.6-2.3.6-.2.4 2.2c-.5.3-5.1 1.4-6.7 2z"/><path class="st31" d="M624 535.7c2.4-1.2 4.1.6 4.7 1.6 0 0 9.1.2 14.5.3 1.3 0 2.5 0 3.2.1h.4l2.9-11 6.2 1.1c-.8 4.1-2.6 12.7-3.8 14.8-.7 1.3-5 1.4-9.8 1.1-5.6-.4-11.8-1.5-13.5-1.9 0 0-4.5 1.6-6.2-.8-1.6-2.4-.9-4.1 1.4-5.3z"/><path class="st42" d="M656.4 513c2.6 1.2 1.9 8.8.5 15l-1-.2-6.2-1.1-1.7-.3c.1 0 1.1-16.7 8.4-13.4z"/></g><g><path class="st31" d="M314 466.7c3.5-3.3 4.4-11.5 4.4-11.5s1.9.4 1.7-2.7c-.2-3.1-2.7-1-2.7-1-.1 0-.1-.1-.2-.1-3.4.2-7.2-5.6-8.4-7.7-1.4-.1-3.3.2-4.1 2.2 0 0-.5 1.5-.3 2.9.1.9.3 1.8.3 2.5 0 3.3-1.3 4.8-1 5.2.2.4 1.9.7 1.9.7s-.1 1.3-.4 1.8c-.3.5.8.9.8.9s-.5 1.2.2 1.4c0 0 0 .8.1 1.7.1.9 1.6.5 5.5-.7 3.3-1.1.3 9 .3 9h8.1s-1.2-3-1.1-6.6c-1.5.3-3 .9-4.6 1.6-.4 0-.4.4-.5.4z"/><path class="st35" d="M322.7 440.3c-1.6-1.6-3.9-2.3-6.1-2.3-5.9-2.6-12.3 1.9-13.1 5.2-1 3.8.9 6.1.9 6.1 0-.2-.1-.4-.1-.6-.1-1.5.3-2.9.3-2.9.8-1.9 2.6-2.3 4.1-2.2 1.2 2.1 5.1 7.9 8.4 7.7.1 0 .1.1.2.1 0 0 2.5-2.1 2.7 1 .2 3.1-1.7 2.7-1.7 2.7s-.8 8.2-4.4 11.5c.1 0 .2-.1.3-.1 1.6-.7 3.1-1.1 4.6-1.3 2.2-.4 4.5-.7 6.9-1.6 0-1.2.6-4.2.8-5.1.7-3.6 2.6-12-3.8-18.2z"/><path class="st31" d="M302.3 524c-1.2 2.8-2.6 7.1-4 9.3-.9 1.5.7 1.3 2.1-.1 1.2-1.1 4.1-4.6 4.5-5.9 0 0-1.3 3.3-1 3.8.2.5 3.3-2.6 2.9-8.7l-3.6-.4c-.3.5-.6 1.2-.9 2z"/><path class="st43" d="M318.3 481.2l-8.3-1-.6.2-6.8 41.6h.5l3.6.4.7.1z"/><path class="st44" d="M304.5 529.2s.3-45.4 7.5-56.3"/><path class="st12" d="M300.4 541.1l24.8 1.2v-22.9l-24.8-1.2z"/><path class="st45" d="M307.2 520.5c.1.3.1.6.2.9.1-.3.1-.5.2-.8-.2-.1-.3-.1-.4-.1z"/><path class="st34" d="M322.3 555.9s-1.9-20.9.5-26c-1 .9-2.2 1.8-3.5 2.6-2.2 1.4-5.1 8.1-7.3 14.1.9 4.8 1.8 9.2 2.2 11.7 1.5 7.9 10.3 36.9 10.3 36.9l6.5-1.7-8.7-37.6z"/><path class="st32" d="M319.4 532.5c1.3-.8 2.5-1.7 3.5-2.6 3.3-2.9 4.7-6.4 3.6-11.6v.2s-9.7 4-19 2.1c-.1.3-.1.5-.2.8-.2.8-.4 1.7-.6 2.6-.7 2.7-5.1 25-6.5 31.9-1.6 7.8-4.4 40.5-4.4 40.5l6.7.9 6-40.5s1.5-4.8 3.5-10.1c2.3-6.1 5.2-12.8 7.4-14.2z"/><path class="st41" d="M326.5 518.5v-.2c-.2-7.2-2-23.9-1.3-32.8 1.3-15.9-2.2-16.5-4.9-16.8-2.7-.3-12.7 4.2-14.6 12.6-.7 3.1 1.3 8.7 1 14.6-.4 10.2-2.7 21.5-2.3 23.6.9.3 1.8.6 2.7.8.1 0 .2 0 .3.1 9.4 2.1 19.1-1.9 19.1-1.9z"/><path class="st35" d="M296.7 596s-1.5 3.3-4.6 4.5c-3.1 1.2-6 1-6.4 3.1 0 0 4.3 2.7 17.3 1V597l-6.3-1zM325.1 594.8s-.7 2.9-3.3 4.8c-2.6 1.9-5.8 2.5-5.7 4.5 0 0 7 2.4 16.1-3l-1.5-7.7-5.6 1.4z"/><path class="st42" d="M320.2 466.7l.6 2.1-12.2 7.2 1.4-4.4z"/><path class="st46" d="M314.4 551.6v-8.4c0-1.7-1.4-3.1-3.1-3.1h-3.9c-1.7 0-3.1 1.4-3.1 3.1v8.3"/><path class="st47" d="M322.3 576.2h-26.2l1.9-30 22.6.1z"/><path class="st23" d="M300.9 554.8h16.9v15.3h-16.9z"/><path class="st31" d="M308 538c-.7 1.8.4 2 .4 2s-1 5.8.1 6.4c1.5.8 3.3-1.1 4.6-4.2 1.2-3.1 1.5-5.5 1.6-6.7l-4.5-1.3c-.6.7-1.7 2.5-2.2 3.8z"/><path class="st42" d="M323.1 470.8c-1.3-2.8-4.9-.2-6.1 2.3-4.2 8.4-1.3 33.7-1.3 33.7L310 534l.3.1 4.5 1.3h.2c2.6-10.4 5.2-17.8 6.5-26.8 2.9-20.4 2.9-35 1.6-37.8z"/></g><g><path class="st48" d="M450.9 433c.1-.4.3-.7.5-1.1.8-1.8 2.8-3.7 5.5-4.8 2.6-1.2 5.7-1.4 8.7.2 2 0 4.1.7 5.9 2.2 1.6 1.4 4 4 4 9.5s-5.1 10.2-6.3 11.3c-.1-.9-.3-3-.8-3.8-.3-.5-.7-1-1.1-1.4.6-.1 1.5-.6 1.3-2.9-.2-3.3-2.9-1.1-2.9-1.1-.1 0-.6 1.8-.7 1.8-.5 0-1.1-2.2-1.1-2.2l-4.7-6.1c-.7 0-3.9.1-5.4 1-1.7 1-1.7 3.3-1.7 3.3.1.7.2 1.4.2 2.1 0 3.5-1.3 5-1.1 5.4.3.4 2 .7 2 .7s-.1 1.3-.4 1.9c-.3.6.8.9.8.9s-.6 1.3.2 1.5c0 0 0 .7.1 1.5-1 .5-1.9.8-1.9.8s-1.2-2.9-2-10.4c-.2-2.5-.6-6.3.9-10.3z"/><path class="st31" d="M453.6 450s-1.1-.3-.8-.9c.3-.6.4-1.9.4-1.9s-1.7-.3-2-.7c-.3-.4 1-2 1.1-5.4 0-.6-.1-1.3-.2-2.1 0 0 0-2.2 1.7-3.3 1.5-.9 4.7-1 5.4-1l4.7 6.1s.5 2.3 1.1 2.2c.1 0 .7-1.9.7-1.8 0 0 2.7-2.2 2.9 1.1.2 2.3-.8 2.8-1.3 2.9.4.4.8.9 1.1 1.4.5.8.7 2.9.8 3.8-.1.1-.2.2-.3.4-3.2 4 .8 9.2.8 9.2l-9.7 3.5s3.1-11.3-.3-10.2c-4 1.3-5.6 1-5.7.1v-.3c-.1-.8-.1-1.5-.1-1.5-.9-.3-.3-1.6-.3-1.6zM445.7 527.2c1.5-2.4 3-6.9 4.3-9.8.2-.4.3-.7.5-1l-.1.9 4.4-1.2c.3 6.2-2.8 9.4-3.1 8.9-.3-.6 1.1-4 1.1-4-.4 1.4-3.5 5-4.7 6.2-1.7 1.4-3.4 1.6-2.4 0z"/><path class="st12" d="M450.4 516.4l7-42.8.7-2.1 8.6 1-11.4 43.4-.7.2-4.4 1.2z"/><path class="st33" d="M438.3 599.3c3.1 1 4.5-3 5.1-5.8l6.6.9-.2 10.7-2 .1-.3-6.6s-2 6.1-3.6 6.4c-1.6.3-7.1-1.5-8.9-2.5-1.7-1.1.6-4 3.3-3.2zM484.8 601.1l-1.7.9-3.2-5.8s.9 6.4-.4 7.3c-1.3.9-7.1 1.8-9.1 1.7-2-.1-1.2-3.8 1.6-4.2 3.8-.6 2.4-6.4 1.6-8.9l6.3-1.7 4.9 10.7z"/><path class="st33" d="M467.9 526.4c1.4-.9 2.6-1.8 3.7-2.7-2.6 5.3-.6 27.3-.6 27.3l9.2 39.4-.4.1-6.3 1.7-.2.1s-9.3-30.5-10.8-38.8c-.5-2.6-1.4-7.2-2.4-12.3 2.4-6.3 5.5-13.4 7.8-14.8z"/><path class="st12" d="M443.1 593.5s2.9-34.4 4.6-42.6c1.5-7.2 6.1-30.7 6.9-33.5.4-1.4.7-2.7.9-4 10.3 3.5 19.8-1.7 19.8-1.7v-.2c1.1 5.5-.4 9.1-3.8 12.2-1.1.9-2.3 1.8-3.7 2.7-2.3 1.5-5.4 8.5-7.7 14.8-2.1 5.6-3.7 10.6-3.7 10.6l-6.4 42.6h-.1l-6.6-.9h-.2z"/><path class="st1" d="M455.6 513.3c-.2-.1-.4-.1-.6-.2-.4-2.2 0-13.5.4-24.2.3-6.3-1.3-5.5-2.4-8.6-2.1-6.5 7-16.8 7-16.8s7.3-4.9 8.9-4.7c2.8.3 6.5 1.7 5.2 18.3-.8 9.3 1.1 26.8 1.4 34.4v.2c-.1-.1-9.6 5.1-19.9 1.6z"/><path class="st47" d="M464 536.2l14-11.1v14.1h-28v-14.1z"/><path class="st30" d="M450.5 525.2H478l-13.7 11z"/><path class="st31" d="M455.9 532.1c.5-1.4 1.7-3.2 2.4-4.1l4.7 1.4c-.1 1.2-.4 3.8-1.7 7.1-1.3 3.3-3.3 5.3-4.8 4.5-1.2-.7-.1-6.7-.1-6.7s-1.2-.3-.5-2.2z"/><path class="st12" d="M457.9 528l6-28.6s-3.8-27.8.6-36.7c1.3-2.6 5.4-4 7.6.2 1.5 2.9 1 17-2.1 38.5-1.4 9.5-4.2 17.3-6.9 28.2l-.2-.1-4.7-1.4-.3-.1z"/></g><g><path class="st31" d="M828.4 517.8c.3.1.6.2 1 .3.1 1.2.2 2.4.4 3.7.1.6.4 2.1.8 4.2-.5 2.8-1.1 6.2-1.7 9.6-1.6-.7-2.1-6.2-1.5-11.8.2-1.9.5-6.2 1-11.4-.1 3-.1 5 0 5.4z"/><path class="st35" d="M854.9 594.6c.5.6 1.1 1.6 1.5 3.2.9 3.5 1.1 3.5-.5 4.3-1.6.8-4.7 1.7-9.1 2.2-4 .5-8.6.9-10.9-.1-.8-.3-.8-1.4-.5-2.6.3-1.2 5.6-1.1 7.6-2.3 1.1-.6 2.3-1.7 3.2-2.6 0 .1 0 .2.1.3l8.6-2.4zM811.4 597.5c.5-1.2 5.7-.4 7.8-1.3 1.4-.6 3.4-2.5 4.6-3.6l8.2.6c.3.7.5 1.6.7 3 .5 3.5.7 3.5-1 4.1-1.7.6-4.9 1.1-9.3 1.2-4.1 0-8.7 0-10.8-1.3-.8-.5-.7-1.5-.2-2.7z"/><path class="st12" d="M823.2 592.5s.9-31.2 2.5-39.6c.6-3.4 1.9-10.5 3.1-17.3.6-3.4 1.2-6.8 1.7-9.6 1.5 7.4 4.7 21.9 5.9 28.3l-4.2 38.9h-.3l-8.2-.6-.5-.1z"/><path class="st1" d="M830.5 526c-.4-2.1-.7-3.6-.8-4.2-.2-1.2-.3-2.5-.4-3.7 9.2 2.9 19-.3 21.8-1.3-.3 2.3-1 5.1-2.7 8.1-1 1.8-.2 27.9-.2 27.9l6.7 41.7-8.7 2.5c0-.1 0-.2-.1-.3-6.8-25.3-7.6-31.6-9.6-41.7-.1-.3-.1-.6-.2-.9-1.1-6.2-4.3-20.7-5.8-28.1z"/><path class="st31" d="M835.3 463.4c.1-1.3.1-3.1.2-4.5.1-1.1.4-1.5.4-2.4 0-1.6-.3-2.7-1.1-2.5-4.3 1.2-6.5.5-6.6-.4-.1-.9.1-2.1.1-2.1-.9-.6.1-1.3.1-1.3s-1.1-.6-.7-1.2c.4-.6.3-1.6.3-1.6s-2 .8-2.4-.2c-.2-.5.9-3 1.5-6 .4-1.9-.4-4.4.5-6.6.9-.1 2.1-.3 3.1-.4 2.6-.1 6 .8 6.3 3.2.6 4.3 3 4.8 4.1 5.6 0 0 1-1.9 2.6-1.2 1.8.8-.3 5.5-.3 5.5l2.4 4.3c-.5 2.8.1 6.9.4 9.1-.5.2-10.9 2.7-10.9 2.7z"/><path class="st38" d="M846.5 460.7c-.1 0-.2-.1-.3-.1.1.1.2.1.3.1zM834.6 464.7c-.1.3-.3.5-.4.8.2-.3.3-.5.4-.8z"/><path class="st15" d="M829.3 518.1c-.3-.1-.6-.2-1-.3-.1-.4-.1-2.4-.1-5.4.1-5.7.4-14.8 1.2-22.7.9-8.1 1.4-16.5 4.6-23.9-.1.2-.2.5-.3.7 1.8-.8 3.6-1.4 5.2-2 2.5-1 5-2.1 7.6-3v-.1c.1-.2.1-.5.2-.7-.1 0-.2-.1-.3-.1.8.2 1.7.7 2.4 1.9-.5-.3-.9-.4-1.5-.4-12.5.3-2.7 24.4-2.7 24.4l.4-.2 5.3 15.5s.6 4.5 1.5 10.3c0 1.6 0 3.1.1 4.2 0 0-.3.1-.8.3-2.8 1.2-12.6 4.4-21.8 1.5z"/><path class="st16" d="M846.6 461.5s0 .1 0 0c-2.6 1-5.2 2.1-7.7 3.1-1.6.6-3.4 1.2-5.2 2 .1-.2.2-.5.3-.7 0-.1.1-.2.1-.3.1-.3.2-.6.4-.8.2-.4.4-.9.6-1.3l10.9-2.7c.1 0 .2.1.3.1.1 0 .2.1.3.1.2.1.1.3 0 .5z"/><path class="st49" d="M843.3 447.3s2-4.7.3-5.5c-1.5-.7-2.6 1.2-2.6 1.2-1.1-.9-3.5-1.3-4.1-5.6-.3-2.4-3.7-3.3-6.3-3.2-1 0-2.2.3-3.1.4-1.5.1-2.1-.3 1.2-3.3 5.2-4.8 14.3-3 18.1-.2 3.7 2.8 3.4 9.3 2.6 12.9-.8 3.5-3.6 7.5-3.6 7.6l-2.5-4.3z"/><path class="st39" d="M864.3 544.9h0zM861.7 544.6c.1 0 .1 0 .2.1-.1-.1-.1-.1-.2-.1zM865.4 544.1s0-.1 0 0c0-.1 0 0 0 0zM861.3 544.4c.1 0 .1.1.2.1-.1-.1-.1-.1-.2-.1zM864.8 544.8c0-.1 0-.1 0 0 0-.1 0-.1 0 0zM863.8 545h0zM864.1 545h.1-.1zM862 544.7c.1 0 .1 0 .2.1 0 0-.1-.1-.2-.1zM862.4 544.8h.1c0 .1-.1.1-.1 0zM862.7 544.9h.1c0 .1 0 .1-.1 0zM865.2 544.4zM865.3 544.3c0-.1 0-.1 0 0 0-.1 0-.1 0 0zM864.6 544.9s0-.1 0 0c0-.1 0 0 0 0zM863.1 545c.1 0 .1 0 0 0 .1 0 .1 0 0 0zM865 544.6zM863.5 544.2h0zM860.1 543.5l.1.1s0-.1-.1-.1zM865.5 543.4zM865.5 543.7c0-.1 0-.1 0 0 0-.1 0-.1 0 0zM865.5 543.9c0-.1 0-.1 0 0 0-.1 0-.1 0 0zM859 542.3l.2.2-.2-.2zM859.7 543.1l.2.2c0-.1-.1-.1-.2-.2zM859.4 542.7l.2.2c-.1-.1-.2-.1-.2-.2zM858.4 541.3c0 .1.1.1.1.2-.1-.1-.1-.1-.1-.2zM861 544.2l.1.1c0-.1-.1-.1-.1-.1zM860.5 543.8l.1.1-.1-.1zM858.7 541.8l.2.2c-.1 0-.2-.1-.2-.2z"/><path class="st31" d="M845.2 486.4l10.7-4.1c.6 2.8 2.5 12.4 3 14.1.5 2.1 2.6 37.8 2.6 37.8v-.2c-.6-.2-1.2-.4-1.8-.7-.4.2-.9.3-1.4.4-.1.3-.2.7-.3 1 0 .2-.2 1.4-.2 1.8v2.3c0 .7.1 1.3.1 2-.5-.8-.9-1.8-1.3-2.9-1.7-5.3-3.6-17-4.9-25.6-.9-5.9-1.5-10.3-1.5-10.3l-5-15.6z"/><path class="st31" d="M857.9 538.8c0-.8-.1-1.5 0-2.3 0-.4.2-1.6.2-1.8.1-.3.2-.7.3-1 .5-.1.9-.2 1.4-.4.6.3 1.2.6 1.8.7v.2s3.1 6 3.9 8.9V544.1s0 .1-.1.1v.1l-.1.1v.1c0 .1-.1.1-.2.2-.1 0-.1.1-.2.1h-.1s-.1 0-.1.1h-.1s-.1 0-.1.1h-.1-.1H864l-.1-.4c-.1 0-.1-.4-.2-.4h-.1c-.1 0-.2.4-.3.4l-.1.2c-.1 0-.2.1-.3.1H862.6h-.1c-.1 0-.1 0-.2-.1-.1 0-.1 0-.2-.1-.1 0-.1-.1-.2-.1s-.1 0-.2-.1c-.1 0-.1-.1-.2-.1s-.1-.1-.2-.1-.1-.1-.2-.1l-.1-.1c-.1-.1-.2-.1-.3-.2l-.1-.1c-.1-.1-.2-.1-.3-.2l-.1-.1-.2-.2-.2-.2-.2-.2-.2-.2c-.1-.1-.1-.2-.2-.2l-.2-.2c-.1-.1-.1-.2-.2-.3l-.2-.2c-.1-.1-.1-.2-.2-.3 0-.1-.1-.1-.1-.2-.1-.2-.2-.3-.3-.5 0-.7 0-1.4-.1-2z"/><path class="st16" d="M845.2 486.4l-.4.2s-9.7-24.1 2.7-24.4c.5 0 1 .1 1.5.4 3.5 2 5.5 11.1 7.4 19.5l-.4.1-10.8 4.2z"/><path class="st40" d="M890.2 597c-.6.6-1.4 1.3-2.2 1.7-1 .6-3.4.7-4.5 1.1l.1-26.2s.1-.2.2-.7c.1.4.2.8.3 1.3 1.4 6.7 4.9 15 6.1 22.8z"/><path class="st31" d="M879.7 552c-.2.6-.5 3.1-1 6.1-1.3 0-1.4-3.9-.7-8 .6.2 1.3.3 2 .4l-.3 1.5zM884.1 508.1c0-1.3-.2-2.2-.8-2.1-3.6.8-5.3-.2-5.4-.9-.1-.8.2-1.4.2-1.4-.7-.6.1-1 .1-1s-.8-.6-.5-1 .3-1.3.3-1.3-1.5-.2-1.8-1c-.2-.4 1-1.1 1.7-3.5.5-1.8-.5-4.8 1-6.7.6.3 1.3.6 2 .6 2.1.1 4.8.9 5 2.9.3 3.5 2.2 4 3.1 4.8 0 0 .9-1.5 2.1-.9 1.4.7-.5 4.5-.5 4.5l1 3c-.4 1.2-.4 2.9-.1 4.5l-7.6 2.3c.1-1.3.2-2.4.2-2.8z"/><path class="st12" d="M891.1 496.5c-1.2-.6-2.1.9-2.1.9-.9-.7-2.8-1.2-3.1-4.8-.2-2-2.8-2.8-5-2.9-.7 0-1.4-.3-2-.6-2.2-1.3-3.3-4.1 1.1-3.3 5.7 1 11-.5 13.9 1.9 2.9 2.5 2.6 7.9 1.8 10.7-.9 2.9-4.1 5.6-4.1 5.6v-.1l-1-3c0 .1 1.9-3.7.5-4.4z"/><path class="st35" d="M883.2 600h-.2v-.1c1-.4 3.8-.5 4.8-1.1.7-.4 1.7-1.2 2.3-1.7 0 .1.1.1.1.2l5.9-1.5v-.2c.4.4.8 1.1 1.1 2.2.6 2.3.8 2.3-.3 2.9-1.1.5-3.2 1.1-6.2 1.5-2.4.3-5 .5-6.7.2 0-.2-.2-.4-.2-.6-.2-.8-.5-1.4-.6-1.8z"/><path class="st35" d="M883.5 600c.1.4.3 1 .4 1.7 0 .2.1.4.1.6.3 1.8.3 1.8-.7 2.2-1.1.4-3.3.8-6.3.8-2.7 0-5.9 0-7.3-.9-.5-.3-.4-1-.1-1.8.3-.8 3.9-.2 5.3-.9.8-.4 2-1.4 2.8-2.1l5.8.4z"/><path class="st36" d="M890.2 597.2v-.2c-1.2-7.9-4.7-16.2-6.1-22.8-.1-.4-.2-.8-.3-1.3.7-2.2 2.9-9.6 5.3-13.3 0-.1-.2-.1-.1-.2.8-.9 1.5-1.7 2.1-2.5-.5 3.4-.8 13.8-.8 13.8l5.8 24.6v.2l-5.9 1.7z"/><path class="st37" d="M880 550.6c5.6 1 12.1.4 14.8 0-.2 1.7-1.4 3.6-3.7 6.5-.6.7-1.3 1.6-2.1 2.5 0 .1.1.1.1.2-2.3 3.7-4.6 11-5.3 13.3-.1.4-.5.7-.5.7l-.4 26.2v.1h.2l-5.8-.4s-2.1-21.6-1.1-26.6c.6-2.8 1.6-9.7 2.3-14.9.4-3 .8-5.5 1-6.1.3-.6.4-1.1.5-1.5z"/><path class="st50" d="M887.2 542.6c1.2-2.1 3-10.7 3.8-14.8l1 .2c1.4-6.1 2.1-13.8-.5-15-7.3-3.3-8.3 13.4-8.3 13.4l1.7.3-2.9 11h-.4c-.7 0-1.8 0-3.2-.1.3-2.2.6-4.5.8-6.6.6-5.2.7-12.1 2.9-17.2 1.2-.5 2.7-1 3.7-1.4 1.6-.6 6.2-1.7 6.7-1.8 1.7 1.2 3.5 4.1 3.7 11.2.2 6.5-.2 23.5 0 28.6 0 0-.5.1-1.3.2-2.7.3-9.2 1-14.8 0-.7-.1-1.4-.3-2-.4-.5-.1-.9-.3-1.4-.4-.1-.4.3-2.8.8-6 4.7.2 9 .1 9.7-1.2z"/><path class="st51" d="M885.7 512.4c-1 .4-2.5.9-3.7 1.4 0 0-.1 0-.1.1.3-.7 1-2.3 1.3-3l.6-.2 7.6-2.3.6-.2.4 2.2c-.5.3-5.1 1.4-6.7 2z"/><path class="st31" d="M859 535.7c2.4-1.2 4.1.6 4.7 1.6 0 0 9.1.2 14.5.3 1.3 0 2.5 0 3.2.1h.4l2.9-11 6.2 1.1c-.8 4.1-2.6 12.7-3.8 14.8-.7 1.3-5 1.4-9.8 1.1-5.6-.4-11.8-1.5-13.5-1.9 0 0-4.5 1.6-6.2-.8-1.6-2.4-.9-4.1 1.4-5.3z"/><path class="st51" d="M891.4 513c2.6 1.2 1.9 8.8.5 15l-1-.2-6.2-1.1-1.7-.3c.1 0 1.1-16.7 8.4-13.4z"/></g></g><g><path class="st31" d="M1011 466.7c3.5-3.3 4.4-11.5 4.4-11.5s1.9.4 1.7-2.7c-.2-3.1-2.7-1-2.7-1-.1 0-.1-.1-.2-.1-3.4.2-7.2-5.6-8.4-7.7-1.4-.1-3.3.2-4.1 2.2 0 0-.5 1.5-.3 2.9.1.9.3 1.8.3 2.5 0 3.3-1.3 4.8-1 5.2.2.4 1.9.7 1.9.7s-.1 1.3-.4 1.8c-.3.5.8.9.8.9s-.5 1.2.2 1.4c0 0 0 .8.1 1.7.1.9 1.6.5 5.5-.7 3.3-1.1.3 9 .3 9h8.1s-1.2-3-1.1-6.6c-1.5.3-3 .9-4.6 1.6-.4 0-.4.4-.5.4z"/><path class="st35" d="M1019.7 440.3c-1.6-1.6-3.9-2.3-6.1-2.3-5.9-2.6-12.3 1.9-13.1 5.2-1 3.8.9 6.1.9 6.1 0-.2-.1-.4-.1-.6-.1-1.5.3-2.9.3-2.9.8-1.9 2.6-2.3 4.1-2.2 1.2 2.1 5.1 7.9 8.4 7.7.1 0 .1.1.2.1 0 0 2.5-2.1 2.7 1 .2 3.1-1.7 2.7-1.7 2.7s-.8 8.2-4.4 11.5c.1 0 .2-.1.3-.1 1.6-.7 3.1-1.1 4.6-1.3 2.2-.4 4.5-.7 6.9-1.6 0-1.2.6-4.2.8-5.1.7-3.6 2.6-12-3.8-18.2z"/><path class="st31" d="M999.3 524c-1.2 2.8-2.6 7.1-4 9.3-.9 1.5.7 1.3 2.1-.1 1.2-1.1 4.1-4.6 4.5-5.9 0 0-1.3 3.3-1 3.8.2.5 3.3-2.6 2.9-8.7l-3.6-.4c-.3.5-.6 1.2-.9 2z"/><path class="st43" d="M1015.3 481.2l-8.3-1-.6.2-6.8 41.6h.5l3.6.4.7.1z"/><path class="st52" d="M1001.5 529.2s.3-45.4 7.5-56.3"/><path class="st12" d="M997.4 541.1l24.8 1.2v-22.9l-24.8-1.2z"/><path class="st45" d="M1004.2 520.5c.1.3.1.6.2.9.1-.3.1-.5.2-.8-.2-.1-.3-.1-.4-.1z"/><path class="st53" d="M1019.3 555.9s-1.9-20.9.5-26c-1 .9-2.2 1.8-3.5 2.6-2.2 1.4-5.1 8.1-7.3 14.1.9 4.8 1.8 9.2 2.2 11.7 1.5 7.9 10.3 36.9 10.3 36.9l6.5-1.7-8.7-37.6z"/><path class="st54" d="M1016.4 532.5c1.3-.8 2.5-1.7 3.5-2.6 3.3-2.9 4.7-6.4 3.6-11.6v.2s-9.7 4-19 2.1c-.1.3-.1.5-.2.8-.2.8-.4 1.7-.6 2.6-.7 2.7-5.1 25-6.5 31.9-1.6 7.8-4.4 40.5-4.4 40.5l6.7.9 6-40.5s1.5-4.8 3.5-10.1c2.3-6.1 5.2-12.8 7.4-14.2z"/><path class="st23" d="M1023.5 518.5v-.2c-.2-7.2-2-23.9-1.3-32.8 1.3-15.9-2.2-16.5-4.9-16.8-2.7-.3-12.7 4.2-14.6 12.6-.7 3.1 1.3 8.7 1 14.6-.4 10.2-2.7 21.5-2.3 23.6.9.3 1.8.6 2.7.8.1 0 .2 0 .3.1 9.4 2.1 19.1-1.9 19.1-1.9z"/><path class="st35" d="M993.7 596s-1.5 3.3-4.6 4.5c-3.1 1.2-6 1-6.4 3.1 0 0 4.3 2.7 17.3 1V597l-6.3-1zM1022.1 594.8s-.7 2.9-3.3 4.8c-2.6 1.9-5.8 2.5-5.7 4.5 0 0 7 2.4 16.1-3l-1.5-7.7-5.6 1.4z"/><path class="st55" d="M1017.2 466.7l.6 2.1-12.2 7.2 1.4-4.4z"/><path class="st46" d="M1011.4 551.6v-8.4c0-1.7-1.4-3.1-3.1-3.1h-3.9c-1.7 0-3.1 1.4-3.1 3.1v8.3"/><path class="st47" d="M1019.3 576.2h-26.2l1.9-30 22.6.1z"/><path class="st23" d="M997.9 554.8h16.9v15.3h-16.9z"/><path class="st31" d="M1005 538c-.7 1.8.4 2 .4 2s-1 5.8.1 6.4c1.5.8 3.3-1.1 4.6-4.2 1.2-3.1 1.5-5.5 1.6-6.7l-4.5-1.3c-.6.7-1.7 2.5-2.2 3.8z"/><path class="st55" d="M1020.1 470.8c-1.3-2.8-4.9-.2-6.1 2.3-4.2 8.4-1.3 33.7-1.3 33.7L1007 534l.3.1 4.5 1.3h.2c2.6-10.4 5.2-17.8 6.5-26.8 2.9-20.4 2.9-35 1.6-37.8z"/></g><path class="st56" d="M1147.9 433c.1-.4.3-.7.5-1.1.8-1.8 2.8-3.7 5.5-4.8 2.6-1.2 5.7-1.4 8.7.2 2 0 4.1.7 5.9 2.2 1.6 1.4 4 4 4 9.5s-5.1 10.2-6.3 11.3c-.1-.9-.3-3-.8-3.8-.3-.5-.7-1-1.1-1.4.6-.1 1.5-.6 1.3-2.9-.2-3.3-2.9-1.1-2.9-1.1-.1 0-.6 1.8-.7 1.8-.5 0-1.1-2.2-1.1-2.2l-4.7-6.1c-.7 0-3.9.1-5.4 1-1.7 1-1.7 3.3-1.7 3.3.1.7.2 1.4.2 2.1 0 3.5-1.3 5-1.1 5.4.3.4 2 .7 2 .7s-.1 1.3-.4 1.9c-.3.6.8.9.8.9s-.6 1.3.2 1.5c0 0 0 .7.1 1.5-1 .5-1.9.8-1.9.8s-1.2-2.9-2-10.4c-.2-2.5-.6-6.3.9-10.3z"/><path class="st31" d="M1150.6 450s-1.1-.3-.8-.9c.3-.6.4-1.9.4-1.9s-1.7-.3-2-.7c-.3-.4 1-2 1.1-5.4 0-.6-.1-1.3-.2-2.1 0 0 0-2.2 1.7-3.3 1.5-.9 4.7-1 5.4-1l4.7 6.1s.5 2.3 1.1 2.2c.1 0 .7-1.9.7-1.8 0 0 2.7-2.2 2.9 1.1.2 2.3-.8 2.8-1.3 2.9.4.4.8.9 1.1 1.4.5.8.7 2.9.8 3.8-.1.1-.2.2-.3.4-3.2 4 .8 9.2.8 9.2l-9.7 3.5s3.1-11.3-.3-10.2c-4 1.3-5.6 1-5.7.1v-.3c-.1-.8-.1-1.5-.1-1.5-.9-.3-.3-1.6-.3-1.6zM1142.7 527.2c1.5-2.4 3-6.9 4.3-9.8.2-.4.3-.7.5-1l-.1.9 4.4-1.2c.3 6.2-2.8 9.4-3.1 8.9-.3-.6 1.1-4 1.1-4-.4 1.4-3.5 5-4.7 6.2-1.7 1.4-3.4 1.6-2.4 0z"/><path class="st12" d="M1147.4 516.4l7-42.8.7-2.1 8.6 1-11.4 43.4-.7.2-4.4 1.2z"/><path class="st33" d="M1135.3 599.3c3.1 1 4.5-3 5.1-5.8l6.6.9-.2 10.7-2 .1-.3-6.6s-2 6.1-3.6 6.4c-1.6.3-7.1-1.5-8.9-2.5-1.7-1.1.6-4 3.3-3.2zM1181.8 601.1l-1.7.9-3.2-5.8s.9 6.4-.4 7.3c-1.3.9-7.1 1.8-9.1 1.7-2-.1-1.2-3.8 1.6-4.2 3.8-.6 2.4-6.4 1.6-8.9l6.3-1.7 4.9 10.7z"/><path class="st55" d="M1164.9 526.4c1.4-.9 2.6-1.8 3.7-2.7-2.5 5.3-.6 27.3-.6 27.3l9.2 39.4-.4.1-6.3 1.7-.2.1s-9.3-30.5-10.8-38.8c-.5-2.6-1.4-7.2-2.4-12.3 2.4-6.3 5.5-13.4 7.8-14.8z"/><path class="st23" d="M1140.1 593.5s2.9-34.4 4.6-42.6c1.5-7.2 6.1-30.7 6.9-33.5.4-1.4.7-2.7.9-4 10.3 3.5 19.8-1.7 19.8-1.7v-.2c1.1 5.5-.4 9.1-3.8 12.2-1.1.9-2.3 1.8-3.7 2.7-2.3 1.5-5.4 8.5-7.7 14.8-2.1 5.6-3.7 10.6-3.7 10.6l-6.4 42.6h-.1l-6.6-.9h-.2z"/><path class="st35" d="M1152.6 513.3c-.2-.1-.4-.1-.6-.2-.4-2.2 0-13.5.4-24.2.3-6.3-1.3-5.5-2.4-8.6-2.1-6.5 7-16.8 7-16.8s7.3-4.9 8.9-4.7c2.8.3 6.5 1.7 5.2 18.3-.8 9.3 1.1 26.8 1.4 34.4v.2c-.1-.1-9.6 5.1-19.9 1.6z"/><path class="st47" d="M1161 536.2l14-11.1v14.1h-28v-14.1z"/><path class="st30" d="M1147.5 525.2h27.5l-13.7 11z"/><path class="st31" d="M1152.9 532.1c.5-1.4 1.7-3.2 2.4-4.1l4.7 1.4c-.1 1.2-.4 3.8-1.7 7.1-1.3 3.3-3.3 5.3-4.8 4.5-1.2-.7-.1-6.7-.1-6.7s-1.2-.3-.5-2.2z"/><path class="st12" d="M1154.9 528l6-28.6s-3.8-27.8.6-36.7c1.3-2.6 5.4-4 7.6.2 1.5 2.9 1 17-2.1 38.5-1.4 9.5-4.2 17.3-6.9 28.2l-.2-.1-4.7-1.4-.3-.1z"/><g><path class="st31" d="M1294.4 517.8c.3.1.6.2 1 .3.1 1.2.2 2.4.4 3.7.1.6.4 2.1.8 4.2-.5 2.8-1.1 6.2-1.7 9.6-1.6-.7-2.1-6.2-1.5-11.8.2-1.9.5-6.2 1-11.4-.1 3-.1 5 0 5.4z"/><path class="st35" d="M1320.9 594.6c.5.6 1.1 1.6 1.5 3.2.9 3.5 1.1 3.5-.5 4.3-1.6.8-4.7 1.7-9.1 2.2-4 .5-8.6.9-10.9-.1-.8-.3-.8-1.4-.5-2.6.3-1.2 5.6-1.1 7.6-2.3 1.1-.6 2.3-1.7 3.2-2.6 0 .1 0 .2.1.3l8.6-2.4zM1277.4 597.5c.5-1.2 5.7-.4 7.8-1.3 1.4-.6 3.4-2.5 4.6-3.6l8.2.6c.3.7.5 1.6.7 3 .5 3.5.7 3.5-1 4.1-1.7.6-4.9 1.1-9.3 1.2-4.1 0-8.7 0-10.8-1.3-.8-.5-.7-1.5-.2-2.7z"/><path class="st12" d="M1289.2 592.5s.9-31.2 2.5-39.6c.6-3.4 1.9-10.5 3.1-17.3.6-3.4 1.2-6.8 1.7-9.6 1.5 7.4 4.7 21.9 5.9 28.3l-4.2 38.9h-.3l-8.2-.6-.5-.1z"/><path class="st1" d="M1296.5 526c-.4-2.1-.7-3.6-.8-4.2-.2-1.2-.3-2.5-.4-3.7 9.2 2.9 19-.3 21.8-1.3-.3 2.3-1 5.1-2.7 8.1-1 1.8-.2 27.9-.2 27.9l6.7 41.7-8.7 2.5c0-.1 0-.2-.1-.3-6.8-25.3-7.6-31.6-9.6-41.7-.1-.3-.1-.6-.2-.9-1.1-6.2-4.3-20.7-5.8-28.1z"/><path class="st31" d="M1301.3 463.4c.1-1.3.1-3.1.2-4.5.1-1.1.4-1.5.4-2.4 0-1.6-.3-2.7-1.1-2.5-4.3 1.2-6.5.5-6.6-.4-.1-.9.1-2.1.1-2.1-.9-.6.1-1.3.1-1.3s-1.1-.6-.7-1.2c.4-.6.3-1.6.3-1.6s-2 .8-2.4-.2c-.2-.5.9-3 1.5-6 .4-1.9-.4-4.4.5-6.6.9-.1 2.1-.3 3.1-.4 2.6-.1 6 .8 6.3 3.2.6 4.3 3 4.8 4.1 5.6 0 0 1-1.9 2.6-1.2 1.8.8-.3 5.5-.3 5.5l2.4 4.3c-.5 2.8.1 6.9.4 9.1-.5.2-10.9 2.7-10.9 2.7z"/><path class="st38" d="M1312.5 460.7c-.1 0-.2-.1-.3-.1.1.1.2.1.3.1zM1300.6 464.7c-.1.3-.3.5-.4.8.2-.3.3-.5.4-.8z"/><path class="st41" d="M1295.3 518.1c-.3-.1-.6-.2-1-.3-.1-.4-.1-2.4-.1-5.4.1-5.7.4-14.8 1.2-22.7.9-8.1 1.4-16.5 4.6-23.9-.1.2-.2.5-.3.7 1.8-.8 3.6-1.4 5.2-2 2.5-1 5-2.1 7.6-3v-.1c.1-.2.1-.5.2-.7-.1 0-.2-.1-.3-.1.8.2 1.7.7 2.4 1.9-.5-.3-.9-.4-1.5-.4-12.5.3-2.7 24.4-2.7 24.4l.4-.2 5.3 15.5s.6 4.5 1.5 10.3c0 1.6 0 3.1.1 4.2 0 0-.3.1-.8.3-2.8 1.2-12.6 4.4-21.8 1.5z"/><path class="st42" d="M1312.6 461.5s0 .1 0 0c-2.6 1-5.2 2.1-7.7 3.1-1.6.6-3.4 1.2-5.2 2 .1-.2.2-.5.3-.7 0-.1.1-.2.1-.3.1-.3.2-.6.4-.8.2-.4.4-.9.6-1.3l10.9-2.7c.1 0 .2.1.3.1.1 0 .2.1.3.1.2.1.1.3 0 .5z"/><path class="st35" d="M1309.3 447.3s2-4.7.3-5.5c-1.5-.7-2.6 1.2-2.6 1.2-1.1-.9-3.5-1.3-4.1-5.6-.3-2.4-3.7-3.3-6.3-3.2-1 0-2.2.3-3.1.4-1.5.1-2.1-.3 1.2-3.3 5.2-4.8 14.3-3 18.1-.2 3.7 2.8 3.4 9.3 2.6 12.9-.8 3.5-3.6 7.5-3.6 7.6l-2.5-4.3z"/><path class="st39" d="M1330.3 544.9h0zM1327.7 544.6c.1 0 .1 0 .2.1-.1-.1-.1-.1-.2-.1zM1331.4 544.1s0-.1 0 0c0-.1 0 0 0 0zM1327.3 544.4c.1 0 .1.1.2.1-.1-.1-.1-.1-.2-.1zM1330.8 544.8c0-.1 0-.1 0 0 0-.1 0-.1 0 0zM1329.8 545h0zM1330.1 545h.1-.1zM1328 544.7c.1 0 .1 0 .2.1 0 0-.1-.1-.2-.1zM1328.4 544.8h.1c0 .1-.1.1-.1 0zM1328.7 544.9h.1c0 .1 0 .1-.1 0zM1331.2 544.4zM1331.3 544.3c0-.1 0-.1 0 0 0-.1 0-.1 0 0zM1330.6 544.9s0-.1 0 0c0-.1 0 0 0 0zM1329.1 545c.1 0 .1 0 0 0 .1 0 .1 0 0 0zM1331 544.6zM1329.5 544.2h0zM1326.1 543.5l.1.1s0-.1-.1-.1zM1331.5 543.4zM1331.5 543.7c0-.1 0-.1 0 0 0-.1 0-.1 0 0zM1331.5 543.9c0-.1 0-.1 0 0 0-.1 0-.1 0 0zM1325 542.3l.2.2-.2-.2zM1325.7 543.1l.2.2c0-.1-.1-.1-.2-.2zM1325.4 542.7l.2.2c-.1-.1-.2-.1-.2-.2zM1324.4 541.3c0 .1.1.1.1.2-.1-.1-.1-.1-.1-.2zM1327 544.2l.1.1c0-.1-.1-.1-.1-.1zM1326.5 543.8l.1.1-.1-.1zM1324.7 541.8l.2.2c-.1 0-.2-.1-.2-.2z"/><path class="st31" d="M1311.2 486.4l10.7-4.1c.6 2.8 2.5 12.4 3 14.1.5 2.1 2.6 37.8 2.6 37.8v-.2c-.6-.2-1.2-.4-1.8-.7-.4.2-.9.3-1.4.4-.1.3-.2.7-.3 1 0 .2-.2 1.4-.2 1.8v2.3c0 .7.1 1.3.1 2-.5-.8-.9-1.8-1.3-2.9-1.7-5.3-3.6-17-4.9-25.6-.9-5.9-1.5-10.3-1.5-10.3l-5-15.6z"/><path class="st31" d="M1323.9 538.8c0-.8-.1-1.5 0-2.3 0-.4.2-1.6.2-1.8.1-.3.2-.7.3-1 .5-.1.9-.2 1.4-.4.6.3 1.2.6 1.8.7v.2s3.1 6 3.9 8.9V544.1s0 .1-.1.1v.1l-.1.1v.1c0 .1-.1.1-.2.2-.1 0-.1.1-.2.1h-.1s-.1 0-.1.1h-.1s-.1 0-.1.1h-.1-.1H1330l-.1-.4c-.1 0-.1-.4-.2-.4h-.1c-.1 0-.2.4-.3.4l-.1.2c-.1 0-.2.1-.3.1H1328.6h-.1c-.1 0-.1 0-.2-.1-.1 0-.1 0-.2-.1-.1 0-.1-.1-.2-.1s-.1 0-.2-.1c-.1 0-.1-.1-.2-.1s-.1-.1-.2-.1-.1-.1-.2-.1l-.1-.1c-.1-.1-.2-.1-.3-.2l-.1-.1c-.1-.1-.2-.1-.3-.2l-.1-.1-.2-.2-.2-.2-.2-.2-.2-.2c-.1-.1-.1-.2-.2-.2l-.2-.2c-.1-.1-.1-.2-.2-.3l-.2-.2c-.1-.1-.1-.2-.2-.3 0-.1-.1-.1-.1-.2-.1-.2-.2-.3-.3-.5 0-.7 0-1.4-.1-2z"/><path class="st42" d="M1311.2 486.4l-.4.2s-9.7-24.1 2.7-24.4c.5 0 1 .1 1.5.4 3.5 2 5.5 11.1 7.4 19.5l-.4.1-10.8 4.2z"/><path class="st40" d="M1356.2 597c-.6.6-1.4 1.3-2.2 1.7-1 .6-3.4.7-4.5 1.1l.1-26.2s.1-.2.2-.7c.1.4.2.8.3 1.3 1.4 6.7 4.9 15 6.1 22.8z"/><path class="st31" d="M1345.7 552c-.2.6-.5 3.1-1 6.1-1.3 0-1.4-3.9-.7-8 .6.2 1.3.3 2 .4l-.3 1.5zM1350.1 508.1c0-1.3-.2-2.2-.8-2.1-3.6.8-5.3-.2-5.4-.9-.1-.8.2-1.4.2-1.4-.7-.6.1-1 .1-1s-.8-.6-.5-1c.3-.5.3-1.3.3-1.3s-1.5-.2-1.8-1c-.2-.4 1-1.1 1.7-3.5.5-1.8-.5-4.8 1-6.7.6.3 1.3.6 2 .6 2.1.1 4.8.9 5 2.9.3 3.5 2.2 4 3.1 4.8 0 0 .9-1.5 2.1-.9 1.4.7-.5 4.5-.5 4.5l1 3c-.4 1.2-.4 2.9-.1 4.5l-7.6 2.3c.1-1.3.2-2.4.2-2.8z"/><path class="st12" d="M1357.1 496.5c-1.2-.6-2.1.9-2.1.9-.9-.7-2.8-1.2-3.1-4.8-.2-2-2.8-2.8-5-2.9-.7 0-1.4-.3-2-.6-2.2-1.3-3.3-4.1 1.1-3.3 5.7 1 11-.5 13.9 1.9 2.9 2.5 2.6 7.9 1.8 10.7-.9 2.9-4.1 5.6-4.1 5.6v-.1l-1-3c0 .1 1.9-3.7.5-4.4z"/><path class="st35" d="M1349.2 600h-.2v-.1c1-.4 3.8-.5 4.8-1.1.7-.4 1.7-1.2 2.3-1.7 0 .1.1.1.1.2l5.9-1.5v-.2c.4.4.8 1.1 1.1 2.2.6 2.3.8 2.3-.3 2.9-1.1.5-3.2 1.1-6.2 1.5-2.4.3-5 .5-6.7.2 0-.2-.2-.4-.2-.6-.2-.8-.5-1.4-.6-1.8z"/><path class="st35" d="M1349.5 600c.1.4.3 1 .4 1.7 0 .2.1.4.1.6.3 1.8.3 1.8-.7 2.2-1.1.4-3.3.8-6.3.8-2.7 0-5.9 0-7.3-.9-.5-.3-.4-1-.1-1.8.3-.8 3.9-.2 5.3-.9.8-.4 2-1.4 2.8-2.1l5.8.4z"/><path class="st57" d="M1356.2 597.2v-.2c-1.2-7.9-4.7-16.2-6.1-22.8-.1-.4-.2-.8-.3-1.3.7-2.2 2.9-9.6 5.3-13.3 0-.1-.2-.1-.1-.2.8-.9 1.5-1.7 2.1-2.5-.5 3.4-.8 13.8-.8 13.8l5.8 24.6v.2l-5.9 1.7z"/><path class="st36" d="M1346 550.6c5.6 1 12.1.4 14.8 0-.2 1.7-1.4 3.6-3.7 6.5-.6.7-1.3 1.6-2.1 2.5 0 .1.1.1.1.2-2.3 3.7-4.6 11-5.3 13.3-.1.4-.5.7-.5.7l-.4 26.2v.1h.2l-5.8-.4s-2.1-21.6-1.1-26.6c.6-2.8 1.6-9.7 2.3-14.9.4-3 .8-5.5 1-6.1.3-.6.4-1.1.5-1.5z"/><path class="st1" d="M1353.2 542.6c1.2-2.1 3-10.7 3.8-14.8l1 .2c1.4-6.1 2.1-13.8-.5-15-7.3-3.3-8.3 13.4-8.3 13.4l1.7.3-2.9 11h-.4c-.7 0-1.8 0-3.2-.1.3-2.2.6-4.5.8-6.6.6-5.2.7-12.1 2.9-17.2 1.2-.5 2.7-1 3.7-1.4 1.6-.6 6.2-1.7 6.7-1.8 1.7 1.2 3.5 4.1 3.7 11.2.2 6.5-.2 23.5 0 28.6 0 0-.5.1-1.3.2-2.7.3-9.2 1-14.8 0-.7-.1-1.4-.3-2-.4-.5-.1-.9-.3-1.4-.4-.1-.4.3-2.8.8-6 4.7.2 9 .1 9.7-1.2z"/><path class="st12" d="M1351.7 512.4c-1 .4-2.5.9-3.7 1.4 0 0-.1 0-.1.1.3-.7 1-2.3 1.3-3l.6-.2 7.6-2.3.6-.2.4 2.2c-.5.3-5.1 1.4-6.7 2z"/><path class="st31" d="M1325 535.7c2.4-1.2 4.1.6 4.7 1.6 0 0 9.1.2 14.5.3 1.3 0 2.5 0 3.2.1h.4l2.9-11 6.2 1.1c-.8 4.1-2.6 12.7-3.8 14.8-.7 1.3-5 1.4-9.8 1.1-5.6-.4-11.8-1.5-13.5-1.9 0 0-4.5 1.6-6.2-.8-1.6-2.4-.9-4.1 1.4-5.3z"/><path class="st12" d="M1357.4 513c2.6 1.2 1.9 8.8.5 15l-1-.2-6.2-1.1-1.7-.3c.1 0 1.1-16.7 8.4-13.4z"/></g><path class="st31" d="M1484 466.7c3.5-3.3 4.4-11.5 4.4-11.5s1.9.4 1.7-2.7c-.2-3.1-2.7-1-2.7-1-.1 0-.1-.1-.2-.1-3.4.2-7.2-5.6-8.4-7.7-1.4-.1-3.3.2-4.1 2.2 0 0-.5 1.5-.3 2.9.1.9.3 1.8.3 2.5 0 3.3-1.3 4.8-1 5.2.2.4 1.9.7 1.9.7s-.1 1.3-.4 1.8c-.3.5.8.9.8.9s-.5 1.2.2 1.4c0 0 0 .8.1 1.7.1.9 1.6.5 5.5-.7 3.3-1.1.3 9 .3 9h8.1s-1.2-3-1.1-6.6c-1.5.3-3 .9-4.6 1.6-.4 0-.4.4-.5.4z"/><path class="st58" d="M1492.7 440.3c-1.6-1.6-3.9-2.3-6.1-2.3-5.9-2.6-12.3 1.9-13.1 5.2-1 3.8.9 6.1.9 6.1 0-.2-.1-.4-.1-.6-.1-1.5.3-2.9.3-2.9.8-1.9 2.6-2.3 4.1-2.2 1.2 2.1 5.1 7.9 8.4 7.7.1 0 .1.1.2.1 0 0 2.5-2.1 2.7 1 .2 3.1-1.7 2.7-1.7 2.7s-.8 8.2-4.4 11.5c.1 0 .2-.1.3-.1 1.6-.7 3.1-1.1 4.6-1.3 2.2-.4 4.5-.7 6.9-1.6 0-1.2.6-4.2.8-5.1.7-3.6 2.6-12-3.8-18.2z"/><path class="st31" d="M1472.3 524c-1.2 2.8-2.6 7.1-4 9.3-.9 1.5.7 1.3 2.1-.1 1.2-1.1 4.1-4.6 4.5-5.9 0 0-1.3 3.3-1 3.8.2.5 3.3-2.6 2.9-8.7l-3.6-.4c-.3.5-.6 1.2-.9 2z"/><path class="st43" d="M1488.3 481.2l-8.3-1-.6.2-6.8 41.6h.5l3.6.4.7.1z"/><path class="st59" d="M1474.5 529.2s.3-45.4 7.5-56.3"/><path class="st12" d="M1470.4 541.1l24.8 1.2v-22.9l-24.8-1.2z"/><path class="st45" d="M1477.2 520.5c.1.3.1.6.2.9.1-.3.1-.5.2-.8-.2-.1-.3-.1-.4-.1z"/><path class="st12" d="M1492.3 555.9s-1.9-20.9.5-26c-1 .9-2.2 1.8-3.5 2.6-2.2 1.4-5.1 8.1-7.3 14.1.9 4.8 1.8 9.2 2.2 11.7 1.5 7.9 10.3 36.9 10.3 36.9l6.5-1.7-8.7-37.6z"/><path class="st1" d="M1489.4 532.5c1.3-.8 2.5-1.7 3.5-2.6 3.3-2.9 4.7-6.4 3.6-11.6v.2s-9.7 4-19 2.1c-.1.3-.1.5-.2.8-.2.8-.4 1.7-.6 2.6-.7 2.7-5.1 25-6.5 31.9-1.6 7.8-4.4 40.5-4.4 40.5l6.7.9 6-40.5s1.5-4.8 3.5-10.1c2.3-6.1 5.2-12.8 7.4-14.2z"/><path class="st60" d="M1496.5 518.5v-.2c-.2-7.2-2-23.9-1.3-32.8 1.3-15.9-2.2-16.5-4.9-16.8-2.7-.3-12.8 4.2-14.6 12.6-.7 3.1 1.3 8.7 1 14.6-.4 10.2-2.7 21.5-2.3 23.6.9.3 1.8.6 2.7.8.1 0 .2 0 .3.1 9.4 2.1 19.1-1.9 19.1-1.9z"/><path class="st35" d="M1466.7 596s-1.5 3.3-4.6 4.5c-3.1 1.2-6 1-6.4 3.1 0 0 4.3 2.7 17.3 1V597l-6.3-1zM1495.1 594.8s-.7 2.9-3.3 4.8c-2.6 1.9-5.8 2.5-5.7 4.5 0 0 7 2.4 16.1-3l-1.5-7.7-5.6 1.4z"/><path class="st61" d="M1490.2 466.7l.6 2.1-12.2 7.2 1.4-4.4z"/><path class="st46" d="M1484.4 551.6v-8.4c0-1.7-1.4-3.1-3.1-3.1h-3.9c-1.7 0-3.1 1.4-3.1 3.1v8.3"/><path class="st47" d="M1492.3 576.2h-26.2l1.9-30 22.6.1z"/><path class="st23" d="M1470.9 554.8h16.9v15.3h-16.9z"/><path class="st31" d="M1478 538c-.7 1.8.4 2 .4 2s-1 5.8.1 6.4c1.5.8 3.3-1.1 4.6-4.2 1.2-3.1 1.5-5.5 1.6-6.7l-4.5-1.3c-.6.7-1.7 2.5-2.2 3.8z"/><path class="st61" d="M1493.1 470.8c-1.3-2.8-4.9-.2-6.1 2.3-4.2 8.4-1.3 33.7-1.3 33.7L1480 534l.3.1 4.5 1.3h.2c2.6-10.4 5.2-17.8 6.5-26.8 2.9-20.4 2.9-35 1.6-37.8z"/><path class="st30" d="M1620.9 433c.1-.4.3-.7.5-1.1.8-1.8 2.8-3.7 5.5-4.8 2.6-1.2 5.7-1.4 8.7.2 2 0 4.1.7 5.9 2.2 1.6 1.4 4 4 4 9.5s-5.1 10.2-6.3 11.3c-.1-.9-.3-3-.8-3.8-.3-.5-.7-1-1.1-1.4.6-.1 1.5-.6 1.3-2.9-.2-3.3-2.9-1.1-2.9-1.1-.1 0-.6 1.8-.7 1.8-.5 0-1.1-2.2-1.1-2.2l-4.7-6.1c-.7 0-3.9.1-5.4 1-1.7 1-1.7 3.3-1.7 3.3.1.7.2 1.4.2 2.1 0 3.5-1.3 5-1.1 5.4.3.4 2 .7 2 .7s-.1 1.3-.4 1.9c-.3.6.8.9.8.9s-.6 1.3.2 1.5c0 0 0 .7.1 1.5-1 .5-1.9.8-1.9.8s-1.2-2.9-2-10.4c-.2-2.5-.6-6.3.9-10.3z"/><path class="st31" d="M1623.6 450s-1.1-.3-.8-.9c.3-.6.4-1.9.4-1.9s-1.7-.3-2-.7c-.3-.4 1-2 1.1-5.4 0-.6-.1-1.3-.2-2.1 0 0 0-2.2 1.7-3.3 1.5-.9 4.7-1 5.4-1l4.7 6.1s.5 2.3 1.1 2.2c.1 0 .7-1.9.7-1.8 0 0 2.7-2.2 2.9 1.1.2 2.3-.8 2.8-1.3 2.9.4.4.8.9 1.1 1.4.5.8.7 2.9.8 3.8-.1.1-.2.2-.3.4-3.2 4 .8 9.2.8 9.2l-9.7 3.5s3.1-11.3-.3-10.2c-4 1.3-5.6 1-5.7.1v-.3c-.1-.8-.1-1.5-.1-1.5-.9-.3-.3-1.6-.3-1.6zM1615.7 527.2c1.5-2.4 3-6.9 4.3-9.8.2-.4.3-.7.5-1l-.1.9 4.4-1.2c.3 6.2-2.8 9.4-3.1 8.9-.3-.6 1.1-4 1.1-4-.4 1.4-3.5 5-4.7 6.2-1.7 1.4-3.4 1.6-2.4 0z"/><path class="st12" d="M1620.4 516.4l7-42.8.7-2.1 8.6 1-11.4 43.4-.7.2-4.4 1.2z"/><path class="st33" d="M1608.3 599.3c3.1 1 4.5-3 5.1-5.8l6.6.9-.2 10.7-2 .1-.3-6.6s-2 6.1-3.6 6.4c-1.6.3-7.1-1.5-8.9-2.5-1.7-1.1.6-4 3.3-3.2zM1654.8 601.1l-1.7.9-3.2-5.8s.9 6.4-.4 7.3c-1.3.9-7.1 1.8-9.1 1.7-2-.1-1.2-3.8 1.6-4.2 3.8-.6 2.4-6.4 1.6-8.9l6.3-1.7 4.9 10.7z"/><path class="st33" d="M1637.9 526.4c1.4-.9 2.6-1.8 3.7-2.7-2.5 5.3-.6 27.3-.6 27.3l9.2 39.4-.4.1-6.3 1.7-.2.1s-9.3-30.5-10.8-38.8c-.5-2.6-1.4-7.2-2.4-12.3 2.4-6.3 5.5-13.4 7.8-14.8z"/><path class="st12" d="M1613.1 593.5s2.9-34.4 4.6-42.6c1.5-7.2 6.1-30.7 6.9-33.5.4-1.4.7-2.7.9-4 10.3 3.5 19.8-1.7 19.8-1.7v-.2c1.1 5.5-.4 9.1-3.8 12.2-1.1.9-2.3 1.8-3.7 2.7-2.3 1.5-5.4 8.5-7.7 14.8-2.1 5.6-3.7 10.6-3.7 10.6l-6.4 42.6h-.1l-6.6-.9h-.2z"/><path class="st1" d="M1625.6 513.3c-.2-.1-.4-.1-.6-.2-.4-2.2 0-13.5.4-24.2.3-6.3-1.3-5.5-2.4-8.6-2.1-6.5 7-16.8 7-16.8s7.3-4.9 8.9-4.7c2.8.3 6.5 1.7 5.2 18.3-.8 9.3 1.1 26.8 1.4 34.4v.2c-.1-.1-9.6 5.1-19.9 1.6z"/><path class="st47" d="M1634 536.2l14-11.1v14.1h-28v-14.1z"/><path class="st30" d="M1620.5 525.2h27.5l-13.7 11z"/><path class="st31" d="M1625.9 532.1c.5-1.4 1.7-3.2 2.4-4.1l4.7 1.4c-.1 1.2-.4 3.8-1.7 7.1-1.3 3.3-3.3 5.3-4.8 4.5-1.2-.7-.1-6.7-.1-6.7s-1.2-.3-.5-2.2z"/><path class="st12" d="M1627.9 528l6-28.6s-3.8-27.8.6-36.7c1.3-2.6 5.4-4 7.6.2 1.5 2.9 1 17-2.1 38.5-1.4 9.5-4.2 17.3-6.9 28.2l-.2-.1-4.7-1.4-.3-.1z"/></svg>