<svg id="Layer_1" data-name="Layer 1" xmlns="http://www.w3.org/2000/svg" viewBox="0 0 117.68 162.81"><defs><style>.cls-1{fill:#fff;}</style></defs><title>cfa</title><path class="cls-1" d="M84.2 65.19q.12 2.93 0 6.07a84.75 84.75 0 0 1-2.29 14.87c13-8.95 19.3-6.49 19.3-9.79 0-3.63-9.97-10.5-17.01-11.15zM46.91 36.36c4.69-2.15 5.25-11 1.81-18.5S39.34 7.42 34.65 9.57s-6.35 8.55-2.9 16.08 10.49 12.86 15.16 10.71zM115.38 16.41c-4.76-6.4-15-6.79-25.46.94S73.58 37.53 78.34 43.94s18.41 4.33 28.81-3.41 12.99-17.72 8.23-24.12zM62.68 35.65c6.23 1.34 13.33-6.91 15.49-16.86S76.61 1.57 70.37.22 57.76 3.93 55.59 13.88s.86 20.41 7.09 21.77zM20.09 40.92c4.37 3.73 10.42 4.94 12.82 2.07s.27-8.63-4.1-12.35-9-3.74-11.44-.91-1.64 7.46 2.72 11.19zM65.2 65.99c0-1.23-.05-4-3.14-4-3.84.12-8 6.92-6.34 10.66 3.03 4.86 9.37-1.49 9.48-6.66z"/><path class="cls-1" d="M77.63 136.61c-1.91.42-3.45 1.71-5.37 3.27-10.73 9.45-23.48 15-35.66 14.07-18.21-1.47-27.59-19.26-26.38-40.58 1.71-29.92 25.4-66 48-63.81 7.92.78 13.38 7.74 12.53 22.85-1 17.5-13.64 43-27 42.28-6.17-.34-8.1-6.65-7.63-12.21 1-12.06 7.16-15.37 7.57-20.26.24-2.87-2.72-4.13-4.88-3.45-3.72 1.18-11.13 10.38-12 23.45-1.1 16 9.46 20.95 15.71 21.3 18.51 1 36.58-24.77 38.09-51.88 1-17.55-6.68-28.89-21.19-30.44-28.2-3-57.83 33.86-59.35 72.49-.91 23.1 10.21 48.42 36.36 49.12 12 .32 24.28-5.66 35.86-12.1 4.8-3.3 9-7.5 9.43-9.71s-1.27-5.01-4.09-4.39z"/></svg>