<svg id="Layer_1" data-name="Layer 1" xmlns="http://www.w3.org/2000/svg" viewBox="0 0 119.84 162.8"><defs><style>.cls-1{fill:#fff;}</style></defs><title>cfa</title><path class="cls-1" d="M54.8 23.52c2.21 2.5 5.13 4.62 8.65 3.41 3.11-.92 3.95-4.29 4.31-7.07C68 13.67 66.25 7.37 62 3 59 0 53.16.78 51 4.25c-3.33 5.63-.46 13.05 2.8 18a12.35 12.35 0 0 1 1 1.27zm25.3 6c7.39-4.6 14.16-13.52 13-21.72C91.5.6 86.1-.58 82.75.23c-5.34.89-9 5.49-11 10.54-2 5.79-4.75 14.23.69 19.23 2.19 1.33 5.46.9 7.66-.48zm-31.92 2a5.17 5.17 0 0 0 4.24-3.92 8.4 8.4 0 0 0-1.28-5.6A10.8 10.8 0 0 0 44 16.26a6.69 6.69 0 0 0-6 1.85c-1.86 2.73-1 6.13.42 8.28 2.14 2.76 5.77 5.98 9.76 5.11zm70.32-9.15a11 11 0 0 0-6.84-4.45c-7.33-1.08-15.08 1.52-21.27 6.31-4.74 3.91-11 9.51-8.34 16.16 2.74 5 7.85 4.91 13 4.54a40.66 40.66 0 0 0 11.79-3.17c4.28-1.94 5.92-3.13 10-7.16 3.93-4.43 3.45-9.04 1.66-12.25zM86.39 64.05a86 86 0 0 1-5 23.43c.54.63 9 3.08 15.28-1.64-9.36-1.71-8-8.06-7.34-8.13 2.75 3.62 5.27 4.94 9.83 4.89 4.6.3 6.48 4.58 6.6 4.25.01-10.7-9.05-20.52-19.37-22.8zm-15.51-6.14c-2.48-4.15-8.89 5.54-7.23 9.44 2.48 4.65 10.6-3.17 7.23-9.44zM47.44 71.33a3.86 3.86 0 0 0 .83-2.72 5 5 0 0 0-8.91-3.16l-.2.27a3.34 3.34 0 0 0-.3.43c-27.62 41.17-.88 64 20.58 50.15 6.82-4.41 12.33-11 18.09-24.23 5.14-11.77 10-30.69 5.23-43.76 0 0-7.14-21.43-28.52-16S16.18 57 8.75 73.41a99.56 99.56 0 0 0-8.65 38A65.89 65.89 0 0 0 2.32 132c4.06 14.72 12.88 25.19 26 29.62a30.52 30.52 0 0 0 8.42 1.2c17.75-.23 34-17.05 38.18-23.18a11.07 11.07 0 0 0 1.84-3.64 4.61 4.61 0 0 0-8.39-3.82c-11.92 15.51-21.33 19-30.72 19.27-28.93.8-37.56-57.3-8.54-91.08 11.1-13 28.52-22 36.86-17.7 5.25 2.68 8.63 9.58 8.73 17.4 0 0 1 16.32-10.86 36.88-6.79 11.56-15.33 15.51-21.55 12.43-5.37-2.67-6.21-10.49-4.19-18.84 2.32-8.4 7.97-17.24 9.34-19.21z"/></svg>