<svg id="Layer_1" xmlns="http://www.w3.org/2000/svg" viewBox="0 0 150 38.9"><style>.st0{fill:#F5F5F5;} .st1{fill-rule:evenodd;clip-rule:evenodd;fill:#F5F5F5;}</style><path class="st0" d="M30.8 29.1h-5.2V17.3c0-.3 0-.6-.1-1.1-.1-.4-.2-.9-.5-1.3s-.6-.8-1.1-1.1c-.5-.3-1.2-.4-2-.4-1.1 0-2.1.4-2.8 1.1-.7.7-1.1 1.6-1.1 2.8v11.8h-5.2V17.3c0-.3 0-.6-.1-1.1-.1-.4-.2-.9-.5-1.3-.2-.4-.6-.8-1.1-1.1-.5-.3-1.2-.4-2-.4-1.2 0-2.1.4-2.8 1.1-.7.7-1.1 1.6-1.1 2.8v11.8H0V17.4c0-1.3.2-2.5.6-3.6.4-1.1 1-2 1.8-2.9.8-.8 1.7-1.4 2.9-1.9 1.1-.5 2.4-.7 3.8-.7s2.6.3 3.7.8 2 1.2 2.7 2.1c.8-.9 1.7-1.6 2.8-2.1 1.1-.5 2.3-.8 3.6-.8 1.4 0 2.7.2 3.8.7 1.1.4 2 1.1 2.8 1.9.8.8 1.4 1.7 1.8 2.8.4 1.1.6 2.3.6 3.6v11.8h-.1z"/><path class="st1" d="M43.1 24.8c.7 0 1.3-.1 1.9-.4.6-.3 1.1-.7 1.6-1.2s.8-1.1 1.1-1.8c.3-.7.4-1.5.4-2.3 0-.9-.1-1.7-.4-2.4-.3-.7-.6-1.4-1.1-1.9-.5-.5-1-.9-1.6-1.2-.6-.3-1.2-.4-1.9-.4s-1.3.1-1.9.4c-.6.3-1.1.7-1.6 1.2-.4.5-.8 1.1-1.1 1.9-.3.7-.4 1.5-.4 2.4 0 .9.1 1.6.4 2.3.3.7.6 1.3 1.1 1.8.4.5 1 .9 1.6 1.2.6.3 1.2.4 1.9.4zm0-16.4c1.4 0 2.7.3 3.9.8 1.2.5 2.3 1.3 3.2 2.2.9 1 1.7 2.1 2.2 3.4.5 1.3.8 2.7.8 4.2s-.3 2.9-.8 4.2c-.5 1.3-1.3 2.4-2.2 3.3-.9.9-2 1.7-3.2 2.2-1.2.5-2.5.8-3.9.8s-2.7-.3-3.9-.8c-1.2-.5-2.3-1.3-3.2-2.2-.9-.9-1.6-2-2.2-3.3-.6-1.3-.8-2.7-.8-4.2s.3-2.9.8-4.2c.5-1.3 1.3-2.4 2.2-3.4.9-1 2-1.7 3.2-2.2 1.2-.5 2.5-.8 3.9-.8zM71.3 19.1c0-.8-.1-1.6-.4-2.3-.3-.7-.6-1.3-1.1-1.8-.5-.5-1-.9-1.6-1.2-.6-.3-1.3-.4-2-.4s-1.4.1-2 .4c-.7.2-1.2.6-1.7 1.2-.5.5-.8 1.1-1.1 1.8-.3.7-.4 1.5-.4 2.3 0 .8.1 1.5.4 2.2.3.7.6 1.3 1.1 1.8.5.5 1 .9 1.6 1.2.6.3 1.3.4 2 .4s1.4-.1 2-.4c.6-.3 1.2-.7 1.6-1.2.5-.5.8-1.1 1.1-1.8.4-.7.5-1.4.5-2.2zm5.2-.1c0 1.5-.3 2.8-.8 4.1-.5 1.3-1.2 2.4-2.1 3.3-.9 1-2 1.7-3.3 2.3-1.3.5-2.7.8-4.2.8s-2.9-.3-4.2-.8c-1.3-.5-2.4-1.3-3.3-2.2-.9-1-1.6-2.1-2.1-3.3-.5-1.3-.8-2.6-.8-4.1V0H61v10.8c.8-.8 1.6-1.4 2.6-1.8 1-.4 2.1-.6 3.2-.6 1.3 0 2.6.3 3.8.8 1.2.5 2.2 1.3 3 2.3.9 1 1.5 2.1 2.1 3.4.5 1.3.8 2.7.8 4.1z"/><path class="st0" d="M84.7 29.1h-5.2V9h5.2v20.1zM101 29.1h-5.6L87.8 9h5.4l5 15 5.1-15h5.3L101 29.1zM116.8 29.1h-5.1V9h5.1v20.1zM129.4 29c-1.5.2-2.8.1-3.9-.3-1.1-.3-2.1-.9-2.8-1.6-.8-.8-1.3-1.7-1.7-2.8-.4-1.1-.6-2.4-.6-3.7V3.8h5.2V9h3.6v4.6h-3.6v7.1c0 1.4.3 2.4 1 3 .6.6 1.6.8 2.9.7V29h-.1zM150 29.9c0 1.4-.2 2.6-.6 3.7-.4 1.1-1 2.1-1.8 2.9-.8.8-1.7 1.4-2.8 1.8-1.1.4-2.3.6-3.7.6-1.1 0-2.1-.2-3.1-.5s-1.9-.8-2.6-1.4c-.8-.6-1.4-1.4-1.9-2.2-.5-.9-.9-1.8-1.1-2.9h5.4c.2.8.5 1.3 1.2 1.7.6.4 1.4.5 2.2.5.7 0 1.3-.1 1.8-.3.5-.2.9-.5 1.2-.9.3-.4.5-.8.6-1.3.1-.5.2-.9.2-1.4v-2.3c-.6.5-1.3.9-2.1 1.2-.8.3-1.6.4-2.5.4-1.2 0-2.3-.2-3.4-.6-1-.4-1.9-1-2.6-1.8-.7-.8-1.3-1.7-1.7-2.8-.4-1.1-.6-2.3-.6-3.6V9h5.2v11.8c0 .3 0 .7.1 1.1.1.4.2.9.5 1.3s.6.8 1.1 1.1c.5.3 1.2.4 2 .4 1.2 0 2.1-.4 2.8-1.1.7-.7 1.1-1.7 1.1-2.8V9h5.2v20.9h-.1zM86.6 3.1c0-1.4 1.1-2.5 2.5-2.5s2.5 1.1 2.5 2.5-1.1 2.5-2.5 2.5-2.5-1.1-2.5-2.5zM79.5 3.1c0-1.4 1.1-2.5 2.5-2.5s2.5 1.1 2.5 2.5-1.1 2.5-2.5 2.5c-1.3 0-2.5-1.1-2.5-2.5zM104.3 3.1c0-1.4 1.1-2.5 2.5-2.5s2.5 1.1 2.5 2.5-1.1 2.5-2.5 2.5c-1.3 0-2.5-1.1-2.5-2.5zM111.8 3.1c0-1.4 1.1-2.5 2.5-2.5s2.5 1.1 2.5 2.5-1.1 2.5-2.5 2.5-2.5-1.1-2.5-2.5z"/></svg>