<svg id="Layer_1" xmlns="http://www.w3.org/2000/svg" viewBox="0 0 200 200"><style>.st0{fill:#F5F5F5;}</style><path class="st0" d="M84.8-161.7c-.1-.6-.3-1.2-.5-1.7l-29.7 6.1-1.6-7.9 26.4-5.4c-.9-.9-1.8-1.8-2.8-2.6l-27.2 5.5 2.9 14 32.8-6.7c-.2-.5-.2-.9-.3-1.3zM128.6-170.7c.5 1.1 1 2.2 1.3 3.3l17.6 2.7-1.2 8-14.9-2.3c0 1-.2 2.1-.4 3.1l17.9 2.7 2.2-14.2-22.5-3.3zM28.5-138.4l43.2-8.8.6 3-43.2 8.9zM73.6-136.8l-43 8.8.6 3 42.7-8.7c-.2-1-.3-2.1-.3-3.1zM113-137.5c-.7 1-1.1 2-1.3 3l56.8 8.6.5-3.1-56-8.5zM77.4-126.8l-44.6 9.1.6 3 46.7-9.5c-1-.8-1.9-1.7-2.7-2.6zM114-126.7c.8 1.2 1.6 2.4 2.4 3.5l50.5 7.6.5-3.1-53.4-8zM87.3-118.1l-52.4 10.7.6 3 53.7-11c-.6-.9-1.2-1.8-1.9-2.7zM119.6-115.2c.2 1.1.2 2.1.2 3.2l45.5 6.9.5-3.1-46.2-7zM89.7-107.5c0-.1 0-.2.1-.3L36.9-97l.6 3.1 51.2-10.5c.4-1.1.8-2.1 1-3.1zM118.1-104.7c-.1.2-.2.4-.3.7-.4.8-.8 1.5-1.3 2.2l47.2 7.2.5-3.1-46.1-7zM84.4-95.3c.1-.2.2-.5.3-.7L39-86.7l.6 3 43.6-8.9c.4-.9.8-1.9 1.2-2.7zM110.1-95.3c-1 .9-2 1.8-2.9 2.7l55 8.3.5-3.1-52.6-7.9zM81.7-84.6l-40.5 8.3.6 3 40-8.2c-.2-1-.2-2.1-.1-3.1zM102-85.8c-.4 1-.7 2-.8 3l59.4 9 .5-3.1-59.1-8.9zM85-74.6L43.3-66l.6 3 43.4-8.9c-.8-.8-1.6-1.7-2.3-2.7zM102.8-75c.6 1.2 1.2 2.3 1.8 3.4l54.4 8.3.5-3.1-56.7-8.6zM93.4-65.5l-48.1 9.8.6 3 48.9-10c-.2-.9-.7-1.9-1.4-2.8z"/><path class="st0" d="M121-185.6c.9 1.9 1.9 3.8 2.9 5.7l60.3 9.1-23.3 154s-66.2-9.4-66.4-9.8L47.3-17 16.1-169.6l52.1-10.6c-.5-.4-1.6-3.4-2-4.9L10-173.6 43.2-10.9l53-10.8c0 .1 68.9 10.8 68.9 10.8L190-175.2l-69-10.4z"/><path class="st0" d="M130.1-40.6c-2.1 1-4.1 2.2-6.1 3.5-1.6-1.7-3.3-3.4-5.1-4.9-1.4-1.2-3.4.7-2.1 2.1 1.5 1.5 2.9 3 4.4 4.5-1.8 1.1-3.7 2.2-5.4 3.5-1.5 1.1-.2 3.5 1.5 2.5 2.1-1.2 4.1-2.5 6.2-3.7 1.7 1.7 3.4 3.4 5 5.2 1.3 1.4 3.3-.6 2.1-2.1-1.4-1.7-2.9-3.2-4.3-4.8 1.8-1.1 3.6-2.2 5.4-3.2 1.5-1.1.1-3.4-1.6-2.6z"/><g><path class="st0" d="M306 74c-6.9 0-13.5 2.7-18.4 7.6-4.9 4.9-7.6 11.4-7.6 18.4s2.7 13.5 7.6 18.4c4.9 4.9 11.4 7.6 18.4 7.6s13.5-2.7 18.4-7.6c4.9-4.9 7.6-11.4 7.6-18.4s-2.7-13.5-7.6-18.4c-4.9-4.9-11.5-7.6-18.4-7.6zm0 60c-9.1 0-17.6-3.5-24-10-6.4-6.4-10-15-10-24s3.5-17.6 10-24c6.4-6.4 15-10 24-10 9.1 0 17.6 3.5 24 10 6.4 6.4 10 15 10 24s-3.5 17.6-10 24c-6.4 6.5-14.9 10-24 10zm-33 20c1.6 0 3.2.4 4.6 1.1 3 1.6 6.2 2.9 9.4 3.9 4.2 1.3 7 5.2 7 9.5v10.8c0 1 .7 1.9 1.8 2 6.8.8 13.7.8 20.5 0 1-.1 1.7-1 1.7-2v-10.8c0-4.4 2.8-8.2 7-9.5 3.2-1 6.4-2.3 9.4-3.9 3.8-2 8.6-1.2 11.7 1.8l7.6 7.6c.4.4.9.6 1.4.6.3 0 .8-.1 1.2-.4 5.4-4.2 10.3-9.1 14.5-14.5.6-.8.6-1.9-.2-2.6L363 140c-3.1-3.1-3.8-7.8-1.8-11.6 1.6-3 2.9-6.2 3.9-9.4 1.3-4.2 5.2-7 9.5-7h10.8c1 0 1.9-.7 2-1.8.9-6.8.9-13.7 0-20.5-.1-1-1-1.7-2-1.7h-10.8c-4.4 0-8.2-2.8-9.5-7-1-3.2-2.3-6.4-3.9-9.4-2-3.9-1.3-8.6 1.8-11.6l7.6-7.6c.7-.7.8-1.8.2-2.6-4.2-5.4-9.1-10.3-14.5-14.5-.5-.4-.9-.4-1.2-.4-.5 0-1 .2-1.4.6L346 43c-3 3-7.8 3.8-11.6 1.8-3-1.6-6.2-2.9-9.4-3.9-4.2-1.3-7-5.2-7-9.5V20.6c0-1-.7-1.9-1.8-2-6.8-.8-13.7-.8-20.5 0-1 .1-1.7 1-1.7 2v10.8c0 4.4-2.8 8.2-7 9.5-3.2 1-6.4 2.3-9.4 3.9-3.8 2-8.6 1.2-11.7-1.8l-7.6-7.6c-.4-.4-.9-.6-1.4-.6-.3 0-.8.1-1.2.4-5.4 4.2-10.3 9.1-14.5 14.5-.6.8-.6 1.9.2 2.6L249 60c3.1 3.1 3.8 7.8 1.8 11.6-1.6 3-2.9 6.2-3.9 9.4-1.3 4.2-5.2 7-9.5 7h-10.8c-1 0-1.9.7-2 1.8-.9 6.8-.9 13.7 0 20.5.1 1 1 1.7 2 1.7h10.8c4.4 0 8.2 2.8 9.5 7 1 3.2 2.3 6.4 3.9 9.4 2 3.9 1.3 8.6-1.8 11.7l-7.6 7.6c-.7.7-.8 1.8-.2 2.6 4.2 5.4 9.1 10.3 14.5 14.5.5.4.9.4 1.2.4.5 0 1-.2 1.4-.6l7.6-7.6c2-1.9 4.5-3 7.1-3zm33 36c-3.7 0-7.5-.2-11.2-.7-5-.6-8.8-4.9-8.8-9.9v-10.8c0-.9-.5-1.6-1.4-1.9-3.6-1.2-7.2-2.6-10.6-4.4-.8-.4-1.7-.3-2.3.4l-7.6 7.6c-1.9 1.9-4.4 2.9-7.1 2.9-2.2 0-4.4-.7-6.1-2.1-5.9-4.6-11.3-10-15.9-15.9-3.1-4-2.7-9.7.8-13.2l7.6-7.6c.6-.6.8-1.5.4-2.3-1.7-3.4-3.2-7-4.4-10.6-.3-.9-1-1.4-1.9-1.4h-10.8c-5 0-9.3-3.8-9.9-8.8-.9-7.5-.9-15 0-22.5.6-5 4.9-8.8 9.9-8.8h10.8c.9 0 1.6-.5 1.9-1.4 1.2-3.6 2.6-7.2 4.4-10.6.4-.8.3-1.7-.4-2.3l-7.6-7.6c-3.6-3.6-3.9-9.2-.8-13.2 4.6-5.9 10-11.3 15.9-15.9 1.7-1.4 3.9-2.1 6.1-2.1 2.7 0 5.2 1 7.1 2.9l7.6 7.6c.6.6 1.5.8 2.3.4 3.4-1.7 7-3.2 10.6-4.4.9-.3 1.4-1 1.4-1.9V20.6c0-5 3.8-9.3 8.8-9.9 7.4-.9 15.1-.9 22.5 0 5 .6 8.8 4.9 8.8 9.9v10.8c0 .9.5 1.6 1.4 1.9 3.6 1.2 7.2 2.6 10.6 4.4.8.4 1.7.3 2.3-.4l7.6-7.6c1.9-1.9 4.4-2.9 7.1-2.9 2.2 0 4.4.7 6.1 2.1 5.9 4.6 11.3 10 15.9 15.9 3.1 4 2.7 9.7-.8 13.2l-7.6 7.6c-.6.6-.8 1.5-.4 2.3 1.7 3.4 3.2 7 4.4 10.6.3.9 1 1.4 1.9 1.4h10.8c5 0 9.3 3.8 9.9 8.8.9 7.5.9 15 0 22.5-.6 5-4.9 8.8-9.9 8.8h-10.8c-.9 0-1.6.5-1.9 1.4-1.2 3.6-2.6 7.2-4.4 10.6-.4.8-.3 1.7.4 2.3l7.6 7.6c3.6 3.6 3.9 9.2.8 13.2-4.6 5.9-10 11.3-15.9 15.9-1.7 1.4-3.9 2.1-6.1 2.1-2.7 0-5.2-1-7.1-2.9l-7.6-7.6c-.6-.6-1.5-.8-2.3-.4-3.4 1.7-7 3.2-10.6 4.4-.9.3-1.4 1-1.4 1.9v10.8c0 5-3.8 9.3-8.8 9.9-3.8.6-7.6.8-11.3.8z"/></g><g><path class="st0" d="M-228 65.3l-7.7-16.9 78.2-31.8-29 14.1v17l-10-6.4-30.7 12.7z"/><path class="st0" d="M-182.4 36.3v14.4l23.6 14.6V49.1zM-180 32.7l23.5 13.4 31-14.6-26.4-11.1zM-154 48.9v14.8l30.3-16.4v-13zM-118.1 30.4v12.1l31 18.7v7.1L-72 53.5zM-196.5 46.1l34.8 22.2-29.4 12.3-33.1-23.8zM-224.2 62.2l29.8 21.3v10.7l-29.8-25.9zM-190.6 84.5l31.8-13.6v11.8l-31.8 13.6zM-152.8 70.9v12.7l24.2 10.6V80.6zM-152.8 66.9l25.7 10.8 32.3-15.2-23-13.5zM-125.5 80.6L-93 63.7v16.9l-32.5 13.6zM-155.8 85.5l22.1 10.8-39 15.8-15.9-13.3zM-230.6 69.6l50.6 42.5-28.8 11.1-43.2-35.7zM-166.3 113.4l78.6-29.8 6 27.7-68.4 29.5z"/><path class="st0" d="M-166.3 128.3l11.9 19.1 63.4-26.3v29.5l-75.3 32.8zM-172.9 116.2v66.1l-51.3-36.1v-28.8l14.2 11.4z"/></g><path class="st0" d="M163.1 169.5c7.7-2.2 14.2-6.6 19.3-12.7 13.9-17.2 8.1-42.4-12-53-6.4-3.4-12.9-5.8-19.7-8.6-3.7-1.5-7.5-3.4-10.7-5.8-6.4-5.1-5.3-13.3 2.1-16.7 2.1-.9 4.3-1.3 6.6-1.5 8.6-.6 16.9.9 24.7 4.5 3.9 1.9 5.3 1.1 6.4-2.8 1.3-4.3 2.4-8.6 3.6-12.9.8-3-.2-4.9-3-6-5.1-2.1-10.1-3.6-15.6-4.3-7.1-.9-7.1-.9-7.1-8.1-.2-9.9-.2-9.9-10.1-9.9h-4.3c-4.7.2-5.4.9-5.4 5.8v6.4c0 6.2 0 6.2-6 8.4-14.4 5.4-23.2 15.6-24 31.3-.6 14.1 6.7 23.4 18.4 30 7.1 4.1 15 6.6 22.5 9.7 3 1.3 5.8 2.6 8.2 4.7 7.3 5.8 6.2 15.7-2.4 19.7-4.5 2.1-9.4 2.6-14.4 2.1-7.7-.9-15-2.8-21.9-6.2-4.1-2.1-5.2-1.5-6.6 3-1.1 3.7-2.1 7.7-3.2 11.4-1.3 5.3-.8 6.4 4.1 8.6 6.4 3 12.9 4.3 19.9 5.4 5.4.8 5.4.9 5.6 6.6 0 2.4.2 5.1.2 7.5 0 3.2 1.7 5.1 4.9 5.1 3.7 0 7.5 0 11.1-.2 3-.2 4.5-1.9 4.5-4.9 0-3.4 0-6.9-.2-10.3-.4-3.7 1.1-5.4 4.5-6.3zm-60.9-59.3c-.4-.6-.9-1.1-1.3-1.7-2.4-3.7-4.1-7.7-5.3-11.8C88.1 103.7 78 108 67 108c-23.2 0-42.2-18.9-42.2-42.2 0-23.2 18.9-42.2 42.2-42.2 18.6 0 34.3 12 39.9 28.7 3.4-3.6 7.5-6.6 12.2-9C110.3 23.1 90.2 9 66.8 9 35.5 9 10 34.5 10 65.8c0 31.3 25.5 56.8 56.8 56.8 13.5 0 25.7-4.7 35.4-12.4zM59.7 66.8s0-.2 0 0V66l1.9-29.8v-.4c.4-2.4 2.4-4.3 4.9-4.3 2.6 0 4.7 1.9 4.9 4.5L73 63c0 .7.4 1.5.9 2.2l12 14.4.2.2c1.5 1.9 1.3 4.7-.4 6.4-1.9 1.9-4.7 1.9-6.6.2l-16.6-14c-.4-.2-.6-.6-.9-.8-1.4-1.1-1.9-3-1.9-4.8z"/></svg>