<svg id="Layer_1" xmlns="http://www.w3.org/2000/svg" viewBox="0 0 200 200"><style>.st0{fill:#F5F5F5;}</style><path class="st0" d="M76.4 358v-76.1l65.6 37.9L76.4 358zM100 229.3c-49.5 0-90 40.5-90 90s40.5 90 90 90 90-40.5 90-90-40.5-90-90-90zM84.8-176.8c-.1-.6-.3-1.2-.5-1.7l-29.7 6.1-1.6-7.9 26.4-5.4c-.9-.9-1.8-1.8-2.8-2.6l-27.2 5.5 2.9 14 32.8-6.7c-.2-.4-.2-.9-.3-1.3zM128.6-185.8c.5 1.1 1 2.2 1.3 3.3l17.6 2.7-1.2 8-14.9-2.3c0 1-.2 2.1-.4 3.1l17.9 2.7 2.2-14.2-22.5-3.3zM28.5-153.5l43.2-8.8.6 3.1-43.2 8.8zM73.6-151.9l-43 8.8.6 3 42.7-8.7c-.2-1-.3-2-.3-3.1zM113-152.6c-.7 1-1.1 2-1.3 3l56.8 8.6.5-3.1-56-8.5zM77.4-141.9l-44.6 9.1.6 3 46.7-9.5c-1-.8-1.9-1.7-2.7-2.6zM114-141.7c.8 1.2 1.6 2.4 2.4 3.5l50.5 7.6.5-3.1-53.4-8zM87.3-133.1l-52.4 10.7.6 3 53.7-11c-.6-1-1.2-1.9-1.9-2.7zM119.6-130.2c.2 1.1.2 2.1.2 3.2l45.5 6.9.5-3.1-46.2-7zM89.7-122.6c0-.1 0-.2.1-.3L37-112.1l.6 3.1 51.2-10.5c.3-1 .7-2 .9-3.1zM118.1-119.8c-.1.2-.2.4-.3.7-.4.8-.8 1.5-1.3 2.2l47.2 7.2.5-3.1-46.1-7zM84.4-110.4c.1-.2.2-.5.3-.7L39-101.8l.6 3 43.6-8.9 1.2-2.7zM110.1-110.3c-1 .9-2 1.8-2.9 2.7l55 8.3.5-3.1-52.6-7.9zM81.7-99.7l-40.5 8.3.6 3 40-8.2c-.2-1-.2-2-.1-3.1zM102-100.9c-.4 1-.7 2-.8 3l59.4 9 .5-3.1-59.1-8.9zM85-89.6l-41.8 8.5.6 3L87.2-87c-.7-.8-1.5-1.7-2.2-2.6zM102.8-90.1c.6 1.2 1.2 2.3 1.8 3.4l54.4 8.3.5-3.1-56.7-8.6zM93.4-80.6l-48.1 9.8.6 3 48.9-10c-.2-.9-.7-1.8-1.4-2.8z"/><path class="st0" d="M121-200.7s0 .1 0 0c.9 1.9 1.9 3.8 2.9 5.7l60.3 9.1-23.3 154s-66.2-9.4-66.4-9.8L47.3-32 16.1-184.7l52.1-10.6c-.5-.4-1.6-3.4-2-4.9L10-188.7 43.2-25.9l53-10.8c0 .1 68.9 10.8 68.9 10.8L190-190.2l-69-10.5z"/><path class="st0" d="M130.1-55.7c-2.1 1-4.1 2.2-6.1 3.5-1.6-1.7-3.3-3.4-5.1-4.9-1.4-1.2-3.4.7-2.1 2.1 1.5 1.5 2.9 3 4.4 4.5-1.8 1.1-3.7 2.2-5.4 3.5-1.5 1.1-.2 3.5 1.5 2.5 2.1-1.2 4.1-2.5 6.2-3.7 1.7 1.7 3.4 3.4 5 5.2 1.3 1.4 3.3-.6 2.1-2.1-1.4-1.7-2.9-3.2-4.3-4.8 1.8-1.1 3.6-2.2 5.4-3.2 1.5-1 .1-3.4-1.6-2.6z"/><g><path class="st0" d="M100 74c-6.9 0-13.5 2.7-18.4 7.6C76.7 86.5 74 93 74 100s2.7 13.5 7.6 18.4c4.9 4.9 11.4 7.6 18.4 7.6s13.5-2.7 18.4-7.6c4.9-4.9 7.6-11.4 7.6-18.4s-2.7-13.5-7.6-18.4c-4.9-4.9-11.5-7.6-18.4-7.6zm0 60c-9.1 0-17.6-3.5-24-10-6.4-6.4-10-15-10-24s3.5-17.6 10-24c6.4-6.4 15-10 24-10s17.6 3.5 24 10c6.4 6.4 10 15 10 24s-3.5 17.6-10 24c-6.4 6.5-14.9 10-24 10zm-33 20c1.6 0 3.2.4 4.6 1.1 3 1.6 6.2 2.9 9.4 3.9 4.2 1.3 7 5.2 7 9.5v10.8c0 1 .7 1.9 1.8 2 6.8.8 13.7.8 20.5 0 1-.1 1.7-1 1.7-2v-10.8c0-4.4 2.8-8.2 7-9.5 3.2-1 6.4-2.3 9.4-3.9 3.8-2 8.6-1.2 11.7 1.8l7.6 7.6c.4.4.9.6 1.4.6.3 0 .8-.1 1.2-.4 5.4-4.2 10.3-9.1 14.5-14.5.6-.8.6-1.9-.2-2.6L157 140c-3.1-3.1-3.8-7.8-1.8-11.6 1.6-3 2.9-6.2 3.9-9.4 1.3-4.2 5.2-7 9.5-7h10.8c1 0 1.9-.7 2-1.8.9-6.8.9-13.7 0-20.5-.1-1-1-1.7-2-1.7h-10.8c-4.4 0-8.2-2.8-9.5-7-1-3.2-2.3-6.4-3.9-9.4-2-3.9-1.3-8.6 1.8-11.6l7.6-7.6c.7-.7.8-1.8.2-2.6-4.2-5.4-9.1-10.3-14.5-14.5-.5-.4-.9-.4-1.2-.4-.5 0-1 .2-1.4.6L140 43c-3 3-7.8 3.8-11.6 1.8-3-1.6-6.2-2.9-9.4-3.9-4.2-1.3-7-5.2-7-9.5V20.6c0-1-.7-1.9-1.8-2-6.8-.8-13.7-.8-20.5 0-1 .1-1.7 1-1.7 2v10.8c0 4.4-2.8 8.2-7 9.5-3.2 1-6.4 2.3-9.4 3.9C67.8 46.8 63 46 60 43l-7.6-7.6c-.4-.4-.9-.6-1.4-.6-.3 0-.8.1-1.2.4-5.4 4.2-10.3 9.1-14.5 14.5-.6.8-.6 1.9.2 2.6L43 60c3.1 3.1 3.8 7.8 1.8 11.6-1.6 3-2.9 6.2-3.9 9.4-1.3 4.2-5.2 7-9.5 7H20.6c-1 0-1.9.7-2 1.8-.9 6.8-.9 13.7 0 20.5.1 1 1 1.7 2 1.7h10.8c4.4 0 8.2 2.8 9.5 7 1 3.2 2.3 6.4 3.9 9.4 2 3.9 1.3 8.6-1.8 11.7l-7.6 7.6c-.7.7-.8 1.8-.2 2.6 4.2 5.4 9.1 10.3 14.5 14.5.5.4.9.4 1.2.4.5 0 1-.2 1.4-.6L60 157c1.9-1.9 4.4-3 7-3zm33 36c-3.7 0-7.5-.2-11.2-.7-5-.6-8.8-4.9-8.8-9.9v-10.8c0-.9-.5-1.6-1.4-1.9-3.6-1.2-7.2-2.6-10.6-4.4-.8-.4-1.7-.3-2.3.4l-7.6 7.6c-1.9 1.9-4.4 2.9-7.1 2.9-2.2 0-4.4-.7-6.1-2.1-5.9-4.6-11.3-10-15.9-15.9-3.1-4-2.7-9.7.8-13.2l7.6-7.6c.6-.6.8-1.5.4-2.3-1.7-3.4-3.2-7-4.4-10.6-.3-.9-1-1.4-1.9-1.4H20.6c-5 0-9.3-3.8-9.9-8.8-.9-7.5-.9-15 0-22.5.6-5 4.9-8.8 9.9-8.8h10.8c.9 0 1.6-.5 1.9-1.4 1.2-3.6 2.6-7.2 4.4-10.6.4-.8.3-1.7-.4-2.3L29.7 58c-3.6-3.6-3.9-9.2-.8-13.2 4.6-5.9 10-11.3 15.9-15.9 1.7-1.4 3.9-2.1 6.1-2.1 2.7 0 5.2 1 7.1 2.9l7.6 7.6c.6.6 1.5.8 2.3.4 3.4-1.7 7-3.2 10.6-4.4.9-.3 1.4-1 1.4-1.9V20.6c0-5 3.8-9.3 8.8-9.9 7.4-.9 15.1-.9 22.5 0 5 .6 8.8 4.9 8.8 9.9v10.8c0 .9.5 1.6 1.4 1.9 3.6 1.2 7.2 2.6 10.6 4.4.8.4 1.7.3 2.3-.4l7.6-7.6c1.9-1.9 4.4-2.9 7.1-2.9 2.2 0 4.4.7 6.1 2.1 5.9 4.6 11.3 10 15.9 15.9 3.1 4 2.7 9.7-.8 13.2l-7.6 7.6c-.6.6-.8 1.5-.4 2.3 1.7 3.4 3.2 7 4.4 10.6.3.9 1 1.4 1.9 1.4h10.8c5 0 9.3 3.8 9.9 8.8.9 7.5.9 15 0 22.5-.6 5-4.9 8.8-9.9 8.8h-10.8c-.9 0-1.6.5-1.9 1.4-1.2 3.6-2.6 7.2-4.4 10.6-.4.8-.3 1.7.4 2.3l7.6 7.6c3.6 3.6 3.9 9.2.8 13.2-4.6 5.9-10 11.3-15.9 15.9-1.7 1.4-3.9 2.1-6.1 2.1-2.7 0-5.2-1-7.1-2.9l-7.6-7.6c-.6-.6-1.5-.8-2.3-.4-3.4 1.7-7 3.2-10.6 4.4-.9.3-1.4 1-1.4 1.9v10.8c0 5-3.8 9.3-8.8 9.9-3.7.6-7.5.8-11.2.8z"/></g><g><path class="st0" d="M-228 65.3l-7.7-16.9 78.2-31.8-29 14.1v17l-10-6.4-30.7 12.7z"/><path class="st0" d="M-182.4 36.3v14.4l23.6 14.6V49.1zM-180 32.7l23.5 13.4 31-14.6-26.4-11.1zM-154 48.9v14.8l30.3-16.4v-13zM-118.1 30.4v12.1l31 18.7v7.1L-72 53.5zM-196.5 46.1l34.8 22.2-29.4 12.3-33.1-23.8zM-224.2 62.2l29.8 21.3v10.7l-29.8-25.9zM-190.6 84.5l31.8-13.6v11.8l-31.8 13.6zM-152.8 70.9v12.7l24.2 10.6V80.6zM-152.8 66.9l25.7 10.8 32.3-15.2-23-13.5zM-125.5 80.6L-93 63.7v16.9l-32.5 13.6zM-155.8 85.5l22.1 10.8-39 15.8-15.9-13.3zM-230.6 69.6l50.6 42.5-28.8 11.1-43.2-35.7zM-166.3 113.4l78.6-29.8 6 27.7-68.4 29.5z"/><path class="st0" d="M-166.3 128.3l11.9 19.1 63.4-26.3v29.5l-75.3 32.8zM-172.9 116.2v66.1l-51.3-36.1v-28.8l14.2 11.4z"/></g></svg>