<svg id="Layer_1" xmlns="http://www.w3.org/2000/svg" viewBox="0 0 210.1 54.5"><style>.st0{fill:#F5F5F5;} .st1{fill-rule:evenodd;clip-rule:evenodd;fill:#F5F5F5;}</style><path class="st0" d="M44.9 40.4h-7v-16c0-.4-.1-.9-.2-1.5s-.3-1.2-.7-1.7-.9-1-1.5-1.4c-.7-.4-1.6-.6-2.8-.6-1.6 0-2.8.5-3.8 1.4-1 1-1.5 2.2-1.5 3.8v16h-7v-16c0-.4-.1-.9-.2-1.5s-.3-1.2-.7-1.7c-.3-.6-.8-1-1.5-1.4-.7-.4-1.6-.6-2.8-.6-1.6 0-2.9.5-3.9 1.4-1 1-1.5 2.2-1.5 3.8v16h-7V24.5c0-1.7.3-3.4.9-4.8.6-1.5 1.4-2.8 2.5-3.9s2.4-2 3.9-2.6c1.5-.6 3.2-.9 5.1-.9 1.9 0 3.6.3 5 1 1.5.7 2.7 1.6 3.7 2.8 1-1.2 2.3-2.2 3.8-2.8 1.5-.7 3.1-1 5-1s3.6.3 5.1.9c1.5.6 2.8 1.4 3.8 2.5s1.8 2.4 2.4 3.9c.6 1.5.8 3.1.8 5v15.8h.1z"/><path class="st1" d="M61.6 34.6c.9 0 1.8-.2 2.6-.6.8-.4 1.5-.9 2.2-1.6.6-.7 1.1-1.5 1.5-2.5.4-1 .5-2 .5-3.2 0-1.2-.2-2.3-.5-3.2-.4-1-.8-1.8-1.5-2.6-.6-.7-1.3-1.3-2.2-1.7-.8-.4-1.7-.6-2.6-.6-.9 0-1.8.2-2.6.6-.8.4-1.6.9-2.2 1.7-.6.7-1.1 1.6-1.4 2.6-.4 1-.5 2.1-.5 3.2 0 1.2.2 2.2.5 3.2.4 1 .8 1.8 1.4 2.5.6.7 1.3 1.2 2.2 1.6.8.4 1.7.6 2.6.6zm0-22.3c1.9 0 3.7.4 5.4 1.1 1.7.7 3.1 1.7 4.4 3 1.3 1.3 2.3 2.8 3 4.6.7 1.8 1.1 3.7 1.1 5.7 0 2.1-.4 4-1.1 5.7-.7 1.7-1.7 3.2-3 4.5-1.3 1.3-2.7 2.3-4.4 3-1.7.7-3.5 1.1-5.4 1.1-1.9 0-3.7-.4-5.4-1.1-1.7-.7-3.1-1.7-4.4-3-1.2-1.3-2.2-2.8-3-4.5-.7-1.7-1.1-3.6-1.1-5.7s.4-4 1.1-5.7c.7-1.8 1.7-3.3 3-4.6 1.2-1.3 2.7-2.3 4.4-3 1.7-.8 3.5-1.1 5.4-1.1zM100.1 26.7c0-1.1-.2-2.2-.6-3.1-.4-1-.9-1.8-1.5-2.5s-1.4-1.3-2.2-1.7c-.9-.4-1.8-.6-2.7-.6s-1.9.2-2.7.6c-.9.4-1.6 1-2.2 1.7-.6.7-1.1 1.5-1.5 2.5-.4 1-.6 2-.6 3.1s.2 2.1.6 3c.4.9.9 1.8 1.5 2.4.6.7 1.4 1.2 2.2 1.7.9.4 1.8.6 2.7.6s1.9-.2 2.7-.6c.9-.4 1.6-.9 2.2-1.6.6-.7 1.1-1.5 1.5-2.4.4-.9.6-2 .6-3.1zm7 0c0 2-.3 3.9-1 5.6-.7 1.7-1.7 3.3-2.9 4.6-1.2 1.3-2.7 2.3-4.4 3.1-1.8.6-3.7 1-5.8 1-2.1 0-4-.4-5.7-1.1-1.7-.7-3.2-1.8-4.4-3.1-1.2-1.3-2.2-2.8-2.9-4.6-.7-1.7-1-3.6-1-5.6V.8h7v14.7c1-1.1 2.2-1.9 3.6-2.4 1.3-.5 2.8-.8 4.4-.8 1.8 0 3.5.4 5.1 1.1 1.6.7 3 1.8 4.2 3.1 1.2 1.3 2.1 2.8 2.8 4.6.7 1.8 1 3.6 1 5.6z"/><path class="st0" d="M118.3 40.4h-7.1V12.9h7.1v27.5zM140.5 40.4h-7.6l-10.4-27.5h7.4l6.8 20.5 6.9-20.5h7.2l-10.3 27.5zM162.1 40.4h-7V12.9h7v27.5zM179.2 40.3c-2 .2-3.8.1-5.3-.4s-2.8-1.2-3.8-2.2c-1-1-1.8-2.3-2.3-3.8-.5-1.5-.8-3.2-.8-5.1V6h7v7h5v6.2h-5v9.7c0 1.9.4 3.3 1.3 4 .9.8 2.2 1.1 4 1v6.4h-.1zM207.2 41.5c0 1.8-.3 3.5-.9 5-.6 1.5-1.4 2.8-2.5 3.9s-2.3 1.9-3.8 2.5c-1.5.6-3.2.9-5 .9-1.5 0-2.9-.2-4.3-.7-1.3-.5-2.5-1.1-3.6-2-1-.9-1.9-1.9-2.6-3-.7-1.2-1.2-2.5-1.4-3.9h7.3c.2 1 .7 1.8 1.6 2.3.8.5 1.9.7 3.1.7 1 0 1.8-.2 2.4-.5.7-.3 1.2-.7 1.6-1.2.4-.5.7-1.1.9-1.7.2-.6.3-1.3.3-1.9v-3.2c-.8.7-1.8 1.3-2.8 1.7-1.1.4-2.2.6-3.5.6-1.7 0-3.2-.3-4.6-.9-1.4-.6-2.6-1.4-3.5-2.4-1-1-1.7-2.3-2.3-3.8-.5-1.5-.8-3.1-.8-4.9V13h7v16c0 .4.1.9.2 1.5s.3 1.2.7 1.8c.4.6.9 1.1 1.5 1.5.7.4 1.6.6 2.7.6 1.6 0 2.9-.5 3.9-1.5s1.5-2.3 1.5-3.9V13h7v28.5h-.1zM120.9 4.9c0-1.9 1.5-3.5 3.5-3.5s3.5 1.5 3.5 3.5-1.5 3.5-3.5 3.5-3.5-1.6-3.5-3.5zM111.2 4.9c0-1.9 1.5-3.5 3.5-3.5 1.9 0 3.5 1.5 3.5 3.5s-1.5 3.5-3.5 3.5c-1.9 0-3.5-1.6-3.5-3.5zM145 4.9c0-1.9 1.5-3.5 3.5-3.5 1.9 0 3.5 1.5 3.5 3.5s-1.5 3.5-3.5 3.5c-1.9 0-3.5-1.6-3.5-3.5zM155.2 4.9c0-1.9 1.5-3.5 3.5-3.5 1.9 0 3.5 1.5 3.5 3.5s-1.5 3.5-3.5 3.5-3.5-1.6-3.5-3.5z"/></svg>