<?xml version="1.0" encoding="utf-8"?>
<!-- Generator: Adobe Illustrator 19.1.0, SVG Export Plug-In . SVG Version: 6.00 Build 0)  -->
<svg version="1.1" id="Layer_1" xmlns="http://www.w3.org/2000/svg" xmlns:xlink="http://www.w3.org/1999/xlink" x="0px" y="0px"
	 viewBox="0 0 200 200" style="enable-background:new 0 0 200 200;" xml:space="preserve">
<style type="text/css">
	.st0{fill:#F5F5F5;}
</style>
<g>
	<path class="st0" d="M84.8-161.7c-0.1-0.6-0.3-1.2-0.5-1.7l-29.7,6.1l-1.6-7.9l26.4-5.4c-0.9-0.9-1.8-1.8-2.8-2.6l-27.2,5.5l2.9,14
		l32.8-6.7C84.9-160.9,84.9-161.3,84.8-161.7z"/>
	<path class="st0" d="M128.6-170.7c0.5,1.1,1,2.2,1.3,3.3l17.6,2.7l-1.2,8l-14.9-2.3c0,1-0.2,2.1-0.4,3.1l17.9,2.7l2.2-14.2
		L128.6-170.7z"/>
	<polygon class="st0" points="28.5,-138.4 71.7,-147.2 72.3,-144.2 29.1,-135.3 	"/>
	<path class="st0" d="M73.6-136.8l-43,8.8l0.6,3l42.7-8.7C73.7-134.7,73.6-135.8,73.6-136.8z"/>
	<path class="st0" d="M113-137.5c-0.7,1-1.1,2-1.3,3l56.8,8.6l0.5-3.1L113-137.5z"/>
	<path class="st0" d="M77.4-126.8l-44.6,9.1l0.6,3l46.7-9.5C79.1-125,78.2-125.9,77.4-126.8z"/>
	<path class="st0" d="M114-126.7c0.8,1.2,1.6,2.4,2.4,3.5l50.5,7.6l0.5-3.1L114-126.7z"/>
	<path class="st0" d="M87.3-118.1l-52.4,10.7l0.6,3l53.7-11C88.6-116.3,88-117.2,87.3-118.1z"/>
	<path class="st0" d="M119.6-115.2c0.2,1.1,0.2,2.1,0.2,3.2l45.5,6.9l0.5-3.1L119.6-115.2z"/>
	<path class="st0" d="M89.7-107.5c0-0.1,0-0.2,0.1-0.3L36.9-97l0.6,3.1l51.2-10.5C89.1-105.5,89.5-106.5,89.7-107.5z"/>
	<path class="st0" d="M118.1-104.7c-0.1,0.2-0.2,0.4-0.3,0.7c-0.4,0.8-0.8,1.5-1.3,2.2l47.2,7.2l0.5-3.1L118.1-104.7z"/>
	<path class="st0" d="M84.4-95.3c0.1-0.2,0.2-0.5,0.3-0.7L39-86.7l0.6,3l43.6-8.9C83.6-93.5,84-94.5,84.4-95.3z"/>
	<path class="st0" d="M110.1-95.3c-1,0.9-2,1.8-2.9,2.7l55,8.3l0.5-3.1L110.1-95.3z"/>
	<path class="st0" d="M81.7-84.6l-40.5,8.3l0.6,3l40-8.2C81.6-82.5,81.6-83.6,81.7-84.6z"/>
	<path class="st0" d="M102-85.8c-0.4,1-0.7,2-0.8,3l59.4,9l0.5-3.1L102-85.8z"/>
	<path class="st0" d="M85-74.6L43.3-66l0.6,3l43.4-8.9C86.5-72.7,85.7-73.6,85-74.6z"/>
	<path class="st0" d="M102.8-75c0.6,1.2,1.2,2.3,1.8,3.4l54.4,8.3l0.5-3.1L102.8-75z"/>
	<path class="st0" d="M93.4-65.5l-48.1,9.8l0.6,3l48.9-10C94.6-63.6,94.1-64.6,93.4-65.5z"/>
	<path class="st0" d="M121-185.6C121-185.6,121-185.6,121-185.6c0.9,1.9,1.9,3.8,2.9,5.7l60.3,9.1l-23.3,154c0,0-66.2-9.4-66.4-9.8
		L47.3-17L16.1-169.6l52.1-10.6c-0.5-0.4-1.6-3.4-2-4.9L10-173.6L43.2-10.9l53-10.8c0,0.1,68.9,10.8,68.9,10.8L190-175.2L121-185.6z
		"/>
	<path class="st0" d="M130.1-40.6c-2.1,1-4.1,2.2-6.1,3.5c-1.6-1.7-3.3-3.4-5.1-4.9c-1.4-1.2-3.4,0.7-2.1,2.1c1.5,1.5,2.9,3,4.4,4.5
		c-1.8,1.1-3.7,2.2-5.4,3.5c-1.5,1.1-0.2,3.5,1.5,2.5c2.1-1.2,4.1-2.5,6.2-3.7c1.7,1.7,3.4,3.4,5,5.2c1.3,1.4,3.3-0.6,2.1-2.1
		c-1.4-1.7-2.9-3.2-4.3-4.8c1.8-1.1,3.6-2.2,5.4-3.2C133.2-39.1,131.8-41.4,130.1-40.6z"/>
</g>
<g>
	<path class="st0" d="M306,74c-6.9,0-13.5,2.7-18.4,7.6C282.7,86.5,280,93,280,100s2.7,13.5,7.6,18.4c4.9,4.9,11.4,7.6,18.4,7.6
		s13.5-2.7,18.4-7.6c4.9-4.9,7.6-11.4,7.6-18.4s-2.7-13.5-7.6-18.4C319.5,76.7,312.9,74,306,74z M306,134c-9.1,0-17.6-3.5-24-10
		c-6.4-6.4-10-15-10-24s3.5-17.6,10-24c6.4-6.4,15-10,24-10c9.1,0,17.6,3.5,24,10c6.4,6.4,10,15,10,24s-3.5,17.6-10,24
		C323.6,130.5,315.1,134,306,134z M273,154c1.6,0,3.2,0.4,4.6,1.1c3,1.6,6.2,2.9,9.4,3.9c4.2,1.3,7,5.2,7,9.5v10.8
		c0,1,0.7,1.9,1.8,2c6.8,0.8,13.7,0.8,20.5,0c1-0.1,1.7-1,1.7-2v-10.8c0-4.4,2.8-8.2,7-9.5c3.2-1,6.4-2.3,9.4-3.9
		c3.8-2,8.6-1.2,11.7,1.8l7.6,7.6c0.4,0.4,0.9,0.6,1.4,0.6c0.3,0,0.8-0.1,1.2-0.4c5.4-4.2,10.3-9.1,14.5-14.5
		c0.6-0.8,0.6-1.9-0.2-2.6L363,140c-3.1-3.1-3.8-7.8-1.8-11.6c1.6-3,2.9-6.2,3.9-9.4c1.3-4.2,5.2-7,9.5-7h10.8c1,0,1.9-0.7,2-1.8
		c0.9-6.8,0.9-13.7,0-20.5c-0.1-1-1-1.7-2-1.7h-10.8c-4.4,0-8.2-2.8-9.5-7c-1-3.2-2.3-6.4-3.9-9.4c-2-3.9-1.3-8.6,1.8-11.6l7.6-7.6
		c0.7-0.7,0.8-1.8,0.2-2.6c-4.2-5.4-9.1-10.3-14.5-14.5c-0.5-0.4-0.9-0.4-1.2-0.4c-0.5,0-1,0.2-1.4,0.6L346,43
		c-3,3-7.8,3.8-11.6,1.8c-3-1.6-6.2-2.9-9.4-3.9c-4.2-1.3-7-5.2-7-9.5V20.6c0-1-0.7-1.9-1.8-2c-6.8-0.8-13.7-0.8-20.5,0
		c-1,0.1-1.7,1-1.7,2v10.8c0,4.4-2.8,8.2-7,9.5c-3.2,1-6.4,2.3-9.4,3.9c-3.8,2-8.6,1.2-11.7-1.8l-7.6-7.6c-0.4-0.4-0.9-0.6-1.4-0.6
		c-0.3,0-0.8,0.1-1.2,0.4c-5.4,4.2-10.3,9.1-14.5,14.5c-0.6,0.8-0.6,1.9,0.2,2.6L249,60c3.1,3.1,3.8,7.8,1.8,11.6
		c-1.6,3-2.9,6.2-3.9,9.4c-1.3,4.2-5.2,7-9.5,7h-10.8c-1,0-1.9,0.7-2,1.8c-0.9,6.8-0.9,13.7,0,20.5c0.1,1,1,1.7,2,1.7h10.8
		c4.4,0,8.2,2.8,9.5,7c1,3.2,2.3,6.4,3.9,9.4c2,3.9,1.3,8.6-1.8,11.7l-7.6,7.6c-0.7,0.7-0.8,1.8-0.2,2.6c4.2,5.4,9.1,10.3,14.5,14.5
		c0.5,0.4,0.9,0.4,1.2,0.4c0.5,0,1-0.2,1.4-0.6l7.6-7.6C267.9,155.1,270.4,154,273,154z M306,190c-3.7,0-7.5-0.2-11.2-0.7
		c-5-0.6-8.8-4.9-8.8-9.9v-10.8c0-0.9-0.5-1.6-1.4-1.9c-3.6-1.2-7.2-2.6-10.6-4.4c-0.8-0.4-1.7-0.3-2.3,0.4l-7.6,7.6
		c-1.9,1.9-4.4,2.9-7.1,2.9c-2.2,0-4.4-0.7-6.1-2.1c-5.9-4.6-11.3-10-15.9-15.9c-3.1-4-2.7-9.7,0.8-13.2l7.6-7.6
		c0.6-0.6,0.8-1.5,0.4-2.3c-1.7-3.4-3.2-7-4.4-10.6c-0.3-0.9-1-1.4-1.9-1.4h-10.8c-5,0-9.3-3.8-9.9-8.8c-0.9-7.5-0.9-15,0-22.5
		c0.6-5,4.9-8.8,9.9-8.8h10.8c0.9,0,1.6-0.5,1.9-1.4c1.2-3.6,2.6-7.2,4.4-10.6c0.4-0.8,0.3-1.7-0.4-2.3l-7.6-7.6
		c-3.6-3.6-3.9-9.2-0.8-13.2c4.6-5.9,10-11.3,15.9-15.9c1.7-1.4,3.9-2.1,6.1-2.1c2.7,0,5.2,1,7.1,2.9l7.6,7.6
		c0.6,0.6,1.5,0.8,2.3,0.4c3.4-1.7,7-3.2,10.6-4.4c0.9-0.3,1.4-1,1.4-1.9V20.6c0-5,3.8-9.3,8.8-9.9c7.4-0.9,15.1-0.9,22.5,0
		c5,0.6,8.8,4.9,8.8,9.9v10.8c0,0.9,0.5,1.6,1.4,1.9c3.6,1.2,7.2,2.6,10.6,4.4c0.8,0.4,1.7,0.3,2.3-0.4l7.6-7.6
		c1.9-1.9,4.4-2.9,7.1-2.9c2.2,0,4.4,0.7,6.1,2.1c5.9,4.6,11.3,10,15.9,15.9c3.1,4,2.7,9.7-0.8,13.2l-7.6,7.6
		c-0.6,0.6-0.8,1.5-0.4,2.3c1.7,3.4,3.2,7,4.4,10.6c0.3,0.9,1,1.4,1.9,1.4h10.8c5,0,9.3,3.8,9.9,8.8c0.9,7.5,0.9,15,0,22.5
		c-0.6,5-4.9,8.8-9.9,8.8h-10.8c-0.9,0-1.6,0.5-1.9,1.4c-1.2,3.6-2.6,7.2-4.4,10.6c-0.4,0.8-0.3,1.7,0.4,2.3l7.6,7.6
		c3.6,3.6,3.9,9.2,0.8,13.2c-4.6,5.9-10,11.3-15.9,15.9c-1.7,1.4-3.9,2.1-6.1,2.1c-2.7,0-5.2-1-7.1-2.9l-7.6-7.6
		c-0.6-0.6-1.5-0.8-2.3-0.4c-3.4,1.7-7,3.2-10.6,4.4c-0.9,0.3-1.4,1-1.4,1.9v10.8c0,5-3.8,9.3-8.8,9.9
		C313.5,189.8,309.7,190,306,190z"/>
</g>
<g>
	<polygon class="st0" points="-228,65.3 -235.7,48.4 -157.5,16.6 -186.5,30.7 -186.5,47.7 -196.5,41.3 -227.2,54 	"/>
	<polygon class="st0" points="-182.4,36.3 -182.4,50.7 -158.8,65.3 -158.8,49.1 	"/>
	<polygon class="st0" points="-180,32.7 -156.5,46.1 -125.5,31.5 -151.9,20.4 	"/>
	<polygon class="st0" points="-154,48.9 -154,63.7 -123.7,47.3 -123.7,34.3 	"/>
	<polygon class="st0" points="-118.1,30.4 -118.1,42.5 -87.1,61.2 -87.1,68.3 -72,53.5 	"/>
	<polygon class="st0" points="-196.5,46.1 -161.7,68.3 -191.1,80.6 -224.2,56.8 	"/>
	<polygon class="st0" points="-224.2,62.2 -194.4,83.5 -194.4,94.2 -224.2,68.3 	"/>
	<polygon class="st0" points="-190.6,84.5 -158.8,70.9 -158.8,82.7 -190.6,96.3 	"/>
	<polygon class="st0" points="-152.8,70.9 -152.8,83.6 -128.6,94.2 -128.6,80.6 	"/>
	<polygon class="st0" points="-152.8,66.9 -127.1,77.7 -94.8,62.5 -117.8,49 	"/>
	<polygon class="st0" points="-125.5,80.6 -93,63.7 -93,80.6 -125.5,94.2 	"/>
	<polygon class="st0" points="-155.8,85.5 -133.7,96.3 -172.7,112.1 -188.6,98.8 	"/>
	<polygon class="st0" points="-230.6,69.6 -180,112.1 -208.8,123.2 -252,87.5 	"/>
	<polygon class="st0" points="-166.3,113.4 -87.7,83.6 -81.7,111.3 -150.1,140.8 	"/>
	<polygon class="st0" points="-166.3,128.3 -154.4,147.4 -91,121.1 -91,150.6 -166.3,183.4 	"/>
	<polygon class="st0" points="-172.9,116.2 -172.9,182.3 -224.2,146.2 -224.2,117.4 -210,128.8 	"/>
</g>
<path class="st0" d="M163.1,169.5c7.7-2.2,14.2-6.6,19.3-12.7c13.9-17.2,8.1-42.4-12-53c-6.4-3.4-12.9-5.8-19.7-8.6
	c-3.7-1.5-7.5-3.4-10.7-5.8c-6.4-5.1-5.3-13.3,2.1-16.7c2.1-0.9,4.3-1.3,6.6-1.5c8.6-0.6,16.9,0.9,24.7,4.5c3.9,1.9,5.3,1.1,6.4-2.8
	c1.3-4.3,2.4-8.6,3.6-12.9c0.8-3-0.2-4.9-3-6c-5.1-2.1-10.1-3.6-15.6-4.3c-7.1-0.9-7.1-0.9-7.1-8.1c-0.2-9.9-0.2-9.9-10.1-9.9
	c-1.5,0-3,0-4.3,0c-4.7,0.2-5.4,0.9-5.4,5.8c0,2.1,0,4.3,0,6.4c0,6.2,0,6.2-6,8.4c-14.4,5.4-23.2,15.6-24,31.3
	c-0.6,14.1,6.7,23.4,18.4,30c7.1,4.1,15,6.6,22.5,9.7c3,1.3,5.8,2.6,8.2,4.7c7.3,5.8,6.2,15.7-2.4,19.7c-4.5,2.1-9.4,2.6-14.4,2.1
	c-7.7-0.9-15-2.8-21.9-6.2c-4.1-2.1-5.2-1.5-6.6,3c-1.1,3.7-2.1,7.7-3.2,11.4c-1.3,5.3-0.8,6.4,4.1,8.6c6.4,3,12.9,4.3,19.9,5.4
	c5.4,0.8,5.4,0.9,5.6,6.6c0,2.4,0.2,5.1,0.2,7.5c0,3.2,1.7,5.1,4.9,5.1c3.7,0,7.5,0,11.1-0.2c3-0.2,4.5-1.9,4.5-4.9
	c0-3.4,0-6.9-0.2-10.3C158.2,172.1,159.7,170.4,163.1,169.5z M102.2,110.2c-0.4-0.6-0.9-1.1-1.3-1.7c-2.4-3.7-4.1-7.7-5.3-11.8
	C88.1,103.7,78,108,67,108c-23.2,0-42.2-18.9-42.2-42.2c0-23.2,18.9-42.2,42.2-42.2c18.6,0,34.3,12,39.9,28.7
	c3.4-3.6,7.5-6.6,12.2-9C110.3,23.1,90.2,9,66.8,9C35.5,9,10,34.5,10,65.8c0,31.3,25.5,56.8,56.8,56.8
	C80.3,122.6,92.5,117.9,102.2,110.2z M59.7,66.8C59.7,66.8,59.7,66.6,59.7,66.8c0-0.4,0-0.6,0-0.8l1.9-29.8c0-0.2,0-0.2,0-0.4
	c0.4-2.4,2.4-4.3,4.9-4.3c2.6,0,4.7,1.9,4.9,4.5L73,63c0,0.7,0.4,1.5,0.9,2.2l12,14.4l0.2,0.2c1.5,1.9,1.3,4.7-0.4,6.4
	c-1.9,1.9-4.7,1.9-6.6,0.2L62.5,72.4c-0.4-0.2-0.6-0.6-0.9-0.8C60.2,70.5,59.7,68.6,59.7,66.8L59.7,66.8z"/>
</svg>
