<?xml version="1.0" encoding="utf-8"?>
<!-- Generator: Adobe Illustrator 19.1.0, SVG Export Plug-In . SVG Version: 6.00 Build 0)  -->
<svg version="1.1" id="Layer_1" xmlns="http://www.w3.org/2000/svg" xmlns:xlink="http://www.w3.org/1999/xlink" x="0px" y="0px"
	 viewBox="0 0 200 200" style="enable-background:new 0 0 200 200;" xml:space="preserve">
<style type="text/css">
	.st0{fill:#F5F5F5;}
</style>
<g>
	<path class="st0" d="M76.4,343.6v-76.1l65.6,37.9L76.4,343.6z M100,215c-49.5,0-90,40.5-90,90s40.5,90,90,90s90-40.5,90-90
		S149.5,215,100,215z"/>
</g>
<g>
	<path class="st0" d="M84.8,36.5c-0.1-0.6-0.3-1.2-0.5-1.7l-29.7,6.1l-1.6-7.9l26.4-5.4c-0.9-0.9-1.8-1.8-2.8-2.6l-27.2,5.5l2.9,14
		l32.8-6.7C84.9,37.4,84.9,37,84.8,36.5z"/>
	<path class="st0" d="M128.6,27.5c0.5,1.1,1,2.2,1.3,3.3l17.6,2.7l-1.2,8l-14.9-2.3c0,1-0.2,2.1-0.4,3.1l17.9,2.7l2.2-14.2
		L128.6,27.5z"/>
	<polygon class="st0" points="28.5,59.9 71.7,51 72.3,54.1 29.1,62.9 	"/>
	<path class="st0" d="M73.6,61.4l-43,8.8l0.6,3l42.7-8.7C73.7,63.5,73.6,62.5,73.6,61.4z"/>
	<path class="st0" d="M113,60.7c-0.7,1-1.1,2-1.3,3l56.8,8.6l0.5-3.1L113,60.7z"/>
	<path class="st0" d="M77.4,71.4l-44.6,9.1l0.6,3L80.1,74C79.1,73.2,78.2,72.4,77.4,71.4z"/>
	<path class="st0" d="M114,71.6c0.8,1.2,1.6,2.4,2.4,3.5l50.5,7.6l0.5-3.1L114,71.6z"/>
	<path class="st0" d="M87.3,80.2L34.8,90.9l0.6,3l53.7-11C88.6,82,88,81,87.3,80.2z"/>
	<path class="st0" d="M119.6,83.1c0.2,1.1,0.2,2.1,0.2,3.2l45.5,6.9l0.5-3.1L119.6,83.1z"/>
	<path class="st0" d="M89.7,90.7c0-0.1,0-0.2,0.1-0.3l-52.8,10.8l0.6,3.1l51.2-10.5C89.1,92.8,89.5,91.8,89.7,90.7z"/>
	<path class="st0" d="M118.1,93.5c-0.1,0.2-0.2,0.4-0.3,0.7c-0.4,0.8-0.8,1.5-1.3,2.2l47.2,7.2l0.5-3.1L118.1,93.5z"/>
	<path class="st0" d="M84.4,102.9c0.1-0.2,0.2-0.5,0.3-0.7L39,111.5l0.6,3l43.6-8.9C83.6,104.7,84,103.8,84.4,102.9z"/>
	<path class="st0" d="M110.1,103c-1,0.9-2,1.8-2.9,2.7l55,8.3l0.5-3.1L110.1,103z"/>
	<path class="st0" d="M81.7,113.6l-40.5,8.3l0.6,3l40-8.2C81.6,115.7,81.6,114.7,81.7,113.6z"/>
	<path class="st0" d="M102,112.4c-0.4,1-0.7,2-0.8,3l59.4,9l0.5-3.1L102,112.4z"/>
	<path class="st0" d="M85,123.7l-41.8,8.5l0.6,3l43.4-8.9C86.5,125.5,85.7,124.6,85,123.7z"/>
	<path class="st0" d="M102.8,123.2c0.6,1.2,1.2,2.3,1.8,3.4l54.4,8.3l0.5-3.1L102.8,123.2z"/>
	<path class="st0" d="M93.4,132.7l-48.1,9.8l0.6,3l48.9-10C94.6,134.6,94.1,133.7,93.4,132.7z"/>
	<path class="st0" d="M121,12.6C121,12.7,121,12.7,121,12.6c0.9,1.9,1.9,3.8,2.9,5.7l60.3,9.1l-23.3,154c0,0-66.2-9.4-66.4-9.8
		l-47.1,9.6L16.1,28.7L68.2,18c-0.5-0.4-1.6-3.4-2-4.9L10,24.6l33.2,162.7l53-10.8c0,0.1,68.9,10.8,68.9,10.8L190,23.1L121,12.6z"/>
	<path class="st0" d="M130.1,157.6c-2.1,1-4.1,2.2-6.1,3.5c-1.6-1.7-3.3-3.4-5.1-4.9c-1.4-1.2-3.4,0.7-2.1,2.1
		c1.5,1.5,2.9,3,4.4,4.5c-1.8,1.1-3.7,2.2-5.4,3.5c-1.5,1.1-0.2,3.5,1.5,2.5c2.1-1.2,4.1-2.5,6.2-3.7c1.7,1.7,3.4,3.4,5,5.2
		c1.3,1.4,3.3-0.6,2.1-2.1c-1.4-1.7-2.9-3.2-4.3-4.8c1.8-1.1,3.6-2.2,5.4-3.2C133.2,159.2,131.8,156.8,130.1,157.6z"/>
</g>
<g>
	<path class="st0" d="M306,74c-6.9,0-13.5,2.7-18.4,7.6C282.7,86.5,280,93,280,100s2.7,13.5,7.6,18.4c4.9,4.9,11.4,7.6,18.4,7.6
		s13.5-2.7,18.4-7.6c4.9-4.9,7.6-11.4,7.6-18.4s-2.7-13.5-7.6-18.4C319.5,76.7,312.9,74,306,74z M306,134c-9.1,0-17.6-3.5-24-10
		c-6.4-6.4-10-15-10-24s3.5-17.6,10-24c6.4-6.4,15-10,24-10c9.1,0,17.6,3.5,24,10c6.4,6.4,10,15,10,24s-3.5,17.6-10,24
		C323.6,130.5,315.1,134,306,134z M273,154c1.6,0,3.2,0.4,4.6,1.1c3,1.6,6.2,2.9,9.4,3.9c4.2,1.3,7,5.2,7,9.5v10.8
		c0,1,0.7,1.9,1.8,2c6.8,0.8,13.7,0.8,20.5,0c1-0.1,1.7-1,1.7-2v-10.8c0-4.4,2.8-8.2,7-9.5c3.2-1,6.4-2.3,9.4-3.9
		c3.8-2,8.6-1.2,11.7,1.8l7.6,7.6c0.4,0.4,0.9,0.6,1.4,0.6c0.3,0,0.8-0.1,1.2-0.4c5.4-4.2,10.3-9.1,14.5-14.5
		c0.6-0.8,0.6-1.9-0.2-2.6L363,140c-3.1-3.1-3.8-7.8-1.8-11.6c1.6-3,2.9-6.2,3.9-9.4c1.3-4.2,5.2-7,9.5-7h10.8c1,0,1.9-0.7,2-1.8
		c0.9-6.8,0.9-13.7,0-20.5c-0.1-1-1-1.7-2-1.7h-10.8c-4.4,0-8.2-2.8-9.5-7c-1-3.2-2.3-6.4-3.9-9.4c-2-3.9-1.3-8.6,1.8-11.6l7.6-7.6
		c0.7-0.7,0.8-1.8,0.2-2.6c-4.2-5.4-9.1-10.3-14.5-14.5c-0.5-0.4-0.9-0.4-1.2-0.4c-0.5,0-1,0.2-1.4,0.6L346,43
		c-3,3-7.8,3.8-11.6,1.8c-3-1.6-6.2-2.9-9.4-3.9c-4.2-1.3-7-5.2-7-9.5V20.6c0-1-0.7-1.9-1.8-2c-6.8-0.8-13.7-0.8-20.5,0
		c-1,0.1-1.7,1-1.7,2v10.8c0,4.4-2.8,8.2-7,9.5c-3.2,1-6.4,2.3-9.4,3.9c-3.8,2-8.6,1.2-11.7-1.8l-7.6-7.6c-0.4-0.4-0.9-0.6-1.4-0.6
		c-0.3,0-0.8,0.1-1.2,0.4c-5.4,4.2-10.3,9.1-14.5,14.5c-0.6,0.8-0.6,1.9,0.2,2.6L249,60c3.1,3.1,3.8,7.8,1.8,11.6
		c-1.6,3-2.9,6.2-3.9,9.4c-1.3,4.2-5.2,7-9.5,7h-10.8c-1,0-1.9,0.7-2,1.8c-0.9,6.8-0.9,13.7,0,20.5c0.1,1,1,1.7,2,1.7h10.8
		c4.4,0,8.2,2.8,9.5,7c1,3.2,2.3,6.4,3.9,9.4c2,3.9,1.3,8.6-1.8,11.7l-7.6,7.6c-0.7,0.7-0.8,1.8-0.2,2.6c4.2,5.4,9.1,10.3,14.5,14.5
		c0.5,0.4,0.9,0.4,1.2,0.4c0.5,0,1-0.2,1.4-0.6l7.6-7.6C267.9,155.1,270.4,154,273,154z M306,190c-3.7,0-7.5-0.2-11.2-0.7
		c-5-0.6-8.8-4.9-8.8-9.9v-10.8c0-0.9-0.5-1.6-1.4-1.9c-3.6-1.2-7.2-2.6-10.6-4.4c-0.8-0.4-1.7-0.3-2.3,0.4l-7.6,7.6
		c-1.9,1.9-4.4,2.9-7.1,2.9c-2.2,0-4.4-0.7-6.1-2.1c-5.9-4.6-11.3-10-15.9-15.9c-3.1-4-2.7-9.7,0.8-13.2l7.6-7.6
		c0.6-0.6,0.8-1.5,0.4-2.3c-1.7-3.4-3.2-7-4.4-10.6c-0.3-0.9-1-1.4-1.9-1.4h-10.8c-5,0-9.3-3.8-9.9-8.8c-0.9-7.5-0.9-15,0-22.5
		c0.6-5,4.9-8.8,9.9-8.8h10.8c0.9,0,1.6-0.5,1.9-1.4c1.2-3.6,2.6-7.2,4.4-10.6c0.4-0.8,0.3-1.7-0.4-2.3l-7.6-7.6
		c-3.6-3.6-3.9-9.2-0.8-13.2c4.6-5.9,10-11.3,15.9-15.9c1.7-1.4,3.9-2.1,6.1-2.1c2.7,0,5.2,1,7.1,2.9l7.6,7.6
		c0.6,0.6,1.5,0.8,2.3,0.4c3.4-1.7,7-3.2,10.6-4.4c0.9-0.3,1.4-1,1.4-1.9V20.6c0-5,3.8-9.3,8.8-9.9c7.4-0.9,15.1-0.9,22.5,0
		c5,0.6,8.8,4.9,8.8,9.9v10.8c0,0.9,0.5,1.6,1.4,1.9c3.6,1.2,7.2,2.6,10.6,4.4c0.8,0.4,1.7,0.3,2.3-0.4l7.6-7.6
		c1.9-1.9,4.4-2.9,7.1-2.9c2.2,0,4.4,0.7,6.1,2.1c5.9,4.6,11.3,10,15.9,15.9c3.1,4,2.7,9.7-0.8,13.2l-7.6,7.6
		c-0.6,0.6-0.8,1.5-0.4,2.3c1.7,3.4,3.2,7,4.4,10.6c0.3,0.9,1,1.4,1.9,1.4h10.8c5,0,9.3,3.8,9.9,8.8c0.9,7.5,0.9,15,0,22.5
		c-0.6,5-4.9,8.8-9.9,8.8h-10.8c-0.9,0-1.6,0.5-1.9,1.4c-1.2,3.6-2.6,7.2-4.4,10.6c-0.4,0.8-0.3,1.7,0.4,2.3l7.6,7.6
		c3.6,3.6,3.9,9.2,0.8,13.2c-4.6,5.9-10,11.3-15.9,15.9c-1.7,1.4-3.9,2.1-6.1,2.1c-2.7,0-5.2-1-7.1-2.9l-7.6-7.6
		c-0.6-0.6-1.5-0.8-2.3-0.4c-3.4,1.7-7,3.2-10.6,4.4c-0.9,0.3-1.4,1-1.4,1.9v10.8c0,5-3.8,9.3-8.8,9.9
		C313.5,189.8,309.7,190,306,190z"/>
</g>
<g>
	<polygon class="st0" points="-228,65.3 -235.7,48.4 -157.5,16.6 -186.5,30.7 -186.5,47.7 -196.5,41.3 -227.2,54 	"/>
	<polygon class="st0" points="-182.4,36.3 -182.4,50.7 -158.8,65.3 -158.8,49.1 	"/>
	<polygon class="st0" points="-180,32.7 -156.5,46.1 -125.5,31.5 -151.9,20.4 	"/>
	<polygon class="st0" points="-154,48.9 -154,63.7 -123.7,47.3 -123.7,34.3 	"/>
	<polygon class="st0" points="-118.1,30.4 -118.1,42.5 -87.1,61.2 -87.1,68.3 -72,53.5 	"/>
	<polygon class="st0" points="-196.5,46.1 -161.7,68.3 -191.1,80.6 -224.2,56.8 	"/>
	<polygon class="st0" points="-224.2,62.2 -194.4,83.5 -194.4,94.2 -224.2,68.3 	"/>
	<polygon class="st0" points="-190.6,84.5 -158.8,70.9 -158.8,82.7 -190.6,96.3 	"/>
	<polygon class="st0" points="-152.8,70.9 -152.8,83.6 -128.6,94.2 -128.6,80.6 	"/>
	<polygon class="st0" points="-152.8,66.9 -127.1,77.7 -94.8,62.5 -117.8,49 	"/>
	<polygon class="st0" points="-125.5,80.6 -93,63.7 -93,80.6 -125.5,94.2 	"/>
	<polygon class="st0" points="-155.8,85.5 -133.7,96.3 -172.7,112.1 -188.6,98.8 	"/>
	<polygon class="st0" points="-230.6,69.6 -180,112.1 -208.8,123.2 -252,87.5 	"/>
	<polygon class="st0" points="-166.3,113.4 -87.7,83.6 -81.7,111.3 -150.1,140.8 	"/>
	<polygon class="st0" points="-166.3,128.3 -154.4,147.4 -91,121.1 -91,150.6 -166.3,183.4 	"/>
	<polygon class="st0" points="-172.9,116.2 -172.9,182.3 -224.2,146.2 -224.2,117.4 -210,128.8 	"/>
</g>
</svg>
