<?xml version="1.0" encoding="utf-8"?>
<!-- Generator: Adobe Illustrator 19.1.0, SVG Export Plug-In . SVG Version: 6.00 Build 0)  -->
<svg version="1.1" id="Layer_1" xmlns="http://www.w3.org/2000/svg" xmlns:xlink="http://www.w3.org/1999/xlink" x="0px" y="0px"
	 viewBox="0 0 200 200" style="enable-background:new 0 0 200 200;" xml:space="preserve">
<style type="text/css">
	.st0{fill:#F5F5F5;}
</style>
<g>
	<path class="st0" d="M76.4,358v-76.1l65.6,37.9L76.4,358z M100,229.3c-49.5,0-90,40.5-90,90s40.5,90,90,90s90-40.5,90-90
		S149.5,229.3,100,229.3z"/>
</g>
<g>
	<path class="st0" d="M84.8-176.8c-0.1-0.6-0.3-1.2-0.5-1.7l-29.7,6.1l-1.6-7.9l26.4-5.4c-0.9-0.9-1.8-1.8-2.8-2.6l-27.2,5.5l2.9,14
		l32.8-6.7C84.9-175.9,84.9-176.4,84.8-176.8z"/>
	<path class="st0" d="M128.6-185.8c0.5,1.1,1,2.2,1.3,3.3l17.6,2.7l-1.2,8l-14.9-2.3c0,1-0.2,2.1-0.4,3.1l17.9,2.7l2.2-14.2
		L128.6-185.8z"/>
	<polygon class="st0" points="28.5,-153.5 71.7,-162.3 72.3,-159.2 29.1,-150.4 	"/>
	<path class="st0" d="M73.6-151.9l-43,8.8l0.6,3l42.7-8.7C73.7-149.8,73.6-150.8,73.6-151.9z"/>
	<path class="st0" d="M113-152.6c-0.7,1-1.1,2-1.3,3l56.8,8.6l0.5-3.1L113-152.6z"/>
	<path class="st0" d="M77.4-141.9l-44.6,9.1l0.6,3l46.7-9.5C79.1-140.1,78.2-141,77.4-141.9z"/>
	<path class="st0" d="M114-141.7c0.8,1.2,1.6,2.4,2.4,3.5l50.5,7.6l0.5-3.1L114-141.7z"/>
	<path class="st0" d="M87.3-133.1l-52.4,10.7l0.6,3l53.7-11C88.6-131.4,88-132.3,87.3-133.1z"/>
	<path class="st0" d="M119.6-130.2c0.2,1.1,0.2,2.1,0.2,3.2l45.5,6.9l0.5-3.1L119.6-130.2z"/>
	<path class="st0" d="M89.7-122.6c0-0.1,0-0.2,0.1-0.3l-52.8,10.8l0.6,3.1l51.2-10.5C89.1-120.5,89.5-121.5,89.7-122.6z"/>
	<path class="st0" d="M118.1-119.8c-0.1,0.2-0.2,0.4-0.3,0.7c-0.4,0.8-0.8,1.5-1.3,2.2l47.2,7.2l0.5-3.1L118.1-119.8z"/>
	<path class="st0" d="M84.4-110.4c0.1-0.2,0.2-0.5,0.3-0.7L39-101.8l0.6,3l43.6-8.9C83.6-108.6,84-109.5,84.4-110.4z"/>
	<path class="st0" d="M110.1-110.3c-1,0.9-2,1.8-2.9,2.7l55,8.3l0.5-3.1L110.1-110.3z"/>
	<path class="st0" d="M81.7-99.7l-40.5,8.3l0.6,3l40-8.2C81.6-97.6,81.6-98.6,81.7-99.7z"/>
	<path class="st0" d="M102-100.9c-0.4,1-0.7,2-0.8,3l59.4,9l0.5-3.1L102-100.9z"/>
	<path class="st0" d="M85-89.6l-41.8,8.5l0.6,3l43.4-8.9C86.5-87.8,85.7-88.7,85-89.6z"/>
	<path class="st0" d="M102.8-90.1c0.6,1.2,1.2,2.3,1.8,3.4l54.4,8.3l0.5-3.1L102.8-90.1z"/>
	<path class="st0" d="M93.4-80.6l-48.1,9.8l0.6,3l48.9-10C94.6-78.7,94.1-79.6,93.4-80.6z"/>
	<path class="st0" d="M121-200.7C121-200.7,121-200.6,121-200.7c0.9,1.9,1.9,3.8,2.9,5.7l60.3,9.1l-23.3,154c0,0-66.2-9.4-66.4-9.8
		L47.3-32L16.1-184.7l52.1-10.6c-0.5-0.4-1.6-3.4-2-4.9L10-188.7L43.2-25.9l53-10.8c0,0.1,68.9,10.8,68.9,10.8L190-190.2L121-200.7z
		"/>
	<path class="st0" d="M130.1-55.7c-2.1,1-4.1,2.2-6.1,3.5c-1.6-1.7-3.3-3.4-5.1-4.9c-1.4-1.2-3.4,0.7-2.1,2.1c1.5,1.5,2.9,3,4.4,4.5
		c-1.8,1.1-3.7,2.2-5.4,3.5c-1.5,1.1-0.2,3.5,1.5,2.5c2.1-1.2,4.1-2.5,6.2-3.7c1.7,1.7,3.4,3.4,5,5.2c1.3,1.4,3.3-0.6,2.1-2.1
		c-1.4-1.7-2.9-3.2-4.3-4.8c1.8-1.1,3.6-2.2,5.4-3.2C133.2-54.1,131.8-56.5,130.1-55.7z"/>
</g>
<g>
	<path class="st0" d="M342.3,74c-6.9,0-13.5,2.7-18.4,7.6c-4.9,4.9-7.6,11.4-7.6,18.4s2.7,13.5,7.6,18.4c4.9,4.9,11.4,7.6,18.4,7.6
		c6.9,0,13.5-2.7,18.4-7.6c4.9-4.9,7.6-11.4,7.6-18.4s-2.7-13.5-7.6-18.4C355.8,76.7,349.3,74,342.3,74z M342.3,134
		c-9.1,0-17.6-3.5-24-10c-6.4-6.4-10-15-10-24s3.5-17.6,10-24c6.4-6.4,15-10,24-10c9.1,0,17.6,3.5,24,10c6.4,6.4,10,15,10,24
		s-3.5,17.6-10,24C360,130.5,351.4,134,342.3,134z M309.4,154c1.6,0,3.2,0.4,4.6,1.1c3,1.6,6.2,2.9,9.4,3.9c4.2,1.3,7,5.2,7,9.5
		v10.8c0,1,0.7,1.9,1.8,2c6.8,0.8,13.7,0.8,20.5,0c1-0.1,1.7-1,1.7-2v-10.8c0-4.4,2.8-8.2,7-9.5c3.2-1,6.4-2.3,9.4-3.9
		c3.8-2,8.6-1.2,11.7,1.8l7.6,7.6c0.4,0.4,0.9,0.6,1.4,0.6c0.3,0,0.8-0.1,1.2-0.4c5.4-4.2,10.3-9.1,14.5-14.5
		c0.6-0.8,0.6-1.9-0.2-2.6l-7.6-7.6c-3.1-3.1-3.8-7.8-1.8-11.6c1.6-3,2.9-6.2,3.9-9.4c1.3-4.2,5.2-7,9.5-7h10.8c1,0,1.9-0.7,2-1.8
		c0.9-6.8,0.9-13.7,0-20.5c-0.1-1-1-1.7-2-1.7h-10.8c-4.4,0-8.2-2.8-9.5-7c-1-3.2-2.3-6.4-3.9-9.4c-2-3.9-1.3-8.6,1.8-11.6l7.6-7.6
		c0.7-0.7,0.8-1.8,0.2-2.6c-4.2-5.4-9.1-10.3-14.5-14.5c-0.5-0.4-0.9-0.4-1.2-0.4c-0.5,0-1,0.2-1.4,0.6l-7.6,7.6
		c-3,3-7.8,3.8-11.6,1.8c-3-1.6-6.2-2.9-9.4-3.9c-4.2-1.3-7-5.2-7-9.5V20.6c0-1-0.7-1.9-1.8-2c-6.8-0.8-13.7-0.8-20.5,0
		c-1,0.1-1.7,1-1.7,2v10.8c0,4.4-2.8,8.2-7,9.5c-3.2,1-6.4,2.3-9.4,3.9c-3.8,2-8.6,1.2-11.7-1.8l-7.6-7.6c-0.4-0.4-0.9-0.6-1.4-0.6
		c-0.3,0-0.8,0.1-1.2,0.4c-5.4,4.2-10.3,9.1-14.5,14.5c-0.6,0.8-0.6,1.9,0.2,2.6l7.6,7.6c3.1,3.1,3.8,7.8,1.8,11.6
		c-1.6,3-2.9,6.2-3.9,9.4c-1.3,4.2-5.2,7-9.5,7H263c-1,0-1.9,0.7-2,1.8c-0.9,6.8-0.9,13.7,0,20.5c0.1,1,1,1.7,2,1.7h10.8
		c4.4,0,8.2,2.8,9.5,7c1,3.2,2.3,6.4,3.9,9.4c2,3.9,1.3,8.6-1.8,11.7l-7.6,7.6c-0.7,0.7-0.8,1.8-0.2,2.6c4.2,5.4,9.1,10.3,14.5,14.5
		c0.5,0.4,0.9,0.4,1.2,0.4c0.5,0,1-0.2,1.4-0.6l7.6-7.6C304.2,155.1,306.7,154,309.4,154z M342.3,190c-3.7,0-7.5-0.2-11.2-0.7
		c-5-0.6-8.8-4.9-8.8-9.9v-10.8c0-0.9-0.5-1.6-1.4-1.9c-3.6-1.2-7.2-2.6-10.6-4.4c-0.8-0.4-1.7-0.3-2.3,0.4l-7.6,7.6
		c-1.9,1.9-4.4,2.9-7.1,2.9c-2.2,0-4.4-0.7-6.1-2.1c-5.9-4.6-11.3-10-15.9-15.9c-3.1-4-2.7-9.7,0.8-13.2l7.6-7.6
		c0.6-0.6,0.8-1.5,0.4-2.3c-1.7-3.4-3.2-7-4.4-10.6c-0.3-0.9-1-1.4-1.9-1.4H263c-5,0-9.3-3.8-9.9-8.8c-0.9-7.5-0.9-15,0-22.5
		c0.6-5,4.9-8.8,9.9-8.8h10.8c0.9,0,1.6-0.5,1.9-1.4c1.2-3.6,2.6-7.2,4.4-10.6c0.4-0.8,0.3-1.7-0.4-2.3l-7.6-7.6
		c-3.6-3.6-3.9-9.2-0.8-13.2c4.6-5.9,10-11.3,15.9-15.9c1.7-1.4,3.9-2.1,6.1-2.1c2.7,0,5.2,1,7.1,2.9l7.6,7.6
		c0.6,0.6,1.5,0.8,2.3,0.4c3.4-1.7,7-3.2,10.6-4.4c0.9-0.3,1.4-1,1.4-1.9V20.6c0-5,3.8-9.3,8.8-9.9c7.4-0.9,15.1-0.9,22.5,0
		c5,0.6,8.8,4.9,8.8,9.9v10.8c0,0.9,0.5,1.6,1.4,1.9c3.6,1.2,7.2,2.6,10.6,4.4c0.8,0.4,1.7,0.3,2.3-0.4l7.6-7.6
		c1.9-1.9,4.4-2.9,7.1-2.9c2.2,0,4.4,0.7,6.1,2.1c5.9,4.6,11.3,10,15.9,15.9c3.1,4,2.7,9.7-0.8,13.2l-7.6,7.6
		c-0.6,0.6-0.8,1.5-0.4,2.3c1.7,3.4,3.2,7,4.4,10.6c0.3,0.9,1,1.4,1.9,1.4h10.8c5,0,9.3,3.8,9.9,8.8c0.9,7.5,0.9,15,0,22.5
		c-0.6,5-4.9,8.8-9.9,8.8h-10.8c-0.9,0-1.6,0.5-1.9,1.4c-1.2,3.6-2.6,7.2-4.4,10.6c-0.4,0.8-0.3,1.7,0.4,2.3l7.6,7.6
		c3.6,3.6,3.9,9.2,0.8,13.2c-4.6,5.9-10,11.3-15.9,15.9c-1.7,1.4-3.9,2.1-6.1,2.1c-2.7,0-5.2-1-7.1-2.9l-7.6-7.6
		c-0.6-0.6-1.5-0.8-2.3-0.4c-3.4,1.7-7,3.2-10.6,4.4c-0.9,0.3-1.4,1-1.4,1.9v10.8c0,5-3.8,9.3-8.8,9.9
		C349.9,189.8,346.1,190,342.3,190z"/>
</g>
<g>
	<polygon class="st0" points="34,65.3 26.3,48.4 104.5,16.6 75.5,30.7 75.5,47.7 65.5,41.3 34.8,54 	"/>
	<polygon class="st0" points="79.6,36.3 79.6,50.7 103.2,65.3 103.2,49.1 	"/>
	<polygon class="st0" points="82,32.7 105.5,46.1 136.5,31.5 110.1,20.4 	"/>
	<polygon class="st0" points="108,48.9 108,63.7 138.3,47.3 138.3,34.3 	"/>
	<polygon class="st0" points="143.9,30.4 143.9,42.5 174.9,61.2 174.9,68.3 190,53.5 	"/>
	<polygon class="st0" points="65.5,46.1 100.3,68.3 70.9,80.6 37.8,56.8 	"/>
	<polygon class="st0" points="37.8,62.2 67.6,83.5 67.6,94.2 37.8,68.3 	"/>
	<polygon class="st0" points="71.4,84.5 103.2,70.9 103.2,82.7 71.4,96.3 	"/>
	<polygon class="st0" points="109.2,70.9 109.2,83.6 133.4,94.2 133.4,80.6 	"/>
	<polygon class="st0" points="109.2,66.9 134.9,77.7 167.2,62.5 144.2,49 	"/>
	<polygon class="st0" points="136.5,80.6 169,63.7 169,80.6 136.5,94.2 	"/>
	<polygon class="st0" points="106.2,85.5 128.3,96.3 89.3,112.1 73.4,98.8 	"/>
	<polygon class="st0" points="31.4,69.6 82,112.1 53.2,123.2 10,87.5 	"/>
	<polygon class="st0" points="95.7,113.4 174.3,83.6 180.3,111.3 111.9,140.8 	"/>
	<polygon class="st0" points="95.7,128.3 107.6,147.4 171,121.1 171,150.6 95.7,183.4 	"/>
	<polygon class="st0" points="89.1,116.2 89.1,182.3 37.8,146.2 37.8,117.4 52,128.8 	"/>
</g>
</svg>
