<?xml version="1.0" encoding="utf-8"?>
<!-- Generator: Adobe Illustrator 19.1.0, SVG Export Plug-In . SVG Version: 6.00 Build 0)  -->
<svg version="1.1" id="Layer_1" xmlns="http://www.w3.org/2000/svg" xmlns:xlink="http://www.w3.org/1999/xlink" x="0px" y="0px"
	 viewBox="0 0 210.1 54.5" style="enable-background:new 0 0 210.1 54.5;" xml:space="preserve">
<style type="text/css">
	.st0{fill:#F5F5F5;}
	.st1{fill-rule:evenodd;clip-rule:evenodd;fill:#F5F5F5;}
</style>
<g>
	<g>
		<path class="st0" d="M44.9,40.4h-7v-16c0-0.4-0.1-0.9-0.2-1.5c-0.1-0.6-0.3-1.2-0.7-1.7s-0.9-1-1.5-1.4c-0.7-0.4-1.6-0.6-2.8-0.6
			c-1.6,0-2.8,0.5-3.8,1.4c-1,1-1.5,2.2-1.5,3.8v16h-7v-16c0-0.4-0.1-0.9-0.2-1.5c-0.1-0.6-0.3-1.2-0.7-1.7c-0.3-0.6-0.8-1-1.5-1.4
			c-0.7-0.4-1.6-0.6-2.8-0.6c-1.6,0-2.9,0.5-3.9,1.4c-1,1-1.5,2.2-1.5,3.8v16h-7V24.5c0-1.7,0.3-3.4,0.9-4.8
			c0.6-1.5,1.4-2.8,2.5-3.9c1.1-1.1,2.4-2,3.9-2.6c1.5-0.6,3.2-0.9,5.1-0.9c1.9,0,3.6,0.3,5,1c1.5,0.7,2.7,1.6,3.7,2.8
			c1-1.2,2.3-2.2,3.8-2.8c1.5-0.7,3.1-1,5-1c1.9,0,3.6,0.3,5.1,0.9c1.5,0.6,2.8,1.4,3.8,2.5s1.8,2.4,2.4,3.9c0.6,1.5,0.8,3.1,0.8,5
			V40.4L44.9,40.4z"/>
		<path class="st1" d="M61.6,34.6c0.9,0,1.8-0.2,2.6-0.6c0.8-0.4,1.5-0.9,2.2-1.6c0.6-0.7,1.1-1.5,1.5-2.5c0.4-1,0.5-2,0.5-3.2
			c0-1.2-0.2-2.3-0.5-3.2c-0.4-1-0.8-1.8-1.5-2.6c-0.6-0.7-1.3-1.3-2.2-1.7c-0.8-0.4-1.7-0.6-2.6-0.6c-0.9,0-1.8,0.2-2.6,0.6
			c-0.8,0.4-1.6,0.9-2.2,1.7c-0.6,0.7-1.1,1.6-1.4,2.6c-0.4,1-0.5,2.1-0.5,3.2c0,1.2,0.2,2.2,0.5,3.2c0.4,1,0.8,1.8,1.4,2.5
			c0.6,0.7,1.3,1.2,2.2,1.6C59.8,34.4,60.7,34.6,61.6,34.6L61.6,34.6z M61.6,12.3c1.9,0,3.7,0.4,5.4,1.1c1.7,0.7,3.1,1.7,4.4,3
			c1.3,1.3,2.3,2.8,3,4.6c0.7,1.8,1.1,3.7,1.1,5.7c0,2.1-0.4,4-1.1,5.7c-0.7,1.7-1.7,3.2-3,4.5c-1.3,1.3-2.7,2.3-4.4,3
			c-1.7,0.7-3.5,1.1-5.4,1.1c-1.9,0-3.7-0.4-5.4-1.1c-1.7-0.7-3.1-1.7-4.4-3c-1.2-1.3-2.2-2.8-3-4.5c-0.7-1.7-1.1-3.6-1.1-5.7
			c0-2.1,0.4-4,1.1-5.7c0.7-1.8,1.7-3.3,3-4.6c1.2-1.3,2.7-2.3,4.4-3C57.9,12.6,59.7,12.3,61.6,12.3L61.6,12.3z"/>
		<path class="st1" d="M100.1,26.7c0-1.1-0.2-2.2-0.6-3.1c-0.4-1-0.9-1.8-1.5-2.5s-1.4-1.3-2.2-1.7c-0.9-0.4-1.8-0.6-2.7-0.6
			s-1.9,0.2-2.7,0.6c-0.9,0.4-1.6,1-2.2,1.7c-0.6,0.7-1.1,1.5-1.5,2.5c-0.4,1-0.6,2-0.6,3.1c0,1.1,0.2,2.1,0.6,3
			c0.4,0.9,0.9,1.8,1.5,2.4c0.6,0.7,1.4,1.2,2.2,1.7c0.9,0.4,1.8,0.6,2.7,0.6s1.9-0.2,2.7-0.6c0.9-0.4,1.6-0.9,2.2-1.6
			c0.6-0.7,1.1-1.5,1.5-2.4C99.9,28.9,100.1,27.8,100.1,26.7L100.1,26.7z M107.1,26.7c0,2-0.3,3.9-1,5.6c-0.7,1.7-1.7,3.3-2.9,4.6
			c-1.2,1.3-2.7,2.3-4.4,3.1C97,40.6,95.1,41,93,41c-2.1,0-4-0.4-5.7-1.1c-1.7-0.7-3.2-1.8-4.4-3.1c-1.2-1.3-2.2-2.8-2.9-4.6
			c-0.7-1.7-1-3.6-1-5.6V0.8h7L86,15.5c1-1.1,2.2-1.9,3.6-2.4c1.3-0.5,2.8-0.8,4.4-0.8c1.8,0,3.5,0.4,5.1,1.1c1.6,0.7,3,1.8,4.2,3.1
			c1.2,1.3,2.1,2.8,2.8,4.6C106.8,22.9,107.1,24.7,107.1,26.7L107.1,26.7z"/>
		<polygon class="st0" points="118.3,40.4 111.2,40.4 111.2,12.9 118.3,12.9 118.3,40.4 		"/>
		<polygon class="st0" points="140.5,40.4 132.9,40.4 122.5,12.9 129.9,12.9 136.7,33.4 143.6,12.9 150.8,12.9 140.5,40.4 		"/>
		<polygon class="st0" points="162.1,40.4 155.1,40.4 155.1,12.9 162.1,12.9 162.1,40.4 		"/>
		<path class="st0" d="M179.2,40.3c-2,0.2-3.8,0.1-5.3-0.4c-1.5-0.5-2.8-1.2-3.8-2.2c-1-1-1.8-2.3-2.3-3.8c-0.5-1.5-0.8-3.2-0.8-5.1
			V6h7v7h5v6.2h-5v9.7c0,1.9,0.4,3.3,1.3,4c0.9,0.8,2.2,1.1,4,1V40.3L179.2,40.3z"/>
		<path class="st0" d="M207.2,41.5c0,1.8-0.3,3.5-0.9,5c-0.6,1.5-1.4,2.8-2.5,3.9c-1.1,1.1-2.3,1.9-3.8,2.5c-1.5,0.6-3.2,0.9-5,0.9
			c-1.5,0-2.9-0.2-4.3-0.7c-1.3-0.5-2.5-1.1-3.6-2c-1-0.9-1.9-1.9-2.6-3c-0.7-1.2-1.2-2.5-1.4-3.9h7.3c0.2,1,0.7,1.8,1.6,2.3
			c0.8,0.5,1.9,0.7,3.1,0.7c1,0,1.8-0.2,2.4-0.5c0.7-0.3,1.2-0.7,1.6-1.2c0.4-0.5,0.7-1.1,0.9-1.7c0.2-0.6,0.3-1.3,0.3-1.9v-3.2
			c-0.8,0.7-1.8,1.3-2.8,1.7c-1.1,0.4-2.2,0.6-3.5,0.6c-1.7,0-3.2-0.3-4.6-0.9c-1.4-0.6-2.6-1.4-3.5-2.4c-1-1-1.7-2.3-2.3-3.8
			c-0.5-1.5-0.8-3.1-0.8-4.9v-16h7v16c0,0.4,0.1,0.9,0.2,1.5c0.1,0.6,0.3,1.2,0.7,1.8c0.4,0.6,0.9,1.1,1.5,1.5
			c0.7,0.4,1.6,0.6,2.7,0.6c1.6,0,2.9-0.5,3.9-1.5c1-1,1.5-2.3,1.5-3.9v-16h7V41.5L207.2,41.5z"/>
		<path class="st0" d="M120.9,4.9c0-1.9,1.5-3.5,3.5-3.5s3.5,1.5,3.5,3.5s-1.5,3.5-3.5,3.5S120.9,6.8,120.9,4.9L120.9,4.9z"/>
		<path class="st0" d="M111.2,4.9c0-1.9,1.5-3.5,3.5-3.5c1.9,0,3.5,1.5,3.5,3.5s-1.5,3.5-3.5,3.5C112.8,8.4,111.2,6.8,111.2,4.9
			L111.2,4.9z"/>
		<path class="st0" d="M145,4.9c0-1.9,1.5-3.5,3.5-3.5c1.9,0,3.5,1.5,3.5,3.5s-1.5,3.5-3.5,3.5C146.6,8.4,145,6.8,145,4.9L145,4.9z"
			/>
		<path class="st0" d="M155.2,4.9c0-1.9,1.5-3.5,3.5-3.5c1.9,0,3.5,1.5,3.5,3.5s-1.5,3.5-3.5,3.5C156.7,8.4,155.2,6.8,155.2,4.9
			L155.2,4.9z"/>
	</g>
</g>
</svg>
